<svg width="797" height="589" viewBox="0 0 797 589" fill="none" xmlns="http://www.w3.org/2000/svg">
<g clip-path="url(#clip0)">
<path d="M939 552.48C939 520.313 922.678 494.237 902.543 494.237C889.888 494.237 878.743 504.542 872.206 520.182C869.998 519.265 867.631 518.79 865.239 518.784C859.145 518.784 853.51 521.907 848.915 527.192C843.022 507.691 830.528 494.237 816.065 494.237C802.543 494.237 790.749 506.008 784.456 523.477C780.959 520.526 776.553 518.869 771.978 518.784C756.526 518.784 744 538.796 744 563.483C743.936 571.712 745.432 579.879 748.408 587.551H931.648C936.261 577.795 939 565.65 939 552.48Z" fill="#6C63FF"/>
<path d="M717.543 223.252C694.964 174.406 650.775 132.737 597.393 125.945C583.279 124.15 568.542 124.87 555.447 130.433C538.257 137.735 525.588 152.474 512.783 166.07C485.673 194.849 455.335 220.407 422.37 242.238C406.101 253.01 388.65 263.06 369.333 265.816C330.603 271.341 292.293 244.93 274.63 210.022C263.596 188.215 258.498 162.613 249.578 139.932C239.306 139.912 227.067 139.916 213.9 139.977C177.505 140.144 147.88 140.682 147.88 140.682C147.88 140.682 183.093 94.0385 213.768 111.32C223.571 116.842 233.838 121.77 243.274 125.922C237.913 115.611 231.152 106.333 221.85 98.8735C203.508 84.1649 178.666 80.0392 155.181 81.1346C130.52 82.2848 105.632 88.8873 85.5928 103.307C49.8943 128.995 35.1523 174.21 22.5352 216.341L53.0327 231.63C66.1142 220.321 85.2433 209.133 102.875 219.067C133.55 236.348 168.787 247.822 168.787 247.822C168.787 247.822 139.403 247.556 103.007 247.724C96.8945 247.752 90.9801 247.791 85.3576 247.835L423.954 417.579C535.633 419.152 619.839 413.112 725.96 417.579C731.494 417.812 743.943 388.8 743.984 381.165C744.277 327.353 740.123 272.098 717.543 223.252ZM609.103 237.893C572.708 238.06 543.083 238.598 543.083 238.598C543.083 238.598 578.296 191.954 608.971 209.236C639.646 226.517 674.883 237.991 674.883 237.991C674.883 237.991 645.498 237.725 609.103 237.893L609.103 237.893Z" fill="#F2F2F2"/>
<path opacity="0.3" d="M791 437.737C791 414.348 776.519 395.388 758.656 395.388C747.429 395.388 737.541 402.881 731.742 414.253C729.75 413.581 727.663 413.238 725.561 413.237C720.125 413.329 714.936 415.519 711.078 419.35C705.851 405.171 694.765 395.388 681.935 395.388C669.938 395.388 659.475 403.947 653.891 416.648C650.616 414.45 646.766 413.264 642.822 413.237C629.113 413.237 618 427.788 618 445.737C617.96 451.791 619.297 457.775 621.911 463.237H784.477C788.836 455.45 791.085 446.66 791 437.737V437.737Z" fill="#6C63FF"/>
<path d="M939 589.237H-59V587.237H938L939 589.237Z" fill="#2F2E41"/>
<path d="M857 465.237H-141V463.237H856L857 465.237Z" fill="#2F2E41"/>
<path d="M282.629 281.137C282.629 281.137 288.915 235.043 299.391 247.614C309.866 260.185 299.391 279.042 299.391 279.042L291.01 289.517L282.629 283.232V281.137Z" fill="#FFB8B8"/>
<path d="M257.488 295.803C257.488 295.803 278.439 272.756 282.63 276.946C286.82 281.137 299.391 283.232 297.296 291.612C295.2 299.993 251.202 327.23 251.202 327.23L257.488 295.803Z" fill="#6C63FF"/>
<path opacity="0.1" d="M257.488 295.803C257.488 295.803 278.439 272.756 282.63 276.946C286.82 281.137 299.391 283.232 297.296 291.612C295.2 299.993 251.202 327.23 251.202 327.23L257.488 295.803Z" fill="black"/>
<path d="M138.064 293.708V310.469C138.064 310.469 135.968 348.182 148.539 346.087C161.11 343.991 154.825 312.564 154.825 312.564L152.73 293.708H138.064Z" fill="#FFB8B8"/>
<path d="M144.349 415.227C144.349 415.227 125.493 444.559 119.207 446.654C112.922 448.749 79.399 467.606 75.2087 486.462L45.8765 524.175L60.5426 543.032C60.5426 543.032 127.588 471.796 146.444 465.511C165.3 459.225 184.157 427.798 184.157 427.798L144.349 415.227Z" fill="#FFB8B8"/>
<path d="M293.106 367.038C293.106 367.038 332.914 373.324 326.628 398.466C320.343 423.607 259.583 475.986 259.583 475.986L257.488 488.557L234.441 492.748L223.965 482.272L226.06 475.986C226.06 475.986 251.202 452.94 253.298 444.559C255.393 436.178 278.439 402.656 288.915 400.561L274.249 392.18L293.106 367.038Z" fill="#FFB8B8"/>
<path d="M52.1619 524.175C52.1619 524.175 60.5426 511.604 47.9716 513.699C35.4007 515.795 27.02 517.89 27.02 526.27C27.02 534.651 37.4958 593.315 50.0668 589.125C62.6377 584.935 52.1619 566.078 52.1619 566.078C52.1619 566.078 58.4474 549.317 62.6377 547.222C66.828 545.127 66.828 534.651 62.6377 534.651C58.4474 534.651 50.0668 528.365 52.1619 524.175Z" fill="#2F2E41"/>
<path d="M230.25 478.082C230.25 478.082 230.25 467.606 221.87 478.082C213.489 488.557 209.299 496.938 217.679 503.224C226.06 509.509 255.392 524.175 255.392 524.175C255.392 524.175 286.82 530.461 282.629 515.794C282.629 515.794 261.678 505.319 261.678 496.938C261.678 488.557 261.678 473.891 255.392 478.082C249.107 482.272 230.25 484.367 230.25 478.082Z" fill="#2F2E41"/>
<path d="M190.442 320.945C190.442 320.945 161.11 325.135 163.205 367.038C163.205 367.038 125.492 404.751 135.968 417.322C146.444 429.893 169.491 452.94 177.871 446.654C186.252 440.369 211.394 392.18 211.394 392.18C211.394 392.18 270.058 413.132 280.534 402.656C291.01 392.18 301.486 367.038 301.486 367.038L249.107 339.801L190.442 320.945Z" fill="#2F2E41"/>
<path d="M272.154 201.521C286.039 201.521 297.296 190.264 297.296 176.379C297.296 162.493 286.039 151.237 272.154 151.237C258.268 151.237 247.012 162.493 247.012 176.379C247.012 190.264 258.268 201.521 272.154 201.521Z" fill="#FFB8B8"/>
<path d="M253.298 178.474C253.298 178.474 238.631 201.521 234.441 203.616C230.251 205.711 263.773 226.663 263.773 226.663C263.773 226.663 263.773 199.425 274.249 193.14L253.298 178.474Z" fill="#FFB8B8"/>
<path d="M251.202 201.521C251.202 201.521 217.68 191.045 211.394 207.806C205.109 224.567 190.443 255.995 192.538 276.946C194.633 297.898 198.823 293.708 192.538 299.993C186.252 306.279 182.062 302.088 184.157 310.469C186.252 318.85 188.348 318.85 186.252 323.04C184.157 327.23 211.394 341.896 234.441 343.991L257.488 346.087C257.488 346.087 257.488 308.374 261.678 299.993C265.869 291.612 274.249 274.851 274.249 268.566V251.935C274.249 240.866 271.36 229.988 265.869 220.377V220.377C265.869 220.377 253.298 201.521 251.202 201.521Z" fill="#6C63FF"/>
<path d="M226.06 209.901C226.06 209.901 148.539 216.187 140.159 237.138C131.778 258.09 127.588 299.993 135.969 299.993C144.349 299.993 154.825 304.183 156.92 299.993C159.015 295.803 167.396 253.9 169.491 253.9C171.586 253.9 234.441 247.614 234.441 247.614C234.441 247.614 261.678 214.092 226.06 209.901Z" fill="#6C63FF"/>
<path d="M273.164 170.146C273.164 170.146 279.836 158.551 288.176 168.622C296.516 178.693 310.083 160.186 308 156.237C305.917 152.288 298.562 156.414 285.958 152.294C273.354 148.174 249.073 139.78 245.007 167.161C240.941 194.543 250.625 191.672 250.625 191.672C250.625 191.672 255.064 167.409 259.076 174.379L263.089 181.348L266.569 182.205L273.164 170.146Z" fill="#2F2E41"/>
<path d="M510.309 105.988C527.25 105.988 540.983 92.2546 540.983 75.3136C540.983 58.3727 527.25 44.6393 510.309 44.6393C493.368 44.6393 479.634 58.3727 479.634 75.3136C479.634 92.2546 493.368 105.988 510.309 105.988Z" fill="#2F2E41"/>
<path d="M500.504 98.0181C500.504 98.0181 502.091 126.59 498.916 126.59C495.742 126.59 518.758 140.083 518.758 140.083L533.044 132.146V122.622C533.044 122.622 513.996 120.241 521.933 99.6054C529.869 78.97 500.504 98.0181 500.504 98.0181Z" fill="#9F616A"/>
<path d="M433.835 411.517L431.454 435.327L439.391 437.708L445.74 431.359L448.121 411.517H433.835Z" fill="#9F616A"/>
<path d="M548.124 425.01L552.092 440.089L563.203 447.232L575.109 440.883L561.616 418.66L548.124 425.01Z" fill="#9F616A"/>
<path d="M508.044 110.32C520.755 110.32 531.06 100.015 531.06 87.3036C531.06 74.592 520.755 64.2872 508.044 64.2872C495.332 64.2872 485.027 74.592 485.027 87.3036C485.027 100.015 495.332 110.32 508.044 110.32Z" fill="#9F616A"/>
<path d="M494.154 173.417L488.599 171.036C488.599 171.036 479.075 165.48 478.281 154.369C477.487 143.257 486.218 128.971 486.218 128.971L498.916 125.003L513.836 137.146L513.996 156.75L494.154 173.417Z" fill="#9F616A"/>
<path d="M488.598 130.559L485.424 128.971C485.424 128.971 469.55 128.178 467.963 147.226C466.376 166.274 460.82 198.02 460.82 198.02C460.82 198.02 448.121 220.243 448.915 244.053L442.566 264.689C442.566 264.689 433.835 294.848 444.153 294.848C454.471 294.848 453.677 262.308 453.677 262.308C453.677 262.308 472.725 216.275 474.312 208.338C475.9 200.401 489.392 163.099 485.424 152.781C481.455 142.464 488.598 130.559 488.598 130.559Z" fill="#9F616A"/>
<path d="M500.504 180.56V189.29C500.504 189.29 506.06 195.639 503.679 199.608C501.298 203.576 498.917 211.513 498.917 211.513L510.028 228.973L547.33 232.148L554.748 182.449L500.504 180.56Z" fill="#9F616A"/>
<path d="M535.425 125.003L541.774 121.828C541.774 121.828 555.267 112.304 566.378 110.717L600.506 87.7004L622.728 34.5246C622.728 34.5246 621.935 5.95255 628.284 9.12722C634.633 12.3019 633.84 36.9056 633.84 36.9056C633.84 36.9056 621.935 86.1131 611.617 99.6055C601.299 113.098 563.997 135.321 563.997 135.321C563.997 135.321 553.679 147.226 554.473 152.781C555.267 158.337 535.425 125.003 535.425 125.003Z" fill="#9F616A"/>
<path d="M506.059 211.513C506.059 211.513 497.329 205.957 491.773 215.481C486.218 225.005 475.9 227.386 469.55 255.958C463.201 284.53 448.121 329.77 444.153 332.944C440.185 336.119 423.518 369.453 433.042 416.279H448.915L462.407 348.818C462.407 348.818 506.059 294.848 509.234 272.625L523.52 355.96C523.52 355.96 524.313 387.707 536.219 402.787L548.917 432.946L565.584 425.01L546.536 348.817C546.536 348.817 556.06 271.832 549.711 250.403L548.799 222.309C548.799 222.309 522.726 223.418 506.059 211.513Z" fill="#2F2E41"/>
<path d="M439.391 431.359H429.867C428.28 431.359 415.581 441.677 421.137 447.232C426.693 452.788 435.423 463.106 435.423 463.106C435.423 463.106 466.376 467.042 467.17 461.487C467.963 455.931 453.677 444.058 453.677 444.058L449.709 431.359C449.709 431.359 441.772 422.629 439.391 431.359Z" fill="#2F2E41"/>
<path d="M565.584 439.296C565.584 439.296 552.092 438.502 549.711 437.708C547.33 436.915 542.568 458.344 549.711 459.931C556.854 461.518 586.22 463.899 586.22 463.899C586.22 463.899 609.236 463.106 607.649 456.756C606.062 450.407 575.108 437.708 575.108 437.708C575.108 437.708 571.14 429.772 565.584 439.296Z" fill="#2F2E41"/>
<path d="M502.885 124.209L498.916 121.828L494.154 125.797C494.154 125.797 508.44 135.321 505.266 144.051C502.091 152.781 488.599 171.036 488.599 171.036C488.599 171.036 500.504 184.528 500.504 189.29C500.504 189.29 531.457 178.179 554.473 189.29C554.473 189.29 554.473 173.417 557.648 170.242C560.822 167.067 562.41 155.956 554.473 146.432C548.882 139.424 543.84 131.994 539.393 124.209L531.457 119.447L527.369 120.744C527.369 120.744 535.425 129.765 527.488 130.559C519.552 131.352 506.853 128.971 502.885 124.209Z" fill="#6C63FF"/>
<path d="M532.728 23.0164C530.031 26.0262 526.338 27.9608 522.328 28.464C515.394 29.4545 520.842 40.3497 520.842 40.3497C520.842 40.3497 518.861 36.3878 522.823 32.9211C526.785 29.4545 532.728 27.4735 532.728 23.0164Z" fill="#2F2E41"/>
<path d="M519.36 51.1765C524.081 51.1765 527.909 47.3491 527.909 42.6279C527.909 37.9066 524.081 34.0793 519.36 34.0793C514.639 34.0793 510.812 37.9066 510.812 42.6279C510.812 47.3491 514.639 51.1765 519.36 51.1765Z" fill="#2F2E41"/>
<path d="M529.341 51.0455C522.736 47.596 511.375 44.8828 505.339 45.0768L506.866 39.2389C512.21 42.8695 523.511 45.6333 530.868 45.2076L529.341 51.0455Z" fill="#6C63FF"/>
<path d="M515.696 51.5593C515.696 51.5593 505.289 64.9395 484.476 67.9129C463.662 70.8863 480.016 103.594 480.016 103.594C480.016 103.594 474.069 91.7001 485.962 81.2932C497.856 70.8863 515.696 64.9395 515.696 51.5593Z" fill="#2F2E41"/>
<path d="M516.49 50.7656C516.49 50.7656 522.437 71.5794 531.357 74.5528C540.277 77.5262 535.817 108.747 520.95 111.72C520.95 111.72 533.587 94.6232 526.154 81.2429C518.72 67.8626 514.26 57.4558 516.49 50.7656Z" fill="#2F2E41"/>
<path d="M656.459 15.8734H601.696V22.2228H656.459V15.8734Z" fill="#2F2E41"/>
<path d="M656.46 38.0961C659.09 38.0961 661.222 29.568 661.222 19.048C661.222 8.5281 659.09 0 656.46 0C653.83 0 651.698 8.5281 651.698 19.048C651.698 29.568 653.83 38.0961 656.46 38.0961Z" fill="#2F2E41"/>
<path d="M601.697 38.0961C604.327 38.0961 606.459 29.568 606.459 19.048C606.459 8.5281 604.327 0 601.697 0C599.067 0 596.935 8.5281 596.935 19.048C596.935 29.568 599.067 38.0961 601.697 38.0961Z" fill="#2F2E41"/>
<path d="M684.238 442.882H629.475V449.232H684.238V442.882Z" fill="#2F2E41"/>
<path d="M684.238 465.105C686.868 465.105 689 456.577 689 446.057C689 435.537 686.868 427.009 684.238 427.009C681.608 427.009 679.476 435.537 679.476 446.057C679.476 456.577 681.608 465.105 684.238 465.105Z" fill="#2F2E41"/>
<path d="M629.475 465.105C632.105 465.105 634.237 456.577 634.237 446.057C634.237 435.537 632.105 427.009 629.475 427.009C626.845 427.009 624.713 435.537 624.713 446.057C624.713 456.577 626.845 465.105 629.475 465.105Z" fill="#2F2E41"/>
<path opacity="0.3" d="M52.9999 437.737C52.9999 414.348 38.5193 395.388 20.6564 395.388C9.42918 395.388 -0.458904 402.881 -6.25822 414.253C-8.24973 413.581 -10.3374 413.238 -12.4392 413.237C-17.8749 413.329 -23.0643 415.519 -26.9218 419.35C-32.1495 405.171 -43.2347 395.388 -56.0653 395.388C-68.0619 395.388 -78.5251 403.947 -84.1088 416.648C-87.3841 414.45 -91.2337 413.264 -95.1784 413.237C-108.887 413.237 -120 427.788 -120 445.737C-120.04 451.791 -118.703 457.775 -116.089 463.237H46.4771C50.8363 455.45 53.0849 446.66 52.9999 437.737V437.737Z" fill="#6C63FF"/>
</g>
<defs>
<clipPath id="clip0">
<rect width="797" height="589" fill="white"/>
</clipPath>
</defs>
</svg>
