<svg width="421" height="143" viewBox="0 0 421 143" fill="none" xmlns="http://www.w3.org/2000/svg">
<g filter="url(#filter0_b)">
<rect x="52" y="17.8147" width="367.052" height="76.3361" rx="20" fill="url(#paint0_linear)" fill-opacity="0.45"/>
<rect x="51.5" y="17.3147" width="368.052" height="77.3361" rx="20.5" stroke="url(#paint1_linear)"/>
</g>
<path d="M148.627 44.728C148.947 45.144 149.219 45.56 149.443 45.976H154.003V51.352H150.883C150.851 53.656 150.227 55.64 149.011 57.304C147.827 58.968 146.147 60.248 143.971 61.144L151.603 73H139.507L132.883 62.632H124.195V54.088H133.891C135.299 54.088 136.435 53.848 137.299 53.368C138.195 52.856 138.803 52.184 139.123 51.352H124.195V45.976H138.019C137.091 45.144 135.715 44.728 133.891 44.728H124.195V39.352H154.003V44.728H148.627ZM188.099 39.4V73H176.771V47.944H171.011V39.4H188.099ZM198.13 61.096C199.986 61.096 201.506 61.656 202.69 62.776C203.874 63.896 204.466 65.384 204.466 67.24C204.466 68.072 204.354 68.904 204.13 69.736C203.906 70.568 203.394 71.832 202.594 73.528L199.234 80.68H192.514L194.914 72.568C193.922 72.088 193.154 71.4 192.61 70.504C192.066 69.576 191.794 68.488 191.794 67.24C191.794 65.384 192.386 63.896 193.57 62.776C194.754 61.656 196.274 61.096 198.13 61.096ZM221.317 73.768C218.341 73.768 215.701 73.08 213.397 71.704C211.125 70.296 209.333 68.28 208.021 65.656C206.741 63 206.101 59.848 206.101 56.2C206.101 52.552 206.741 49.416 208.021 46.792C209.333 44.136 211.125 42.12 213.397 40.744C215.701 39.336 218.341 38.632 221.317 38.632C224.293 38.632 226.917 39.336 229.189 40.744C231.493 42.12 233.285 44.136 234.565 46.792C235.877 49.416 236.533 52.552 236.533 56.2C236.533 59.848 235.877 63 234.565 65.656C233.285 68.28 231.493 70.296 229.189 71.704C226.917 73.08 224.293 73.768 221.317 73.768ZM221.317 64.696C223.877 64.696 225.157 61.864 225.157 56.2C225.157 50.536 223.877 47.704 221.317 47.704C218.757 47.704 217.477 50.536 217.477 56.2C217.477 61.864 218.757 64.696 221.317 64.696ZM254.551 73.768C251.575 73.768 248.935 73.08 246.631 71.704C244.359 70.296 242.567 68.28 241.255 65.656C239.975 63 239.335 59.848 239.335 56.2C239.335 52.552 239.975 49.416 241.255 46.792C242.567 44.136 244.359 42.12 246.631 40.744C248.935 39.336 251.575 38.632 254.551 38.632C257.527 38.632 260.151 39.336 262.423 40.744C264.727 42.12 266.519 44.136 267.799 46.792C269.111 49.416 269.767 52.552 269.767 56.2C269.767 59.848 269.111 63 267.799 65.656C266.519 68.28 264.727 70.296 262.423 71.704C260.151 73.08 257.527 73.768 254.551 73.768ZM254.551 64.696C257.111 64.696 258.391 61.864 258.391 56.2C258.391 50.536 257.111 47.704 254.551 47.704C251.991 47.704 250.711 50.536 250.711 56.2C250.711 61.864 251.991 64.696 254.551 64.696ZM277.77 61.096C279.626 61.096 281.146 61.656 282.33 62.776C283.514 63.896 284.106 65.384 284.106 67.24C284.106 68.072 283.994 68.904 283.77 69.736C283.546 70.568 283.034 71.832 282.234 73.528L278.874 80.68H272.154L274.554 72.568C273.562 72.088 272.794 71.4 272.25 70.504C271.706 69.576 271.434 68.488 271.434 67.24C271.434 65.384 272.026 63.896 273.21 62.776C274.394 61.656 275.914 61.096 277.77 61.096ZM300.957 73.768C297.981 73.768 295.341 73.08 293.037 71.704C290.765 70.296 288.973 68.28 287.661 65.656C286.381 63 285.741 59.848 285.741 56.2C285.741 52.552 286.381 49.416 287.661 46.792C288.973 44.136 290.765 42.12 293.037 40.744C295.341 39.336 297.981 38.632 300.957 38.632C303.933 38.632 306.557 39.336 308.829 40.744C311.133 42.12 312.925 44.136 314.205 46.792C315.517 49.416 316.173 52.552 316.173 56.2C316.173 59.848 315.517 63 314.205 65.656C312.925 68.28 311.133 70.296 308.829 71.704C306.557 73.08 303.933 73.768 300.957 73.768ZM300.957 64.696C303.517 64.696 304.797 61.864 304.797 56.2C304.797 50.536 303.517 47.704 300.957 47.704C298.397 47.704 297.117 50.536 297.117 56.2C297.117 61.864 298.397 64.696 300.957 64.696ZM334.192 73.768C331.216 73.768 328.576 73.08 326.272 71.704C324 70.296 322.208 68.28 320.896 65.656C319.616 63 318.976 59.848 318.976 56.2C318.976 52.552 319.616 49.416 320.896 46.792C322.208 44.136 324 42.12 326.272 40.744C328.576 39.336 331.216 38.632 334.192 38.632C337.168 38.632 339.792 39.336 342.064 40.744C344.368 42.12 346.16 44.136 347.44 46.792C348.752 49.416 349.408 52.552 349.408 56.2C349.408 59.848 348.752 63 347.44 65.656C346.16 68.28 344.368 70.296 342.064 71.704C339.792 73.08 337.168 73.768 334.192 73.768ZM334.192 64.696C336.752 64.696 338.032 61.864 338.032 56.2C338.032 50.536 336.752 47.704 334.192 47.704C331.632 47.704 330.352 50.536 330.352 56.2C330.352 61.864 331.632 64.696 334.192 64.696ZM367.426 73.768C364.45 73.768 361.81 73.08 359.506 71.704C357.234 70.296 355.442 68.28 354.13 65.656C352.85 63 352.21 59.848 352.21 56.2C352.21 52.552 352.85 49.416 354.13 46.792C355.442 44.136 357.234 42.12 359.506 40.744C361.81 39.336 364.45 38.632 367.426 38.632C370.402 38.632 373.026 39.336 375.298 40.744C377.602 42.12 379.394 44.136 380.674 46.792C381.986 49.416 382.642 52.552 382.642 56.2C382.642 59.848 381.986 63 380.674 65.656C379.394 68.28 377.602 70.296 375.298 71.704C373.026 73.08 370.402 73.768 367.426 73.768ZM367.426 64.696C369.986 64.696 371.266 61.864 371.266 56.2C371.266 50.536 369.986 47.704 367.426 47.704C364.866 47.704 363.586 50.536 363.586 56.2C363.586 61.864 364.866 64.696 367.426 64.696Z" fill="#AEC3FF"/>
<g filter="url(#filter1_b)">
<path d="M54.6703 130.845C53.9918 134.977 48.5448 136.043 46.3585 132.472C44.9184 130.12 41.7253 129.596 39.6086 131.364C36.3948 134.048 31.5739 131.296 32.2525 127.164L43.1996 60.5015C43.6471 57.7764 46.2192 55.9301 48.9442 56.3779L61.4945 58.44C64.2193 58.8877 66.0653 61.4594 65.6178 64.1841L54.6703 130.845Z" fill="url(#paint2_linear)"/>
<path d="M45.9321 132.733C48.3603 136.699 54.4101 135.515 55.1637 130.926L66.1112 64.2651C66.6034 61.2679 64.5728 58.4391 61.5756 57.9466L49.0253 55.8845C46.0277 55.392 43.1985 57.4229 42.7062 60.4205L31.7591 127.083C31.0054 131.672 36.3598 134.729 39.9291 131.748C41.8116 130.175 44.6513 130.642 45.9321 132.733Z" stroke="url(#paint3_linear)"/>
</g>
<g style="mix-blend-mode:multiply">
<path d="M36.4453 101.639C42.5938 104.279 49.2163 105.636 55.9076 105.628C56.8854 105.628 57.8582 105.601 58.826 105.546L66.4281 59.2693L44.0101 55.5784L36.4453 101.639Z" fill="#B61A2B"/>
</g>
<g filter="url(#filter2_b)">
<path d="M63.4367 130.571C64.5618 134.605 70.0934 135.071 71.8782 131.283C73.0536 128.789 76.1701 127.919 78.4673 129.445C81.9551 131.762 86.4464 128.5 85.3214 124.467L67.1707 59.3945C66.4287 56.7346 63.6709 55.1797 61.0109 55.9218L48.7587 59.3401C46.0989 60.0821 44.5443 62.8398 45.2862 65.4995L63.4367 130.571Z" fill="url(#paint4_linear)"/>
<path d="M62.9551 130.706C64.2047 135.185 70.3482 135.704 72.3305 131.496C73.3759 129.278 76.1476 128.504 78.1906 129.862C82.0643 132.435 87.0525 128.812 85.803 124.332L67.6523 59.2602C66.8362 56.3342 63.8025 54.6239 60.8765 55.4402L48.6243 58.8585C45.6986 59.6747 43.9885 62.7081 44.8046 65.6339L62.9551 130.706Z" stroke="url(#paint5_linear)"/>
</g>
<g style="mix-blend-mode:multiply" opacity="0.48">
<path d="M56.4786 105.628C64.1595 105.548 71.7146 103.669 78.5384 100.142L65.8272 54.5781L43.9429 60.6837L56.4786 105.628Z" fill="#B61A2B"/>
</g>
<g filter="url(#filter3_b)">
<path d="M99.6972 66.4913C105.405 42.3069 90.4272 18.0743 66.2428 12.3663C42.0584 6.65823 17.8258 21.6363 12.1178 45.8207C6.40975 70.005 21.3878 94.2376 45.5722 99.9457C69.7566 105.654 93.9891 90.6757 99.6972 66.4913Z" fill="url(#paint6_linear)"/>
<path d="M100.184 66.6061C105.955 42.153 90.8108 17.6511 66.3576 11.8796C41.9045 6.10817 17.4026 21.2527 11.6311 45.7058C5.85968 70.1589 21.0042 94.6608 45.4573 100.432C69.9105 106.204 94.4123 91.0593 100.184 66.6061Z" stroke="url(#paint7_linear)"/>
</g>
<g filter="url(#filter4_b)">
<path d="M56.6302 96.8235C79.0866 96.4237 96.9671 77.895 96.5672 55.4385C96.1674 32.982 77.6387 15.1016 55.1823 15.5014C32.7258 15.9012 14.8454 34.4299 15.2452 56.8864C15.645 79.3428 34.1737 97.2233 56.6302 96.8235Z" fill="url(#paint8_linear)"/>
<path d="M56.6391 97.3234C79.3716 96.9187 97.4719 78.1622 97.0672 55.4296C96.6624 32.697 77.9059 14.5967 55.1734 15.0015C32.4408 15.4062 14.3405 34.1627 14.7453 56.8953C15.15 79.6278 33.9065 97.7281 56.6391 97.3234Z" stroke="url(#paint9_linear)"/>
</g>
<g filter="url(#filter5_b)">
<path d="M89.0511 57.019C88.7004 56.8144 88.3447 56.2679 88.3421 55.8619C88.3403 55.5649 88.3338 55.1711 88.3168 54.6295C88.3016 54.1441 90.1109 54.5513 90.524 54.8067C90.9563 55.074 92.1843 52.6203 91.9011 52.1982C91.1885 51.1363 90.0171 50.1396 88.0859 49.7109C87.8764 49.6644 87.7074 49.5017 87.664 49.2916C87.6525 49.2357 87.6408 49.1798 87.629 49.1239C87.5151 48.5867 89.5157 48.3139 90.0436 48.4651C90.5728 48.6168 91.09 46.5867 90.7741 46.1358C89.9622 44.9769 88.5627 43.8241 86.1499 43.6021C86.0093 43.5891 85.8829 43.5006 85.8286 43.3702C85.6583 42.9613 86.8208 41.9109 87.2496 42.0217C87.8392 42.1741 88.3883 42.2276 88.8292 42.2394C89.2638 42.2509 89.6403 41.6448 89.4353 41.2615C89.0315 40.5066 88.3199 39.4611 87.2228 38.7695C85.9732 37.9817 84.5161 37.8704 83.6689 37.8907C83.3156 37.8992 82.7577 37.6495 82.5571 37.3585C82.5194 37.3037 82.4814 37.2491 82.4434 37.1946C82.1267 36.741 83.926 35.6344 84.475 35.5668C85.0127 35.5007 84.6924 33.5998 84.2516 33.2848C83.0802 32.4475 81.3278 31.7894 78.9466 32.4564C78.7023 32.5248 78.4364 32.4653 78.2539 32.2892C77.823 31.8736 77.381 31.4699 76.9284 31.0785C76.6057 30.7994 77.8836 29.8236 78.2974 29.7195C78.7345 29.6095 78.0519 27.1584 77.6147 27.0487C76.3714 26.7366 74.8046 26.7698 73.0416 27.7694C72.8317 27.8884 72.5718 27.8918 72.3652 27.7673C72.2223 27.6811 72.0787 27.5961 71.9345 27.5121C71.4355 27.2216 72.4833 25.659 72.9743 25.3553C73.4669 25.0507 72.4526 23.4218 71.8835 23.3146C70.4951 23.053 68.6615 23.1973 66.7705 24.781C66.6207 24.9064 66.4142 24.9493 66.2298 24.885C65.639 24.679 65.4737 22.4407 65.9189 22.0012C65.9731 21.9477 66.0253 21.8944 66.0755 21.8416C66.4429 21.4549 65.9915 20.2508 65.46 20.2067C63.8764 20.0752 61.4501 20.4036 59.6913 23.0841C59.5995 23.2241 59.436 23.3057 59.2696 23.2867C59.2278 23.2819 59.186 23.2772 59.1441 23.2726C58.6643 23.2195 59.0853 21.0579 59.3547 20.6573C59.6181 20.2656 57.8595 19.1628 57.4001 19.2711C55.9632 19.6097 54.2918 20.5211 53.2649 22.8128C53.1749 23.0138 52.9818 23.1562 52.7622 23.1734C52.1883 23.2185 51.749 22.3478 52.032 21.8466C52.0647 21.7888 52.0961 21.7311 52.1263 21.6735C52.4288 21.0985 51.1077 19.6742 50.5143 19.939C49.3139 20.4745 47.9671 21.5292 47.2664 23.6447C47.1685 23.9404 46.9361 24.1767 46.6361 24.2605C46.3335 24.3449 46.0321 24.4338 45.7322 24.5272C45.1135 24.7198 44.5824 22.9595 44.6692 22.3173C44.7565 21.672 43.0186 21.441 42.5056 21.8421C41.4611 22.6587 40.4084 24.0211 40.2558 26.2779C40.2342 26.598 40.0575 26.892 39.7744 27.0431C39.5188 27.1794 39.2651 27.3192 39.0134 27.4623C38.4524 27.7812 37.5831 26.206 37.5254 25.5633C37.466 24.9021 35.5969 25.059 35.2022 25.5928C34.4254 26.6434 33.7979 28.1942 34.1874 30.3494C34.2335 30.6048 34.149 30.8684 33.9524 31.0378C33.449 31.4718 32.4903 31.0199 32.3674 30.3667C32.34 30.2215 32.3089 30.081 32.2753 29.9461C32.1021 29.2516 30.8123 29.014 30.4073 29.6043C29.6392 30.7237 28.916 32.5041 29.6348 34.8689C29.7207 35.1514 29.6727 35.4613 29.4903 35.6935C29.2704 35.9733 29.0551 36.2571 28.8444 36.5444C28.5479 36.9486 27.5855 36.0948 27.3873 35.6343C27.1635 35.1146 25.2072 35.7831 25.0652 36.3308C24.7544 37.5301 24.7408 39.0822 25.7075 40.8136C25.8588 41.0845 25.8798 41.4135 25.7448 41.693C25.6256 41.9401 25.5094 42.1886 25.3963 42.4385C25.1144 43.0618 23.3805 42.2925 22.9211 41.7856C22.4712 41.2892 21.2942 42.3937 21.2327 43.0607C21.1083 44.4095 21.3834 46.1814 23.0434 47.874C23.2556 48.0904 23.3531 48.3982 23.2862 48.6938C23.2193 48.9891 23.1565 49.2853 23.0978 49.5823C22.9759 50.1989 21.2034 49.8006 20.699 49.4255C20.183 49.0419 19.0417 50.5612 19.1744 51.1903C19.4481 52.4887 20.2107 54.0123 22.148 55.1582C22.3557 55.2811 22.4913 55.4906 22.4917 55.732C22.4926 56.383 20.8007 56.3886 20.2122 56.11C19.6163 55.8279 18.9158 57.2491 19.1166 57.8771C19.5361 59.1887 20.5007 60.7491 22.7393 61.6506C22.893 61.7124 23.0096 61.8487 23.0405 62.0114C23.1368 62.5185 22.1773 63.0665 21.7236 62.8204C21.6508 62.7808 21.578 62.7432 21.5056 62.7074C21.0021 62.4587 19.5331 63.9741 19.8002 64.4681C20.4919 65.7469 21.8009 67.1273 24.2955 67.5485C24.4853 67.5806 24.6498 67.7077 24.7198 67.8871C24.779 68.0388 24.8394 68.1901 24.9008 68.3409C25.0949 68.8168 23.1259 69.3977 22.6146 69.3454C22.1047 69.2932 21.9375 71.4489 22.2956 71.8156C23.2823 72.8257 24.8386 73.7304 27.2237 73.558C27.4375 73.5426 27.6482 73.6389 27.7667 73.8176C28.1347 74.3721 26.8746 76.1876 26.2143 76.2705C25.136 76.4059 24.3939 76.7852 24.2866 76.7797C24.3195 76.7797 26.8978 80.9528 31.7124 79.2107C31.8911 79.146 32.0949 79.1853 32.23 79.3189C32.2521 79.3407 32.2742 79.3625 32.2963 79.3843C32.6724 79.7543 31.0523 81.1831 30.5525 81.352C30.0625 81.5176 30.7658 83.4417 31.2385 83.6518C32.4734 84.2005 34.1677 84.4782 36.1893 83.5686C36.6456 83.3633 37.1808 83.3751 37.6015 83.646C38.2898 84.0892 38.9962 84.5088 39.7205 84.9048C39.729 84.9094 39.737 84.9149 39.7443 84.9212C39.8647 85.0237 39.7449 85.2913 39.5879 85.2721C37.906 85.067 36.6094 85.6277 35.7501 86.1873C35.2095 86.5394 35.3142 87.5997 35.9165 87.8307C36.6685 88.1191 37.6614 88.3656 38.7182 88.2593C39.1675 88.1996 39.6066 88.0941 40.0292 87.9459C41.7869 87.3294 43.7329 86.7953 45.509 87.3567C45.671 87.4079 45.8334 87.4578 45.9962 87.5065C46.0106 87.5108 46.0245 87.5168 46.0375 87.5243C46.2258 87.6327 46.1455 88.0783 45.9317 88.1163C44.4262 88.3837 43.4008 89.179 42.7479 89.877C42.317 90.3377 42.661 91.3294 43.286 91.415C44.0891 91.5249 45.1254 91.5402 46.1411 91.1927C46.4505 91.0738 46.7488 90.932 47.0336 90.7691C48.8388 89.737 50.8245 88.623 52.8976 88.7843C53.0203 88.7939 53.143 88.8027 53.2658 88.811C53.273 88.8114 53.2802 88.8125 53.2873 88.8141C53.443 88.8489 53.462 89.1462 53.3129 89.2029C52.6807 89.4436 52.1598 89.7637 51.7304 90.1184C51.3321 90.4475 52.8804 92.8019 53.3463 92.5787C54.4857 92.033 55.6337 91.0369 56.3547 89.2365C56.4433 89.0152 56.6571 88.8591 56.8952 88.8485C57.5095 88.8213 57.5458 90.7847 57.3034 91.3498C57.0604 91.9165 58.8599 92.6635 59.4178 92.4009C60.614 91.8377 61.9095 90.7482 62.5732 88.6088C62.6752 88.2801 62.935 88.0182 63.2692 87.9364C63.977 87.7631 64.6786 87.566 65.3727 87.3455C65.9227 87.1708 66.4614 89.178 66.3684 89.7476C66.2769 90.3075 68.1808 90.5549 68.6279 90.2056C69.7615 89.32 70.8853 87.819 70.9123 85.3118C70.9143 85.1279 71.0132 84.9546 71.1748 84.8669C71.6875 84.5887 73.5972 86.0612 73.6427 86.6427C73.7186 87.6132 73.9936 88.29 73.9817 88.39C73.9817 88.3573 78.2738 86.154 77.0408 81.3108C76.974 81.0487 77.1368 80.6927 77.3388 80.5128C77.9161 79.9986 79.6377 80.9949 79.8398 81.7411C80.1444 82.8663 80.686 83.596 80.6993 83.7063C80.6993 83.6443 84.3573 80.5192 81.9197 76.0498C81.8142 75.8564 81.8249 75.6162 81.9565 75.4396C81.9934 75.39 82.0302 75.3403 82.0669 75.2905C82.3985 74.8401 83.9013 76.1257 84.1445 76.6293C84.3893 77.1364 86.2441 76.1856 86.3736 75.6377C86.6927 74.2874 86.6327 72.5188 85.2737 70.614C85.1508 70.4416 85.1248 70.2142 85.2154 70.0228C85.4893 69.4448 87.9092 70.3992 88.358 70.855C88.7609 71.2641 89.72 70.1364 89.8021 69.5681C90.018 68.0742 89.8082 65.9889 87.7603 64.1199C87.558 63.9353 87.508 63.468 87.5691 63.201C87.7494 62.4124 89.7552 62.306 90.383 62.8161C90.5066 62.9165 90.629 63.0081 90.748 63.0915C91.2705 63.4577 92.2097 62.9726 92.2044 62.3346C92.1978 61.5262 92.0644 60.5043 91.578 59.5529C90.9266 58.2787 89.79 57.45 89.0511 57.019ZM87.8198 56.5775C87.8161 56.7709 87.6998 56.9408 87.5285 57.0305C84.7655 58.477 84.2006 60.6654 84.1335 62.1165C84.1075 62.6776 85.0484 63.2403 85.522 62.9383C85.5999 62.8886 85.6768 62.8375 85.7527 62.7849C86.2429 62.4451 87.1012 62.8796 86.9647 63.4603C86.9136 63.6778 86.736 63.8401 86.5184 63.8909C83.2804 64.6469 82.1962 66.9495 81.818 68.363C81.6885 68.847 82.2669 69.4158 82.7477 69.2751C83.0156 69.1967 83.314 69.094 83.6245 68.9602C84.0962 68.757 84.9195 69.3913 84.6984 69.8548C84.6203 70.0184 84.4499 70.1169 84.2687 70.1173C81.2499 70.1233 79.6773 71.7363 78.8833 73.0368C78.6265 73.4573 79.4285 74.6543 79.9148 74.5751C80.1106 74.5433 80.3156 74.5019 80.5259 74.4484C80.9549 74.3394 81.5962 75.057 81.3312 75.4116C81.2456 75.5262 81.1007 75.5813 80.9589 75.5623C77.8015 75.1388 76.0274 76.6754 75.1263 77.8549C74.8007 78.281 75.2609 79.27 75.7968 79.2867C75.9023 79.29 76.0079 79.291 76.1134 79.2897C76.663 79.2829 77.0786 80.0655 76.6643 80.4267C76.5149 80.557 76.3014 80.5872 76.1163 80.5163C73.1309 79.374 71.0421 80.5015 69.9182 81.4309C69.5152 81.764 69.7036 82.7294 70.2035 82.8826C70.3342 82.9226 70.4728 82.9614 70.6183 82.9972C71.1629 83.1313 71.4465 84.135 70.9543 84.404C70.7742 84.5024 70.5514 84.4796 70.3854 84.3588C66.3913 81.4509 62.885 84.367 62.8193 84.3706C62.8288 84.3706 62.9921 84.5209 63.2797 84.7327C63.9181 85.2029 63.9611 87.244 63.1912 87.4335C62.9228 87.4995 62.644 87.3946 62.4643 87.1847C61.9355 86.567 60.8421 85.4899 59.3486 85.061C58.0466 84.6881 56.7405 84.8928 55.9129 85.1123C55.5195 85.2167 55.3475 85.8182 55.6224 86.1184C55.8969 86.4181 56.2661 86.7733 56.7263 87.104C57.0546 87.3398 56.9078 88.341 56.5038 88.3542C56.3799 88.3583 56.263 88.2914 56.1971 88.1863C54.3578 85.2546 51.7075 85.0517 50.2572 85.1923C49.772 85.2393 49.4784 85.8868 49.7586 86.2857C49.8744 86.4507 49.997 86.6107 50.1258 86.7654C50.4666 87.1744 50.1282 87.9456 49.6052 87.8457C49.426 87.8115 49.282 87.6791 49.219 87.5078C48.1578 84.6208 46.0795 83.7625 44.6697 83.4933C44.1449 83.393 43.4593 84.2356 43.6748 84.7245C43.6921 84.7636 43.7096 84.8025 43.7275 84.8412C43.9694 85.3649 43.4332 86.0755 42.9019 85.8508C42.7101 85.7697 42.5831 85.5855 42.5589 85.3787C42.2068 82.3724 40.4376 81.052 39.1369 80.4504C38.6318 80.2168 37.7363 80.9016 37.8427 81.4479C37.8954 81.7186 37.9635 81.9862 38.0467 82.2492C38.1746 82.6531 37.6974 83.0839 37.3462 82.8469C37.2131 82.7571 37.1476 82.5944 37.1706 82.4355C37.5795 79.6095 36.3708 77.852 35.2649 76.8531C34.8787 76.5043 33.4599 77.1563 33.4686 77.6766C33.4712 77.8297 33.4786 77.9883 33.4922 78.1509C33.5311 78.6158 32.7606 79.1094 32.431 78.7793C32.3198 78.6679 32.2836 78.5007 32.3289 78.3499C33.2286 75.352 32.0347 73.3741 31.0279 72.2929C30.6489 71.8858 29.5798 72.1824 29.4747 72.7286C29.452 72.8468 29.4322 72.9655 29.4155 73.0846C29.3365 73.6466 28.4733 73.9609 28.1594 73.4881C28.0403 73.3088 28.0421 73.0721 28.1532 72.8878C30.6813 68.6931 27.5481 65.5328 27.5371 65.4308C27.5371 65.4499 26.8666 66.2743 26.4452 67.4989C26.2942 67.9379 25.3433 68.0933 25.1778 67.6596C25.1184 67.5037 25.1644 67.3262 25.2836 67.2095C27.2733 65.2615 27.4369 63.2158 27.1886 61.7558C27.1025 61.2497 25.3686 60.8716 25.0818 61.2974C24.8663 61.6172 24.6599 61.9823 24.49 62.3893C24.3614 62.6974 23.7027 62.7121 23.6364 62.385C23.5939 62.175 23.7795 61.8463 23.9633 61.7364C24.6475 61.3273 25.9818 60.2833 26.5668 58.702C26.9477 57.6723 26.9486 56.6177 26.8498 55.8081C26.7748 55.1941 25.8225 54.846 25.3678 55.2652C24.5647 56.0055 23.6085 57.2258 23.4122 58.9897C23.3996 59.1028 23.1944 59.1346 23.1477 59.0308C23.1432 59.0207 23.1403 59.0098 23.1393 58.9988C23.1248 58.8396 23.1114 58.6804 23.0992 58.5211C22.9755 56.9108 24.2815 55.1646 25.4305 54.0296C25.773 53.6913 26.0976 53.2945 26.3615 52.8353C27.099 51.5522 27.1467 50.1056 27.0934 49.2675C27.074 48.9639 26.6394 48.7269 26.3697 48.8677C26.0895 49.014 25.7419 49.2175 25.3773 49.4892C25.0856 49.7066 23.7382 49.1368 23.8186 48.782C23.846 48.6612 23.9469 48.5718 24.0694 48.5535C25.4698 48.3448 26.7717 47.7027 27.7909 46.7149C29.0435 45.3861 26.8421 43.3169 25.5869 44.6432C25.1658 45.0881 24.7846 45.6373 24.4918 46.3155C24.5294 46.1936 24.5677 46.0719 24.6068 45.9504C25.2477 43.9577 28.9351 42.1263 30.6907 40.9863C31.6048 40.3926 32.2363 39.5493 32.6435 38.8414C32.9542 38.301 32.4015 37.4515 31.7817 37.5169C30.7192 37.629 29.2665 38.0218 28.0701 39.248C27.9758 39.3447 27.7541 39.2273 27.7829 39.0954C27.7857 39.0822 27.7908 39.0696 27.7978 39.0581C27.8601 38.957 27.923 38.8563 27.9863 38.7558C28.8539 37.381 31.8404 36.6556 33.4471 36.4081C33.7988 36.354 34.1553 36.2629 34.5047 36.1235C35.5633 35.7012 36.3773 34.9492 36.9196 34.3159C37.3169 33.852 36.9892 33.013 36.3822 32.9452C35.3507 32.8301 33.8606 32.8894 32.4397 33.7926C32.2953 33.8844 32.0375 33.6729 32.101 33.5141C32.1087 33.4949 32.1201 33.4774 32.1347 33.4628C32.2991 33.2983 32.4637 33.1339 32.6288 32.9703C33.6663 31.943 35.2481 31.9017 36.6937 32.1072C37.3711 32.2036 38.0646 32.1916 38.748 32.0668C40.505 31.6764 39.8486 28.7096 38.0924 29.1034C37.5463 29.2258 36.9764 29.4411 36.4006 29.7866C36.6922 29.573 36.9873 29.3644 37.2857 29.1608C39.008 27.9859 41.273 28.4682 43.3114 28.9056C43.6227 28.9724 43.9397 29.0176 44.2602 29.0402C46.1043 29.0893 46.1888 26.0414 44.3443 26.0062C43.7882 25.9956 43.1866 26.0683 42.5472 26.2636C42.6153 26.2338 42.6836 26.2043 42.752 26.175C44.6776 25.3499 48.4661 26.8382 50.4889 27.3832C51.4909 27.6531 52.489 27.5836 53.2713 27.4314C53.9203 27.3052 54.2102 26.2379 53.7129 25.8022C52.8681 25.062 51.534 24.2467 49.7303 24.2674C49.6459 24.2684 49.6123 24.1389 49.6875 24.1005C49.6941 24.0971 49.7014 24.0946 49.7087 24.0933C50.5596 23.9414 51.416 23.8236 52.276 23.7402C52.9203 23.6777 53.5181 24.0356 53.8924 24.5637C55.1769 26.3761 56.808 26.954 58.0962 27.0975C58.6154 27.1554 59.4409 25.5899 59.106 25.1889C59.0453 25.1161 58.9819 25.0431 58.9159 24.9704C58.5939 24.6156 58.8997 23.7581 59.3753 23.8155C59.5408 23.8354 59.6771 23.9523 59.7351 24.1085C60.8443 27.0924 63.1124 27.9457 64.5787 28.1915C65.0906 28.2774 65.6975 27.4814 65.4786 27.0108C65.4051 26.8528 65.3216 26.6868 65.2272 26.5168C64.9693 26.0522 65.5144 25.1853 66.0178 25.3553C66.2063 25.4189 66.3315 25.5947 66.3473 25.7931C66.5662 28.5499 68.0528 29.9983 69.3524 30.7529C69.7561 30.9874 71.3395 30.7941 71.2659 30.333C71.1875 29.8416 71.764 27.9827 72.1899 28.2403C72.2122 28.2538 72.2345 28.2674 72.2567 28.2809C72.403 28.3699 72.4806 28.5401 72.4637 28.7105C72.1735 31.6286 73.5157 33.3338 74.6934 34.2672C75.0906 34.582 76.4068 34.7382 76.432 34.232C76.4595 33.6785 77.3743 32.1305 77.7758 32.5125C77.8532 32.5861 77.9302 32.66 78.0068 32.7344C78.1627 32.8856 78.2088 33.1174 78.1383 33.3229C77.3315 35.6737 77.8976 37.4599 78.6553 38.6615C78.9069 39.0605 80.7305 39.4122 80.8315 38.9515C80.9324 38.4916 81.8985 37.2573 82.1655 37.6451C82.2736 37.8021 82.3803 37.96 82.4856 38.1189C82.5984 38.2892 82.5949 38.5116 82.4894 38.6865C79.9653 42.8713 83.0024 45.8124 83.0243 46.0095C83.0243 45.9862 83.8155 45.044 84.2559 43.6834C84.3944 43.2553 85.2024 43.1163 85.3753 43.5318C85.4374 43.6813 85.4021 43.8548 85.2945 43.9757C81.9609 47.7223 84.5917 51.4969 84.588 51.5739C84.588 51.5523 85.4052 50.8402 86.0218 49.6692C86.2375 49.2596 87.169 49.2586 87.2543 49.7136C87.2816 49.8594 87.2236 50.0101 87.1116 50.1073C84.6978 52.2024 84.6934 54.5564 84.9818 56.0007C85.0842 56.5137 86.0834 56.8163 86.4449 56.4381C86.5119 56.368 86.5775 56.2966 86.6417 56.2239C86.9992 55.8187 87.8303 56.0373 87.8198 56.5775Z" fill="url(#paint10_linear)"/>
</g>
<g filter="url(#filter6_b)">
<path d="M52.0497 49H52.0057L45.4497 55.16L42.8097 47.68L52.0497 38.88H61.2897V71H52.0497V49Z" fill="url(#paint11_linear)"/>
<path d="M52.0497 49H53.0497V48H52.0497V49ZM52.0057 49V48H51.6096L51.3209 48.2712L52.0057 49ZM45.4497 55.16L44.5067 55.4928L45.017 56.9387L46.1344 55.8888L45.4497 55.16ZM42.8097 47.68L42.12 46.9559L41.6512 47.4023L41.8667 48.0128L42.8097 47.68ZM52.0497 38.88V37.88H51.6497L51.36 38.1559L52.0497 38.88ZM61.2897 38.88H62.2897V37.88H61.2897V38.88ZM61.2897 71V72H62.2897V71H61.2897ZM52.0497 71H51.0497V72H52.0497V71ZM52.0497 48H52.0057V50H52.0497V48ZM51.3209 48.2712L44.7649 54.4312L46.1344 55.8888L52.6904 49.7288L51.3209 48.2712ZM46.3927 54.8272L43.7527 47.3472L41.8667 48.0128L44.5067 55.4928L46.3927 54.8272ZM43.4993 48.4041L52.7393 39.6041L51.36 38.1559L42.12 46.9559L43.4993 48.4041ZM52.0497 39.88H61.2897V37.88H52.0497V39.88ZM60.2897 38.88V71H62.2897V38.88H60.2897ZM61.2897 70H52.0497V72H61.2897V70ZM53.0497 71V49H51.0497V71H53.0497Z" fill="url(#paint12_linear)"/>
</g>
<defs>
<filter id="filter0_b" x="5" y="-29.1853" width="461.052" height="170.336" filterUnits="userSpaceOnUse" color-interpolation-filters="sRGB">
<feFlood flood-opacity="0" result="BackgroundImageFix"/>
<feGaussianBlur in="BackgroundImage" stdDeviation="23"/>
<feComposite in2="SourceAlpha" operator="in" result="effect1_backgroundBlur"/>
<feBlend mode="normal" in="SourceGraphic" in2="effect1_backgroundBlur" result="shape"/>
</filter>
<filter id="filter1_b" x="-14.8132" y="9.31079" width="127.498" height="172.324" filterUnits="userSpaceOnUse" color-interpolation-filters="sRGB">
<feFlood flood-opacity="0" result="BackgroundImageFix"/>
<feGaussianBlur in="BackgroundImage" stdDeviation="23"/>
<feComposite in2="SourceAlpha" operator="in" result="effect1_backgroundBlur"/>
<feBlend mode="normal" in="SourceGraphic" in2="effect1_backgroundBlur" result="shape"/>
</filter>
<filter id="filter2_b" x="-1.89917" y="8.73633" width="134.399" height="172.141" filterUnits="userSpaceOnUse" color-interpolation-filters="sRGB">
<feFlood flood-opacity="0" result="BackgroundImageFix"/>
<feGaussianBlur in="BackgroundImage" stdDeviation="23"/>
<feComposite in2="SourceAlpha" operator="in" result="effect1_backgroundBlur"/>
<feBlend mode="normal" in="SourceGraphic" in2="effect1_backgroundBlur" result="shape"/>
</filter>
<filter id="filter3_b" x="-45.4204" y="-45.1721" width="202.656" height="202.656" filterUnits="userSpaceOnUse" color-interpolation-filters="sRGB">
<feFlood flood-opacity="0" result="BackgroundImageFix"/>
<feGaussianBlur in="BackgroundImage" stdDeviation="23"/>
<feComposite in2="SourceAlpha" operator="in" result="effect1_backgroundBlur"/>
<feBlend mode="normal" in="SourceGraphic" in2="effect1_backgroundBlur" result="shape"/>
</filter>
<filter id="filter4_b" x="-32.4963" y="-32.2402" width="176.805" height="176.805" filterUnits="userSpaceOnUse" color-interpolation-filters="sRGB">
<feFlood flood-opacity="0" result="BackgroundImageFix"/>
<feGaussianBlur in="BackgroundImage" stdDeviation="23"/>
<feComposite in2="SourceAlpha" operator="in" result="effect1_backgroundBlur"/>
<feBlend mode="normal" in="SourceGraphic" in2="effect1_backgroundBlur" result="shape"/>
</filter>
<filter id="filter5_b" x="17.0815" y="17.2637" width="77.123" height="77.33" filterUnits="userSpaceOnUse" color-interpolation-filters="sRGB">
<feFlood flood-opacity="0" result="BackgroundImageFix"/>
<feGaussianBlur in="BackgroundImage" stdDeviation="1"/>
<feComposite in2="SourceAlpha" operator="in" result="effect1_backgroundBlur"/>
<feBlend mode="normal" in="SourceGraphic" in2="effect1_backgroundBlur" result="shape"/>
</filter>
<filter id="filter6_b" x="-4.34888" y="-8.12012" width="112.638" height="126.12" filterUnits="userSpaceOnUse" color-interpolation-filters="sRGB">
<feFlood flood-opacity="0" result="BackgroundImageFix"/>
<feGaussianBlur in="BackgroundImage" stdDeviation="23"/>
<feComposite in2="SourceAlpha" operator="in" result="effect1_backgroundBlur"/>
<feBlend mode="normal" in="SourceGraphic" in2="effect1_backgroundBlur" result="shape"/>
</filter>
<linearGradient id="paint0_linear" x1="-14.0387" y1="7.65847" x2="34.0374" y2="133.731" gradientUnits="userSpaceOnUse">
<stop stop-color="#474E8E"/>
<stop offset="1" stop-color="#3C4061" stop-opacity="0.02"/>
</linearGradient>
<linearGradient id="paint1_linear" x1="507.36" y1="112.188" x2="335.083" y2="-149.396" gradientUnits="userSpaceOnUse">
<stop stop-color="#260262"/>
<stop offset="1" stop-color="#E6E6E6" stop-opacity="0"/>
</linearGradient>
<linearGradient id="paint2_linear" x1="23.7807" y1="43.9568" x2="59.2599" y2="51.9711" gradientUnits="userSpaceOnUse">
<stop stop-color="#474E8E"/>
<stop offset="1" stop-color="#3C4061" stop-opacity="0.02"/>
</linearGradient>
<linearGradient id="paint3_linear" x1="75.1238" y1="163.452" x2="19.9909" y2="156.241" gradientUnits="userSpaceOnUse">
<stop stop-color="#260262"/>
<stop offset="1" stop-color="#E6E6E6" stop-opacity="0"/>
</linearGradient>
<linearGradient id="paint4_linear" x1="35.911" y1="42.9107" x2="78.6716" y2="54.7823" gradientUnits="userSpaceOnUse">
<stop stop-color="#474E8E"/>
<stop offset="1" stop-color="#3C4061" stop-opacity="0.02"/>
</linearGradient>
<linearGradient id="paint5_linear" x1="99.3251" y1="162.994" x2="31.81" y2="152.14" gradientUnits="userSpaceOnUse">
<stop stop-color="#260262"/>
<stop offset="1" stop-color="#E6E6E6" stop-opacity="0"/>
</linearGradient>
<linearGradient id="paint6_linear" x1="-13.5886" y1="102.617" x2="40.8283" y2="41.9404" gradientUnits="userSpaceOnUse">
<stop stop-color="#474E8E"/>
<stop offset="1" stop-color="#3C4061" stop-opacity="0.02"/>
</linearGradient>
<linearGradient id="paint7_linear" x1="135.7" y1="6.51545" x2="67.5219" y2="120.861" gradientUnits="userSpaceOnUse">
<stop stop-color="#260262"/>
<stop offset="1" stop-color="#E6E6E6" stop-opacity="0"/>
</linearGradient>
<linearGradient id="paint8_linear" x1="-0.302562" y1="5.66624" x2="64.9906" y2="39.7815" gradientUnits="userSpaceOnUse">
<stop stop-color="#474E8E"/>
<stop offset="1" stop-color="#3C4061" stop-opacity="0.02"/>
</linearGradient>
<linearGradient id="paint9_linear" x1="117.198" y1="114.967" x2="1.82642" y2="80.7808" gradientUnits="userSpaceOnUse">
<stop stop-color="#260262"/>
<stop offset="1" stop-color="#E6E6E6" stop-opacity="0"/>
</linearGradient>
<linearGradient id="paint10_linear" x1="4.75586" y1="15.7288" x2="149.919" y2="78.2367" gradientUnits="userSpaceOnUse">
<stop stop-color="#474E8E"/>
<stop offset="1" stop-color="#3C4061" stop-opacity="0.02"/>
</linearGradient>
<linearGradient id="paint11_linear" x1="47.1116" y1="39.1296" x2="114.31" y2="3.51262" gradientUnits="userSpaceOnUse">
<stop stop-color="#7A81BD"/>
<stop offset="1" stop-color="#3C4061" stop-opacity="0.02"/>
</linearGradient>
<linearGradient id="paint12_linear" x1="77.3872" y1="86.3967" x2="32.9058" y2="76.8196" gradientUnits="userSpaceOnUse">
<stop stop-color="#260262"/>
<stop offset="1" stop-color="#E6E6E6" stop-opacity="0"/>
</linearGradient>
</defs>
</svg>
