<svg width="797" height="589" viewBox="0 0 797 589" fill="none" xmlns="http://www.w3.org/2000/svg">
<g clip-path="url(#clip0)">
<path opacity="0.25" d="M751.586 224.414V172.118H720.535V224.414H683.764V143.518H656.799V83.051H634.737V20.9493H588.977V83.051H566.915V143.518H540.767V70.7941H526.059V34.0234H517.07V70.7941H464.774V302.858H424.735V278.344H400.221V302.858H360.182V224.414H288.275V172.118H257.224V224.414H255.59V324.921H222.904V266.088H183.682V324.921H150.997V143.518H125.666V83.051H32.5138V143.518H8V463.015H150.997H255.59H360.182H464.774H540.767H683.764H788.357V224.414H751.586Z" fill="#6C63FF"/>
<path opacity="0.4" d="M57.8447 162.312H23.5254V181.923H57.8447V162.312Z" fill="white"/>
<path opacity="0.4" d="M100.335 181.923H134.655V162.312H100.335V181.923Z" fill="white"/>
<path opacity="0.4" d="M57.8447 200.717H23.5254V220.328H57.8447V200.717Z" fill="white"/>
<path opacity="0.4" d="M100.335 220.328H134.655V200.717H100.335V220.328Z" fill="white"/>
<path opacity="0.4" d="M57.8447 239.122H23.5254V258.733H57.8447V239.122Z" fill="white"/>
<path opacity="0.4" d="M100.335 258.733H134.655V239.122H100.335V258.733Z" fill="white"/>
<path opacity="0.4" d="M57.8447 277.527H23.5254V297.138H57.8447V277.527Z" fill="white"/>
<path opacity="0.4" d="M100.335 297.138H134.655V277.527H100.335V297.138Z" fill="white"/>
<path opacity="0.4" d="M57.8447 315.932H23.5254V335.543H57.8447V315.932Z" fill="white"/>
<path opacity="0.4" d="M100.335 335.543H134.655V315.932H100.335V335.543Z" fill="white"/>
<path opacity="0.4" d="M57.8447 354.337H23.5254V373.948H57.8447V354.337Z" fill="white"/>
<path opacity="0.4" d="M100.335 373.948H134.655V354.337H100.335V373.948Z" fill="white"/>
<path opacity="0.4" d="M57.8447 392.742H23.5254V412.353H57.8447V392.742Z" fill="white"/>
<path opacity="0.4" d="M100.335 412.353H134.655V392.742H100.335V412.353Z" fill="white"/>
<path opacity="0.4" d="M243.333 344.532H163.254V354.337H243.333V344.532Z" fill="white"/>
<path opacity="0.4" d="M243.333 359.24H163.254V369.046H243.333V359.24Z" fill="white"/>
<path opacity="0.4" d="M243.333 373.948H163.254V383.754H243.333V373.948Z" fill="white"/>
<path opacity="0.4" d="M452.517 349.435H372.438V359.24H452.517V349.435Z" fill="white"/>
<path opacity="0.4" d="M452.517 364.143H372.438V373.948H452.517V364.143Z" fill="white"/>
<path opacity="0.4" d="M452.517 378.851H372.438V388.657H452.517V378.851Z" fill="white"/>
<path opacity="0.4" d="M243.333 388.657H163.254V398.462H243.333V388.657Z" fill="white"/>
<path opacity="0.4" d="M243.333 403.365H163.254V413.17H243.333V403.365Z" fill="white"/>
<path opacity="0.4" d="M243.333 418.073H163.254V427.879H243.333V418.073Z" fill="white"/>
<path opacity="0.4" d="M294.812 243.208H272.749V271.807H294.812V243.208Z" fill="white"/>
<path opacity="0.4" d="M320.96 271.807H343.022V243.208H320.96V271.807Z" fill="white"/>
<path opacity="0.4" d="M294.812 288.967H272.749V317.566H294.812V288.967Z" fill="white"/>
<path opacity="0.4" d="M320.96 317.567H343.022V288.967H320.96V317.567Z" fill="white"/>
<path opacity="0.4" d="M294.812 334.726H272.749V363.326H294.812V334.726Z" fill="white"/>
<path opacity="0.4" d="M320.96 363.326H343.022V334.726H320.96V363.326Z" fill="white"/>
<path opacity="0.4" d="M294.812 380.485H272.749V409.085H294.812V380.485Z" fill="white"/>
<path opacity="0.4" d="M320.96 409.085H343.022V380.485H320.96V409.085Z" fill="white"/>
<path opacity="0.4" d="M494.191 89.5881H464.774V127.176H494.191V89.5881Z" fill="white"/>
<path opacity="0.4" d="M494.191 143.518H464.774V181.106H494.191V143.518Z" fill="white"/>
<path opacity="0.4" d="M494.191 197.449H464.774V235.037H494.191V197.449Z" fill="white"/>
<path opacity="0.4" d="M494.191 251.379H464.774V288.967H494.191V251.379Z" fill="white"/>
<path opacity="0.4" d="M494.191 305.31H464.774V342.898H494.191V305.31Z" fill="white"/>
<path opacity="0.4" d="M494.191 359.24H464.774V396.828H494.191V359.24Z" fill="white"/>
<path opacity="0.4" d="M667.013 166.398H557.518V198.266H667.013V166.398Z" fill="white"/>
<path opacity="0.4" d="M667.422 235.037H557.927V266.905H667.422V235.037Z" fill="white"/>
<path opacity="0.4" d="M667.83 303.675H558.335V335.543H667.83V303.675Z" fill="white"/>
<path opacity="0.4" d="M668.239 372.314H558.744V404.182H668.239V372.314Z" fill="white"/>
<path opacity="0.4" d="M47.222 100.211H32.5137V131.262H47.222V100.211Z" fill="white"/>
<path opacity="0.4" d="M788.357 243.208H751.586V290.601H788.357V243.208Z" fill="white"/>
<path opacity="0.4" d="M788.357 311.847H751.586V359.24H788.357V311.847Z" fill="white"/>
<path opacity="0.4" d="M788.357 380.485H751.586V427.879H788.357V380.485Z" fill="white"/>
<path opacity="0.1" d="M224.277 59.91H218.655C219.187 59.9342 219.718 59.8504 220.217 59.6636C220.715 59.4768 221.171 59.1909 221.556 58.8232C221.94 58.4554 222.247 58.0135 222.456 57.524C222.665 57.0346 222.773 56.5078 222.773 55.9755C222.773 55.4432 222.665 54.9164 222.456 54.4269C222.247 53.9375 221.94 53.4955 221.556 53.1278C221.171 52.7601 220.715 52.4742 220.217 52.2874C219.718 52.1006 219.187 52.0168 218.655 52.041H173.117C172.104 52.0872 171.149 52.5218 170.449 53.2546C169.748 53.9874 169.358 54.962 169.358 55.9755C169.358 56.989 169.748 57.9635 170.449 58.6963C171.149 59.4291 172.104 59.8638 173.117 59.91H178.739C178.207 59.8857 177.676 59.9695 177.177 60.1563C176.679 60.3431 176.223 60.629 175.839 60.9967C175.454 61.3645 175.147 61.8064 174.938 62.2958C174.729 62.7853 174.621 63.3121 174.621 63.8444C174.621 64.3767 174.729 64.9035 174.938 65.393C175.147 65.8824 175.454 66.3244 175.839 66.6921C176.223 67.0598 176.679 67.3457 177.177 67.5325C177.676 67.7193 178.207 67.8031 178.739 67.7789H170.87C169.857 67.825 168.902 68.2597 168.201 68.9925C167.501 69.7253 167.111 70.6998 167.111 71.7133C167.111 72.7269 167.501 73.7014 168.201 74.4342C168.902 75.167 169.857 75.6017 170.87 75.6478H216.408C217.421 75.6017 218.376 75.167 219.077 74.4342C219.777 73.7014 220.168 72.7269 220.168 71.7133C220.168 70.6998 219.777 69.7253 219.077 68.9925C218.376 68.2597 217.421 67.825 216.408 67.7789H224.277C224.809 67.8031 225.34 67.7193 225.839 67.5325C226.337 67.3457 226.793 67.0598 227.177 66.6921C227.562 66.3244 227.869 65.8824 228.078 65.393C228.287 64.9035 228.395 64.3767 228.395 63.8444C228.395 63.3121 228.287 62.7853 228.078 62.2958C227.869 61.8064 227.562 61.3645 227.177 60.9967C226.793 60.629 226.337 60.3431 225.839 60.1563C225.34 59.9695 224.809 59.8857 224.277 59.91V59.91Z" fill="#252223"/>
<path opacity="0.1" d="M425.29 158.782H419.669C420.2 158.807 420.732 158.723 421.23 158.536C421.728 158.349 422.184 158.063 422.569 157.696C422.954 157.328 423.26 156.886 423.469 156.396C423.679 155.907 423.787 155.38 423.787 154.848C423.787 154.316 423.679 153.789 423.469 153.299C423.26 152.81 422.954 152.368 422.569 152C422.184 151.633 421.728 151.347 421.23 151.16C420.732 150.973 420.2 150.889 419.669 150.913H374.13C373.118 150.96 372.162 151.394 371.462 152.127C370.762 152.86 370.371 153.834 370.371 154.848C370.371 155.861 370.762 156.836 371.462 157.569C372.162 158.302 373.118 158.736 374.13 158.782H379.752C379.22 158.758 378.689 158.842 378.191 159.029C377.692 159.216 377.237 159.501 376.852 159.869C376.467 160.237 376.161 160.679 375.951 161.168C375.742 161.658 375.634 162.185 375.634 162.717C375.634 163.249 375.742 163.776 375.951 164.265C376.161 164.755 376.467 165.197 376.852 165.565C377.237 165.932 377.692 166.218 378.191 166.405C378.689 166.592 379.22 166.676 379.752 166.651H371.883C371.351 166.627 370.82 166.711 370.322 166.898C369.823 167.084 369.368 167.37 368.983 167.738C368.598 168.106 368.292 168.548 368.082 169.037C367.873 169.527 367.765 170.053 367.765 170.586C367.765 171.118 367.873 171.645 368.082 172.134C368.292 172.624 368.598 173.066 368.983 173.433C369.368 173.801 369.823 174.087 370.322 174.274C370.82 174.461 371.351 174.544 371.883 174.52H417.422C417.953 174.544 418.484 174.461 418.983 174.274C419.481 174.087 419.937 173.801 420.322 173.433C420.707 173.066 421.013 172.624 421.222 172.134C421.432 171.645 421.539 171.118 421.539 170.586C421.539 170.053 421.432 169.527 421.222 169.037C421.013 168.548 420.707 168.106 420.322 167.738C419.937 167.37 419.481 167.084 418.983 166.898C418.484 166.711 417.953 166.627 417.422 166.651H425.29C425.822 166.676 426.353 166.592 426.852 166.405C427.35 166.218 427.806 165.932 428.191 165.565C428.576 165.197 428.882 164.755 429.091 164.265C429.3 163.776 429.408 163.249 429.408 162.717C429.408 162.185 429.3 161.658 429.091 161.168C428.882 160.679 428.576 160.237 428.191 159.869C427.806 159.501 427.35 159.216 426.852 159.029C426.353 158.842 425.822 158.758 425.29 158.782V158.782Z" fill="#252223"/>
<path opacity="0.1" d="M767.667 29.6762H762.045C762.577 29.7005 763.108 29.6167 763.606 29.4299C764.105 29.2431 764.56 28.9572 764.945 28.5895C765.33 28.2217 765.637 27.7798 765.846 27.2903C766.055 26.8009 766.163 26.2741 766.163 25.7418C766.163 25.2095 766.055 24.6827 765.846 24.1932C765.637 23.7038 765.33 23.2618 764.945 22.8941C764.56 22.5264 764.105 22.2405 763.606 22.0537C763.108 21.8669 762.577 21.7831 762.045 21.8073H716.507C715.494 21.8535 714.538 22.2881 713.838 23.0209C713.138 23.7537 712.747 24.7283 712.747 25.7418C712.747 26.7553 713.138 27.7298 713.838 28.4626C714.538 29.1954 715.494 29.6301 716.507 29.6762H722.128C721.597 29.652 721.065 29.7358 720.567 29.9226C720.069 30.1094 719.613 30.3953 719.228 30.763C718.843 31.1308 718.537 31.5727 718.328 32.0621C718.118 32.5516 718.011 33.0784 718.011 33.6107C718.011 34.143 718.118 34.6698 718.328 35.1593C718.537 35.6487 718.843 36.0907 719.228 36.4584C719.613 36.8261 720.069 37.112 720.567 37.2988C721.065 37.4856 721.597 37.5694 722.128 37.5452H714.26C713.728 37.5209 713.197 37.6047 712.698 37.7915C712.2 37.9783 711.744 38.2642 711.359 38.632C710.974 38.9997 710.668 39.4416 710.459 39.9311C710.25 40.4205 710.142 40.9473 710.142 41.4796C710.142 42.012 710.25 42.5388 710.459 43.0282C710.668 43.5177 710.974 43.9596 711.359 44.3273C711.744 44.6951 712.2 44.981 712.698 45.1678C713.197 45.3545 713.728 45.4384 714.26 45.4141H759.798C760.33 45.4384 760.861 45.3545 761.359 45.1678C761.858 44.981 762.313 44.6951 762.698 44.3273C763.083 43.9596 763.389 43.5177 763.599 43.0282C763.808 42.5388 763.916 42.012 763.916 41.4796C763.916 40.9473 763.808 40.4205 763.599 39.9311C763.389 39.4416 763.083 38.9997 762.698 38.632C762.313 38.2642 761.858 37.9783 761.359 37.7915C760.861 37.6047 760.33 37.5209 759.798 37.5452H767.667C768.199 37.5694 768.73 37.4856 769.228 37.2988C769.727 37.112 770.182 36.8261 770.567 36.4584C770.952 36.0907 771.258 35.6487 771.468 35.1593C771.677 34.6698 771.785 34.143 771.785 33.6107C771.785 33.0784 771.677 32.5516 771.468 32.0621C771.258 31.5727 770.952 31.1308 770.567 30.763C770.182 30.3953 769.727 30.1094 769.228 29.9226C768.73 29.7358 768.199 29.652 767.667 29.6762V29.6762Z" fill="#252223"/>
<path d="M660.108 1.34648C653.221 1.28066 646.338 1.69568 639.508 2.58851V2.58851C639.508 1.27738 638.988 0.019958 638.06 -0.90715C637.133 -1.83426 635.876 -2.3551 634.565 -2.3551C633.254 -2.3551 631.996 -1.83426 631.069 -0.90715C630.142 0.019958 629.621 1.27738 629.621 2.58851V2.58851C622.792 1.69568 615.908 1.28066 609.021 1.34648C593.782 1.34648 581.419 2.98074 581.419 5.05624C581.419 7.13174 593.774 8.766 609.021 8.766C615.908 8.83182 622.792 8.4168 629.621 7.52396V7.52396C629.621 8.11865 629.729 8.70841 629.94 9.26444C629.494 9.53932 629.12 9.91749 628.85 10.3671C628.581 10.8166 628.424 11.3244 628.392 11.8475C628.36 12.3707 628.454 12.8939 628.666 13.373C628.879 13.852 629.204 14.273 629.613 14.6003C628.413 15.0094 627.312 15.6639 626.379 16.5221C625.447 17.3803 624.703 18.4233 624.195 19.5848C622.828 18.5405 621.175 17.9389 619.456 17.8606L568.132 15.5727C566.264 13.0729 563.839 11.0437 561.048 9.64641C558.258 8.24913 555.18 7.52237 552.059 7.52396H519.75C516.604 7.52251 513.502 8.26141 510.694 9.68092C507.886 11.1004 505.452 13.1607 503.587 15.6952L454.838 17.877C453.247 17.947 451.709 18.4654 450.401 19.3723C449.44 17.3149 447.748 15.6892 445.653 14.8127C446.178 14.4783 446.597 14.0009 446.86 13.4367C447.123 12.8725 447.219 12.2449 447.138 11.6277C447.056 11.0106 446.8 10.4296 446.4 9.95299C445.999 9.47643 445.471 9.12415 444.877 8.9376C445.014 8.47888 445.082 8.00262 445.081 7.52396C451.91 8.41683 458.794 8.83185 465.681 8.766C480.92 8.766 493.283 7.13174 493.283 5.05624C493.283 2.98074 480.928 1.34648 465.681 1.34648C458.794 1.28066 451.91 1.69568 445.081 2.58851V2.58851C445.081 1.28822 444.565 0.0411852 443.645 -0.878261C442.726 -1.79771 441.479 -2.31425 440.178 -2.31425C438.878 -2.31425 437.631 -1.79771 436.712 -0.878261C435.792 0.0411852 435.276 1.28822 435.276 2.58851C428.446 1.69568 421.563 1.28066 414.676 1.34648C399.436 1.34648 387.073 2.98074 387.073 5.05624C387.073 7.13174 399.428 8.766 414.676 8.766C421.563 8.83182 428.446 8.4168 435.276 7.52396V7.52396C435.275 8.11865 435.383 8.70841 435.594 9.26444C435.135 9.5463 434.752 9.93744 434.48 10.403C434.209 10.8686 434.056 11.3942 434.037 11.9329C434.017 12.4716 434.132 13.0068 434.369 13.4907C434.607 13.9746 434.96 14.3923 435.398 14.7065C433.669 15.3586 432.179 16.5217 431.126 18.0412C430.074 19.5606 429.509 21.3645 429.507 23.2128V29.3086C429.509 31.7087 430.459 34.0109 432.15 35.7141C433.841 37.4173 436.136 38.3838 438.536 38.4032H442.156C443.575 38.4032 444.974 38.0706 446.241 37.432C447.509 36.7934 448.608 35.8667 449.453 34.7261C450.957 36.1282 452.921 36.9331 454.977 36.9896L502.778 38.3297C504.304 40.7384 506.324 42.7965 508.703 44.3682C504.127 49.0177 486.281 69.6338 489.157 105.963C489.157 105.963 492.041 111.315 499.453 105.963C499.453 105.963 494.713 65.4828 521.246 48.8134C521.695 50.1045 522.535 51.2237 523.649 52.0159C524.764 52.808 526.097 53.2337 527.464 53.2341H530.855C527.018 54.7474 523.83 57.552 521.839 61.1643C519.849 64.7766 519.181 68.9702 519.952 73.022C520.722 77.0739 522.882 80.73 526.059 83.36C529.236 85.99 533.231 87.429 537.355 87.429C541.48 87.429 545.475 85.99 548.652 83.36C551.829 80.73 553.989 77.0739 554.759 73.022C555.529 68.9702 554.861 64.7766 552.871 61.1643C550.881 57.552 547.692 54.7474 543.855 53.2341H547.247C548.614 53.2337 549.947 52.808 551.061 52.0159C552.175 51.2237 553.015 50.1045 553.465 48.8134C579.997 65.4828 575.258 105.963 575.258 105.963C582.669 111.315 585.553 105.963 585.553 105.963C588.822 64.3552 564.954 43.355 564.954 43.355H564.521C566.278 41.9644 567.791 40.2909 568.998 38.4032L619.317 36.9977C621.48 36.9484 623.542 36.071 625.078 34.5464C625.915 35.7522 627.031 36.7374 628.332 37.4176C629.633 38.0978 631.079 38.4528 632.546 38.4522H636.166C637.362 38.4522 638.545 38.2168 639.65 37.7593C640.754 37.3019 641.758 36.6314 642.603 35.7861C643.448 34.9408 644.119 33.9373 644.576 32.8329C645.034 31.7285 645.269 30.5448 645.269 29.3494V23.2537C645.269 21.4956 644.759 19.7754 643.802 18.3007C642.845 16.826 641.481 15.6599 639.876 14.9435C640.435 14.6344 640.89 14.1685 641.187 13.6034C641.484 13.0383 641.609 12.3986 641.546 11.7634C641.483 11.1282 641.236 10.5252 640.835 10.0289C640.434 9.53249 639.896 9.1645 639.288 8.97028C639.424 8.51157 639.493 8.0353 639.492 7.55665C646.321 8.44951 653.205 8.86453 660.092 8.79868C675.331 8.79868 687.694 7.16443 687.694 5.08893C687.694 3.01342 675.356 1.34648 660.108 1.34648Z" fill="url(#paint0_linear)"/>
<path d="M537.36 85.4779C546.584 85.4779 554.062 78.0001 554.062 68.7758C554.062 59.5515 546.584 52.0737 537.36 52.0737C528.135 52.0737 520.658 59.5515 520.658 68.7758C520.658 78.0001 528.135 85.4779 537.36 85.4779Z" fill="#6C63FF"/>
<path d="M537.36 80.044C543.583 80.044 548.628 74.9991 548.628 68.7758C548.628 62.5526 543.583 57.5076 537.36 57.5076C531.136 57.5076 526.091 62.5526 526.091 68.7758C526.091 74.9991 531.136 80.044 537.36 80.044Z" fill="#6C63FF"/>
<path opacity="0.2" d="M537.36 80.044C543.583 80.044 548.628 74.9991 548.628 68.7758C548.628 62.5526 543.583 57.5076 537.36 57.5076C531.136 57.5076 526.091 62.5526 526.091 68.7758C526.091 74.9991 531.136 80.044 537.36 80.044Z" fill="#F5F5F5"/>
<path d="M537.36 76.1545C541.435 76.1545 544.738 72.8509 544.738 68.7758C544.738 64.7007 541.435 61.3972 537.36 61.3972C533.285 61.3972 529.981 64.7007 529.981 68.7758C529.981 72.8509 533.285 76.1545 537.36 76.1545Z" fill="#6C63FF"/>
<path opacity="0.25" d="M537.36 76.1545C541.435 76.1545 544.738 72.8509 544.738 68.7758C544.738 64.7007 541.435 61.3972 537.36 61.3972C533.285 61.3972 529.981 64.7007 529.981 68.7758C529.981 72.8509 533.285 76.1545 537.36 76.1545Z" fill="black"/>
<path d="M511.326 43.9106C511.326 43.9106 488.798 63.7341 491.903 102.956C491.903 102.956 494.624 108.006 501.618 102.956C501.618 102.956 495.792 53.2258 534.638 43.9024L511.326 43.9106Z" fill="#6C63FF"/>
<path d="M563.385 43.9106C563.385 43.9106 585.921 63.7341 582.841 102.956C582.841 102.956 580.12 108.006 573.125 102.956C573.125 102.956 578.951 53.2258 540.105 43.9024L563.385 43.9106Z" fill="#6C63FF"/>
<path d="M551.243 10.1061H520.748C510.287 10.1061 501.807 18.5863 501.807 29.0471C501.807 39.5079 510.287 47.9881 520.748 47.9881H551.243C561.704 47.9881 570.184 39.5079 570.184 29.0471C570.184 18.5863 561.704 10.1061 551.243 10.1061Z" fill="#6C63FF"/>
<path d="M513.009 39.4001L459.659 37.9048C457.576 37.8473 455.597 36.9792 454.144 35.4851C452.692 33.9911 451.879 31.9891 451.88 29.9051V27.8623C451.88 25.8029 452.674 23.8228 454.097 22.3343C455.52 20.8457 457.463 19.9633 459.52 19.8708L512.87 17.4766C513.95 17.428 515.028 17.5987 516.04 17.9784C517.052 18.3581 517.977 18.9389 518.758 19.6858C519.539 20.4327 520.161 21.3301 520.586 22.3239C521.01 23.3177 521.229 24.3873 521.229 25.4681V31.4086C521.229 32.4773 521.014 33.535 520.598 34.5193C520.182 35.5035 519.572 36.3944 518.806 37.1394C518.04 37.8843 517.132 38.4681 516.136 38.8564C515.141 39.2447 514.077 39.4296 513.009 39.4001V39.4001Z" fill="#6C63FF"/>
<path d="M561.317 39.4001L614.668 37.9048C616.751 37.8473 618.729 36.9792 620.182 35.4851C621.635 33.9911 622.448 31.9891 622.447 29.9051V27.8623C622.447 25.8029 621.653 23.8228 620.229 22.3343C618.806 20.8457 616.864 19.9633 614.807 19.8708L561.456 17.4766C560.377 17.428 559.298 17.5987 558.286 17.9784C557.275 18.3581 556.35 18.9389 555.569 19.6858C554.788 20.4327 554.166 21.3301 553.741 22.3239C553.316 23.3177 553.097 24.3873 553.097 25.4681V31.4086C553.098 32.4773 553.313 33.535 553.729 34.5193C554.145 35.5035 554.754 36.3944 555.521 37.1394C556.287 37.8843 557.195 38.4681 558.19 38.8564C559.186 39.2447 560.249 39.4296 561.317 39.4001V39.4001Z" fill="#6C63FF"/>
<path opacity="0.2" d="M513.009 39.4001L459.659 37.9048C457.576 37.8473 455.597 36.9792 454.144 35.4851C452.692 33.9911 451.879 31.9891 451.88 29.9051V27.8623C451.88 25.8029 452.674 23.8228 454.097 22.3343C455.52 20.8457 457.463 19.9633 459.52 19.8708L512.87 17.4766C513.95 17.428 515.028 17.5987 516.04 17.9784C517.052 18.3581 517.977 18.9389 518.758 19.6858C519.539 20.4327 520.161 21.3301 520.586 22.3239C521.01 23.3177 521.229 24.3873 521.229 25.4681V31.4086C521.229 32.4773 521.014 33.535 520.598 34.5193C520.182 35.5035 519.572 36.3944 518.806 37.1394C518.04 37.8843 517.132 38.4681 516.136 38.8564C515.141 39.2447 514.077 39.4296 513.009 39.4001V39.4001Z" fill="#F5F5F5"/>
<path opacity="0.2" d="M561.317 39.4001L614.668 37.9048C616.751 37.8473 618.729 36.9792 620.182 35.4851C621.635 33.9911 622.448 31.9891 622.447 29.9051V27.8623C622.447 25.8029 621.653 23.8228 620.229 22.3343C618.806 20.8457 616.864 19.9633 614.807 19.8708L561.456 17.4766C560.377 17.428 559.298 17.5987 558.286 17.9784C557.275 18.3581 556.35 18.9389 555.569 19.6858C554.788 20.4327 554.166 21.3301 553.741 22.3239C553.316 23.3177 553.097 24.3873 553.097 25.4681V31.4086C553.098 32.4773 553.313 33.535 553.729 34.5193C554.145 35.5035 554.754 36.3944 555.521 37.1394C556.287 37.8843 557.195 38.4681 558.19 38.8564C559.186 39.2447 560.249 39.4296 561.317 39.4001V39.4001Z" fill="#F5F5F5"/>
<path d="M447.034 16.3244H444.697C439.656 16.3244 435.57 20.4108 435.57 25.4517V30.1175C435.57 35.1584 439.656 39.2448 444.697 39.2448H447.034C452.075 39.2448 456.161 35.1584 456.161 30.1175V25.4517C456.161 20.4108 452.075 16.3244 447.034 16.3244Z" fill="#6C63FF"/>
<path d="M630.022 16.3244H627.685C622.644 16.3244 618.558 20.4108 618.558 25.4517V30.1175C618.558 35.1584 622.644 39.2448 627.685 39.2448H630.022C635.063 39.2448 639.149 35.1584 639.149 30.1175V25.4517C639.149 20.4108 635.063 16.3244 630.022 16.3244Z" fill="#6C63FF"/>
<path d="M449.167 11.2746H442.949C441.234 11.2746 439.844 12.6648 439.844 14.3797V14.3879C439.844 16.1027 441.234 17.4929 442.949 17.4929H449.167C450.882 17.4929 452.272 16.1027 452.272 14.3879V14.3797C452.272 12.6648 450.882 11.2746 449.167 11.2746Z" fill="#6C63FF"/>
<path d="M450.335 5.44839C450.335 2.87154 448.248 0.782593 445.673 0.782593C443.099 0.782593 441.012 2.87154 441.012 5.44839V10.106C441.012 12.6829 443.099 14.7718 445.673 14.7718C448.248 14.7718 450.335 12.6829 450.335 10.106V5.44839Z" fill="#6C63FF"/>
<path d="M421.581 11.2745C435.959 11.2745 447.615 9.70872 447.615 7.77721C447.615 5.8457 435.959 4.27991 421.581 4.27991C407.203 4.27991 395.547 5.8457 395.547 7.77721C395.547 9.70872 407.203 11.2745 421.581 11.2745Z" fill="#6C63FF"/>
<path d="M469.759 11.2745C484.137 11.2745 495.792 9.70872 495.792 7.77721C495.792 5.8457 484.137 4.27991 469.759 4.27991C455.381 4.27991 443.725 5.8457 443.725 7.77721C443.725 9.70872 455.381 11.2745 469.759 11.2745Z" fill="#6C63FF"/>
<path d="M632.539 11.2746H626.32C624.606 11.2746 623.215 12.6648 623.215 14.3797V14.3879C623.215 16.1027 624.606 17.4929 626.32 17.4929H632.539C634.254 17.4929 635.644 16.1027 635.644 14.3879V14.3797C635.644 12.6648 634.254 11.2746 632.539 11.2746Z" fill="#6C63FF"/>
<path d="M633.707 5.44839C633.707 2.87154 631.62 0.782593 629.045 0.782593C626.471 0.782593 624.384 2.87154 624.384 5.44839V10.106C624.384 12.6829 626.471 14.7718 629.045 14.7718C631.62 14.7718 633.707 12.6829 633.707 10.106V5.44839Z" fill="#6C63FF"/>
<path d="M604.96 11.2745C619.338 11.2745 630.994 9.70872 630.994 7.77721C630.994 5.8457 619.338 4.27991 604.96 4.27991C590.582 4.27991 578.927 5.8457 578.927 7.77721C578.927 9.70872 590.582 11.2745 604.96 11.2745Z" fill="#6C63FF"/>
<path d="M653.13 11.2745C667.508 11.2745 679.164 9.70872 679.164 7.77721C679.164 5.8457 667.508 4.27991 653.13 4.27991C638.752 4.27991 627.097 5.8457 627.097 7.77721C627.097 9.70872 638.752 11.2745 653.13 11.2745Z" fill="#6C63FF"/>
<path opacity="0.2" d="M421.581 11.2745C435.959 11.2745 447.615 9.70872 447.615 7.77721C447.615 5.8457 435.959 4.27991 421.581 4.27991C407.203 4.27991 395.547 5.8457 395.547 7.77721C395.547 9.70872 407.203 11.2745 421.581 11.2745Z" fill="#F5F5F5"/>
<path opacity="0.2" d="M469.759 11.2745C484.137 11.2745 495.792 9.70872 495.792 7.77721C495.792 5.8457 484.137 4.27991 469.759 4.27991C455.381 4.27991 443.725 5.8457 443.725 7.77721C443.725 9.70872 455.381 11.2745 469.759 11.2745Z" fill="#F5F5F5"/>
<path opacity="0.2" d="M604.96 11.2745C619.338 11.2745 630.994 9.70872 630.994 7.77721C630.994 5.8457 619.338 4.27991 604.96 4.27991C590.582 4.27991 578.927 5.8457 578.927 7.77721C578.927 9.70872 590.582 11.2745 604.96 11.2745Z" fill="#F5F5F5"/>
<path opacity="0.2" d="M653.13 11.2745C667.508 11.2745 679.164 9.70872 679.164 7.77721C679.164 5.8457 667.508 4.27991 653.13 4.27991C638.752 4.27991 627.097 5.8457 627.097 7.77721C627.097 9.70872 638.752 11.2745 653.13 11.2745Z" fill="#F5F5F5"/>
<path d="M546.683 40.7974H528.036C524.602 40.7974 521.818 43.5796 521.818 47.0116C521.818 50.4437 524.602 53.2259 528.036 53.2259H546.683C550.117 53.2259 552.901 50.4437 552.901 47.0116C552.901 43.5796 550.117 40.7974 546.683 40.7974Z" fill="#6C63FF"/>
<path opacity="0.2" d="M546.683 40.7974H528.036C524.602 40.7974 521.818 43.5796 521.818 47.0116C521.818 50.4437 524.602 53.2259 528.036 53.2259H546.683C550.117 53.2259 552.901 50.4437 552.901 47.0116C552.901 43.5796 550.117 40.7974 546.683 40.7974Z" fill="#F5F5F5"/>
<path d="M565.575 105.375H496.356V174.594H565.575H583.257V105.375H565.575Z" fill="#67647E"/>
<path opacity="0.25" d="M583.266 105.375H565.575V174.594H583.266V105.375Z" fill="black"/>
<path opacity="0.25" d="M517.888 116.913H504.813V123.834H517.888V116.913Z" fill="black"/>
<path d="M534.181 97.2363C537.123 101.404 536.632 106.772 536.632 106.772C536.632 106.772 531.419 105.391 528.461 101.224C525.503 97.0565 524.375 92.7911 526.01 91.688C527.644 90.5849 531.239 93.0608 534.181 97.2363Z" fill="#67647E"/>
<path d="M539.157 97.2363C536.215 101.404 536.705 106.772 536.705 106.772C536.705 106.772 541.919 105.391 544.877 101.224C547.835 97.0565 548.962 92.7911 547.328 91.688C545.694 90.5849 542.098 93.0608 539.157 97.2363Z" fill="#67647E"/>
<path d="M174.669 286.475L174.58 286.753C174.618 286.663 174.648 286.57 174.669 286.475V286.475Z" fill="url(#paint1_linear)"/>
<path d="M437.711 512.5C437.768 512.419 437.825 512.345 437.866 512.263L437.956 512.092C437.997 512.01 438.046 511.937 438.078 511.855L438.144 511.683C438.144 511.602 438.209 511.52 438.234 511.438C438.258 511.356 438.234 511.332 438.275 511.275C438.315 511.218 438.315 511.111 438.332 511.021C438.348 510.932 438.332 510.923 438.332 510.866C438.332 510.809 438.332 510.695 438.332 510.605C438.332 510.515 438.332 510.515 438.332 510.466C438.332 510.417 438.332 510.286 438.332 510.196C438.332 510.106 438.332 510.114 438.332 510.074C438.332 510.033 438.332 509.886 438.332 509.796V509.689C438.332 509.591 438.332 509.493 438.266 509.395V509.305C438.266 509.199 438.201 509.101 438.168 508.995V508.93C438.13 508.821 438.087 508.714 438.038 508.611V508.562C437.989 508.447 437.934 508.336 437.874 508.227L437.678 507.875C436.925 506.709 435.977 505.681 434.875 504.836C426.451 508.309 416.081 504.337 416.081 504.337C416.081 504.337 402.19 497.4 403.195 499.377C403.53 500.047 403.359 501.379 402.983 502.866C396.331 501.469 392.663 497.898 390.669 494.695L398.244 486.524C398.244 486.524 367.511 469.176 364.047 460.253C360.582 451.33 343.725 426.056 343.725 426.056C343.725 426.056 338.275 406.233 328.363 401.771C328.363 401.771 308.596 378.157 297.05 357.908C301.136 347.702 306.856 331.76 305.565 324.953C303.931 316.472 305.622 300.44 306.3 294.769C311.783 299.345 334.083 317.46 342.736 317.027C345.849 316.872 349.199 315.205 352.345 312.982C359.83 308.243 366.531 299.68 366.531 299.68C365.518 299.778 364.692 298.863 364.022 297.31C372.3 288.322 389.443 269.822 391.314 269.446C393.766 268.947 407.175 245.659 399.739 240.699C392.303 235.739 378.927 253.585 378.428 257.042C378.093 259.395 367.724 269.724 361.089 276.13C361.089 275.967 361.089 275.877 361.089 275.877L360.108 276.367C360.108 276.056 360.108 275.877 360.108 275.877L342.989 284.432L328.387 264.478C328.387 264.478 324.424 243.167 314.496 239.694C304.568 236.222 297.238 225.525 297.238 225.525C297.146 225.873 297.073 226.224 297.018 226.579C296.519 225.918 296.25 225.525 296.25 225.525C296.25 225.525 296.25 225.615 296.184 225.762C295.436 222.711 295.245 219.55 295.62 216.431L295.759 216.349C295.817 215.965 295.882 215.597 295.947 215.246C301.016 212.172 304.816 207.383 306.658 201.748C308.501 196.113 308.263 190.005 305.99 184.53C308.515 182.765 312.175 181.67 315.289 180.33C319.691 178.534 323.547 175.619 326.475 171.873C324.77 171.446 322.981 171.482 321.295 171.979C321.082 169.683 323.746 167.076 321.67 165.328C320.396 164.241 318.018 164.339 316.204 164.878C314.39 165.417 312.731 166.3 310.803 166.512C307.444 166.921 304.266 165.295 301.871 163.538C299.477 161.781 297.222 159.722 294.019 158.889C287.653 157.254 281.345 161.021 274.955 162.623C264.692 165.189 258.613 167.934 258.114 174.471C256.793 175.359 255.576 176.392 254.486 177.552C252.281 179.469 250.756 182.049 250.139 184.906C249.273 189.351 251.071 193.894 253.244 197.849C254.478 200.113 260.41 211.838 264.439 210.294C265.554 211.575 266.797 212.739 268.149 213.767C268.018 215.115 267.83 216.48 267.618 217.852C266.709 218.349 265.722 218.689 264.7 218.858C262.483 219.269 260.231 219.466 257.975 219.446C254.45 219.42 250.929 219.204 247.426 218.8C244.022 218.407 240.598 218.211 237.171 218.212C235.463 218.206 233.756 218.288 232.056 218.457H231.795L230.781 218.58H230.626L229.523 218.76H229.4L228.502 218.939L228.297 218.98L227.382 219.201L226.483 219.454L226.336 219.495L225.634 219.716L225.478 219.765C224.947 219.944 224.449 220.14 223.975 220.337L223.828 220.402L223.239 220.655L223.133 220.704L222.471 221.015H222.414L221.842 221.301L221.703 221.374L221.147 221.66L220.445 222.028L220.02 222.249L219.824 222.355L219.244 222.649C214.284 225.1 166.212 238.011 157.787 263.783L157.959 263.938L158.147 264.11C158.008 264.486 157.869 264.862 157.747 265.238C157.747 265.238 158.564 265.973 159.838 267.166C157.575 277.021 151.512 302.205 148.325 303.398C144.362 304.885 139.901 335.118 150.311 334.13C160.721 333.141 160.721 308.856 160.721 308.856C160.721 308.856 167.585 290.454 172.643 281.115C173.515 282.278 174.186 283.578 174.628 284.963V285.069V284.971C174.751 285.396 174.771 285.845 174.686 286.279C175.176 284.841 177.717 278.238 183.02 279.121C188.683 280.069 210.075 258.995 212.102 256.977C212.053 257.524 211.988 258.21 211.922 259.003C211.922 259.469 211.84 259.967 211.8 260.507V260.678V261.087V261.356V261.773V262.067V262.484V262.86L211.759 263.473V263.971V264.323V264.821V265.156V265.679V266.03V266.602V266.929L211.701 267.828V267.951L211.652 268.768V269.054V269.74V270.067V270.77V271.064L211.612 271.881V272.044C211.612 272.398 211.595 272.755 211.563 273.115V273.18C211.563 273.507 211.549 273.834 211.522 274.161V274.447V275.264V275.591C211.522 275.863 211.522 276.135 211.522 276.408V276.686C211.522 277.432 211.497 278.186 211.448 278.949V279.113C211.448 279.434 211.448 279.755 211.448 280.077V280.371C211.448 280.66 211.448 280.948 211.448 281.237V281.539C211.448 281.855 211.448 282.174 211.448 282.495V282.683C211.448 283.462 211.448 284.247 211.448 285.037C211.448 285.118 211.448 285.2 211.448 285.29C211.448 285.595 211.448 285.9 211.448 286.205C211.448 286.309 211.448 286.415 211.448 286.524C211.448 286.813 211.448 287.104 211.448 287.398C211.448 287.48 211.448 287.562 211.448 287.643C211.448 298.454 212.11 309.461 214.537 315.736C215.825 319.11 216.511 322.683 216.563 326.293C216.334 332.821 214.624 339.212 211.563 344.981V344.981L212.143 344.801L212.037 344.989L212.355 344.891C211.865 345.913 211.538 346.477 211.538 346.477C211.538 346.477 212.257 346.248 213.54 345.872C211.71 352.327 210.492 362.263 214.014 374.733C214.014 374.733 216 385.633 214.512 389.604C213.025 393.576 211.538 425.288 211.538 425.288C211.538 425.288 208.564 429.251 203.114 426.776C197.663 424.3 130.757 415.875 130.757 415.875C130.757 415.875 130.602 416.145 130.34 416.627C128.281 415.981 125.315 414.993 123.149 414.086C123.967 412.958 124.694 412.312 125.307 412.402C125.307 412.402 121.736 410.678 117.846 409.314L117.135 409.068L116.441 408.84H116.392L115.73 408.635H115.656L115.052 408.464H114.929L114.357 408.317H114.21L113.663 408.194H113.507L113.017 408.096H112.829L112.388 408.023H112.175L111.775 407.974H111.554H111.179H110.419H110.116H109.92L109.65 408.031H109.471L109.242 408.112L109.078 408.17C109.005 408.206 108.934 408.247 108.866 408.292L108.743 408.366C108.644 408.439 108.553 408.524 108.474 408.619C106.022 411.593 92.1313 468.588 98.5621 472.551L99.1177 472.886L99.3465 473.017L99.6407 473.18L99.9267 473.327L100.131 473.434L100.441 473.581L100.597 473.654L100.915 473.793L101.03 473.842L101.357 473.965H101.43L101.765 474.071H101.806C105.401 475.043 106.594 471.718 110.95 464.592C115.215 457.614 120.698 448.814 125.486 445.553C125.593 445.79 125.699 446.027 125.813 446.256C125.813 446.256 175.87 451.706 194.207 457.696C212.543 463.685 226.892 471.587 238.814 457.696C249.485 445.251 260.149 404.893 262.233 396.713L262.543 395.488V395.382V395.275L302.19 425.509L319.538 445.831C319.538 445.831 343.823 480.028 348.284 480.526C352.746 481.025 372.839 513.751 372.839 513.751L373.591 512.933C373.771 513.84 373.909 514.674 374.016 515.385C372.381 519.315 373.893 524.055 375.38 527.176L375.446 527.307L375.617 527.65L375.707 527.83L375.871 528.148L375.952 528.304L376.124 528.631L376.214 528.786L376.344 529.023L376.41 529.145L376.581 529.439L376.655 529.562L376.761 529.734L376.818 529.832L376.949 530.044L376.998 530.126L377.08 530.248V530.306L377.162 530.436L377.211 530.502C377.211 530.502 429.253 518.114 435.692 514.159C435.897 514.037 436.085 513.906 436.264 513.775L436.428 513.644L436.755 513.383L436.918 513.228L437.171 512.991L437.318 512.819L437.515 512.59L437.711 512.5Z" fill="url(#paint2_linear)"/>
<path d="M135.464 415.704C135.464 415.704 123.877 412.321 123.395 410.874C122.913 409.428 113.254 437.423 113.254 437.423L122.913 444.18C122.913 444.18 133.053 438.387 138.364 439.351C143.676 440.315 135.464 415.704 135.464 415.704Z" fill="#4C4C56"/>
<path d="M385.047 484.734C385.047 484.734 386.493 497.808 402.427 499.214C418.361 500.619 391.805 512.288 391.805 512.288L371.532 513.734C371.532 513.734 371.049 505.563 367.667 499.255C364.284 492.947 385.047 484.734 385.047 484.734Z" fill="#4C4C56"/>
<path d="M217.536 337.978C217.536 337.978 208.368 351.976 214.643 374.185C214.643 374.185 216.572 384.808 215.125 388.665C213.679 392.522 212.233 423.425 212.233 423.425C212.233 423.425 209.34 427.29 204.062 424.872C198.783 422.453 133.584 414.249 133.584 414.249C133.584 414.249 122.962 432.594 128.755 443.666C128.755 443.666 177.513 448.977 195.376 454.77C213.238 460.564 227.243 468.286 238.822 454.77C250.401 441.255 261.996 393.943 261.996 393.943L300.613 423.36L317.512 443.151C317.512 443.151 341.167 476.457 345.514 476.939C349.862 477.421 370.134 509.281 370.134 509.281L394.755 482.733C394.755 482.733 364.774 465.908 361.399 457.214C358.025 448.519 341.609 423.908 341.609 423.908C341.609 423.908 336.297 404.599 326.647 400.252C326.647 400.252 291.886 358.733 288.512 339.425C285.137 320.116 230.569 329.301 230.569 329.301L217.536 337.978Z" fill="#5F5D7E"/>
<path d="M397.116 504.983C397.116 504.983 400.499 497.261 399.567 495.324C398.636 493.388 412.061 500.178 412.061 500.178C412.061 500.178 422.202 504.043 430.406 500.66C430.406 500.66 437.646 505.972 431.37 509.828C425.095 513.685 374.408 525.762 374.408 525.762C374.408 525.762 366.686 514.658 372.962 508.382L397.116 504.983Z" fill="#986365"/>
<path opacity="0.1" d="M361.399 457.214C358.016 448.528 341.608 423.908 341.608 423.908C341.608 423.908 336.297 404.599 326.647 400.252C326.647 400.252 291.886 358.733 288.511 339.425C287.817 335.445 284.941 332.675 280.822 330.788L274.089 351.012L264.896 378.63C263.123 383.958 261.44 389.899 261.628 395.406C261.865 394.491 261.987 393.984 261.987 393.984L300.605 423.401L317.503 443.192C317.503 443.192 341.159 476.498 345.506 476.98C349.853 477.462 370.126 509.322 370.126 509.322L394.746 482.773C394.746 482.773 364.774 465.908 361.399 457.214Z" fill="black"/>
<path d="M296.217 213.914C296.217 213.914 292.132 224.291 297.426 233.95C302.721 243.608 295.253 260.744 290.424 261.732C285.595 262.721 266.286 250.145 264.839 241.941C263.393 233.737 271.115 216.839 267.291 205.734L296.217 213.914Z" fill="#FDC2CC"/>
<path opacity="0.1" d="M270.151 231.776C270.151 231.776 285.112 262.19 301.528 240.462C301.528 240.462 317.945 273.769 312.633 279.08C308.856 282.755 304.823 286.157 300.564 289.261L291.878 350.088C291.878 350.088 242.638 333.19 221.883 336.091L253.751 259.82L270.151 231.776Z" fill="black"/>
<path d="M270.151 230.33C270.151 230.33 285.112 260.743 301.528 239.016C301.528 239.016 317.945 272.322 312.633 277.633C308.855 281.295 304.822 284.683 300.564 287.774L291.878 348.601C291.878 348.601 242.638 331.703 221.883 334.604L253.751 258.333L270.151 230.33Z" fill="#D39999"/>
<path d="M163.467 265.565C163.467 265.565 155.295 303.218 151.398 304.664C147.5 306.11 143.226 335.56 153.326 334.595C163.426 333.631 163.467 309.975 163.467 309.975C163.467 309.975 174.089 281.49 178.428 278.107C182.767 274.725 163.467 265.565 163.467 265.565Z" fill="#FDC2CC"/>
<path d="M353.187 282.945C353.187 282.945 374.915 262.672 375.397 259.289C375.879 255.906 388.912 238.534 396.152 243.355C403.392 248.176 390.358 270.868 387.981 271.358C385.603 271.848 357.085 303.226 357.085 303.226L353.187 282.945Z" fill="#FDC2CC"/>
<path opacity="0.1" d="M267.977 222.363C267.977 222.363 265.322 225.501 247.459 223.572C229.597 221.644 225.25 225.019 220.429 227.437C215.608 229.856 168.778 242.399 160.566 267.477C160.566 267.477 178.91 283.893 176.982 288.232C176.982 288.232 179.433 280.06 185.153 280.992C190.873 281.923 213.638 259.265 213.638 259.265C213.638 259.265 209.291 301.755 215.085 316.709C220.878 331.662 212.192 346.64 212.192 346.64C212.192 346.64 253.228 333.566 271.573 339.882C271.573 339.882 282.195 292.088 273.019 272.78C263.843 253.471 276.884 235.127 276.884 235.127L267.977 222.363Z" fill="black"/>
<path opacity="0.1" d="M268.459 220.917C268.459 220.917 265.804 224.055 247.941 222.126C230.079 220.198 225.732 223.572 220.911 225.991C216.09 228.41 169.26 240.953 161.048 266.03C161.048 266.03 179.393 282.446 177.464 286.785C177.464 286.785 179.916 278.614 185.635 279.546C191.355 280.477 214.121 257.818 214.121 257.818C214.121 257.818 209.773 300.309 215.567 315.262C221.36 330.216 212.682 345.218 212.682 345.218C212.682 345.218 253.719 332.144 272.063 338.461C272.063 338.461 282.686 290.667 273.509 271.358C264.333 252.049 277.391 233.697 277.391 233.697L268.459 220.917Z" fill="black"/>
<path d="M267.977 220.917C267.977 220.917 265.322 224.055 247.459 222.126C229.597 220.198 225.25 223.572 220.429 225.991C215.608 228.41 168.778 240.953 160.566 266.03C160.566 266.03 178.91 282.446 176.982 286.785C176.982 286.785 179.433 278.614 185.153 279.546C190.873 280.477 213.638 257.818 213.638 257.818C213.638 257.818 209.291 300.309 215.085 315.262C220.878 330.216 212.192 345.194 212.192 345.194C212.192 345.194 253.228 332.12 271.573 338.436C271.573 338.436 282.195 290.642 273.019 271.334C263.843 252.025 276.908 233.697 276.908 233.697L267.977 220.917Z" fill="#EC7580"/>
<path opacity="0.1" d="M295.016 229.611C295.016 229.611 302.019 239.988 311.669 243.371C321.319 246.754 325.184 267.509 325.184 267.509L339.664 287.3L357.044 278.639C357.044 278.639 357.526 302.294 362.355 301.812C362.355 301.812 350.286 317.264 340.628 317.746C330.97 318.228 303.947 294.981 303.947 294.981C303.947 294.981 301.055 316.226 302.983 326.359C304.911 336.491 290.914 367.395 290.914 367.395L271.605 363.53C271.605 363.53 281.746 324.913 294.297 318.637C294.297 318.637 294.297 292.571 292.368 286.295C290.44 280.02 304.92 256.364 302.991 251.534C301.904 248.83 297.655 243.036 295.506 237.774C294.52 235.165 294.349 232.319 295.016 229.611V229.611Z" fill="black"/>
<path opacity="0.1" d="M296.462 228.639C296.462 228.639 303.465 239.016 313.115 242.399C322.765 245.782 326.63 266.537 326.63 266.537L341.11 286.328L358.49 277.642C358.49 277.642 358.972 301.298 363.802 300.815C363.802 300.815 351.733 316.267 342.074 316.749C332.416 317.232 305.385 294.058 305.385 294.058C305.385 294.058 302.492 315.303 304.421 325.435C306.349 335.568 292.352 366.472 292.352 366.472L273.043 362.607C273.043 362.607 283.184 323.989 295.735 317.714C295.735 317.714 295.735 291.647 293.806 285.372C291.878 279.096 306.357 255.44 304.429 250.611C303.342 247.906 299.093 242.113 296.944 236.851C295.95 234.226 295.782 231.361 296.462 228.639V228.639Z" fill="black"/>
<path d="M295.498 228.639C295.498 228.639 302.501 239.016 312.151 242.399C321.801 245.782 325.666 266.537 325.666 266.537L340.154 286.328L357.534 277.642C357.534 277.642 358.016 301.298 362.845 300.815C362.845 300.815 350.776 316.267 341.118 316.749C331.46 317.232 304.429 294.058 304.429 294.058C304.429 294.058 301.536 315.303 303.465 325.435C305.393 335.568 291.396 366.472 291.396 366.472L272.087 362.607C272.087 362.607 282.228 323.989 294.779 317.714C294.779 317.714 294.779 291.647 292.85 285.372C290.922 279.096 305.401 255.44 303.473 250.611C302.386 247.906 298.137 242.113 295.988 236.851C294.992 234.227 294.821 231.362 295.498 228.639V228.639Z" fill="#EC7580"/>
<path opacity="0.05" d="M296.315 229.456C296.315 229.456 303.318 239.833 312.968 243.216C322.618 246.599 326.483 267.354 326.483 267.354L340.971 287.145L358.351 278.459C358.351 278.459 358.833 302.115 363.663 301.633C363.663 301.633 351.594 317.084 341.935 317.567C332.277 318.049 305.246 294.875 305.246 294.875C305.246 294.875 302.354 316.12 304.282 326.253C306.21 336.385 292.213 367.289 292.213 367.289L272.904 363.424C272.904 363.424 283.045 324.806 295.596 318.531C295.596 318.531 295.596 292.464 293.667 286.189C291.739 279.913 306.219 256.257 304.29 251.428C303.203 248.724 298.954 242.93 296.805 237.668C295.809 235.044 295.638 232.179 296.315 229.456V229.456Z" fill="black"/>
<path d="M128.224 410.874C128.224 410.874 114.227 404.117 111.808 407.009C109.389 409.902 95.8739 465.418 102.149 469.283C108.425 473.148 108.907 470.247 114.218 461.561C119.53 452.875 126.769 441.288 132.081 441.77C132.081 441.77 116.629 436.459 117.119 434.53C117.609 432.602 124.849 410.392 128.224 410.874Z" fill="#986365"/>
<path opacity="0.1" d="M268.132 218.171C271.957 221.07 276.56 222.762 281.352 223.031C286.143 223.3 290.906 222.135 295.032 219.683C295.265 218.04 295.665 216.424 296.225 214.862L267.258 206.691C268.451 210.098 268.533 214.086 268.132 218.171Z" fill="black"/>
<path d="M286.044 199.287C291.927 199.794 299.118 198.691 301.283 194.687C301.912 193.535 302.043 192.236 302.681 191.116C304.527 187.799 309.806 186.442 314.047 184.579C318.333 182.83 322.088 179.99 324.939 176.342C323.276 175.927 321.533 175.964 319.889 176.449C319.685 174.218 322.259 171.669 320.257 169.969C319.015 168.915 316.702 169.013 314.929 169.536C313.156 170.059 311.555 170.917 309.667 171.17C306.399 171.57 303.302 169.985 300.965 168.269C298.628 166.553 296.438 164.551 293.316 163.742C287.122 162.108 280.969 165.826 274.751 167.379C261.996 170.574 255.81 174.038 259.275 185.127C261.841 193.339 275.339 198.364 286.044 199.287Z" fill="#865A61"/>
<path d="M282.702 222.118C296.033 222.118 306.84 211.311 306.84 197.98C306.84 184.649 296.033 173.842 282.702 173.842C269.371 173.842 258.564 184.649 258.564 197.98C258.564 211.311 269.371 222.118 282.702 222.118Z" fill="#FDC2CC"/>
<path opacity="0.1" d="M263.941 194.303C265.109 189.564 268.484 185.143 273.182 183.827C277.178 182.708 281.427 183.925 285.333 185.339C289.239 186.753 293.218 188.403 297.361 188.158C301.504 187.913 305.851 185.053 306.162 180.918C306.237 180.279 306.132 179.631 305.859 179.047C305.438 178.361 304.843 177.797 304.135 177.413C298.064 173.54 291.159 170.492 283.96 170.606C278.036 170.704 272.373 172.927 266.866 175.117C259.92 177.879 252.019 181.744 250.589 189.081C249.772 193.412 251.496 197.817 253.612 201.69C254.838 203.929 260.77 215.679 264.692 213.742C266.278 212.991 263.189 197.343 263.941 194.303Z" fill="black"/>
<path d="M264.905 193.339C266.073 188.599 269.448 184.179 274.147 182.863C278.142 181.744 282.391 182.961 286.297 184.375C290.203 185.788 294.183 187.439 298.325 187.194C302.468 186.949 306.815 184.089 307.126 179.954C307.201 179.314 307.096 178.666 306.823 178.083C306.402 177.397 305.807 176.833 305.099 176.449C299.028 172.575 292.123 169.528 284.924 169.642C279 169.74 273.338 171.963 267.83 174.153C260.885 176.914 252.983 180.779 251.553 188.117C250.736 192.448 252.46 196.852 254.576 200.725C255.802 202.964 261.734 214.715 265.657 212.778C267.242 212.026 264.161 196.378 264.905 193.339Z" fill="#865A61"/>
<path opacity="0.5" d="M103.604 469.773C97.3283 465.908 110.844 410.392 113.262 407.5C114.316 406.233 117.601 406.813 120.96 407.875C117.152 406.543 113.025 405.563 111.816 407.058C109.365 409.951 95.882 465.467 102.158 469.332C103.225 470.057 104.407 470.596 105.655 470.925C104.946 470.587 104.261 470.202 103.604 469.773V469.773Z" fill="white"/>
<path opacity="0.5" d="M433.152 503.626C433.805 505.261 433.609 507.214 430.904 508.872C424.629 512.737 373.942 524.806 373.942 524.806C373.439 524.051 372.977 523.268 372.562 522.461C373.1 523.609 373.723 524.715 374.425 525.771C374.425 525.771 425.087 513.702 431.387 509.837C434.631 507.843 434.263 505.457 433.152 503.626Z" fill="white"/>
<g opacity="0.05">
<path opacity="0.05" d="M179.564 281.972C175.552 275.517 164.472 265.564 164.472 265.564C172.643 240.462 219.505 227.911 224.334 225.525C226.998 224.193 229.515 222.567 234.238 221.701C226.884 222.24 223.787 224.349 220.477 226.007C215.648 228.459 168.827 240.969 160.615 266.047C160.615 266.047 178.248 281.825 177.113 286.532C177.661 284.882 178.491 283.34 179.564 281.972V281.972Z" fill="black"/>
<path opacity="0.05" d="M177.072 286.54L176.982 286.81C177.02 286.723 177.05 286.633 177.072 286.54V286.54Z" fill="black"/>
<path opacity="0.05" d="M268.533 221.709L267.977 220.892C267.977 220.892 267.364 221.611 264.766 222.151C266.03 222.088 267.289 221.941 268.533 221.709V221.709Z" fill="black"/>
<path opacity="0.05" d="M185.717 279.595C186.447 279.525 187.16 279.332 187.825 279.023C187.09 279.063 186.372 279.258 185.717 279.595V279.595Z" fill="black"/>
<path opacity="0.05" d="M248.521 337.374C257.159 336.426 265.591 336.409 271.597 338.46C271.597 338.46 271.712 337.954 271.9 337.047C265.313 335.764 256.856 336.213 248.521 337.374Z" fill="black"/>
<path opacity="0.05" d="M216.506 343.952C218.141 340.683 224 327.756 218.958 314.805C213.164 299.843 217.512 257.361 217.512 257.361C217.512 257.361 215.877 258.995 213.328 261.446C212.437 271.979 210.329 302.989 215.101 315.319C220.894 330.281 212.208 345.251 212.208 345.251C212.208 345.251 213.818 344.712 216.506 343.952Z" fill="black"/>
</g>
<path opacity="0.1" d="M649.094 500.358C643.276 503.357 637.18 505.947 631.166 508.529C608.948 517.91 586.395 527.372 562.527 530.592C517.732 536.63 471.466 520.279 427.431 530.453C390.538 538.967 360.027 565.058 323.983 576.678C307.224 582.079 289.786 584.195 272.194 584.195H269.881C267.702 584.168 265.539 584.113 263.393 584.032C245.555 583.362 227.644 580.722 210.157 577.348C154.944 566.725 98.7501 547.253 56.5374 511.405C179.458 488.91 432.645 454.444 649.094 500.358Z" fill="#252223"/>
<path d="M518.68 360.122C518.68 360.122 534.549 375.991 525.593 399.541C516.637 423.09 540.955 462.255 540.955 462.255L540.211 462.133C507.616 456.413 491.421 419.103 509.545 391.41C516.278 381.106 521.81 369.029 518.68 360.122Z" fill="#6C63FF"/>
<path d="M518.68 360.122C518.68 360.122 527.668 379.578 518.68 395.447C509.691 411.316 517.143 455.857 540.946 462.255" stroke="#535461" stroke-miterlimit="10"/>
<path d="M490.416 424.308C490.416 424.308 508.523 421.423 510.174 437.652C511.824 453.88 545 456.127 545 456.127L544.379 456.544C516.988 474.52 490.808 467.983 494.754 444.123C496.225 435.249 496.095 426.334 490.416 424.308Z" fill="#6C63FF"/>
<path opacity="0.2" d="M490.416 424.308C490.416 424.308 508.523 421.423 510.174 437.652C511.824 453.88 545 456.127 545 456.127L544.379 456.544C516.988 474.52 490.808 467.983 494.754 444.123C496.225 435.249 496.095 426.334 490.416 424.308Z" fill="#F5F5F5"/>
<path d="M490.416 424.308C490.416 424.308 504.47 427.397 503.318 440.177C502.166 452.956 524.196 468.278 544.991 456.135" stroke="#535461" stroke-miterlimit="10"/>
<path d="M559.634 459.224C559.634 459.224 548.243 456.944 545.212 453.912C542.18 450.881 528.51 445.561 526.99 449.361C525.47 453.161 506.488 466.063 519.399 468.343C532.309 470.623 549.771 471.383 553.563 469.863C557.354 468.343 559.634 459.224 559.634 459.224Z" fill="#A8A8A8"/>
<path opacity="0.2" d="M519.391 466.921C532.302 469.201 549.764 469.961 553.555 468.441C556.448 467.281 558.458 461.732 559.275 459.142L559.651 459.224C559.651 459.224 557.371 468.335 553.58 469.846C549.788 471.358 532.334 470.606 519.416 468.327C515.689 467.673 514.627 466.128 515.028 464.167C515.322 465.45 516.654 466.431 519.391 466.921Z" fill="black"/>
<path d="M766.09 478.835C766.09 478.835 776.884 442.17 764.064 415.189C758.613 403.904 756.97 391.157 759.381 378.859C760.57 373.03 762.291 367.321 764.521 361.806" stroke="#535461" stroke-width="2" stroke-miterlimit="10"/>
<path d="M756.546 344.728C756.546 349.222 764.717 362.247 764.717 362.247C764.717 362.247 772.888 349.214 772.888 344.728C772.696 342.704 771.756 340.825 770.251 339.457C768.747 338.089 766.787 337.331 764.754 337.331C762.721 337.331 760.761 338.089 759.257 339.457C757.752 340.825 756.812 342.704 756.62 344.728H756.546Z" fill="#6C63FF"/>
<path d="M743.096 369.618C745.547 373.393 759.439 379.905 759.439 379.905C759.439 379.905 759.185 364.543 756.742 360.776C755.483 359.175 753.671 358.101 751.661 357.766C749.652 357.432 747.589 357.859 745.879 358.966C744.168 360.073 742.933 361.779 742.415 363.75C741.898 365.72 742.134 367.813 743.08 369.618H743.096Z" fill="#6C63FF"/>
<path d="M743.684 412.149C747.696 414.176 762.993 412.778 762.993 412.778C762.993 412.778 755.018 399.647 751.006 397.62C750.043 397.026 748.968 396.638 747.847 396.48C746.727 396.323 745.586 396.4 744.497 396.706C743.408 397.013 742.394 397.542 741.52 398.261C740.646 398.98 739.931 399.872 739.42 400.882C738.909 401.891 738.614 402.996 738.552 404.126C738.49 405.255 738.663 406.386 739.061 407.445C739.459 408.504 740.072 409.469 740.862 410.279C741.653 411.089 742.602 411.725 743.651 412.149H743.684Z" fill="#6C63FF"/>
<path d="M751.373 444.229C754.985 446.901 770.298 448.111 770.298 448.111C770.298 448.111 764.66 433.819 761.048 431.147C759.307 430.105 757.24 429.748 755.251 430.146C753.261 430.544 751.49 431.667 750.283 433.298C749.077 434.929 748.52 436.951 748.721 438.97C748.922 440.989 749.868 442.861 751.373 444.221V444.229Z" fill="#6C63FF"/>
<path d="M776.5 380.78C773.28 383.909 758.262 387.153 758.262 387.153C758.262 387.153 761.939 372.241 765.158 369.111C766.743 367.833 768.749 367.193 770.781 367.316C772.814 367.439 774.727 368.317 776.146 369.777C777.565 371.237 778.388 373.175 778.454 375.21C778.519 377.245 777.822 379.231 776.5 380.78V380.78Z" fill="#6C63FF"/>
<path d="M785.047 418.408C781.035 420.435 765.738 419.037 765.738 419.037C765.738 419.037 773.713 405.906 777.726 403.88C778.688 403.285 779.764 402.897 780.884 402.739C782.004 402.582 783.145 402.659 784.234 402.966C785.324 403.272 786.337 403.802 787.211 404.52C788.085 405.239 788.8 406.131 789.311 407.141C789.822 408.15 790.118 409.255 790.179 410.385C790.241 411.514 790.068 412.645 789.67 413.704C789.272 414.763 788.659 415.728 787.869 416.538C787.079 417.348 786.129 417.985 785.08 418.408H785.047Z" fill="#6C63FF"/>
<path d="M788.307 456.119C784.696 458.791 769.383 460 769.383 460C769.383 460 775.021 445.708 778.633 443.036C780.374 441.994 782.44 441.638 784.43 442.035C786.42 442.433 788.19 443.556 789.397 445.187C790.604 446.818 791.161 448.84 790.96 450.859C790.758 452.878 789.813 454.75 788.307 456.11V456.119Z" fill="#6C63FF"/>
<path d="M789.574 475.248C789.574 475.248 769.84 471.301 764.578 466.039C759.316 460.776 735.635 451.567 733.004 458.145C730.373 464.723 697.484 487.088 719.848 491.034C742.213 494.981 772.471 496.297 779.041 493.666C785.611 491.035 789.574 475.248 789.574 475.248Z" fill="#A8A8A8"/>
<path opacity="0.2" d="M719.856 488.591C742.221 492.538 772.479 493.854 779.049 491.222C784.058 489.22 787.539 479.595 788.912 475.109L789.574 475.248C789.574 475.248 785.627 491.034 779.049 493.666C772.471 496.297 742.213 494.981 719.856 491.034C713.401 489.899 711.554 487.218 712.249 483.836C712.804 486.042 715.052 487.741 719.856 488.591Z" fill="black"/>
</g>
<defs>
<linearGradient id="paint0_linear" x1="537.359" y1="108.349" x2="537.359" y2="-2.36327" gradientUnits="userSpaceOnUse">
<stop stop-color="#808080" stop-opacity="0.25"/>
<stop offset="0.54" stop-color="#808080" stop-opacity="0.12"/>
<stop offset="1" stop-color="#808080" stop-opacity="0.1"/>
</linearGradient>
<linearGradient id="paint1_linear" x1="203.744" y1="410.085" x2="203.744" y2="409.991" gradientUnits="userSpaceOnUse">
<stop stop-color="#808080" stop-opacity="0.25"/>
<stop offset="0.54" stop-color="#808080" stop-opacity="0.12"/>
<stop offset="1" stop-color="#808080" stop-opacity="0.1"/>
</linearGradient>
<linearGradient id="paint2_linear" x1="149571" y1="276696" x2="149571" y2="107303" gradientUnits="userSpaceOnUse">
<stop stop-color="#808080" stop-opacity="0.25"/>
<stop offset="0.54" stop-color="#808080" stop-opacity="0.12"/>
<stop offset="1" stop-color="#808080" stop-opacity="0.1"/>
</linearGradient>
<clipPath id="clip0">
<rect width="797" height="589" fill="white"/>
</clipPath>
</defs>
</svg>
