<svg width="364" height="143" viewBox="0 0 364 143" fill="none" xmlns="http://www.w3.org/2000/svg">
<g filter="url(#filter0_b)">
<rect width="310" height="76.3361" rx="20" transform="matrix(-1 0 0 1 311.835 17.8506)" fill="url(#paint0_linear)" fill-opacity="0.45"/>
<rect x="0.5" y="-0.5" width="311" height="77.3361" rx="20.5" transform="matrix(-1 0 0 1 312.835 17.8506)" stroke="url(#paint1_linear)"/>
</g>
<path d="M48.8101 45.7639C49.1301 46.1799 49.4021 46.5959 49.6261 47.0119H54.1861V52.3879H51.0661C51.0341 54.6919 50.4101 56.6759 49.1941 58.3399C48.0101 60.0039 46.3301 61.2839 44.1541 62.1799L51.7861 74.0359H39.6901L33.0661 63.6679H24.3781V55.1239H34.0741C35.4821 55.1239 36.6181 54.8839 37.4821 54.4039C38.3781 53.8919 38.9861 53.2199 39.3061 52.3879H24.3781V47.0119H38.2021C37.2741 46.1799 35.8981 45.7639 34.0741 45.7639H24.3781V40.3879H54.1861V45.7639H48.8101ZM86.0746 52.2919C90.7786 52.2919 94.2346 53.2839 96.4426 55.2679C98.6826 57.2199 99.8026 59.7959 99.8026 62.9959C99.8026 65.1079 99.2426 67.0599 98.1226 68.8519C97.0346 70.6119 95.3386 72.0519 93.0346 73.1719C90.7306 74.2599 87.8666 74.8039 84.4426 74.8039C82.0746 74.8039 79.7066 74.5479 77.3386 74.0359C75.0026 73.5239 72.9546 72.7719 71.1946 71.7799L75.0346 63.4279C76.4426 64.2279 77.9146 64.8359 79.4506 65.2519C81.0186 65.6679 82.5386 65.8759 84.0106 65.8759C85.3226 65.8759 86.3786 65.6519 87.1786 65.2039C88.0106 64.7239 88.4266 64.0679 88.4266 63.2359C88.4266 62.4359 88.0586 61.8439 87.3226 61.4599C86.5866 61.0439 85.2586 60.8359 83.3386 60.8359H73.5946L75.2746 40.4359H97.5946V48.9799H84.5866L84.3466 52.2919H86.0746ZM117.281 74.8039C114.305 74.8039 111.665 74.1159 109.361 72.7399C107.089 71.3319 105.297 69.3159 103.985 66.6919C102.705 64.0359 102.065 60.8839 102.065 57.2359C102.065 53.5879 102.705 50.4519 103.985 47.8279C105.297 45.1719 107.089 43.1559 109.361 41.7799C111.665 40.3719 114.305 39.6679 117.281 39.6679C120.257 39.6679 122.881 40.3719 125.153 41.7799C127.457 43.1559 129.249 45.1719 130.529 47.8279C131.841 50.4519 132.497 53.5879 132.497 57.2359C132.497 60.8839 131.841 64.0359 130.529 66.6919C129.249 69.3159 127.457 71.3319 125.153 72.7399C122.881 74.1159 120.257 74.8039 117.281 74.8039ZM117.281 65.7319C119.841 65.7319 121.121 62.8999 121.121 57.2359C121.121 51.5719 119.841 48.7399 117.281 48.7399C114.721 48.7399 113.441 51.5719 113.441 57.2359C113.441 62.8999 114.721 65.7319 117.281 65.7319ZM140.501 62.1319C142.357 62.1319 143.877 62.6919 145.061 63.8119C146.245 64.9319 146.837 66.4199 146.837 68.2759C146.837 69.1079 146.725 69.9399 146.501 70.7719C146.277 71.6039 145.765 72.8679 144.965 74.5639L141.605 81.7159H134.885L137.285 73.6039C136.293 73.1239 135.525 72.4359 134.981 71.5399C134.437 70.6119 134.165 69.5239 134.165 68.2759C134.165 66.4199 134.757 64.9319 135.941 63.8119C137.125 62.6919 138.645 62.1319 140.501 62.1319ZM163.688 74.8039C160.712 74.8039 158.072 74.1159 155.768 72.7399C153.496 71.3319 151.704 69.3159 150.392 66.6919C149.112 64.0359 148.472 60.8839 148.472 57.2359C148.472 53.5879 149.112 50.4519 150.392 47.8279C151.704 45.1719 153.496 43.1559 155.768 41.7799C158.072 40.3719 160.712 39.6679 163.688 39.6679C166.664 39.6679 169.288 40.3719 171.56 41.7799C173.864 43.1559 175.656 45.1719 176.936 47.8279C178.248 50.4519 178.904 53.5879 178.904 57.2359C178.904 60.8839 178.248 64.0359 176.936 66.6919C175.656 69.3159 173.864 71.3319 171.56 72.7399C169.288 74.1159 166.664 74.8039 163.688 74.8039ZM163.688 65.7319C166.248 65.7319 167.528 62.8999 167.528 57.2359C167.528 51.5719 166.248 48.7399 163.688 48.7399C161.128 48.7399 159.848 51.5719 159.848 57.2359C159.848 62.8999 161.128 65.7319 163.688 65.7319ZM196.922 74.8039C193.946 74.8039 191.306 74.1159 189.002 72.7399C186.73 71.3319 184.938 69.3159 183.626 66.6919C182.346 64.0359 181.706 60.8839 181.706 57.2359C181.706 53.5879 182.346 50.4519 183.626 47.8279C184.938 45.1719 186.73 43.1559 189.002 41.7799C191.306 40.3719 193.946 39.6679 196.922 39.6679C199.898 39.6679 202.522 40.3719 204.794 41.7799C207.098 43.1559 208.89 45.1719 210.17 47.8279C211.482 50.4519 212.138 53.5879 212.138 57.2359C212.138 60.8839 211.482 64.0359 210.17 66.6919C208.89 69.3159 207.098 71.3319 204.794 72.7399C202.522 74.1159 199.898 74.8039 196.922 74.8039ZM196.922 65.7319C199.482 65.7319 200.762 62.8999 200.762 57.2359C200.762 51.5719 199.482 48.7399 196.922 48.7399C194.362 48.7399 193.082 51.5719 193.082 57.2359C193.082 62.8999 194.362 65.7319 196.922 65.7319ZM230.156 74.8039C227.18 74.8039 224.54 74.1159 222.236 72.7399C219.964 71.3319 218.172 69.3159 216.86 66.6919C215.58 64.0359 214.94 60.8839 214.94 57.2359C214.94 53.5879 215.58 50.4519 216.86 47.8279C218.172 45.1719 219.964 43.1559 222.236 41.7799C224.54 40.3719 227.18 39.6679 230.156 39.6679C233.132 39.6679 235.756 40.3719 238.028 41.7799C240.332 43.1559 242.124 45.1719 243.404 47.8279C244.716 50.4519 245.372 53.5879 245.372 57.2359C245.372 60.8839 244.716 64.0359 243.404 66.6919C242.124 69.3159 240.332 71.3319 238.028 72.7399C235.756 74.1159 233.132 74.8039 230.156 74.8039ZM230.156 65.7319C232.716 65.7319 233.996 62.8999 233.996 57.2359C233.996 51.5719 232.716 48.7399 230.156 48.7399C227.596 48.7399 226.316 51.5719 226.316 57.2359C226.316 62.8999 227.596 65.7319 230.156 65.7319Z" fill="#AEC3FF"/>
<g filter="url(#filter1_b)">
<path d="M309.165 130.881C309.843 135.012 315.29 136.079 317.476 132.508C318.917 130.156 322.11 129.632 324.226 131.4C327.44 134.084 332.261 131.332 331.583 127.2L320.635 60.5374C320.188 57.8123 317.616 55.966 314.891 56.4138L302.34 58.4759C299.616 58.9236 297.77 61.4952 298.217 64.22L309.165 130.881Z" fill="url(#paint2_linear)"/>
<path d="M317.903 132.769C315.475 136.735 309.425 135.551 308.671 130.962L297.724 64.301C297.232 61.3038 299.262 58.475 302.259 57.9825L314.81 55.9204C317.807 55.4279 320.636 57.4587 321.129 60.4563L332.076 127.119C332.83 131.708 327.475 134.765 323.906 131.784C322.023 130.211 319.184 130.677 317.903 132.769Z" stroke="url(#paint3_linear)"/>
</g>
<g style="mix-blend-mode:multiply">
<path d="M327.39 101.674C321.241 104.315 314.619 105.672 307.927 105.664C306.95 105.664 305.977 105.637 305.009 105.582L297.407 59.3052L319.825 55.6143L327.39 101.674Z" fill="#B61A2B"/>
</g>
<g filter="url(#filter2_b)">
<path d="M300.398 130.607C299.273 134.641 293.742 135.107 291.957 131.319C290.781 128.824 287.665 127.955 285.368 129.481C281.88 131.798 277.389 128.536 278.514 124.503L296.664 59.4304C297.406 56.7704 300.164 55.2156 302.824 55.9577L315.076 59.376C317.736 60.118 319.291 62.8756 318.549 65.5354L300.398 130.607Z" fill="url(#paint4_linear)"/>
<path d="M300.88 130.742C299.63 135.221 293.487 135.739 291.504 131.532C290.459 129.314 287.687 128.54 285.644 129.898C281.771 132.471 276.782 128.848 278.032 124.368L296.183 59.2961C296.999 56.3701 300.032 54.6598 302.958 55.4761L315.211 58.8944C318.136 59.7106 319.846 62.744 319.03 65.6698L300.88 130.742Z" stroke="url(#paint5_linear)"/>
</g>
<g style="mix-blend-mode:multiply" opacity="0.48">
<path d="M307.356 105.664C299.676 105.583 292.12 103.705 285.297 100.178L298.008 54.614L319.892 60.7195L307.356 105.664Z" fill="#B61A2B"/>
</g>
<g filter="url(#filter3_b)">
<path d="M264.138 66.5274C258.43 42.343 273.408 18.1104 297.592 12.4024C321.777 6.69436 346.009 21.6724 351.717 45.8568C357.425 70.0412 342.447 94.2738 318.263 99.9818C294.078 105.69 269.846 90.7118 264.138 66.5274Z" fill="url(#paint6_linear)"/>
<path d="M263.651 66.6423C257.88 42.1891 273.024 17.6872 297.477 11.9158C321.93 6.1443 346.432 21.2888 352.204 45.7419C357.975 70.1951 342.831 94.697 318.378 100.468C293.925 106.24 269.423 91.0954 263.651 66.6423Z" stroke="url(#paint7_linear)"/>
</g>
<g filter="url(#filter4_b)">
<path d="M307.205 96.8594C284.748 96.4595 266.868 77.9309 267.268 55.4744C267.668 33.0179 286.196 15.1375 308.653 15.5373C331.109 15.9371 348.99 34.4658 348.59 56.9223C348.19 79.3787 329.661 97.2592 307.205 96.8594Z" fill="url(#paint8_linear)"/>
<path d="M307.196 97.3593C284.463 96.9545 266.363 78.1981 266.768 55.4655C267.173 32.7329 285.929 14.6326 308.662 15.0374C331.394 15.4421 349.494 34.1986 349.09 56.9312C348.685 79.6637 329.928 97.764 307.196 97.3593Z" stroke="url(#paint9_linear)"/>
</g>
<g filter="url(#filter5_b)">
<path d="M274.784 57.0548C275.135 56.8503 275.49 56.3038 275.493 55.8978C275.495 55.6008 275.501 55.2069 275.518 54.6654C275.533 54.18 273.724 54.5872 273.311 54.8426C272.879 55.1099 271.651 52.6562 271.934 52.2341C272.646 51.1722 273.818 50.1755 275.749 49.7468C275.959 49.7003 276.128 49.5376 276.171 49.3275C276.182 49.2716 276.194 49.2157 276.206 49.1598C276.32 48.6226 274.319 48.3498 273.791 48.501C273.262 48.6527 272.745 46.6225 273.061 46.1717C273.873 45.0128 275.272 43.86 277.685 43.6379C277.826 43.625 277.952 43.5365 278.006 43.4061C278.177 42.9972 277.014 41.9468 276.585 42.0576C275.996 42.21 275.447 42.2635 275.006 42.2753C274.571 42.2868 274.195 41.6807 274.4 41.2973C274.803 40.5425 275.515 39.497 276.612 38.8053C277.862 38.0175 279.319 37.9063 280.166 37.9266C280.519 37.9351 281.077 37.6853 281.278 37.3944C281.316 37.3396 281.354 37.285 281.392 37.2305C281.708 36.7769 279.909 35.6702 279.36 35.6027C278.822 35.5366 279.143 33.6357 279.583 33.3207C280.755 32.4834 282.507 31.8253 284.888 32.4923C285.133 32.5607 285.399 32.5012 285.581 32.3251C286.012 31.9095 286.454 31.5058 286.907 31.1144C287.229 30.8353 285.951 29.8595 285.538 29.7554C285.1 29.6454 285.783 27.1943 286.22 27.0846C287.464 26.7725 289.03 26.8057 290.793 27.8053C291.003 27.9243 291.263 27.9277 291.47 27.8032C291.613 27.717 291.756 27.6319 291.901 27.548C292.399 27.2575 291.352 25.6949 290.861 25.3912C290.368 25.0866 291.382 23.4577 291.951 23.3505C293.34 23.0889 295.173 23.2332 297.064 24.8169C297.214 24.9423 297.421 24.9852 297.605 24.9209C298.196 24.7149 298.361 22.4766 297.916 22.037C297.862 21.9836 297.81 21.9303 297.759 21.8775C297.392 21.4908 297.843 20.2867 298.375 20.2425C299.959 20.1111 302.385 20.4395 304.144 23.12C304.235 23.26 304.399 23.3416 304.565 23.3226C304.607 23.3178 304.649 23.3131 304.691 23.3085C305.171 23.2554 304.75 21.0937 304.48 20.6931C304.217 20.3015 305.975 19.1987 306.435 19.307C307.872 19.6456 309.543 20.557 310.57 22.8486C310.66 23.0497 310.853 23.1921 311.073 23.2093C311.647 23.2544 312.086 22.3837 311.803 21.8824C311.77 21.8247 311.739 21.7669 311.709 21.7094C311.406 21.1344 312.727 19.7101 313.321 19.9748C314.521 20.5104 315.868 21.5651 316.569 23.6806C316.666 23.9763 316.899 24.2126 317.199 24.2963C317.501 24.3808 317.803 24.4697 318.103 24.5631C318.721 24.7557 319.253 22.9953 319.166 22.3532C319.078 21.7078 320.816 21.4768 321.329 21.878C322.374 22.6946 323.427 24.0569 323.579 26.3138C323.601 26.6339 323.777 26.9279 324.061 27.079C324.316 27.2153 324.57 27.3551 324.822 27.4982C325.383 27.8171 326.252 26.2419 326.31 25.5992C326.369 24.938 328.238 25.0949 328.633 25.6287C329.41 26.6793 330.037 28.2301 329.648 30.3853C329.601 30.6407 329.686 30.9043 329.883 31.0737C330.386 31.5077 331.345 31.0558 331.468 30.4026C331.495 30.2574 331.526 30.1169 331.56 29.982C331.733 29.2874 333.023 29.0499 333.428 29.6402C334.196 30.7596 334.919 32.54 334.2 34.9048C334.114 35.1873 334.162 35.4972 334.345 35.7294C334.565 36.0092 334.78 36.293 334.991 36.5803C335.287 36.9845 336.249 36.1307 336.448 35.6702C336.671 35.1505 338.628 35.8189 338.77 36.3667C339.081 37.566 339.094 39.1181 338.127 40.8495C337.976 41.1204 337.955 41.4494 338.09 41.7289C338.209 41.976 338.326 42.2245 338.439 42.4744C338.721 43.0977 340.455 42.3284 340.914 41.8215C341.364 41.3251 342.541 42.4296 342.602 43.0966C342.727 44.4454 342.452 46.2173 340.792 47.9099C340.579 48.1262 340.482 48.4341 340.549 48.7297C340.616 49.025 340.678 49.3212 340.737 49.6182C340.859 50.2348 342.632 49.8365 343.136 49.4614C343.652 49.0777 344.793 50.5971 344.661 51.2262C344.387 52.5246 343.624 54.0482 341.687 55.1941C341.479 55.3169 341.344 55.5265 341.343 55.7679C341.342 56.4189 343.034 56.4245 343.623 56.1459C344.219 55.8638 344.919 57.285 344.718 57.913C344.299 59.2246 343.334 60.785 341.096 61.6864C340.942 61.7483 340.825 61.8845 340.794 62.0473C340.698 62.5544 341.658 63.1024 342.111 62.8562C342.184 62.8167 342.257 62.7791 342.329 62.7433C342.833 62.4946 344.302 64.01 344.035 64.504C343.343 65.7828 342.034 67.1632 339.539 67.5844C339.35 67.6165 339.185 67.7436 339.115 67.923C339.056 68.0747 338.996 68.226 338.934 68.3767C338.74 68.8527 340.709 69.4336 341.22 69.3813C341.73 69.3291 341.897 71.4848 341.539 71.8515C340.553 72.8616 338.996 73.7663 336.611 73.5939C336.397 73.5784 336.187 73.6748 336.068 73.8534C335.7 74.408 336.96 76.2235 337.621 76.3064C338.699 76.4418 339.441 76.8211 339.548 76.8156C339.515 76.8156 336.937 80.9887 332.123 79.2466C331.944 79.1819 331.74 79.2212 331.605 79.3548C331.583 79.3766 331.561 79.3984 331.539 79.4202C331.163 79.7902 332.783 81.219 333.282 81.3879C333.772 81.5535 333.069 83.4776 332.596 83.6877C331.362 84.2364 329.667 84.5141 327.646 83.6045C327.189 83.3992 326.654 83.411 326.233 83.6819C325.545 84.1251 324.839 84.5447 324.114 84.9407C324.106 84.9453 324.098 84.9508 324.091 84.9571C323.97 85.0596 324.09 85.3272 324.247 85.308C325.929 85.1029 327.226 85.6636 328.085 86.2232C328.625 86.5752 328.521 87.6356 327.918 87.8666C327.167 88.155 326.174 88.4014 325.117 88.2952C324.667 88.2355 324.228 88.1299 323.806 87.9817C322.048 87.3653 320.102 86.8312 318.326 87.3925C318.164 87.4438 318.002 87.4937 317.839 87.5424C317.824 87.5467 317.81 87.5527 317.797 87.5602C317.609 87.6686 317.689 88.1142 317.903 88.1522C319.409 88.4196 320.434 89.2149 321.087 89.9129C321.518 90.3736 321.174 91.3653 320.549 91.4509C319.746 91.5608 318.71 91.5761 317.694 91.2286C317.384 91.1097 317.086 90.9679 316.801 90.805C314.996 89.7729 313.01 88.6589 310.937 88.8202C310.815 88.8298 310.692 88.8386 310.569 88.8468C310.562 88.8473 310.555 88.8484 310.548 88.85C310.392 88.8848 310.373 89.1821 310.522 89.2388C311.154 89.4795 311.675 89.7996 312.105 90.1543C312.503 90.4833 310.955 92.8377 310.489 92.6146C309.349 92.0689 308.201 91.0728 307.48 89.2723C307.392 89.0511 307.178 88.895 306.94 88.8844C306.325 88.8572 306.289 90.8205 306.532 91.3857C306.775 91.9523 304.975 92.6993 304.417 92.4367C303.221 91.8736 301.925 90.7841 301.262 88.6447C301.16 88.316 300.9 88.0541 300.566 87.9723C299.858 87.799 299.156 87.6019 298.462 87.3814C297.912 87.2067 297.374 89.2139 297.467 89.7835C297.558 90.3434 295.654 90.5908 295.207 90.2415C294.073 89.3559 292.95 87.8549 292.923 85.3477C292.921 85.1638 292.822 84.9905 292.66 84.9028C292.147 84.6245 290.238 86.0971 290.192 86.6786C290.116 87.6491 289.841 88.3259 289.853 88.4258C289.853 88.3932 285.561 86.1899 286.794 81.3467C286.861 81.0846 286.698 80.7286 286.496 80.5487C285.919 80.0344 284.197 81.0308 283.995 81.777C283.691 82.9022 283.149 83.6319 283.136 83.7422C283.136 83.6802 279.478 80.5551 281.915 76.0857C282.021 75.8923 282.01 75.6521 281.878 75.4754C281.842 75.4259 281.805 75.3762 281.768 75.3264C281.436 74.876 279.934 76.1615 279.69 76.6652C279.446 77.1723 277.591 76.2215 277.461 75.6735C277.142 74.3233 277.202 72.5547 278.561 70.6498C278.684 70.4775 278.71 70.25 278.62 70.0587C278.346 69.4807 275.926 70.4351 275.477 70.8909C275.074 71.3 274.115 70.1722 274.033 69.604C273.817 68.1101 274.027 66.0248 276.075 64.1558C276.277 63.9712 276.327 63.5039 276.266 63.2369C276.086 62.4483 274.08 62.3419 273.452 62.852C273.328 62.9524 273.206 63.044 273.087 63.1274C272.564 63.4936 271.625 63.0085 271.631 62.3705C271.637 61.5621 271.771 60.5402 272.257 59.5888C272.908 58.3146 274.045 57.4859 274.784 57.0548ZM276.015 56.6134C276.019 56.8068 276.135 56.9767 276.306 57.0664C279.069 58.5129 279.634 60.7013 279.701 62.1523C279.727 62.7135 278.787 63.2762 278.313 62.9742C278.235 62.9245 278.158 62.8734 278.082 62.8208C277.592 62.481 276.734 62.9155 276.87 63.4962C276.921 63.7137 277.099 63.876 277.317 63.9268C280.555 64.6827 281.639 66.9854 282.017 68.3989C282.146 68.8829 281.568 69.4517 281.087 69.3109C280.819 69.2325 280.521 69.1298 280.21 68.9961C279.739 68.7929 278.915 69.4272 279.137 69.8907C279.215 70.0543 279.385 70.1528 279.566 70.1531C282.585 70.1592 284.158 71.7722 284.952 73.0727C285.208 73.4932 284.406 74.6902 283.92 74.611C283.724 74.5792 283.519 74.5377 283.309 74.4843C282.88 74.3753 282.239 75.0928 282.504 75.4474C282.589 75.562 282.734 75.6172 282.876 75.5982C286.033 75.1747 287.808 76.7113 288.709 77.8908C289.034 78.3169 288.574 79.3059 288.038 79.3226C287.933 79.3259 287.827 79.3269 287.722 79.3256C287.172 79.3188 286.756 80.1014 287.171 80.4626C287.32 80.5929 287.534 80.6231 287.719 80.5522C290.704 79.4099 292.793 80.5374 293.917 81.4668C294.32 81.7999 294.131 82.7652 293.631 82.9185C293.501 82.9585 293.362 82.9973 293.217 83.0331C292.672 83.1672 292.388 84.1709 292.881 84.4399C293.061 84.5383 293.284 84.5155 293.45 84.3947C297.444 81.4868 300.95 84.4028 301.016 84.4065C301.006 84.4065 300.843 84.5568 300.555 84.7686C299.917 85.2388 299.874 87.2799 300.644 87.4694C300.912 87.5354 301.191 87.4305 301.371 87.2206C301.899 86.6029 302.993 85.5258 304.486 85.0969C305.788 84.724 307.094 84.9287 307.922 85.1482C308.315 85.2526 308.487 85.854 308.213 86.1543C307.938 86.454 307.569 86.8092 307.109 87.1399C306.78 87.3757 306.927 88.3769 307.331 88.3901C307.455 88.3941 307.572 88.3272 307.638 88.2222C309.477 85.2905 312.127 85.0876 313.578 85.2282C314.063 85.2752 314.357 85.9227 314.076 86.3216C313.961 86.4866 313.838 86.6466 313.709 86.8012C313.368 87.2103 313.707 87.9815 314.23 87.8816C314.409 87.8474 314.553 87.715 314.616 87.5437C315.677 84.6567 317.755 83.7984 319.165 83.5291C319.69 83.4289 320.376 84.2715 320.16 84.7604C320.143 84.7995 320.125 84.8384 320.107 84.8771C319.866 85.4008 320.402 86.1113 320.933 85.8867C321.125 85.8056 321.252 85.6214 321.276 85.4146C321.628 82.4083 323.397 81.0879 324.698 80.4863C325.203 80.2526 326.099 80.9375 325.992 81.4837C325.94 81.7545 325.871 82.0221 325.788 82.285C325.66 82.689 326.138 83.1198 326.489 82.8828C326.622 82.793 326.687 82.6303 326.664 82.4714C326.255 79.6453 327.464 77.8879 328.57 76.889C328.956 76.5402 330.375 77.1922 330.366 77.7125C330.364 77.8656 330.356 78.0242 330.343 78.1867C330.304 78.6517 331.074 79.1453 331.404 78.8151C331.515 78.7038 331.551 78.5365 331.506 78.3858C330.606 75.3879 331.8 73.41 332.807 72.3288C333.186 71.9217 334.255 72.2183 334.36 72.7645C334.383 72.8827 334.403 73.0014 334.419 73.1205C334.499 73.6825 335.362 73.9967 335.676 73.524C335.795 73.3447 335.793 73.108 335.682 72.9236C333.154 68.729 336.287 65.5687 336.298 65.4667C336.298 65.4858 336.968 66.3102 337.39 67.5348C337.541 67.9738 338.492 68.1292 338.657 67.6954C338.717 67.5395 338.671 67.3621 338.551 67.2454C336.562 65.2974 336.398 63.2517 336.646 61.7917C336.732 61.2856 338.466 60.9075 338.753 61.3333C338.969 61.6531 339.175 62.0182 339.345 62.4252C339.474 62.7333 340.132 62.748 340.199 62.4209C340.241 62.2109 340.055 61.8822 339.872 61.7723C339.187 61.3632 337.853 60.3192 337.268 58.7379C336.887 57.7082 336.886 56.6536 336.985 55.844C337.06 55.23 338.012 54.8819 338.467 55.3011C339.27 56.0414 340.226 57.2617 340.423 59.0256C340.435 59.1387 340.641 59.1705 340.687 59.0667C340.692 59.0565 340.695 59.0457 340.696 59.0347C340.71 58.8755 340.724 58.7163 340.736 58.557C340.859 56.9467 339.553 55.2005 338.404 54.0655C338.062 53.7272 337.737 53.3304 337.473 52.8712C336.736 51.5881 336.688 50.1415 336.742 49.3034C336.761 48.9998 337.196 48.7628 337.465 48.9036C337.745 49.0499 338.093 49.2534 338.458 49.5251C338.749 49.7425 340.097 49.1727 340.016 48.8179C339.989 48.6971 339.888 48.6077 339.766 48.5894C338.365 48.3806 337.063 47.7385 336.044 46.7507C334.792 45.422 336.993 43.3528 338.248 44.679C338.669 45.124 339.05 45.6732 339.343 46.3514C339.306 46.2295 339.267 46.1078 339.228 45.9863C338.587 43.9936 334.9 42.1622 333.144 41.0221C332.23 40.4285 331.599 39.5852 331.192 38.8772C330.881 38.3369 331.433 37.4874 332.053 37.5528C333.116 37.6649 334.568 38.0577 335.765 39.2839C335.859 39.3806 336.081 39.2632 336.052 39.1313C336.049 39.1181 336.044 39.1055 336.037 39.094C335.975 38.9929 335.912 38.8921 335.849 38.7917C334.981 37.4169 331.995 36.6915 330.388 36.444C330.036 36.3899 329.68 36.2988 329.33 36.1594C328.272 35.7371 327.458 34.9851 326.915 34.3518C326.518 33.8879 326.846 33.0489 327.453 32.9811C328.484 32.866 329.974 32.9252 331.395 33.8285C331.54 33.9203 331.797 33.7088 331.734 33.5499C331.726 33.5308 331.715 33.5133 331.7 33.4987C331.536 33.3342 331.371 33.1698 331.206 33.0062C330.169 31.9789 328.587 31.9376 327.141 32.1431C326.464 32.2395 325.77 32.2275 325.087 32.1027C323.33 31.7123 323.986 28.7455 325.743 29.1393C326.289 29.2617 326.859 29.477 327.434 29.8224C327.143 29.6089 326.848 29.4003 326.549 29.1967C324.827 28.0218 322.562 28.5041 320.524 28.9415C320.212 29.0083 319.895 29.0534 319.575 29.076C317.731 29.1252 317.646 26.0773 319.491 26.0421C320.047 26.0315 320.648 26.1041 321.288 26.2994C321.22 26.2697 321.151 26.2401 321.083 26.2109C319.157 25.3858 315.369 26.874 313.346 27.419C312.344 27.689 311.346 27.6195 310.564 27.4673C309.915 27.341 309.625 26.2738 310.122 25.8381C310.967 25.0979 312.301 24.2826 314.105 24.3033C314.189 24.3043 314.223 24.1747 314.147 24.1364C314.141 24.133 314.134 24.1305 314.126 24.1292C313.275 23.9773 312.419 23.8595 311.559 23.7761C310.915 23.7136 310.317 24.0714 309.943 24.5996C308.658 26.412 307.027 26.9899 305.739 27.1334C305.22 27.1913 304.394 25.6258 304.729 25.2248C304.79 25.152 304.853 25.079 304.919 25.0063C305.241 24.6515 304.935 23.794 304.46 23.8514C304.294 23.8713 304.158 23.9882 304.1 24.1444C302.991 27.1283 300.723 27.9816 299.256 28.2274C298.744 28.3133 298.137 27.5173 298.356 27.0467C298.43 26.8887 298.513 26.7227 298.608 26.5527C298.866 26.0881 298.321 25.2212 297.817 25.3911C297.629 25.4548 297.503 25.6306 297.488 25.829C297.269 28.5858 295.782 30.0342 294.483 30.7888C294.079 31.0233 292.495 30.83 292.569 30.3689C292.647 29.8774 292.071 28.0186 291.645 28.2762C291.623 28.2897 291.6 28.3032 291.578 28.3168C291.432 28.4058 291.354 28.576 291.371 28.7463C291.661 31.6645 290.319 33.3697 289.142 34.3031C288.744 34.6179 287.428 34.774 287.403 34.2679C287.375 33.7143 286.461 32.1664 286.059 32.5484C285.982 32.622 285.905 32.6959 285.828 32.7703C285.672 32.9215 285.626 33.1533 285.697 33.3587C286.503 35.7096 285.937 37.4958 285.18 38.6974C284.928 39.0964 283.104 39.4481 283.003 38.9874C282.903 38.5275 281.936 37.2932 281.669 37.681C281.561 37.838 281.455 37.9959 281.349 38.1548C281.237 38.3251 281.24 38.5475 281.346 38.7224C283.87 42.9072 280.833 45.8483 280.811 46.0454C280.811 46.0221 280.019 45.0799 279.579 43.7193C279.441 43.2911 278.633 43.1522 278.46 43.5677C278.398 43.7172 278.433 43.8907 278.54 44.0116C281.874 47.7582 279.243 51.5328 279.247 51.6098C279.247 51.5882 278.43 50.8761 277.813 49.7051C277.597 49.2955 276.666 49.2944 276.581 49.7495C276.553 49.8953 276.611 50.046 276.723 50.1432C279.137 52.2383 279.142 54.5923 278.853 56.0366C278.751 56.5496 277.752 56.8522 277.39 56.474C277.323 56.4039 277.257 56.3325 277.193 56.2598C276.836 55.8546 276.005 56.0732 276.015 56.6134Z" fill="url(#paint10_linear)"/>
</g>
<g filter="url(#filter6_b)">
<path d="M298.095 63.7959C301.579 61.1699 304.192 59.0639 305.934 57.4779C307.676 55.8659 308.82 54.5789 309.366 53.6169C309.912 52.6549 310.185 51.6279 310.185 50.5359C310.185 48.5859 309.08 47.6109 306.87 47.6109C304.92 47.6109 302.385 48.5859 299.265 50.5359L297.315 44.2959C298.641 43.4119 300.318 42.6709 302.346 42.0729C304.374 41.4749 306.272 41.1759 308.04 41.1759C311.29 41.1759 313.786 41.9429 315.528 43.4769C317.296 44.9849 318.18 47.0779 318.18 49.7559C318.18 51.8879 317.504 53.9159 316.152 55.8399C314.8 57.7639 312.161 60.3899 308.235 63.7179V63.7959H318.375V70.0359H298.095V63.7959Z" fill="url(#paint11_linear)"/>
<path d="M298.095 63.7959L297.493 62.9973L297.095 63.2974V63.7959H298.095ZM305.934 57.4779L306.607 58.2174L306.613 58.2119L305.934 57.4779ZM309.366 53.6169L308.496 53.1233L309.366 53.6169ZM299.265 50.5359L298.31 50.8342L298.696 52.0703L299.795 51.3839L299.265 50.5359ZM297.315 44.2959L296.76 43.4638L296.137 43.8793L296.36 44.5942L297.315 44.2959ZM315.528 43.4769L314.867 44.2274L314.873 44.2326L314.879 44.2377L315.528 43.4769ZM316.152 55.8399L316.97 56.4148L316.152 55.8399ZM308.235 63.7179L307.588 62.9551L307.235 63.2546V63.7179H308.235ZM308.235 63.7959H307.235V64.7959H308.235V63.7959ZM318.375 63.7959H319.375V62.7959H318.375V63.7959ZM318.375 70.0359V71.0359H319.375V70.0359H318.375ZM298.095 70.0359H297.095V71.0359H298.095V70.0359ZM298.697 64.5945C302.188 61.9626 304.83 59.8347 306.607 58.2173L305.26 56.7384C303.553 58.2931 300.969 60.3771 297.493 62.9973L298.697 64.5945ZM306.613 58.2119C308.364 56.5911 309.608 55.2161 310.235 54.1105L308.496 53.1233C308.031 53.9417 306.987 55.1407 305.254 56.7439L306.613 58.2119ZM310.235 54.1105C310.866 53 311.185 51.8033 311.185 50.5359H309.185C309.185 51.4525 308.958 52.3097 308.496 53.1233L310.235 54.1105ZM311.185 50.5359C311.185 49.372 310.849 48.3261 310.018 47.5923C309.21 46.8796 308.1 46.6109 306.87 46.6109V48.6109C307.849 48.6109 308.397 48.8297 308.694 49.092C308.968 49.3332 309.185 49.7498 309.185 50.5359H311.185ZM306.87 46.6109C304.629 46.6109 301.895 47.713 298.735 49.6879L299.795 51.3839C302.875 49.4588 305.21 48.6109 306.87 48.6109V46.6109ZM300.219 50.2376L298.269 43.9976L296.36 44.5942L298.31 50.8342L300.219 50.2376ZM297.869 45.1279C299.089 44.3146 300.668 43.6103 302.629 43.0321L302.063 41.1137C299.968 41.7315 298.192 42.5092 296.76 43.4638L297.869 45.1279ZM302.629 43.0321C304.582 42.456 306.384 42.1759 308.04 42.1759V40.1759C306.159 40.1759 304.165 40.4938 302.063 41.1137L302.629 43.0321ZM308.04 42.1759C311.143 42.1759 313.369 42.9084 314.867 44.2274L316.189 42.7264C314.202 40.9774 311.436 40.1759 308.04 40.1759V42.1759ZM314.879 44.2377C316.389 45.5257 317.18 47.321 317.18 49.7559H319.18C319.18 46.8348 318.203 44.4441 316.177 42.7161L314.879 44.2377ZM317.18 49.7559C317.18 51.661 316.58 53.4912 315.333 55.2649L316.97 56.4148C318.427 54.3406 319.18 52.1148 319.18 49.7559H317.18ZM315.333 55.2649C314.06 57.0765 311.507 59.6329 307.588 62.9551L308.881 64.4807C312.814 61.1469 315.539 58.4512 316.97 56.4148L315.333 55.2649ZM307.235 63.7179V63.7959H309.235V63.7179H307.235ZM308.235 64.7959H318.375V62.7959H308.235V64.7959ZM317.375 63.7959V70.0359H319.375V63.7959H317.375ZM318.375 69.0359H298.095V71.0359H318.375V69.0359ZM299.095 70.0359V63.7959H297.095V70.0359H299.095Z" fill="url(#paint12_linear)"/>
</g>
<defs>
<filter id="filter0_b" x="-45.165" y="-29.1494" width="404" height="170.336" filterUnits="userSpaceOnUse" color-interpolation-filters="sRGB">
<feFlood flood-opacity="0" result="BackgroundImageFix"/>
<feGaussianBlur in="BackgroundImage" stdDeviation="23"/>
<feComposite in2="SourceAlpha" operator="in" result="effect1_backgroundBlur"/>
<feBlend mode="normal" in="SourceGraphic" in2="effect1_backgroundBlur" result="shape"/>
</filter>
<filter id="filter1_b" x="251.15" y="9.34668" width="127.498" height="172.324" filterUnits="userSpaceOnUse" color-interpolation-filters="sRGB">
<feFlood flood-opacity="0" result="BackgroundImageFix"/>
<feGaussianBlur in="BackgroundImage" stdDeviation="23"/>
<feComposite in2="SourceAlpha" operator="in" result="effect1_backgroundBlur"/>
<feBlend mode="normal" in="SourceGraphic" in2="effect1_backgroundBlur" result="shape"/>
</filter>
<filter id="filter2_b" x="231.335" y="8.77222" width="134.399" height="172.141" filterUnits="userSpaceOnUse" color-interpolation-filters="sRGB">
<feFlood flood-opacity="0" result="BackgroundImageFix"/>
<feGaussianBlur in="BackgroundImage" stdDeviation="23"/>
<feComposite in2="SourceAlpha" operator="in" result="effect1_backgroundBlur"/>
<feBlend mode="normal" in="SourceGraphic" in2="effect1_backgroundBlur" result="shape"/>
</filter>
<filter id="filter3_b" x="206.6" y="-45.136" width="202.656" height="202.656" filterUnits="userSpaceOnUse" color-interpolation-filters="sRGB">
<feFlood flood-opacity="0" result="BackgroundImageFix"/>
<feGaussianBlur in="BackgroundImage" stdDeviation="23"/>
<feComposite in2="SourceAlpha" operator="in" result="effect1_backgroundBlur"/>
<feBlend mode="normal" in="SourceGraphic" in2="effect1_backgroundBlur" result="shape"/>
</filter>
<filter id="filter4_b" x="219.526" y="-32.2043" width="176.805" height="176.805" filterUnits="userSpaceOnUse" color-interpolation-filters="sRGB">
<feFlood flood-opacity="0" result="BackgroundImageFix"/>
<feGaussianBlur in="BackgroundImage" stdDeviation="23"/>
<feComposite in2="SourceAlpha" operator="in" result="effect1_backgroundBlur"/>
<feBlend mode="normal" in="SourceGraphic" in2="effect1_backgroundBlur" result="shape"/>
</filter>
<filter id="filter5_b" x="269.631" y="17.2996" width="77.123" height="77.33" filterUnits="userSpaceOnUse" color-interpolation-filters="sRGB">
<feFlood flood-opacity="0" result="BackgroundImageFix"/>
<feGaussianBlur in="BackgroundImage" stdDeviation="1"/>
<feComposite in2="SourceAlpha" operator="in" result="effect1_backgroundBlur"/>
<feBlend mode="normal" in="SourceGraphic" in2="effect1_backgroundBlur" result="shape"/>
</filter>
<filter id="filter6_b" x="250.137" y="-5.82422" width="115.238" height="122.86" filterUnits="userSpaceOnUse" color-interpolation-filters="sRGB">
<feFlood flood-opacity="0" result="BackgroundImageFix"/>
<feGaussianBlur in="BackgroundImage" stdDeviation="23"/>
<feComposite in2="SourceAlpha" operator="in" result="effect1_backgroundBlur"/>
<feBlend mode="normal" in="SourceGraphic" in2="effect1_backgroundBlur" result="shape"/>
</filter>
<linearGradient id="paint0_linear" x1="-55.7741" y1="-10.1562" x2="-1.61384" y2="109.795" gradientUnits="userSpaceOnUse">
<stop stop-color="#474E8E"/>
<stop offset="1" stop-color="#3C4061" stop-opacity="0.02"/>
</linearGradient>
<linearGradient id="paint1_linear" x1="384.582" y1="94.3734" x2="202.714" y2="-138.85" gradientUnits="userSpaceOnUse">
<stop stop-color="#260262"/>
<stop offset="1" stop-color="#E6E6E6" stop-opacity="0"/>
</linearGradient>
<linearGradient id="paint2_linear" x1="340.054" y1="43.9927" x2="304.575" y2="52.007" gradientUnits="userSpaceOnUse">
<stop stop-color="#474E8E"/>
<stop offset="1" stop-color="#3C4061" stop-opacity="0.02"/>
</linearGradient>
<linearGradient id="paint3_linear" x1="288.711" y1="163.488" x2="343.844" y2="156.277" gradientUnits="userSpaceOnUse">
<stop stop-color="#260262"/>
<stop offset="1" stop-color="#E6E6E6" stop-opacity="0"/>
</linearGradient>
<linearGradient id="paint4_linear" x1="327.924" y1="42.9466" x2="285.163" y2="54.8182" gradientUnits="userSpaceOnUse">
<stop stop-color="#474E8E"/>
<stop offset="1" stop-color="#3C4061" stop-opacity="0.02"/>
</linearGradient>
<linearGradient id="paint5_linear" x1="264.51" y1="163.029" x2="332.025" y2="152.176" gradientUnits="userSpaceOnUse">
<stop stop-color="#260262"/>
<stop offset="1" stop-color="#E6E6E6" stop-opacity="0"/>
</linearGradient>
<linearGradient id="paint6_linear" x1="377.424" y1="102.653" x2="323.007" y2="41.9765" gradientUnits="userSpaceOnUse">
<stop stop-color="#474E8E"/>
<stop offset="1" stop-color="#3C4061" stop-opacity="0.02"/>
</linearGradient>
<linearGradient id="paint7_linear" x1="228.135" y1="6.55158" x2="296.313" y2="120.897" gradientUnits="userSpaceOnUse">
<stop stop-color="#260262"/>
<stop offset="1" stop-color="#E6E6E6" stop-opacity="0"/>
</linearGradient>
<linearGradient id="paint8_linear" x1="364.138" y1="5.70213" x2="298.844" y2="39.8174" gradientUnits="userSpaceOnUse">
<stop stop-color="#474E8E"/>
<stop offset="1" stop-color="#3C4061" stop-opacity="0.02"/>
</linearGradient>
<linearGradient id="paint9_linear" x1="246.637" y1="115.003" x2="362.009" y2="80.8167" gradientUnits="userSpaceOnUse">
<stop stop-color="#260262"/>
<stop offset="1" stop-color="#E6E6E6" stop-opacity="0"/>
</linearGradient>
<linearGradient id="paint10_linear" x1="359.079" y1="15.7647" x2="213.916" y2="78.2726" gradientUnits="userSpaceOnUse">
<stop stop-color="#474E8E"/>
<stop offset="1" stop-color="#3C4061" stop-opacity="0.02"/>
</linearGradient>
<linearGradient id="paint11_linear" x1="301.186" y1="42.3553" x2="359.992" y2="11.8795" gradientUnits="userSpaceOnUse">
<stop stop-color="#7A81BD"/>
<stop offset="1" stop-color="#3C4061" stop-opacity="0.02"/>
</linearGradient>
<linearGradient id="paint12_linear" x1="327.425" y1="84.2511" x2="288.799" y2="76.1196" gradientUnits="userSpaceOnUse">
<stop stop-color="#260262"/>
<stop offset="1" stop-color="#E6E6E6" stop-opacity="0"/>
</linearGradient>
</defs>
</svg>
