<svg width="797" height="589" viewBox="0 0 797 589" fill="none" xmlns="http://www.w3.org/2000/svg">
<g clip-path="url(#clip0)">
<path opacity="0.1" d="M791.388 243.571H723.323V326.073H786.413C786.576 326.924 786.739 327.776 786.917 328.627H723.323V395.145L723.641 395.042C725.44 394.412 727.224 393.746 728.994 393.028L730.141 392.569C731.948 391.814 733.732 391.017 735.494 390.178C736.116 389.889 736.737 389.585 737.352 389.274C747.138 384.454 756.161 378.218 764.13 370.766C764.359 370.574 764.574 370.359 764.788 370.159C765.869 369.115 766.935 368.049 767.972 366.961C768.357 366.561 768.712 366.162 769.112 365.747C770.333 364.422 771.511 363.052 772.658 361.675C772.828 361.468 772.991 361.261 773.161 361.068C777.781 355.401 781.657 349.166 784.696 342.516C784.792 342.323 784.873 342.108 784.962 341.909C785.895 339.821 786.732 337.703 787.457 335.549C787.761 334.646 788.057 333.735 788.316 332.825C788.412 332.551 788.486 332.277 788.568 332.01C792.336 318.803 792.773 305.063 792.773 291.404C792.773 289.809 792.773 288.218 792.773 286.628C792.773 281.113 792.691 275.561 792.595 270.016C792.595 268.579 792.521 267.143 792.491 265.699C792.395 262.042 792.269 258.37 792.092 254.713C792.047 253.699 791.995 252.677 791.936 251.67C791.936 251.085 791.877 250.501 791.832 249.916C791.699 247.789 791.551 245.674 791.388 243.571Z" fill="#6C63FF"/>
<path opacity="0.1" d="M723.323 151.712H760.665C754.551 143.206 747.917 135.087 740.802 127.399C735.257 121.344 729.423 115.436 723.323 109.75V151.712Z" fill="#6C63FF"/>
<path opacity="0.1" d="M723.323 154.266V241.017H791.174C791.174 240.765 791.174 240.506 791.107 240.277C791.048 239.588 790.988 238.907 790.922 238.226C790.855 237.426 790.766 236.62 790.685 235.82C790.604 235.02 790.5 234.08 790.396 233.214C790.293 232.348 790.204 231.474 790.093 230.608C789.982 229.742 789.878 228.876 789.76 228.017C789.641 227.158 789.53 226.292 789.404 225.433C789.301 224.693 789.197 224.004 789.086 223.294C788.93 222.279 788.768 221.273 788.597 220.266C788.597 220.118 788.545 219.962 788.523 219.822C787.292 212.468 785.623 205.195 783.526 198.041C781.31 190.464 778.495 183.074 775.109 175.942C771.466 168.392 767.233 161.142 762.449 154.258L723.323 154.266Z" fill="#6C63FF"/>
<path opacity="0.1" d="M561.68 243.571V326.073H707.065V243.571H561.68ZM561.68 328.62V384.492C578.604 379.08 597.956 381.272 615.502 385.714C629.087 389.156 642.324 393.857 655.886 397.226C661.943 398.776 668.093 399.939 674.298 400.705L675.823 400.875L678.044 401.075L680.265 401.238C680.342 401.231 680.418 401.231 680.495 401.238C680.821 401.238 681.154 401.238 681.487 401.283H681.827C682.227 401.283 682.627 401.327 683.027 401.327C683.597 401.327 684.174 401.327 684.752 401.379H685.492C686.062 401.379 686.639 401.379 687.217 401.379H688.483H689.505C689.941 401.379 690.371 401.379 690.8 401.334C691.496 401.334 692.192 401.275 692.895 401.231L694.191 401.142C694.724 401.142 695.264 401.068 695.79 401.016C696.923 400.927 698.011 400.816 699.158 400.676C699.603 400.624 700.054 400.572 700.498 400.505L701.157 400.424C702.275 400.276 703.378 400.105 704.496 399.913C705.318 399.787 706.14 399.639 706.969 399.484V328.62H561.68ZM669.812 151.682V154.229H561.68V241.017H707.065V154.258H699.773V151.712H707.065V95.6468C678.785 72.8596 645.729 55.0178 608.913 46.7854C593.407 43.3545 577.56 41.7003 561.68 41.8548V151.712L669.812 151.682ZM337.406 151.193L337.917 151.682H545.415V42.6174C508.473 45.6897 472.449 58.0975 443.406 78.6564C429.451 88.5249 416.917 100.229 401.259 107.796C393.043 111.873 384.067 114.192 374.903 114.607L337.406 151.193ZM335.977 106.448V131.138L356.025 111.571C348.57 108.995 342.692 107.24 335.948 106.478L335.977 106.448ZM335.311 417.059H335.977V471.184C343.543 470.616 351.08 469.842 358.587 468.859C392.149 464.526 425.036 456.005 456.48 443.496C459.856 442.134 463.207 440.734 466.534 439.298C468.75 438.311 470.953 437.324 473.145 436.337C476.432 434.827 479.694 433.274 482.932 431.68C497.266 424.647 511.091 416.622 524.308 407.664C525.13 407.102 525.959 406.539 526.774 405.969C528.407 404.834 530.034 403.689 531.652 402.534C532.459 401.949 533.266 401.371 534.066 400.779L535.732 399.55C537.39 398.314 539.041 397.078 540.714 395.849C542.261 394.738 543.823 393.628 545.408 392.591V328.627H378.701C378.82 328.257 378.931 327.887 379.057 327.494C378.923 327.872 378.805 328.235 378.694 328.627H335.948V417.044L335.311 417.059ZM335.977 154.244V241.017H545.415V154.258L335.977 154.244ZM335.977 243.556V326.073H545.415V243.571L335.977 243.556ZM294.104 108.987L319.69 133.959V106.352C311.117 106.885 302.589 107.763 294.104 108.987ZM115.93 243.571V326.073H319.69V243.571H115.93ZM165.177 447.338C196.059 459.095 228.347 466.755 261.219 470.125H261.36C267.569 470.782 273.8 471.29 280.053 471.65H280.283C293.379 472.391 306.527 472.561 319.653 472.072V328.62H115.93L116.671 423.618L165.177 447.338ZM59.5103 326.073H99.6951V243.571H83.8003C82.1494 246.466 80.5503 249.39 79.0326 252.344C78.2183 253.921 77.4261 255.52 76.6562 257.119C66.1954 278.848 59.5473 302.701 59.5103 326.073ZM59.5103 328.62C59.836 345.381 63.6117 361.838 71.8959 377.037C78.7809 389.622 88.3459 400.727 99.6655 410.352V328.62H59.5103ZM85.2884 241.017H99.6951V219.548C94.4941 226.428 89.6842 233.596 85.2884 241.017V241.017ZM175.527 151.712H314.885L315.389 151.223L314.648 150.483L275.463 112.275C263.827 114.693 252.336 117.766 241.045 121.477C239.979 121.825 238.913 122.217 237.855 122.55C216.068 129.946 195.165 139.726 175.527 151.712V151.712ZM115.93 200.107V241.017H294.63H319.675V156.62L316.818 154.295H171.455C151.052 167.112 132.39 182.51 115.93 200.107V200.107Z" fill="#6C63FF"/>
<path opacity="0.1" d="M723.323 198.026V241.017H791.174C791.174 240.765 791.174 240.506 791.107 240.277C791.048 239.588 790.988 238.907 790.922 238.226C790.855 237.427 790.766 236.62 790.685 235.82C790.604 235.02 790.5 234.08 790.396 233.214C790.293 232.348 790.204 231.474 790.093 230.608C789.982 229.742 789.878 228.876 789.76 228.017C789.641 227.158 789.53 226.292 789.404 225.433C789.301 224.693 789.197 224.004 789.086 223.294C788.93 222.279 788.768 221.273 788.597 220.266C788.597 220.118 788.545 219.962 788.523 219.822C787.292 212.469 785.623 205.196 783.526 198.041L723.323 198.026Z" fill="#6C63FF"/>
<path opacity="0.1" d="M791.388 243.571H723.323V326.073H786.413C786.576 326.924 786.739 327.776 786.917 328.627H723.323V395.145L723.641 395.042C725.44 394.412 727.224 393.746 728.994 393.028L730.141 392.569C731.948 391.814 733.732 391.017 735.494 390.178C736.116 389.889 736.737 389.585 737.352 389.274C747.138 384.454 756.161 378.218 764.13 370.766C764.359 370.574 764.574 370.359 764.788 370.159C765.869 369.115 766.935 368.049 767.972 366.961C768.357 366.561 768.712 366.162 769.112 365.747C770.333 364.422 771.511 363.052 772.658 361.675C772.828 361.468 772.991 361.261 773.161 361.068C777.781 355.401 781.657 349.166 784.696 342.516C784.792 342.323 784.873 342.108 784.962 341.909C785.895 339.821 786.732 337.703 787.457 335.549C787.761 334.646 788.057 333.735 788.316 332.825C788.412 332.551 788.486 332.277 788.568 332.01C792.336 318.803 792.773 305.063 792.773 291.404C792.773 289.809 792.773 288.218 792.773 286.628C792.773 281.113 792.691 275.561 792.595 270.016C792.595 268.579 792.521 267.143 792.491 265.699C792.395 262.042 792.269 258.37 792.092 254.713C792.047 253.699 791.995 252.677 791.936 251.67C791.936 251.085 791.877 250.501 791.832 249.916C791.699 247.789 791.551 245.674 791.388 243.571Z" fill="#6C63FF"/>
<path opacity="0.1" d="M655.894 166.688V241.024H707.073V166.688H699.781V141.517H669.82V166.688H655.894Z" fill="#6C63FF"/>
<path opacity="0.1" d="M707.073 243.571H655.894V326.073H707.073V243.571Z" fill="#6C63FF"/>
<path opacity="0.1" d="M707.073 328.627H655.894V397.226C661.949 398.773 668.096 399.935 674.299 400.705L675.831 400.875L678.052 401.075C678.792 401.134 679.533 401.194 680.273 401.238H680.502C680.828 401.238 681.161 401.238 681.494 401.283H681.835C682.235 401.283 682.642 401.32 683.042 401.327C683.619 401.327 684.189 401.327 684.767 401.371H685.507C686.077 401.371 686.647 401.371 687.232 401.371H688.491C688.831 401.371 689.179 401.371 689.52 401.371L690.815 401.327C691.504 401.327 692.207 401.268 692.903 401.223L694.191 401.134L695.798 401.009C696.923 400.92 698.019 400.801 699.159 400.668L700.499 400.498L701.158 400.416C702.275 400.268 703.379 400.098 704.496 399.906C705.326 399.78 706.147 399.624 706.976 399.476L707.073 328.627Z" fill="#6C63FF"/>
<path opacity="0.1" d="M378.161 157.908H335.955V241.017H378.161V157.908Z" fill="#6C63FF"/>
<path opacity="0.1" d="M335.955 243.571V326.073H545.423V290.493H433.848V311.481H378.154V243.571H335.955Z" fill="#6C63FF"/>
<path opacity="0.1" d="M335.282 417.088H335.948V471.184C343.514 470.616 351.051 469.842 358.558 468.859C392.146 464.532 425.058 456.009 456.525 443.489C465.522 439.886 474.339 435.952 482.977 431.688C497.295 424.644 511.108 416.617 524.316 407.664C527.613 405.428 530.863 403.136 534.066 400.787C536.287 399.158 538.508 397.485 540.729 395.871C542.277 394.753 543.839 393.65 545.43 392.606V328.627H378.746C378.865 328.242 378.976 327.887 379.094 327.487C378.968 327.865 378.85 328.227 378.739 328.627H335.948V417.051L335.282 417.088Z" fill="#6C63FF"/>
<path opacity="0.1" d="M225.884 151.712H253.379V144.109H241.046V121.477C239.98 121.832 238.906 122.217 237.847 122.55V144.109H225.884V151.712Z" fill="#6C63FF"/>
<path opacity="0.1" d="M159.61 241.017H294.638H294.593H294.653H319.69V157.908H312.598V219.355H280.172V182.983H253.379V154.266H225.884V182.983H199.106V219.34H159.61V241.017Z" fill="#6C63FF"/>
<path opacity="0.1" d="M159.61 243.571V326.073H319.69V243.571H159.61ZM165.199 447.338C196.081 459.095 228.37 466.756 261.242 470.125H261.382C267.591 470.782 273.822 471.29 280.076 471.65H280.305C293.401 472.391 306.55 472.561 319.675 472.072V328.62H159.61V357.87H115.931L116.16 423.181" fill="#6C63FF"/>
<path opacity="0.1" d="M96.8751 328.627H59.5405C59.8663 345.381 63.6493 361.831 71.9336 377.03C78.8112 389.659 88.3836 400.72 99.6958 410.344V357.87H96.8751V328.627Z" fill="#6C63FF"/>
<path opacity="0.1" d="M59.5181 326.073H96.8749V257.119H76.6936C66.2032 278.848 59.5477 302.708 59.5181 326.073Z" fill="#6C63FF"/>
<path opacity="0.1" d="M358.565 181.014H335.955V207.073H358.565V181.014Z" fill="#6C63FF"/>
<path opacity="0.1" d="M358.565 235.02H335.955V241.017H358.565V235.02Z" fill="#6C63FF"/>
<path opacity="0.1" d="M358.565 243.571H335.955V261.08H358.565V243.571Z" fill="#6C63FF"/>
<path opacity="0.1" d="M358.565 289.035H335.955V315.094H358.565V289.035Z" fill="#6C63FF"/>
<path opacity="0.1" d="M358.565 343.049H335.955V369.108H358.565V343.049Z" fill="#6C63FF"/>
<path opacity="0.1" d="M335.948 417.052L335.282 417.089H335.948V423.137H358.558V397.055H335.948V417.052Z" fill="#6C63FF"/>
<path opacity="0.1" d="M335.948 451.055V471.184C343.514 470.616 351.05 469.842 358.557 468.859V451.092L335.948 451.055Z" fill="#6C63FF"/>
<path opacity="0.1" d="M545.423 324.163H448.529V326.073H545.423V324.163Z" fill="#6C63FF"/>
<path opacity="0.1" d="M545.423 328.627H448.529V335.964H545.423V328.627Z" fill="#6C63FF"/>
<path opacity="0.1" d="M545.423 360.009H448.529V371.81H545.423V360.009Z" fill="#6C63FF"/>
<path opacity="0.1" d="M448.521 395.819V407.664H524.316C527.613 405.428 530.863 403.136 534.066 400.787C536.287 399.158 538.508 397.492 540.729 395.871L448.521 395.819Z" fill="#6C63FF"/>
<path opacity="0.1" d="M448.521 431.688V443.489H456.524C465.527 439.886 474.344 435.952 482.976 431.688H448.521Z" fill="#6C63FF"/>
<path opacity="0.1" d="M261.249 268.528H280.32V251.567H261.249V268.528Z" fill="#6C63FF"/>
<path opacity="0.1" d="M674.261 189.498H693.332V172.537H674.261V189.498Z" fill="#6C63FF"/>
<path opacity="0.1" d="M674.261 228.898H693.332V211.937H674.261V228.898Z" fill="#6C63FF"/>
<path opacity="0.1" d="M674.261 268.291H693.332V251.33H674.261V268.291Z" fill="#6C63FF"/>
<path opacity="0.1" d="M674.261 307.691H693.332V290.73H674.261V307.691Z" fill="#6C63FF"/>
<path opacity="0.1" d="M674.261 347.091H693.332V330.13H674.261V347.091Z" fill="#6C63FF"/>
<path opacity="0.1" d="M674.261 386.483H693.332V369.523H674.261V386.483Z" fill="#6C63FF"/>
<path opacity="0.1" d="M188.431 268.528H207.501V251.567H188.431V268.528Z" fill="#6C63FF"/>
<path opacity="0.1" d="M261.249 310.363H280.32V293.402H261.249V310.363Z" fill="#6C63FF"/>
<path opacity="0.1" d="M188.431 310.363H207.501V293.402H188.431V310.363Z" fill="#6C63FF"/>
<path opacity="0.1" d="M261.249 352.199H280.32V335.238H261.249V352.199Z" fill="#6C63FF"/>
<path opacity="0.1" d="M188.431 352.199H207.501V335.238H188.431V352.199Z" fill="#6C63FF"/>
<path opacity="0.1" d="M261.249 394.042H280.32V377.081H261.249V394.042Z" fill="#6C63FF"/>
<path opacity="0.1" d="M188.431 394.042H207.501V377.081H188.431V394.042Z" fill="#6C63FF"/>
<path opacity="0.1" d="M261.249 435.878H280.32V418.917H261.249V435.878Z" fill="#6C63FF"/>
<path opacity="0.1" d="M188.431 435.878H207.501V418.917H188.431V435.878Z" fill="#6C63FF"/>
<path opacity="0.1" d="M280.328 471.688V460.745H261.257V470.133L280.328 471.688Z" fill="#6C63FF"/>
<path opacity="0.1" d="M723.323 219.799V229.505H788.597V219.799H723.323ZM782.097 220.414H787.45V228.898H782.097V220.414ZM775.597 220.414H780.95V228.898H775.597V220.414ZM769.112 220.414H774.464V228.898H769.112V220.414ZM762.612 220.414H767.964V228.898H762.612V220.414ZM756.119 220.414H761.494V228.898H756.141L756.119 220.414ZM749.619 220.414H754.972V228.898H749.649L749.619 220.414ZM743.119 220.414H748.472V228.898H743.119V220.414ZM736.626 220.414H741.979V228.898H736.626V220.414ZM730.134 220.414H735.486V228.898H730.134V220.414ZM723.641 220.414H728.994V228.898H723.641V220.414Z" fill="#6C63FF"/>
<path opacity="0.1" d="M723.323 248.05V257.756H788.597V248.05H723.323ZM782.097 248.665H787.45V257.141H782.097V248.665ZM775.597 248.665H780.95V257.141H775.597V248.665ZM769.112 248.665H774.464V257.141H769.112V248.665ZM762.612 248.665H767.964V257.141H762.612V248.665ZM756.119 248.665H761.494V257.141H756.141L756.119 248.665ZM749.619 248.665H754.972V257.141H749.649L749.619 248.665ZM743.119 248.665H748.472V257.141H743.119V248.665ZM736.626 248.665H741.979V257.141H736.626V248.665ZM730.134 248.665H735.486V257.141H730.134V248.665ZM723.641 248.665H728.994V257.141H723.641V248.665Z" fill="#6C63FF"/>
<path opacity="0.1" d="M723.323 276.301V285.999H788.597V276.301H723.323ZM782.097 276.908H787.45V285.385H782.097V276.908ZM775.597 276.908H780.95V285.385H775.597V276.908ZM769.112 276.908H774.464V285.385H769.112V276.908ZM762.612 276.908H767.964V285.385H762.612V276.908ZM756.119 276.908H761.494V285.385H756.141L756.119 276.908ZM749.619 276.908H754.972V285.385H749.649L749.619 276.908ZM743.119 276.908H748.472V285.385H743.119V276.908ZM736.626 276.908H741.979V285.385H736.626V276.908ZM730.134 276.908H735.486V285.385H730.134V276.908ZM723.641 276.908H728.994V285.385H723.641V276.908Z" fill="#6C63FF"/>
<path opacity="0.1" d="M723.323 304.544V314.235H788.597V304.544H723.323ZM782.097 305.144H787.45V313.643H782.097V305.144ZM775.597 305.144H780.95V313.643H775.597V305.144ZM769.112 305.144H774.464V313.643H769.112V305.144ZM762.612 305.144H767.964V313.643H762.612V305.144ZM756.119 305.144H761.494V313.643H756.141L756.119 305.144ZM749.619 305.144H754.972V313.643H749.649L749.619 305.144ZM743.119 305.144H748.472V313.643H743.119V305.144ZM736.626 305.144H741.979V313.643H736.626V305.144ZM730.134 305.144H735.486V313.643H730.134V305.144ZM723.641 305.144H728.994V313.643H723.641V305.144Z" fill="#6C63FF"/>
<path opacity="0.1" d="M723.323 332.78V342.516H784.696C784.785 342.323 784.873 342.108 784.955 341.909H782.097V333.395H787.45V335.512C787.761 334.609 788.057 333.698 788.316 332.78H723.323ZM775.597 333.395H780.95V341.872H775.597V333.395ZM769.112 333.395H774.464V341.872H769.112V333.395ZM762.612 333.395H767.964V341.872H762.612V333.395ZM756.119 333.395H761.494V341.872H756.141L756.119 333.395ZM749.619 333.395H754.972V341.872H749.649L749.619 333.395ZM743.119 333.395H748.472V341.872H743.119V333.395ZM736.626 333.395H741.979V341.872H736.626V333.395ZM730.134 333.395H735.486V341.872H730.134V333.395ZM723.641 333.395H728.994V341.872H723.641V333.395Z" fill="#6C63FF"/>
<path opacity="0.1" d="M723.323 361.024V370.722H764.122C764.359 370.522 764.566 370.315 764.781 370.115H762.612V361.638H767.964V366.946L769.112 365.725V361.653H772.658C772.828 361.446 772.991 361.238 773.161 361.046L723.323 361.024ZM756.119 361.631H761.494V370.115H756.141L756.119 361.631ZM749.619 361.631H754.972V370.115H749.649L749.619 361.631ZM743.119 361.631H748.472V370.115H743.119V361.631ZM736.626 361.631H741.979V370.115H736.626V361.631ZM730.134 361.631H735.486V370.115H730.134V361.631ZM723.641 361.631H728.994V370.115H723.641V361.631Z" fill="#6C63FF"/>
<path opacity="0.1" d="M723.323 389.275V395.145L723.641 395.042V389.859H728.994V393.013L730.134 392.539V389.896H735.486V390.193C736.116 389.904 736.737 389.6 737.352 389.289L723.323 389.275Z" fill="#6C63FF"/>
<path opacity="0.1" d="M335.282 417.089H335.948H335.282ZM378.694 328.62C378.813 328.25 378.924 327.879 379.05 327.487C378.924 327.865 378.805 328.25 378.694 328.62ZM669.812 151.712V154.258H699.773V151.712H669.812ZM335.282 417.089H335.948H335.282ZM378.694 328.62C378.813 328.25 378.924 327.879 379.05 327.487C378.924 327.865 378.805 328.25 378.694 328.62ZM335.282 417.089H335.948H335.282ZM378.694 328.62C378.813 328.25 378.924 327.879 379.05 327.487C378.924 327.865 378.805 328.25 378.694 328.62Z" fill="#6C63FF"/>
<path opacity="0.1" d="M797 552.072H55.291V578.294H797V552.072Z" fill="#6C63FF"/>
<path d="M81.4239 385.358H77.6704V469.77H81.4239V385.358Z" fill="#535461"/>
<path d="M104.981 469.511L104.744 473.316L104.419 478.684L104.278 480.905L103.945 486.272L103.804 488.493L103.471 493.853L99.6879 554.893C99.5244 557.519 98.3677 559.986 96.4525 561.791C94.5373 563.596 92.007 564.605 89.3752 564.613H69.7196C67.0913 564.605 64.5641 563.599 62.6495 561.799C60.7349 559.998 59.5758 557.538 59.4068 554.915L55.6164 493.875L55.2906 488.515L55.15 486.294L54.8094 480.927L54.6762 478.706L54.343 473.338L54.1061 469.533C54.0617 468.804 54.1669 468.073 54.4155 467.386C54.664 466.699 55.0506 466.071 55.5513 465.539C56.0521 465.007 56.6564 464.583 57.3271 464.293C57.9978 464.004 58.7207 463.855 59.4513 463.855H99.6435C100.372 463.854 101.093 464.001 101.762 464.289C102.432 464.577 103.035 464.999 103.535 465.529C104.035 466.059 104.421 466.686 104.67 467.37C104.919 468.055 105.025 468.784 104.981 469.511V469.511Z" fill="#3F3D56"/>
<path d="M104.752 473.316L104.419 478.684H54.6763L54.3506 473.316H104.752Z" fill="#9D9CB5"/>
<path d="M104.285 480.919L103.952 486.294H55.15L54.8169 480.919H104.285Z" fill="#9D9CB5"/>
<path d="M103.805 488.53L103.479 493.897H55.6242L55.291 488.53H103.805Z" fill="#9D9CB5"/>
<path d="M48.6203 417C70.4525 432.791 79.5437 457.503 79.5437 457.503C79.5437 457.503 53.2325 456.6 31.4225 440.801C9.61257 425.003 0.439941 400.298 0.439941 400.298C0.439941 400.298 26.7807 401.201 48.6203 417Z" fill="#6C63FF"/>
<path d="M0.439941 400.298C0.439941 400.298 27.7505 415.46 36.5086 428.008C45.2666 440.557 79.514 457.503 79.514 457.503" stroke="#535461" stroke-width="2" stroke-miterlimit="10"/>
<path d="M62.7089 385.173C74.5985 393.768 79.5439 407.22 79.5439 407.22C79.5439 407.22 65.226 406.724 53.3364 398.129C41.4468 389.534 36.5088 376.082 36.5088 376.082C36.5088 376.082 50.8267 376.571 62.7089 385.173Z" fill="#6C63FF"/>
<path d="M36.5088 376.082C36.5088 376.082 51.3671 384.337 56.1422 391.162C60.9173 397.988 79.5439 407.22 79.5439 407.22" stroke="#535461" stroke-width="2" stroke-miterlimit="10"/>
<path d="M96.8157 406.531C83.1641 421.538 80.2769 441.142 80.2769 441.142C80.2769 441.142 99.5253 436.418 113.177 421.412C126.828 406.406 129.716 386.809 129.716 386.809C129.716 386.809 110.467 391.525 96.8157 406.531Z" fill="#6C63FF"/>
<path d="M129.716 386.809C129.716 386.809 111.948 402.186 107.41 412.787C102.872 423.389 80.2769 441.142 80.2769 441.142" stroke="#535461" stroke-width="2" stroke-miterlimit="10"/>
<path opacity="0.2" d="M300.908 92.0637C309 92.0637 315.559 85.5042 315.559 77.4126C315.559 69.3211 309 62.7616 300.908 62.7616C292.817 62.7616 286.257 69.3211 286.257 77.4126C286.257 85.5042 292.817 92.0637 300.908 92.0637Z" stroke="#6C63FF" stroke-miterlimit="10"/>
<path opacity="0.2" d="M300.909 103.894C315.534 103.894 327.39 92.0379 327.39 77.4126C327.39 62.7873 315.534 50.9312 300.909 50.9312C286.283 50.9312 274.427 62.7873 274.427 77.4126C274.427 92.0379 286.283 103.894 300.909 103.894Z" stroke="#6C63FF" stroke-miterlimit="10"/>
<path opacity="0.2" d="M300.908 119.16C323.964 119.16 342.655 100.469 342.655 77.4126C342.655 54.3564 323.964 35.6657 300.908 35.6657C277.852 35.6657 259.161 54.3564 259.161 77.4126C259.161 100.469 277.852 119.16 300.908 119.16Z" stroke="#6C63FF" stroke-miterlimit="10"/>
<path d="M402.125 572.194C401.733 569.277 399.726 565.531 399.726 565.531L389.014 549.873H389.11C389.11 549.873 387.415 542.004 389.11 538.154C390.806 534.304 383.084 524.784 383.084 524.784C383.084 524.784 382.144 522.4 384.565 519.468C386.985 516.536 383.084 507.934 383.084 507.934C383.084 507.934 381.196 489.981 381.011 487.205C380.826 484.428 379.316 469.259 379.316 469.259L375.732 437.018L369.366 351.585L369.247 349.985C370.039 349.608 370.454 349.371 370.454 349.371L369.121 302.16L370.224 301.191C379.849 292.699 401.992 273.058 401.777 272.607C401.488 272.059 399.09 239.773 398.816 231.667C398.574 225.9 397.293 220.224 395.033 214.913C394.478 213.832 392.878 206.77 392.212 203.749L391.923 202.409C391.923 202.409 385.423 190.32 386.001 184.826C386.578 179.333 387.696 175.202 373.845 173.285C373.845 173.285 362.162 171.589 355.285 166.962C351.178 164.195 346.708 162.007 342.003 160.462C342.003 160.462 339.457 156.02 336.977 156.879V147.447C338.881 146.701 340.519 145.404 341.681 143.721C342.843 142.038 343.476 140.046 343.499 138.001V104.027C343.46 101.268 342.327 98.6369 340.348 96.7128C338.37 94.7886 335.709 93.7288 332.949 93.7664H303.492C303.065 93.777 302.64 93.8141 302.218 93.8775V78.3306C302.218 78.106 302.172 77.8837 302.083 77.6775C301.994 77.4713 301.863 77.2854 301.7 77.1313C301.37 76.8078 300.926 76.627 300.464 76.6279C300.005 76.622 299.564 76.7978 299.235 77.1169C298.906 77.436 298.717 77.8725 298.709 78.3306V94.9805C297.067 95.8376 295.688 97.1255 294.722 98.7062C293.756 100.287 293.237 102.101 293.223 103.953V137.927C293.245 139.971 293.877 141.962 295.038 143.645C296.199 145.328 297.835 146.626 299.738 147.373V156.339C298.546 156.198 296.777 157.02 294.763 161.121C294.763 161.121 284.68 166.799 281.193 167.444C277.706 168.088 265.365 172.293 265.365 172.293C263.489 173.608 261.252 174.312 258.961 174.306C255.097 174.306 251.891 182.554 252.365 187.04C252.839 191.526 252.076 194.821 248.5 195.006C244.925 195.191 246.879 202.357 246.894 202.409C246.849 202.609 246.731 203.149 246.561 203.934C245.865 207.066 244.34 213.78 243.807 214.832C241.53 220.139 240.236 225.816 239.987 231.585C239.705 239.729 237.299 271.977 237.025 272.525C236.848 272.888 252.024 286.443 262.707 295.912L264.247 297.274L259.339 342.086C259.339 342.086 259.339 347.106 264.388 350.866C264.388 351.377 264.388 351.918 264.328 352.466C264.114 357.648 263.684 364.052 262.848 365.717C261.367 368.679 261.715 384.396 261.715 384.396C261.715 384.396 260.234 416.459 258.324 419.931C256.414 423.403 256.059 430.74 256.629 432.206C257.199 433.672 254.741 472.139 254.741 472.139L252.853 489.352C252.853 489.352 253.423 505.839 251.728 506.209C250.033 506.579 249.085 517.928 249.085 517.928C249.085 517.928 243.059 525.99 245.694 528.922C248.33 531.854 245.302 533.134 245.028 533.867C244.754 534.6 239.283 537.347 243.244 547.6C243.281 547.704 243.333 547.793 243.377 547.889C239.676 552.901 227.927 569.129 228.637 571.58C229.175 573.167 230.298 574.491 231.776 575.281C234.538 576.895 239.283 577.643 246.82 575.281C259.353 571.343 258.413 568.5 258.413 568.5C258.413 568.5 258.509 563.925 263.692 563.554C268.874 563.184 272.739 558.52 272.739 558.52L272.131 556.299L271.295 553.242C271.399 552.331 272.035 550.836 274.9 549.984C279.239 548.703 278.106 540.649 278.106 540.649C278.106 540.649 277.728 532.216 279.587 531.121C281.445 530.025 280.712 516.1 280.712 516.1C280.712 516.1 282.792 506.024 285.805 499.242C288.818 492.461 292.402 452.172 292.402 452.172C292.402 452.172 294.845 432.391 297.11 426.713C299.375 421.034 301.448 405.095 301.448 405.095C301.448 405.095 315.396 378.717 315.581 372.854C315.581 372.854 317.387 367.361 319.127 373.409C320.867 379.458 325.946 393.924 325.946 393.924L330.847 411.692L336.688 438.247L340.456 460.597C340.456 460.597 339.901 469.111 341.404 472.072C342.906 475.034 344.987 481.778 343.854 483.066C342.721 484.354 346.12 490.388 347.06 491.669C348 492.95 347.06 520.068 347.06 520.068C347.06 520.068 351.391 543.144 357.609 547.171C358.046 547.446 358.507 547.679 358.986 547.867C358.898 550.369 358.809 553.715 358.927 555.463C358.915 555.854 358.98 556.244 359.12 556.61C359.682 557.35 366.093 562.281 367.411 562.281C368.729 562.281 373.438 565.494 373.63 567.049C373.822 568.603 387.407 575.192 389.325 575.385C391.242 575.577 400.578 577.213 401.91 574.644C402.228 573.868 402.303 573.014 402.125 572.194V572.194ZM368.751 242.12L369.721 242.934C369.721 242.934 370.706 250.493 371.416 252.751C372.127 255.009 371.276 259.414 371.276 259.414C371.276 259.414 371.416 262.575 372.26 264.219C373.104 265.862 370.602 269.445 370.602 269.445H368.307L367.567 241.15L368.751 242.12ZM266.705 266.551C266.353 265.823 266.299 264.986 266.557 264.219C266.76 263.807 266.921 263.375 267.038 262.931C267.316 261.777 267.487 260.6 267.549 259.414C267.551 259.402 267.551 259.389 267.549 259.377C267.475 258.948 266.749 254.935 267.416 252.714C268.082 250.493 269.111 242.897 269.111 242.897L269.755 242.357L271.236 241.113C271.236 241.113 271.28 240.639 271.339 239.862C271.658 246.525 271.909 253.81 271.502 254.21C270.762 254.95 268.015 262.087 268.674 262.353C268.889 262.442 268.593 265.314 268.097 269.149C267.541 268.338 267.074 267.47 266.705 266.558V266.551Z" fill="url(#paint0_linear)"/>
<path d="M302.604 79.108V101.562C302.604 102.014 302.424 102.447 302.105 102.766C301.786 103.085 301.353 103.265 300.901 103.265C300.449 103.265 300.016 103.085 299.697 102.766C299.378 102.447 299.198 102.014 299.198 101.562V79.108C299.198 78.8844 299.242 78.663 299.328 78.4564C299.413 78.2498 299.539 78.0621 299.697 77.904C299.855 77.7459 300.043 77.6205 300.249 77.5349C300.456 77.4493 300.677 77.4053 300.901 77.4053C301.351 77.4091 301.782 77.5898 302.101 77.9083C302.419 78.2268 302.6 78.6576 302.604 79.108Z" fill="#6F758D"/>
<path d="M336.318 139.134V174.025C336.31 176.813 335.199 179.484 333.228 181.455C331.257 183.426 328.585 184.537 325.798 184.545H310.725C307.936 184.539 305.263 183.429 303.29 181.458C301.317 179.486 300.205 176.814 300.197 174.025V139.134C300.207 136.345 301.32 133.674 303.292 131.703C305.264 129.732 307.936 128.621 310.725 128.614H325.798C328.585 128.621 331.257 129.732 333.228 131.703C335.199 133.675 336.31 136.346 336.318 139.134V139.134Z" fill="#6F758D"/>
<path d="M277.047 269.882L274.167 305.418C274.167 305.418 269.844 301.502 264.247 296.393C253.882 286.939 239.15 273.399 239.32 273.043C239.594 272.496 241.926 240.254 242.2 232.163C242.442 226.409 243.695 220.743 245.902 215.424C246.42 214.38 247.901 207.68 248.574 204.549C248.789 203.571 248.915 202.942 248.915 202.942L253.72 201.017C253.72 201.017 273.886 223.516 273.886 223.93C273.886 224.345 272.516 241.624 272.516 241.624L271.08 242.875L270.458 243.408C270.458 243.408 269.496 250.96 268.807 253.218C268.163 255.365 268.867 259.414 268.941 259.836V259.873C268.88 261.056 268.711 262.23 268.437 263.382C268.326 263.828 268.172 264.262 267.978 264.678C267.73 265.443 267.78 266.273 268.119 267.002C268.5 268.019 268.997 268.987 269.6 269.89L277.047 269.882Z" fill="#3F3D56"/>
<path d="M399.268 273.036C399.483 273.465 377.969 293.099 368.648 301.576L364.421 305.411L361.541 269.875H368.944C368.944 269.875 371.417 266.307 370.595 264.693C369.773 263.079 369.633 259.888 369.633 259.888C369.633 259.888 370.455 255.498 369.773 253.225C369.092 250.952 368.123 243.416 368.123 243.416L367.182 242.572L366.064 241.595C366.064 241.595 364.68 224.338 364.68 223.923C364.68 223.508 384.846 201.01 384.846 201.01L389.644 202.935C389.644 202.935 389.755 203.453 389.925 204.275C390.577 207.236 392.146 214.343 392.664 215.417C394.873 220.735 396.126 226.401 396.366 232.155C396.662 240.247 398.994 272.488 399.268 273.036Z" fill="#3F3D56"/>
<path d="M399.356 574.615C398.076 577.176 388.992 575.533 387.156 575.355C385.32 575.177 372.105 568.581 371.92 567.034C371.735 565.487 367.16 562.274 365.886 562.274C364.613 562.274 358.387 557.336 357.832 556.603C357.699 556.238 357.636 555.851 357.646 555.463C357.454 552.457 357.832 544.713 357.832 544.713L384.357 546.194L397.254 565.561C397.254 565.561 399.194 569.262 399.578 572.224C399.734 573.026 399.657 573.855 399.356 574.615V574.615Z" fill="#3F3D56"/>
<path opacity="0.1" d="M399.356 574.615C398.076 577.176 388.992 575.533 387.156 575.355C385.32 575.177 372.105 568.581 371.92 567.034C371.735 565.487 367.16 562.274 365.886 562.274C364.613 562.274 358.387 557.336 357.832 556.603C357.699 556.238 357.636 555.851 357.646 555.463C357.454 552.457 357.832 544.713 357.832 544.713L384.357 546.194L397.254 565.561C397.254 565.561 399.194 569.262 399.578 572.224C399.734 573.026 399.657 573.855 399.356 574.615V574.615Z" fill="black"/>
<path opacity="0.1" d="M399.357 574.615C398.076 577.176 388.992 575.533 387.156 575.355C385.32 575.177 372.105 568.581 371.92 567.034C371.735 565.487 367.16 562.274 365.886 562.274C364.613 562.274 358.387 557.336 357.832 556.603C357.699 556.238 357.636 555.851 357.647 555.463L366.249 560.911C366.249 560.911 371.735 564.391 373.201 566.493C374.667 568.596 386.201 572.897 387.156 572.979C387.896 573.053 395.448 571.602 399.579 572.238C399.731 573.036 399.654 573.86 399.357 574.615V574.615Z" fill="black"/>
<path d="M273.968 558.609C273.968 558.609 270.214 563.273 265.187 563.636C263.864 563.649 262.597 564.169 261.644 565.087C260.692 566.005 260.127 567.252 260.064 568.574C260.064 568.574 260.982 571.417 248.819 575.348C241.497 577.717 236.892 576.969 234.205 575.348C232.758 574.546 231.673 573.222 231.169 571.646C230.348 568.722 246.531 546.475 246.531 546.475L261.256 545.557L271.776 550.317L273.383 556.336L273.968 558.609Z" fill="#3F3D56"/>
<path opacity="0.1" d="M273.968 558.609C273.968 558.609 270.214 563.273 265.187 563.636C263.864 563.649 262.597 564.169 261.644 565.087C260.692 566.005 260.127 567.252 260.064 568.574C260.064 568.574 260.982 571.417 248.819 575.348C241.497 577.717 236.892 576.969 234.205 575.348C232.758 574.546 231.673 573.222 231.169 571.646C230.348 568.722 246.531 546.475 246.531 546.475L261.256 545.557L271.776 550.317L273.383 556.336L273.968 558.609Z" fill="black"/>
<path opacity="0.1" d="M273.968 558.609C273.968 558.609 270.214 563.273 265.188 563.636C263.865 563.65 262.597 564.169 261.645 565.087C260.692 566.005 260.127 567.252 260.065 568.574C260.065 568.574 260.983 571.417 248.819 575.348C241.497 577.717 236.892 576.969 234.205 575.348C241.112 574.607 256.363 570.269 257.895 568.759C259.724 566.923 262.012 561.896 263.566 561.807C264.64 561.741 270.118 558.439 273.405 556.396L273.968 558.609Z" fill="black"/>
<path d="M386.89 538.213C385.246 542.055 386.89 549.918 386.89 549.918C386.89 549.918 362.378 551.206 356.344 547.178C350.31 543.151 346.098 520.105 346.098 520.105C346.098 520.105 347.008 493.038 346.098 491.75C345.187 490.462 341.893 484.436 342.988 483.163C344.084 481.889 342.07 475.108 340.612 472.184C339.154 469.259 339.694 460.842 339.694 460.842L336.037 438.528L330.366 412.002L325.613 394.235C325.613 394.235 320.675 379.784 318.995 373.743C317.314 367.701 315.552 373.195 315.552 373.195C315.374 379.051 301.834 405.391 301.834 405.391C301.834 405.391 299.82 421.301 297.621 426.972C295.423 432.643 293.054 452.402 293.054 452.402C293.054 452.402 289.581 492.639 286.65 499.405C283.718 506.172 281.764 516.262 281.764 516.262C281.764 516.262 282.504 530.166 280.668 531.261C278.832 532.357 279.187 540.775 279.187 540.775C279.187 540.775 280.283 548.822 276.071 550.11C271.858 551.398 272.598 554.13 272.598 554.13C272.598 554.13 249.189 557.95 245.34 547.726C241.49 537.502 246.82 534.741 247.072 534.008C247.324 533.275 250.285 532.002 247.716 529.07C245.147 526.138 251.011 518.091 251.011 518.091C251.011 518.091 251.929 506.757 253.572 506.387C255.216 506.016 254.668 489.559 254.668 489.559L256.496 472.369C256.496 472.369 258.88 433.953 258.332 432.487C257.785 431.021 258.147 423.707 259.976 420.235C261.804 416.763 263.255 384.751 263.255 384.751C263.255 384.751 262.885 369.019 264.351 366.095C265.18 364.437 265.595 358.062 265.832 352.858C265.98 348.897 266.024 345.61 266.024 345.61L286.502 337.926L312.857 329.516L334.993 340.117L367.367 346.336L367.775 351.925L373.927 437.277L377.406 469.474C377.406 469.474 378.887 484.651 379.057 487.39C379.227 490.129 381.063 508.067 381.063 508.067C381.063 508.067 384.906 516.662 382.544 519.587C380.182 522.511 381.063 524.895 381.063 524.895C381.063 524.895 388.563 534.371 386.89 538.213Z" fill="#3F3D56"/>
<path opacity="0.1" d="M348.511 169.827L340.101 319.728L294.364 310.126L285.31 250.034L294.275 169.368L301.027 170.235L312.938 171.752L324.732 172.485L337.51 171.056L348.511 169.827Z" fill="black"/>
<path d="M348.511 170.931L340.101 320.824L294.364 311.222L285.31 251.13L294.275 170.471L301.027 171.33L312.938 172.848L324.732 173.581L337.51 172.152L348.511 170.931Z" fill="#6C63FF"/>
<path d="M310.917 174.95L327.382 175.498L322.755 181.976C322.755 181.976 323.081 195.065 325.28 198.819C327.479 202.572 326.834 260.554 326.834 260.554L322.481 268.875L314.982 259.547L315.071 182.998L310.917 174.95Z" fill="#3F3D56"/>
<path opacity="0.1" d="M310.917 174.95L327.382 175.498L322.755 181.976C322.755 181.976 323.081 195.065 325.28 198.819C327.479 202.572 326.834 260.554 326.834 260.554L322.481 268.875L314.982 259.547L315.071 182.998L310.917 174.95Z" fill="black"/>
<path opacity="0.1" d="M336.71 157.938L321.349 174.951L330.129 184.094L344.669 169.924L336.71 157.938Z" fill="black"/>
<path d="M335.696 157.96L321.341 173.847L330.122 182.998L344.691 168.821L337.577 158.101C337.479 157.945 337.347 157.814 337.19 157.719C337.032 157.625 336.855 157.568 336.672 157.554C336.489 157.541 336.305 157.57 336.136 157.641C335.966 157.711 335.816 157.821 335.696 157.96V157.96Z" fill="#6C63FF"/>
<path opacity="0.1" d="M314.856 174.129L299.31 158.582L297.844 166.718L304.98 184.553L314.856 174.129Z" fill="black"/>
<path d="M315.404 173.033L299.857 157.479L298.391 165.622L305.528 183.457L315.404 173.033Z" fill="#6C63FF"/>
<path opacity="0.1" d="M367.752 351.925C360.3 355.491 352.315 357.814 344.114 358.803C329.026 360.728 319.15 341.524 319.15 341.524L313.39 349.023C311.561 356.982 283.659 358.988 272.324 355.967C269.972 355.389 267.761 354.342 265.824 352.888C265.972 348.927 266.017 345.64 266.017 345.64L286.501 337.926L312.857 329.516L334.993 340.117L367.367 346.336L367.752 351.925Z" fill="black"/>
<path opacity="0.1" d="M348.504 170.923L340.094 320.817L294.364 311.192L285.31 251.108L294.275 170.412L301.027 171.271C300.853 174.201 300.522 177.12 300.035 180.014C298.939 185.137 305.706 221.539 305.706 221.539C305.706 221.539 318.565 262.353 324.362 256.475C330.158 250.597 338.354 219.525 338.354 219.525C343.936 207.999 338.45 175.72 338.036 175.032C337.747 174.068 337.571 173.075 337.51 172.071L348.504 170.923Z" fill="black"/>
<path opacity="0.1" d="M368.263 286.888L368.648 301.576L364.421 305.41L361.541 269.875H367.849L368.263 286.888Z" fill="black"/>
<path opacity="0.1" d="M268.949 259.829V259.866C268.887 261.048 268.719 262.223 268.445 263.375C268.445 263.049 268.445 262.864 268.386 262.842C268.119 262.723 268.438 261.383 268.949 259.829Z" fill="black"/>
<path opacity="0.1" d="M277.048 269.882L274.168 305.418C274.168 305.418 269.844 301.502 264.248 296.393L264.914 290.101C264.914 290.101 267.275 274.628 268.134 267.002C268.515 268.019 269.012 268.987 269.615 269.89L277.048 269.882Z" fill="black"/>
<path d="M301.856 158.027C301.856 158.027 299.116 154.007 295.37 161.78C295.37 161.78 285.583 167.451 282.2 168.088C278.817 168.724 266.838 172.937 266.838 172.937C265.028 174.249 262.848 174.954 260.612 174.95C256.866 174.95 253.757 183.175 254.216 187.662C254.675 192.148 253.942 195.435 250.462 195.62C246.983 195.805 248.908 203.024 248.908 203.024L272.05 229.549C272.05 229.549 273.531 253.98 272.79 254.72C272.05 255.461 269.4 262.583 270.044 262.864C270.688 263.145 266.564 290.123 266.564 290.123L260.982 342.516C260.982 342.516 260.982 351.288 272.324 354.309C283.666 357.33 311.561 355.316 313.39 347.357L319.15 339.858C319.15 339.858 329.025 359.106 344.113 357.144C359.201 355.183 368.811 349.741 368.811 349.741L367.16 286.91L366.064 241.639L389.658 202.957C389.658 202.957 383.351 190.882 383.898 185.396C384.446 179.911 385.549 175.772 372.105 173.87C372.105 173.87 360.763 172.182 354.085 167.562C350.114 164.801 345.772 162.616 341.189 161.069C341.189 161.069 338.154 155.591 335.533 157.96C335.533 157.96 337.443 166.37 337.213 167.88C336.984 169.391 337.621 176.068 338.035 176.764C338.45 177.46 343.958 209.731 338.354 221.258C338.354 221.258 330.158 252.351 324.361 258.2C318.565 264.049 305.705 223.264 305.705 223.264C305.705 223.264 298.939 186.87 300.034 181.747C301.13 176.624 301.856 158.027 301.856 158.027Z" fill="#3F3D56"/>
<path d="M321.438 277.937C323.662 277.937 325.465 276.134 325.465 273.91C325.465 271.685 323.662 269.882 321.438 269.882C319.213 269.882 317.41 271.685 317.41 273.91C317.41 276.134 319.213 277.937 321.438 277.937Z" fill="#3F3D56"/>
<path d="M321.438 296.912C323.662 296.912 325.465 295.108 325.465 292.884C325.465 290.66 323.662 288.857 321.438 288.857C319.213 288.857 317.41 290.66 317.41 292.884C317.41 295.108 319.213 296.912 321.438 296.912Z" fill="#3F3D56"/>
<path opacity="0.1" d="M321.438 277.937C323.662 277.937 325.465 276.134 325.465 273.91C325.465 271.685 323.662 269.882 321.438 269.882C319.213 269.882 317.41 271.685 317.41 273.91C317.41 276.134 319.213 277.937 321.438 277.937Z" fill="black"/>
<path opacity="0.1" d="M321.438 296.912C323.662 296.912 325.465 295.108 325.465 292.884C325.465 290.66 323.662 288.857 321.438 288.857C319.213 288.857 317.41 290.66 317.41 292.884C317.41 295.108 319.213 296.912 321.438 296.912Z" fill="black"/>
<path opacity="0.1" d="M357.595 532.727C357.595 532.727 374.112 534.008 375.763 535.289C377.414 536.57 357.595 532.727 357.595 532.727Z" fill="black"/>
<path opacity="0.1" d="M259.243 519.742C259.243 519.742 262.723 524.132 261.257 526.146C259.791 528.159 259.243 519.742 259.243 519.742Z" fill="black"/>
<path opacity="0.1" d="M263.448 535.548C263.448 535.548 269.852 531.343 272.413 534.141C274.975 536.94 263.448 535.548 263.448 535.548Z" fill="black"/>
<path opacity="0.1" d="M336.318 139.134V149.698C334.997 150.278 333.57 150.578 332.127 150.579H304.402C302.954 150.58 301.521 150.277 300.197 149.691V139.134C300.207 136.345 301.32 133.674 303.292 131.703C305.264 129.732 307.936 128.621 310.725 128.614H325.798C328.585 128.623 331.255 129.735 333.226 131.706C335.196 133.676 336.308 136.346 336.318 139.134V139.134Z" fill="black"/>
<path opacity="0.1" d="M302.604 93.7664V101.569C302.604 102.021 302.424 102.454 302.105 102.773C301.786 103.093 301.353 103.272 300.901 103.272C300.449 103.272 300.016 103.093 299.697 102.773C299.378 102.454 299.198 102.021 299.198 101.569V95.0028C300.249 94.3877 301.403 93.9687 302.604 93.7664V93.7664Z" fill="black"/>
<path d="M333.764 94.4771H302.759C297.852 94.4771 293.875 98.4546 293.875 103.361V139.94C293.875 144.847 297.852 148.824 302.759 148.824H333.764C338.67 148.824 342.648 144.847 342.648 139.94V103.361C342.648 98.4546 338.67 94.4771 333.764 94.4771Z" fill="#DCDFED"/>
<path opacity="0.1" d="M332.106 130.783V152.941H304.403V130.738C306.222 129.359 308.442 128.612 310.725 128.614H325.798C328.081 128.632 330.295 129.393 332.106 130.783V130.783Z" fill="black"/>
<path opacity="0.1" d="M332.431 94.4771H303.847V151.149H332.431V94.4771Z" fill="black"/>
<path d="M332.128 94.4771H304.403V151.149H332.128V94.4771Z" fill="#6F758D"/>
<path d="M315.404 114.029H306.438V115.687H315.404V114.029Z" fill="#DCDFED"/>
<path d="M330.314 114.029H321.349V115.687H330.314V114.029Z" fill="#DCDFED"/>
<path d="M325.828 132.345H310.695V133.337H325.828V132.345Z" fill="#DCDFED"/>
<path d="M508.54 193.311L519.26 246.273C519.383 246.86 519.691 247.393 520.139 247.792C520.586 248.192 521.15 248.438 521.747 248.494L528.891 249.19C529.418 250.114 529.895 251.066 530.32 252.041C531.594 255.002 532.423 258.555 535.169 260.31C536.65 261.791 539.989 261.531 541.899 261.539C543.906 261.465 545.91 261.743 547.821 262.361C547.6 262.335 547.376 262.335 547.155 262.361C548.399 262.858 549.602 263.452 550.753 264.137C550.842 264.256 550.938 264.374 551.012 264.493C551.316 264.959 551.56 265.522 552.071 265.751C551.923 266.047 552.626 266.055 553.751 265.899C553.862 265.919 553.969 265.954 554.07 266.003C554.371 266.204 554.624 266.47 554.81 266.78C556.668 269.253 560.118 269.868 563.228 269.949C566.337 270.03 569.624 269.816 572.363 271.289C573.015 271.637 573.622 272.074 574.303 272.37C574.267 272.693 574.279 273.02 574.34 273.34C574.661 274.364 575.077 275.355 575.584 276.301C575.834 276.781 575.971 277.313 575.983 277.854C575.996 278.396 575.885 278.933 575.658 279.425C575.428 279.825 575.058 280.165 574.821 280.536C574.502 281.182 574.342 281.895 574.355 282.616C574.14 285.984 573.933 289.42 574.851 292.662C575.384 294.55 576.287 296.512 575.695 298.377C575.339 299.503 574.458 300.458 574.332 301.627C574.207 302.797 574.947 304.026 575.384 305.203C576.413 307.994 575.85 311.341 575.139 314.22C575.185 314.246 575.232 314.268 575.28 314.287C574.757 314.902 574.324 315.587 573.992 316.323C572.859 318.759 572.933 321.564 573.015 324.244C573.17 329.286 573.34 334.387 574.74 339.229C574.978 339.917 575.142 340.63 575.228 341.353C575.251 342.037 575.191 342.72 575.051 343.389C574.717 345.329 574.31 347.261 573.829 349.171C573.56 349.989 573.452 350.851 573.511 351.71C573.651 352.828 574.355 353.798 574.821 354.835C576.679 358.966 574.68 364.052 576.487 368.205C576.916 369.19 577.546 370.078 577.916 371.085C578.73 373.306 578.271 375.704 578.545 378.014C578.841 379.647 579.241 381.26 579.744 382.841C581.055 387.979 578.885 393.457 580.151 398.61C581.232 403.052 582.328 407.494 582.372 412.017C582.439 415.178 582.002 418.34 582.372 421.479C582.743 424.618 584.046 427.853 586.733 429.526C588.163 430.34 589.762 430.811 591.404 430.903C594.588 447.464 594.403 464.536 597.171 481.186C597.727 484.547 598.408 487.849 598.748 491.276C600.325 507.119 594.41 522.496 591.071 538.154L590.538 538.48C586.429 541.041 582.054 543.928 580.425 548.459C579.922 549.858 579.803 551.643 580.929 552.627C581.348 552.9 581.745 553.207 582.113 553.545C583.009 554.626 582.224 556.566 583.305 557.454C584.013 557.573 584.728 557.647 585.445 557.676C584.951 558.851 584.458 560.028 583.964 561.208C583.513 562.251 583.053 563.392 583.335 564.495C583.593 565.194 583.939 565.859 584.364 566.471C585.14 568.137 585.501 569.966 585.415 571.802C585.35 572.41 585.516 573.021 585.882 573.512C586.085 573.699 586.321 573.847 586.577 573.949C589.871 575.393 593.486 575.949 597.061 575.559C600.636 575.169 604.046 573.848 606.951 571.728C607.23 571.548 607.468 571.311 607.647 571.032C607.737 570.84 607.804 570.639 607.847 570.432C608.313 568.515 608.787 566.597 609.254 564.68C609.313 564.458 609.365 564.228 609.424 564.006C609.972 561.741 610.527 559.483 611.082 557.217C611.823 554.034 612.629 550.843 613.17 547.593C613.17 549.399 613.17 551.198 613.17 553.005V559.327C613.154 560.259 613.186 561.19 613.266 562.118C614.044 562.118 614.821 562.118 615.598 562.118C615.654 562.126 615.712 562.119 615.764 562.097C615.816 562.074 615.861 562.038 615.894 561.992C615.999 561.76 616.05 561.507 616.042 561.252C616.156 558.942 616.237 556.627 616.287 554.308C616.383 550.251 616.398 546.164 616.324 542.122C616.324 541.204 616.413 539.316 616.264 538.05C616.646 537.154 616.963 536.231 617.212 535.289C617.59 534.015 617.952 532.727 618.263 531.432C618.755 531.363 619.253 531.363 619.744 531.432C619.759 538.908 619.033 546.368 617.575 553.701C619.011 555.041 621.55 554.263 622.705 552.664C623.86 551.065 624.008 548.963 624.186 547.038C624.726 540.612 625.763 534.238 626.807 527.871C626.916 526.773 627.23 525.706 627.732 524.724C628.228 523.88 629.005 523.244 629.442 522.341C629.902 521.216 630.04 519.986 629.842 518.787C629.575 515.981 628.88 513.123 627.162 510.873C625.548 508.763 622.868 507.327 620.24 507.638L620.077 507.342C618.552 504.284 618.708 500.679 618.9 497.303C619.112 493.463 619.329 489.623 619.552 485.783C620.181 481.549 620.677 477.314 620.973 473.072C621.713 470.347 622.713 467.697 623.379 464.928C623.379 462.241 624.334 459.443 624.364 456.681C624.375 453.809 624.16 450.939 623.72 448.101C622.876 442.267 621.35 436.559 620.085 430.814C619.877 429.844 619.744 428.815 619.603 427.801C620.461 427.301 621.252 426.694 621.958 425.995C620.662 415.926 619.485 405.117 624.253 396.145C625.667 393.494 627.599 390.962 628.095 388.001C628.221 387.261 628.258 386.476 628.413 385.728C628.632 384.845 628.942 383.986 629.339 383.167L638.77 361.808L640.295 358.373C641.932 354.672 643.568 350.97 644.967 347.143C646.61 342.701 647.928 338.088 649.165 333.506C649.905 330.759 650.645 327.961 650.593 325.118C650.457 322.594 649.862 320.115 648.839 317.804C648.617 317.278 648.38 316.76 648.098 316.241C648.387 316.153 648.668 316.086 648.95 315.997C649.579 311.518 650.112 306.58 647.588 302.834C647.094 302.238 646.697 301.569 646.41 300.85C645.959 299.318 646.936 297.756 647.247 296.186C647.884 292.98 645.722 289.967 643.871 287.265C643.589 286.905 643.368 286.499 643.22 286.066C642.879 284.837 643.627 283.467 643.642 282.224C643.644 281.893 643.57 281.566 643.427 281.269C650.571 281.683 657.619 283.549 664.785 283.823C669.324 284 674.41 283.29 677.289 279.825C679.133 277.604 679.792 274.68 679.969 271.822C680.295 266.558 679.229 261.317 678.341 256.112C677.763 252.581 677.304 249.027 676.941 245.459C677.682 245.526 678.422 245.563 679.162 245.563C683.405 245.563 687.817 244.941 691.326 242.601C694.835 240.262 697.182 235.798 696.079 231.733C695.457 229.438 693.858 227.543 692.688 225.478C688.557 218.185 689.727 208.909 693.28 201.306C694.946 197.708 697.152 193.977 696.486 190.068C695.538 184.589 689.638 181.739 685.211 178.334C681.362 175.311 678.322 171.38 676.363 166.895C674.405 162.409 673.588 157.508 673.988 152.63C674.328 149.024 675.313 145.226 673.869 141.902C672.314 138.341 668.472 136.468 665.237 134.307C660.213 130.932 656.162 126.299 653.488 120.87C651.837 117.494 650.475 114.399 646.581 113.244C643.45 112.423 640.168 112.362 637.008 113.067L637.66 112.756C637.364 112.808 637.068 112.867 636.786 112.933L636.327 113.059C633.345 112.41 630.256 112.428 627.281 113.111C621.262 114.555 614.695 118.878 609.764 122.439C608.289 123.466 606.933 124.656 605.722 125.985C605.596 126.126 605.456 126.252 605.33 126.393C604.736 127.048 604.238 127.783 603.849 128.577C603.593 129.156 603.402 129.762 603.279 130.383C602.769 132.091 602.561 133.875 602.665 135.654C602.398 136.024 602.139 136.394 601.924 136.787C598.778 141.779 597.659 147.784 598.796 153.574C599.933 159.364 603.239 164.501 608.039 167.932C607.153 169.953 606.106 171.899 604.908 173.751C603.635 175.809 602.287 177.83 600.91 179.822L586.104 184.412C585.171 184.708 584.238 184.997 583.342 185.374C582.257 185.835 581.241 186.443 580.322 187.181C578.838 188.349 577.684 189.884 576.973 191.634C576.262 193.383 576.018 195.288 576.265 197.16C576.331 197.545 576.42 197.901 576.509 198.3C576.065 200.566 575.724 202.868 575.384 205.156C574.94 208.243 574.495 211.33 574.088 214.425C572.568 217.491 571.903 220.91 572.163 224.323C572.213 226.385 572.394 228.443 572.704 230.482C572.652 232.296 572.63 234.11 572.704 235.924C572.844 238.224 572.844 240.531 572.704 242.831C572.45 244.932 572.039 247.01 571.475 249.05C571.454 249.236 571.395 249.416 571.301 249.578C571.206 249.74 571.079 249.88 570.927 249.99L570.757 250.034L569.765 249.938L568.669 249.812C568.667 249.656 568.655 249.5 568.632 249.346L556.957 192.23C556.821 191.598 556.471 191.032 555.967 190.627C555.463 190.223 554.835 190.004 554.188 190.009H511.301C510.891 190.009 510.485 190.099 510.113 190.273C509.742 190.446 509.412 190.7 509.149 191.014C508.886 191.329 508.695 191.698 508.589 192.095C508.484 192.492 508.467 192.907 508.54 193.311V193.311ZM644.404 261.502C644.495 261.266 644.602 261.036 644.723 260.813C645.159 260.073 645.796 259.466 646.203 258.718C646.411 258.297 646.52 257.833 646.52 257.363C646.52 256.894 646.411 256.43 646.203 256.009C645.781 255.268 646.944 254.565 647.284 253.788C647.444 253.162 647.482 252.511 647.395 251.87C647.525 250.793 647.942 249.77 648.602 248.909C649.416 247.621 650.238 246.347 651.075 245.074C651.319 244.689 651.578 244.334 651.815 243.934C651.952 244.189 652.102 244.436 652.266 244.674C652.874 245.36 653.337 246.16 653.629 247.029C653.681 247.637 653.681 248.249 653.629 248.857C653.629 250.752 654.828 252.418 655.739 254.091C656.649 255.764 657.315 257.859 656.368 259.51C656.035 260.088 655.628 260.991 656.198 261.258C656.516 261.406 656.938 261.258 657.212 261.465C657.597 261.813 657.071 262.398 656.59 262.612C655.003 263.297 653.292 263.65 651.563 263.65C649.834 263.65 648.124 263.297 646.536 262.612C645.87 262.264 645.145 261.865 644.404 261.502ZM553.344 251.596L565.189 252.759C564.208 253.24 563.12 253.464 562.028 253.41L559.156 252.551C559.156 252.551 559.156 252.744 559.06 253.07C558.519 252.929 557.971 252.796 557.431 252.67C556.046 252.344 554.684 251.981 553.329 251.596H553.344Z" fill="url(#paint1_linear)"/>
<path d="M644.589 123.379C647.23 128.758 651.232 133.352 656.198 136.705C659.403 138.86 663.194 140.725 664.734 144.264C666.17 147.566 665.193 151.349 664.86 154.939C664.458 159.786 665.263 164.656 667.2 169.116C669.138 173.577 672.149 177.488 675.964 180.503C680.34 183.886 686.181 186.729 687.114 192.178C687.78 196.064 685.633 199.781 683.945 203.357C680.466 210.923 679.274 220.147 683.36 227.395C684.523 229.461 686.092 231.341 686.714 233.621C687.81 237.671 685.485 242.083 682.013 244.437C678.541 246.792 674.18 247.399 669.99 247.399C666.94 247.399 663.638 246.94 661.476 244.8C659.996 243.364 659.3 241.365 658.619 239.448L653.318 224.463C652.355 221.769 651.349 218.97 649.342 216.927C645.093 212.589 638.149 213.048 632.078 213.122C623.132 213.228 614.231 211.824 605.752 208.968C600.792 207.295 595.387 204.445 594.24 199.344C593.107 194.354 596.52 189.601 599.526 185.463C601.776 182.378 603.904 179.207 605.908 175.95C607.862 172.781 609.735 169.45 610.268 165.77C611.164 159.655 608.299 153.718 606.078 147.951C603.857 142.184 602.31 135.365 605.537 130.094C606.929 128.043 608.707 126.283 610.771 124.912C615.621 121.366 622.135 117.072 628.088 115.628C631.278 114.883 634.602 114.929 637.771 115.761C641.606 116.924 642.953 119.996 644.589 123.379Z" fill="#3F3D56"/>
<path d="M579.241 194.791C578.051 198.849 577.206 202.999 576.716 207.199C575.236 217.349 573.755 227.558 574.036 237.804C574.173 240.095 574.173 242.391 574.036 244.682C573.784 246.769 573.378 248.835 572.822 250.863C572.803 251.049 572.744 251.228 572.649 251.389C572.555 251.55 572.427 251.689 572.274 251.796C571.926 251.966 571.534 251.796 571.127 251.752C569.809 251.589 568.839 252.862 567.818 253.721C566.824 254.524 565.609 255.004 564.335 255.098C563.061 255.192 561.789 254.895 560.688 254.247C561.027 255.753 560.919 257.325 560.379 258.771C559.838 260.217 558.889 261.475 557.646 262.39C556.385 263.283 554.947 263.892 553.429 264.177C551.911 264.462 550.349 264.416 548.851 264.041C550.368 263.804 551.812 264.87 552.671 266.166C552.967 266.632 553.204 267.188 553.707 267.417C554.211 267.647 555.092 267.358 555.684 267.669C555.98 267.861 556.232 268.113 556.424 268.409C558.26 270.874 561.673 271.481 564.745 271.563C567.818 271.644 571.068 271.437 573.777 272.895C574.422 273.301 575.087 273.674 575.769 274.013C577.901 274.894 580.448 274.013 582.106 272.436C583.764 270.86 584.682 268.631 585.363 266.432C588.103 257.549 587.584 247.991 587.007 238.692C586.104 223.901 584.223 208.761 579.241 194.791Z" fill="#454B69"/>
<path opacity="0.1" d="M579.241 194.791C578.051 198.849 577.206 202.999 576.716 207.199C575.236 217.349 573.755 227.558 574.036 237.804C574.173 240.095 574.173 242.391 574.036 244.682C573.784 246.769 573.378 248.835 572.822 250.863C572.803 251.049 572.744 251.228 572.649 251.389C572.555 251.55 572.427 251.689 572.274 251.796C571.926 251.966 571.534 251.796 571.127 251.752C569.809 251.589 568.839 252.862 567.818 253.721C566.824 254.524 565.609 255.004 564.335 255.098C563.061 255.192 561.789 254.895 560.688 254.247C561.027 255.753 560.919 257.325 560.379 258.771C559.838 260.217 558.889 261.475 557.646 262.39C556.385 263.283 554.947 263.892 553.429 264.177C551.911 264.462 550.349 264.416 548.851 264.041C550.368 263.804 551.812 264.87 552.671 266.166C552.967 266.632 553.204 267.188 553.707 267.417C554.211 267.647 555.092 267.358 555.684 267.669C555.98 267.861 556.232 268.113 556.424 268.409C558.26 270.874 561.673 271.481 564.745 271.563C567.818 271.644 571.068 271.437 573.777 272.895C574.422 273.301 575.087 273.674 575.769 274.013C577.901 274.894 580.448 274.013 582.106 272.436C583.764 270.86 584.682 268.631 585.363 266.432C588.103 257.549 587.584 247.991 587.007 238.692C586.104 223.901 584.223 208.761 579.241 194.791Z" fill="black"/>
<path d="M624.186 465.602C623.446 468.808 622.15 471.887 621.461 475.115C620.949 477.887 620.647 480.693 620.558 483.51L619.766 497.784C619.574 501.167 619.418 504.728 620.921 507.764C621.965 509.866 623.771 511.628 624.29 513.923C625.089 517.514 622.52 520.897 620.121 523.688L608.276 537.391C604.575 541.685 600.525 546.201 595.039 547.66C594.222 547.934 593.342 547.965 592.507 547.748C590.975 547.245 590.235 545.394 590.457 543.795C590.805 542.217 591.526 540.745 592.559 539.501C595.654 535.156 598.978 530.876 600.992 525.931C603.546 519.646 603.805 512.679 603.649 505.891C603.064 478.217 596.083 450.862 596.875 423.211C602.916 422.752 609.194 421.73 615.243 421.804C620.64 421.864 619.996 427.364 620.936 431.688C622.187 437.41 623.69 443.081 624.534 448.885C624.965 451.71 625.176 454.564 625.163 457.421C625.133 460.146 624.186 462.929 624.186 465.602Z" fill="#FBBEBE"/>
<path opacity="0.05" d="M624.186 465.602C623.446 468.808 622.15 471.887 621.461 475.115C620.949 477.887 620.647 480.693 620.558 483.51L619.766 497.784C619.574 501.167 619.418 504.728 620.921 507.764C621.965 509.866 623.771 511.628 624.29 513.923C625.089 517.514 622.52 520.897 620.121 523.688L608.276 537.391C604.575 541.685 600.525 546.201 595.039 547.66C594.222 547.934 593.342 547.965 592.507 547.748C590.975 547.245 590.235 545.394 590.457 543.795C590.805 542.217 591.526 540.745 592.559 539.501C595.654 535.156 598.978 530.876 600.992 525.931C603.546 519.646 603.805 512.679 603.649 505.891C603.064 478.217 596.083 450.862 596.875 423.211C602.916 422.752 609.194 421.73 615.243 421.804C620.64 421.864 619.996 427.364 620.936 431.688C622.187 437.41 623.69 443.081 624.534 448.885C624.965 451.71 625.176 454.564 625.163 457.421C625.133 460.146 624.186 462.929 624.186 465.602Z" fill="black"/>
<path d="M620.61 508.119C623.357 507.556 626.237 509.044 627.932 511.28C629.627 513.516 630.316 516.359 630.582 519.157C630.778 520.348 630.643 521.57 630.19 522.688C629.753 523.555 628.991 524.221 628.495 525.058C627.998 526.036 627.687 527.097 627.577 528.189C626.555 534.519 625.526 540.863 624.986 547.252C624.823 549.199 624.667 551.265 623.505 552.849C622.343 554.434 619.863 555.218 618.441 553.878C619.878 546.585 620.595 539.169 620.581 531.735C617.353 531.291 614.547 533.83 612.437 536.31C610.28 538.845 608.301 541.527 606.514 544.336C604.886 546.919 603.398 549.621 601.332 551.865C599.216 554.109 596.584 555.804 593.664 556.803C590.745 557.801 587.627 558.073 584.579 557.595C583.513 556.714 584.29 554.782 583.402 553.708C583.048 553.364 582.667 553.049 582.261 552.768C581.151 551.791 581.262 550.021 581.765 548.629C583.379 544.113 587.688 541.226 591.76 538.702C599.119 534.082 606.566 529.529 613.97 525.05C616.801 523.316 618.959 520.672 620.092 517.551C620.359 516.781 621.513 507.815 620.61 508.119Z" fill="#3F3D56"/>
<path opacity="0.05" d="M620.61 508.119C623.357 507.556 626.237 509.044 627.932 511.28C629.627 513.516 630.316 516.359 630.582 519.157C630.778 520.348 630.643 521.57 630.19 522.688C629.753 523.555 628.991 524.221 628.495 525.058C627.998 526.036 627.687 527.097 627.577 528.189C626.555 534.519 625.526 540.863 624.986 547.252C624.823 549.199 624.667 551.265 623.505 552.849C622.343 554.434 619.863 555.218 618.441 553.878C619.878 546.585 620.595 539.169 620.581 531.735C617.353 531.291 614.547 533.83 612.437 536.31C610.28 538.845 608.301 541.527 606.514 544.336C604.886 546.919 603.398 549.621 601.332 551.865C599.216 554.109 596.584 555.804 593.664 556.803C590.745 557.801 587.627 558.073 584.579 557.595C583.513 556.714 584.29 554.782 583.402 553.708C583.048 553.364 582.667 553.049 582.261 552.768C581.151 551.791 581.262 550.021 581.765 548.629C583.379 544.113 587.688 541.226 591.76 538.702C599.119 534.082 606.566 529.529 613.97 525.05C616.801 523.316 618.959 520.672 620.092 517.551C620.359 516.781 621.513 507.815 620.61 508.119Z" fill="black"/>
<path d="M621.809 457.569C623.29 476.078 619.144 494.467 615.457 512.642C615.108 514.098 614.919 515.587 614.895 517.084C615.04 518.935 615.339 520.77 615.791 522.57C617.182 530.069 615.398 537.761 613.629 545.187C612.392 550.325 610.667 556.129 605.87 558.372C602.487 559.956 598.534 559.268 594.869 558.542C593.659 558.416 592.507 557.954 591.545 557.21C590.227 555.966 590.175 553.915 590.286 552.109C591.56 531.698 601.895 512.131 599.911 491.772C599.577 488.404 598.904 485.073 598.348 481.734C595.491 464.417 595.831 446.642 592.211 429.474C592.034 428.88 592.034 428.247 592.211 427.653C592.525 427.065 593.021 426.594 593.625 426.313C596.971 424.314 600.547 422.53 604.404 421.989C607.417 421.567 611.215 421.893 613.747 423.766C616.405 425.728 616.583 429.948 617.36 433.028C619.351 441.082 621.143 449.256 621.809 457.569Z" fill="#FBBEBE"/>
<path d="M616.968 561.407C616.977 561.662 616.926 561.916 616.82 562.148C616.788 562.194 616.745 562.231 616.694 562.254C616.643 562.278 616.587 562.287 616.531 562.281C615.791 562.281 614.991 562.281 614.229 562.281C614.146 561.356 614.111 560.426 614.125 559.497V553.212C614.125 548.222 614.125 543.225 614.347 538.265C614.345 538.084 614.373 537.904 614.429 537.732C614.48 537.622 614.569 537.536 614.68 537.488C615.228 537.228 616.509 536.429 616.983 537.354C617.457 538.28 617.242 541.167 617.264 542.374C617.338 546.408 617.331 550.458 617.264 554.493C617.175 556.798 617.077 559.103 616.968 561.407Z" fill="#3F3D56"/>
<path d="M576.605 342.627C576.627 343.307 576.567 343.988 576.428 344.655C576.094 346.58 575.687 348.497 575.221 350.4C574.954 351.216 574.846 352.075 574.903 352.932C575.043 354.042 575.739 355.005 576.198 356.034C578.034 360.143 576.057 365.207 577.849 369.36C578.271 370.337 578.893 371.225 579.263 372.225C580.07 374.401 579.611 376.815 579.885 379.117C580.174 380.743 580.569 382.348 581.069 383.922C582.365 389.03 580.218 394.479 581.469 399.609C582.543 404 583.616 408.427 583.69 412.935C583.749 416.074 583.32 419.221 583.69 422.345C584.06 425.469 585.348 428.682 588.006 430.348C590.109 431.658 592.7 431.828 595.187 431.828C599.963 431.917 604.76 431.777 609.527 431.406C614.295 431.036 619.426 430.259 622.787 426.868C621.506 416.852 620.344 406.102 625.06 397.174C626.451 394.538 628.361 392.058 628.857 389.112C628.976 388.371 629.013 387.594 629.168 386.846C629.384 385.97 629.692 385.119 630.086 384.307L639.414 363.06C639.908 361.92 640.402 360.779 640.895 359.639C642.509 355.938 644.13 352.236 645.522 348.468C647.143 344.026 648.432 339.465 649.668 334.905C650.408 332.166 651.149 329.39 651.075 326.554C650.946 324.043 650.359 321.577 649.342 319.277C648.787 317.937 648.15 316.619 647.491 315.331C628.999 310.974 609.969 309.345 591.005 310.497C587.987 310.559 584.995 311.057 582.121 311.977C580.15 312.668 578.373 313.821 576.938 315.338C576.289 316.045 575.754 316.849 575.354 317.722C574.244 320.15 574.31 322.941 574.392 325.607C574.547 330.619 574.717 335.697 576.102 340.509C576.341 341.196 576.51 341.906 576.605 342.627V342.627Z" fill="#3F3D56"/>
<path d="M589.569 551.139C592.373 553.265 595.668 554.65 599.149 555.167C602.214 555.618 605.582 555.292 608.033 553.368C610.816 551.147 611.734 547.445 612.563 543.98L613.622 539.368C614.007 537.71 614.362 536.051 614.681 534.378C615.489 529.963 615.738 525.463 615.421 520.986C617.931 521.963 619.441 524.954 619.604 527.649C619.767 530.343 618.937 532.979 618.175 535.57C617.871 536.826 617.409 538.037 616.798 539.176C616.346 539.916 615.762 540.597 615.377 541.396C614.895 542.575 614.62 543.827 614.562 545.098C613.99 549.253 613.164 553.37 612.09 557.424L610.446 564.176L610.283 564.85L608.839 570.536C608.802 570.742 608.735 570.941 608.64 571.128C608.467 571.407 608.234 571.645 607.958 571.824C605.088 573.927 601.713 575.236 598.175 575.619C594.637 576.001 591.06 575.443 587.807 574C587.555 573.897 587.322 573.751 587.118 573.571C586.759 573.08 586.598 572.472 586.667 571.868C586.748 570.043 586.39 568.225 585.623 566.568C585.202 565.957 584.862 565.295 584.609 564.598C584.327 563.503 584.779 562.377 585.223 561.333L588.621 553.375C588.999 552.435 588.954 551.953 589.569 551.139Z" fill="#3F3D56"/>
<path d="M597.549 219.814C597.674 221.578 598.02 223.319 598.578 224.996C598.996 226.204 599.723 227.282 600.688 228.121C602.272 225.981 605.13 225.248 607.232 223.679C609.09 222.309 610.401 220.347 611.785 218.496C614.509 214.854 617.708 211.552 620.669 208.073C621.113 207.547 621.55 207.021 621.979 206.481C623.485 204.648 624.849 202.703 626.059 200.662C628.516 196.435 630.197 191.571 633.891 188.365C635.905 186.625 638.429 185.47 640.221 183.494C639.007 181.71 638.555 179.548 638.126 177.431C637.671 175.387 637.32 173.321 637.075 171.241C637.008 170.694 636.971 170.138 636.949 169.583C636.949 169.346 636.949 169.109 636.912 168.843C636.912 167.147 638.007 164.231 636.275 163.276C634.676 162.395 632.063 162.387 630.197 162.409H629.893C625.537 162.453 621.288 163.77 617.671 166.2C616.849 166.705 616.131 167.36 615.553 168.132C614.583 169.613 614.532 171.389 614.606 173.159C614.606 173.566 614.643 173.966 614.672 174.358C614.672 174.551 614.672 174.751 614.672 174.95C614.739 176.92 614.546 179.03 613.192 180.392C611.711 181.873 609.357 181.939 607.35 182.568C607.017 182.672 606.699 182.791 606.388 182.916C604.178 183.914 602.293 185.512 600.947 187.529C599.436 189.842 598.367 192.414 597.793 195.117C597.228 197.549 596.876 200.027 596.742 202.52C596.357 208.243 596.949 214.077 597.549 219.814Z" fill="#FBBEBE"/>
<path opacity="0.1" d="M614.636 174.358C614.636 174.551 614.636 174.751 614.636 174.95C617.094 175.846 623.075 173.329 625.844 173.329C631.337 173.329 633.033 174.417 637.008 171.212C636.919 170.427 636.868 169.635 636.845 168.843C636.845 167.147 637.941 164.231 636.209 163.276C634.476 162.321 631.7 162.387 629.827 162.409C625.47 162.453 621.221 163.77 617.604 166.2C616.783 166.705 616.065 167.36 615.487 168.132C614.325 169.909 614.51 172.241 614.636 174.358Z" fill="black"/>
<path d="M599.422 151.46C599.421 154.496 600.018 157.503 601.18 160.308C602.342 163.113 604.045 165.662 606.192 167.808C608.339 169.955 610.888 171.657 613.694 172.818C616.499 173.978 619.506 174.575 622.542 174.573C628.671 174.569 634.548 172.133 638.881 167.799C643.215 163.465 645.651 157.589 645.655 151.46C645.547 145.401 643.064 139.626 638.74 135.379C634.417 131.133 628.599 128.753 622.539 128.753C616.478 128.753 610.66 131.133 606.337 135.379C602.013 139.626 599.53 145.401 599.422 151.46V151.46Z" fill="#FBBEBE"/>
<path d="M638.311 178.778C639.039 178.169 639.93 177.788 640.873 177.682C642.235 177.682 643.353 178.8 643.915 180.036C644.478 181.273 644.656 182.65 645.137 183.923C645.796 185.644 646.996 187.104 648.557 188.084C649.646 188.765 650.941 189.239 651.689 190.305C652.866 191.971 652.148 194.295 651.156 196.079C647.454 202.742 640.791 207.081 634.343 211.167L627.088 215.772C624.179 217.697 621.169 219.464 618.071 221.065C613.036 223.545 607.595 225.137 602.59 227.669C600.288 228.831 598.03 230.216 595.483 230.63C594.947 228.918 594.609 227.149 594.477 225.359C593.24 214.321 592.019 203.046 594.477 192.215C594.936 190.149 595.58 188.039 597.031 186.507C597.981 185.603 599.068 184.853 600.251 184.286C603.187 182.708 606.207 181.292 609.298 180.044C610.745 179.341 612.338 178.989 613.947 179.015C613.812 180.223 613.453 181.396 612.888 182.472L601.228 208.428C600.488 210.057 599.748 211.759 599.807 213.551C599.896 216.098 601.613 218.578 600.91 221.028C607.679 211.149 615.449 201.994 624.097 193.71C624.479 193.394 624.794 193.003 625.022 192.563C625.234 191.87 625.28 191.137 625.156 190.423C625.074 189.061 625.355 187.24 626.496 186.329C627.288 185.693 628.457 185.507 629.331 184.952C632.396 183.02 635.328 180.836 638.311 178.778Z" fill="#6C63FF"/>
<path opacity="0.1" d="M576.517 317.389C582.269 320.454 588.754 321.949 595.247 322.571C601.739 323.193 608.269 322.934 614.784 322.682C619.729 322.505 624.667 322.305 629.59 322.127C636.313 321.861 642.916 321.32 649.342 319.292C648.787 317.952 648.15 316.634 647.492 315.346C628.999 310.989 609.969 309.36 591.005 310.511C587.988 310.574 584.995 311.072 582.121 311.992C580.15 312.683 578.373 313.836 576.939 315.353C576.835 316.042 576.672 316.723 576.517 317.389Z" fill="black"/>
<path d="M577.561 245.141C580.122 253.795 578.368 263.264 576.769 272.14C575.814 272.622 575.518 273.902 575.725 274.954C576.044 275.976 576.456 276.967 576.954 277.915C577.202 278.392 577.338 278.92 577.351 279.457C577.363 279.995 577.253 280.528 577.028 281.017C576.798 281.424 576.436 281.757 576.199 282.127C575.886 282.77 575.729 283.478 575.74 284.193C575.525 287.546 575.325 290.959 576.228 294.187C576.754 296.068 577.65 298.022 577.057 299.873C576.709 300.991 575.843 301.938 575.717 303.108C575.592 304.278 576.324 305.492 576.754 306.669C577.768 309.438 577.22 312.769 576.517 315.634C582.269 318.699 588.755 320.195 595.247 320.817C601.74 321.439 608.27 321.179 614.784 320.935L629.591 320.372C636.365 320.106 643.028 319.558 649.491 317.493C650.113 313.051 650.638 308.128 648.143 304.404C647.656 303.809 647.264 303.142 646.981 302.427C646.537 300.902 647.499 299.355 647.81 297.793C648.44 294.602 646.33 291.603 644.464 288.909C644.189 288.548 643.974 288.146 643.827 287.717C643.487 286.488 644.227 285.133 644.242 283.897C644.248 283.537 644.167 283.181 644.005 282.86C643.731 282.342 643.22 281.987 642.939 281.468C642.651 280.797 642.563 280.056 642.687 279.336C643.028 274.712 643.585 270.109 644.36 265.529C644.434 265.115 644.508 264.693 644.605 264.278C644.745 263.644 644.974 263.034 645.286 262.464C645.715 261.724 646.344 261.124 646.766 260.377C646.974 259.959 647.083 259.499 647.083 259.033C647.083 258.567 646.974 258.107 646.766 257.689C646.344 256.912 647.507 256.246 647.84 255.468C647.998 254.847 648.033 254.2 647.943 253.566C648.073 252.491 648.484 251.469 649.135 250.604C649.942 249.324 650.757 248.058 651.586 246.792C655.273 241.081 659.105 235.472 663.083 229.964C665.023 227.314 666.98 224.688 668.954 222.087C670.546 219.992 672.182 217.86 672.981 215.35C673.122 214.914 673.233 214.469 673.314 214.017C673.756 211.608 673.408 209.121 672.322 206.925C671.375 205.03 669.931 203.453 668.665 201.743C667.259 199.848 666.052 197.775 664.438 196.057C662.824 194.34 660.647 192.963 658.286 192.963C656.916 192.963 655.325 193.348 654.37 192.37C654.022 192.015 653.836 191.541 653.481 191.208C652.474 190.253 650.831 190.904 649.624 191.586L626.474 204.667L622.721 206.799C622.04 207.206 621.344 207.606 620.663 208.021C617.427 209.899 614.328 212.002 611.386 214.314C607.092 217.749 602.347 220.917 598.608 224.945C598.26 225.315 597.912 225.685 597.579 226.092C596.903 221.384 596.229 216.668 595.558 211.945C595.31 210.587 595.221 209.206 595.292 207.828C595.471 206.472 595.804 205.141 596.284 203.86C596.432 203.409 596.595 202.942 596.743 202.483L599.238 194.998C600.459 191.334 601.762 187.521 604.523 184.819C605.192 184.248 605.807 183.616 606.359 182.931V182.894C606.619 182.551 606.794 182.152 606.873 181.73C606.951 181.307 606.93 180.872 606.811 180.458L587.311 186.544C586.393 186.833 585.467 187.121 584.586 187.499C583.523 187.963 582.527 188.568 581.625 189.298C580.156 190.465 579.015 191.994 578.313 193.734C577.611 195.474 577.373 197.366 577.62 199.226C577.813 200.44 578.242 201.61 578.494 202.809C578.938 204.985 579.641 207.503 578.694 209.516C577.746 211.53 576.895 213.329 576.006 215.232C575.271 216.682 574.662 218.193 574.185 219.748C573.657 221.872 573.445 224.062 573.556 226.248C573.67 231.128 574.513 235.964 576.058 240.595C576.524 242.12 577.102 243.616 577.561 245.141Z" fill="#454B69"/>
<path d="M617.36 256.105L571.119 251.752L563.042 250.841L570.468 253.469L617.36 256.105Z" fill="#3F3D56"/>
<path d="M618.396 258.341V254.861L569.379 252.44L566.996 254.491L618.396 258.341Z" fill="#3F3D56"/>
<path d="M618.241 251.707C617.212 251.433 616.109 251.485 615.065 251.241C613.718 250.915 612.504 250.086 611.127 249.916C610.276 249.855 609.42 249.918 608.587 250.101L602.243 251.211C601.754 251.293 601.177 251.448 601.006 251.915C600.961 252.127 600.974 252.347 601.043 252.553C601.112 252.759 601.235 252.942 601.399 253.084C602.531 254.291 604.36 254.461 606.003 254.565L610.445 254.832C611.306 254.81 612.158 255.004 612.926 255.394C613.31 255.601 613.606 255.94 613.76 256.348C613.913 256.756 613.914 257.206 613.762 257.615C613.522 258.013 613.169 258.33 612.748 258.526C610.983 259.496 608.956 259.88 606.959 259.621C605.349 259.314 603.771 258.864 602.243 258.274C598.347 257.028 594.238 256.595 590.168 257.001C589.117 257.104 587.88 257.408 587.503 258.4C587.403 258.749 587.389 259.116 587.464 259.471C587.539 259.826 587.7 260.157 587.932 260.436C589.509 262.657 592.655 262.716 595.335 263.308C597.847 263.883 600.17 265.089 602.087 266.81C601.502 268.017 601.991 269.446 602.576 270.652C603.246 272.033 604.041 273.349 604.952 274.583C605.442 275.35 606.13 275.969 606.944 276.375C607.481 276.564 608.047 276.662 608.617 276.664C614.109 277.003 619.622 276.702 625.045 275.768C625.628 275.728 626.183 275.496 626.622 275.109C626.901 274.731 627.077 274.287 627.132 273.821C627.695 271.057 628.189 268.278 628.613 265.485C628.88 263.723 628.991 261.872 628.124 260.251C627.451 258.977 626.385 258.563 625.296 257.704C622.868 255.794 621.358 252.537 618.241 251.707Z" fill="#FBBEBE"/>
<path d="M558.519 194.214L570.001 251.159C570.087 251.587 570.071 252.029 569.955 252.45C569.839 252.87 569.625 253.257 569.332 253.581C569.039 253.904 568.675 254.154 568.268 254.311C567.861 254.467 567.422 254.527 566.988 254.483L523.709 250.212C523.115 250.155 522.555 249.908 522.112 249.508C521.67 249.108 521.368 248.576 521.251 247.991L510.642 195.309C510.561 194.905 510.571 194.487 510.671 194.087C510.77 193.687 510.958 193.313 511.219 192.994C511.48 192.675 511.809 192.417 512.181 192.24C512.554 192.063 512.961 191.971 513.374 191.97H555.787C556.431 191.973 557.054 192.197 557.552 192.606C558.05 193.015 558.391 193.583 558.519 194.214V194.214Z" fill="#3F3D56"/>
<path d="M536.983 261.968C534.259 260.221 533.444 256.719 532.178 253.743C531.172 251.552 530.012 249.434 528.706 247.406C527.603 245.585 526.485 243.371 527.374 241.432C528.066 240.194 529.205 239.268 530.557 238.84C531.782 238.262 533.16 238.093 534.488 238.359C535.969 238.766 537.072 239.995 538.079 241.165L541.647 245.304C543.276 247.199 544.949 249.124 547.096 250.404C548.398 251.132 549.776 251.715 551.205 252.144C553.766 252.993 556.357 253.733 558.978 254.365C560.484 254.654 561.954 255.109 563.361 255.72C563.645 255.823 563.905 255.983 564.126 256.189C564.348 256.395 564.525 256.643 564.649 256.919C564.709 257.26 564.7 257.609 564.623 257.946C564.545 258.283 564.4 258.601 564.197 258.881C563.294 260.569 562.265 263.997 560.37 264.596C558.59 265.041 556.774 265.326 554.943 265.448C553.137 265.64 551.715 264.9 550.087 264.219C548.041 263.437 545.856 263.087 543.668 263.19C541.743 263.182 538.471 263.456 536.983 261.968Z" fill="#FBBEBE"/>
<path d="M560.681 254.247C560.681 254.247 559.082 265.203 548.836 264.026C548.836 264.026 554.263 266.196 553.692 267.402C553.122 268.609 566.278 265.048 566.278 265.048L566.959 259.333C566.959 259.333 567.396 256.186 566.959 256.097C566.522 256.009 560.681 254.247 560.681 254.247Z" fill="#454B69"/>
<path opacity="0.1" d="M560.681 254.247C560.681 254.247 559.082 265.203 548.836 264.026C548.836 264.026 554.263 266.196 553.692 267.402C553.122 268.609 566.278 265.048 566.278 265.048L566.959 259.333C566.959 259.333 567.396 256.186 566.959 256.097C566.522 256.009 560.681 254.247 560.681 254.247Z" fill="black"/>
<path opacity="0.1" d="M607.847 208.517C606.842 209.026 606.016 209.829 605.478 210.819C604.623 212.182 603.974 213.664 603.553 215.217C603.05 217.105 602.813 219.214 601.421 220.577" fill="black"/>
<path opacity="0.1" d="M650.764 238.818C650.015 241.481 650.325 244.33 651.63 246.769C655.317 241.059 659.149 235.45 663.127 229.942C665.037 227.306 666.979 224.688 668.953 222.087C670.545 219.992 672.181 217.86 672.981 215.35C673.121 214.914 673.233 214.468 673.314 214.017C672.326 212.571 670.857 211.522 669.168 211.056C666.481 218.844 659.67 224.426 654.806 231.082C652.972 233.376 651.599 236.003 650.764 238.818V238.818Z" fill="black"/>
<path opacity="0.1" d="M616.487 278.663L632.589 279.21C633.966 279.255 635.661 279.529 636.091 280.832C636.224 281.246 636.194 281.698 636.328 282.105C636.779 283.586 638.741 283.749 640.273 283.741C641.606 283.741 642.939 283.793 644.264 283.897C644.27 283.537 644.189 283.181 644.027 282.86C643.753 282.342 643.242 281.987 642.961 281.468C642.673 280.797 642.585 280.056 642.709 279.336C643.05 274.712 643.607 270.109 644.382 265.529C644.456 265.115 644.53 264.693 644.627 264.278C643.272 263.59 641.902 262.938 640.429 263.094C639.104 263.234 637.89 264.019 636.564 263.945C634.262 263.834 632.678 261.265 630.383 261.117C629.882 261.156 629.379 261.096 628.902 260.939C628.162 260.569 628.058 259.607 627.688 258.889C627.133 257.83 625.578 257.571 624.416 257.845C624.445 260.279 624.289 262.712 623.949 265.122C623.834 266.181 623.586 267.221 623.209 268.217C622.772 269.225 622.223 270.181 621.573 271.067C619.87 273.621 618.212 276.116 616.487 278.663Z" fill="black"/>
<path d="M670.012 210.153C672.877 210.893 674.906 213.558 675.742 216.394C676.579 219.229 676.431 222.242 676.357 225.189C676.07 236.144 676.814 247.102 678.578 257.919C679.422 263.101 680.503 268.283 680.184 273.547C680.007 276.39 679.363 279.321 677.534 281.505C674.662 284.955 669.657 285.659 665.171 285.488C657.116 285.17 649.209 282.816 641.147 282.86C639.615 282.86 637.66 282.69 637.201 281.231C637.068 280.817 637.097 280.373 636.964 279.958C636.542 278.655 634.847 278.381 633.47 278.329L617.36 277.789C619.085 275.242 620.744 272.74 622.469 270.193C623.117 269.305 623.668 268.349 624.112 267.343C624.485 266.343 624.734 265.302 624.852 264.241C625.194 261.833 625.347 259.403 625.311 256.971C626.474 256.697 628.028 256.971 628.584 258.015C628.961 258.755 629.08 259.695 629.805 260.066C630.282 260.224 630.786 260.282 631.286 260.236C633.581 260.384 635.173 262.96 637.468 263.071C638.793 263.145 640.014 262.331 641.332 262.22C643.42 262.005 645.285 263.382 647.203 264.226C648.771 264.911 650.463 265.264 652.174 265.264C653.885 265.264 655.577 264.911 657.145 264.226C657.619 264.019 658.137 263.434 657.752 263.086C657.493 262.857 657.064 263.034 656.753 262.879C656.161 262.59 656.59 261.717 656.923 261.146C657.856 259.503 657.197 257.445 656.294 255.757C655.391 254.069 654.236 252.433 654.214 250.575C654.266 249.971 654.266 249.364 654.214 248.761C653.925 247.897 653.467 247.099 652.866 246.414C651.215 244.001 650.979 240.81 651.697 237.967C652.498 235.144 653.832 232.5 655.628 230.179C660.514 223.531 667.325 217.949 670.012 210.153Z" fill="#454B69"/>
<path opacity="0.1" d="M626.444 204.689L622.69 206.821C623.842 207.353 625.02 207.823 626.222 208.228C634.676 211.071 631.663 215.009 640.584 214.891C646.662 214.824 653.599 214.358 657.848 218.696C659.862 220.74 660.869 223.538 661.824 226.24C662.261 227.462 662.698 228.698 663.127 229.942C665.037 227.306 666.979 224.688 668.953 222.087C670.545 219.992 672.181 217.86 672.981 215.35C673.85 212.561 673.614 209.545 672.322 206.925C671.374 205.03 669.931 203.453 668.665 201.743C667.258 199.848 666.051 197.775 664.437 196.057C662.823 194.34 660.647 192.963 658.285 192.963C656.916 192.963 655.324 193.348 654.369 192.37C654.021 192.015 653.836 191.541 653.481 191.208C652.474 190.253 650.83 190.904 649.623 191.586L626.444 204.689Z" fill="black"/>
<path d="M604.064 134.41C604.185 133.308 604.457 132.227 604.871 131.197C605.257 130.406 605.756 129.676 606.351 129.028C608.301 126.826 610.694 125.059 613.373 123.843C616.052 122.627 618.957 121.99 621.898 121.973C622.403 121.946 622.908 122.027 623.379 122.21C623.497 122.265 623.608 122.332 623.712 122.41C627.947 119.559 632.87 116.746 637.46 115.636C640.65 114.891 643.975 114.937 647.143 115.769C650.993 116.924 652.326 119.996 653.977 123.35C656.617 128.741 660.624 133.346 665.6 136.705C668.805 138.86 672.596 140.725 674.136 144.264C675.572 147.566 674.595 151.349 674.261 154.939C673.86 159.786 674.664 164.656 676.602 169.116C678.54 173.577 681.55 177.488 685.366 180.503C689.742 183.886 695.583 186.729 696.516 192.178C697.182 196.065 694.998 199.781 693.347 203.357C689.867 210.923 688.676 220.147 692.762 227.395C693.924 229.461 695.494 231.341 696.116 233.621C697.204 237.671 694.887 242.083 691.415 244.437C687.943 246.792 683.582 247.399 679.392 247.399C676.342 247.399 673.04 246.94 670.878 244.8C669.397 243.364 668.702 241.365 668.02 239.448C666.249 234.453 664.482 229.458 662.72 224.463C661.757 221.769 660.751 218.97 658.744 216.927C654.495 212.589 647.551 213.048 641.48 213.122C632.552 213.233 635.557 209.294 627.118 206.459C622.15 204.786 616.753 201.935 615.598 196.834C614.465 191.845 617.878 187.092 620.884 182.953C623.135 179.869 625.264 176.698 627.273 173.44C629.22 170.272 631.093 166.94 631.634 163.261C632.529 157.146 617.701 153.733 615.48 147.966C614.844 146.337 614.31 144.671 613.881 142.976C612.814 142.902 611.822 142.798 611.134 142.769C608.299 142.643 605.1 141.532 604.13 138.86C603.605 137.446 603.805 135.891 604.064 134.41Z" fill="#3F3D56"/>
<g opacity="0.1">
<path opacity="0.1" d="M629.027 120.181C628.556 119.998 628.051 119.917 627.547 119.944H627.339C630.49 117.963 633.911 116.449 637.497 115.451C637.771 115.384 638.067 115.332 638.355 115.28C635.213 116.727 632.203 118.446 629.36 120.418C629.256 120.33 629.145 120.251 629.027 120.181V120.181Z" fill="black"/>
<path opacity="0.1" d="M604.064 134.233C604.186 133.132 604.457 132.054 604.871 131.027C605.256 130.234 605.755 129.501 606.351 128.85C609.492 125.308 613.741 122.933 618.404 122.113C615.961 123.299 613.779 124.961 611.985 127C611.389 127.65 610.89 128.383 610.504 129.176C610.091 130.203 609.82 131.282 609.697 132.382C609.343 133.843 609.361 135.371 609.749 136.824C610.719 139.489 613.917 140.607 616.753 140.725C617.441 140.725 618.433 140.858 619.499 140.94C619.93 142.632 620.464 144.296 621.098 145.922C623.319 151.689 638.126 155.102 637.252 161.217C636.712 164.919 634.839 168.236 632.892 171.397C630.945 174.558 628.753 177.823 626.503 180.91C623.497 185.048 620.084 189.794 621.217 194.799C622.35 199.803 627.769 202.757 632.736 204.423C641.191 207.273 638.17 211.212 647.099 211.086C653.169 211.012 660.114 210.553 664.363 214.891C666.369 216.942 667.376 219.733 668.339 222.435C670.101 227.425 671.867 232.417 673.639 237.412C674.32 239.337 675.046 241.328 676.497 242.764C678.659 244.904 681.961 245.348 685.011 245.363C686.746 245.38 688.48 245.249 690.193 244.97C686.95 246.725 683.101 247.191 679.384 247.191C676.334 247.191 673.032 246.732 670.87 244.593C669.39 243.157 668.694 241.165 668.013 239.24C666.241 234.246 664.474 229.253 662.712 224.263C661.75 221.561 660.743 218.77 658.737 216.72C654.487 212.381 647.543 212.84 641.472 212.914C632.544 213.025 635.55 209.087 627.11 206.251C622.142 204.578 616.745 201.728 615.59 196.627C614.458 191.637 617.871 186.877 620.876 182.739C623.127 179.654 625.257 176.483 627.265 173.225C629.212 170.064 631.085 166.725 631.626 163.046C632.522 156.931 617.693 153.518 615.472 147.751C614.837 146.125 614.303 144.461 613.873 142.769C612.807 142.687 611.815 142.583 611.126 142.554C608.291 142.435 605.093 141.318 604.123 138.652C603.735 137.207 603.715 135.688 604.064 134.233V134.233Z" fill="black"/>
</g>
</g>
<defs>
<linearGradient id="paint0_linear" x1="315.389" y1="576.858" x2="315.389" y2="76.7019" gradientUnits="userSpaceOnUse">
<stop stop-color="#808080" stop-opacity="0.25"/>
<stop offset="0.54" stop-color="#808080" stop-opacity="0.12"/>
<stop offset="1" stop-color="#808080" stop-opacity="0.1"/>
</linearGradient>
<linearGradient id="paint1_linear" x1="-164039" y1="376627" x2="-164039" y2="86971.7" gradientUnits="userSpaceOnUse">
<stop stop-color="#808080" stop-opacity="0.25"/>
<stop offset="0.54" stop-color="#808080" stop-opacity="0.12"/>
<stop offset="1" stop-color="#808080" stop-opacity="0.1"/>
</linearGradient>
<clipPath id="clip0">
<rect width="797" height="589" fill="white"/>
</clipPath>
</defs>
</svg>
