<svg width="364" height="143" viewBox="0 0 364 143" fill="none" xmlns="http://www.w3.org/2000/svg">
<g filter="url(#filter0_b)">
<rect x="52.0525" y="17.8506" width="310" height="76.3361" rx="20" fill="url(#paint0_linear)" fill-opacity="0.45"/>
<rect x="51.5525" y="17.3506" width="311" height="77.3361" rx="20.5" stroke="url(#paint1_linear)"/>
</g>
<path d="M140.746 53.2979C141.026 53.6619 141.264 54.0259 141.46 54.3899H145.45V59.0939H142.72C142.692 61.1099 142.146 62.8459 141.082 64.3019C140.046 65.7579 138.576 66.8779 136.672 67.6619L143.35 78.0359H132.766L126.97 68.9639H119.368V61.4879H127.852C129.084 61.4879 130.078 61.2779 130.834 60.8579C131.618 60.4099 132.15 59.8219 132.43 59.0939H119.368V54.3899H131.464C130.652 53.6619 129.448 53.2979 127.852 53.2979H119.368V48.5939H145.45V53.2979H140.746ZM184.86 70.3499V78.0359H161.298V71.9459L171.924 62.1179C172.848 61.2499 173.464 60.5079 173.772 59.8919C174.08 59.2759 174.234 58.6739 174.234 58.0859C174.234 57.3579 173.982 56.7979 173.478 56.4059C173.002 55.9859 172.302 55.7759 171.378 55.7759C170.482 55.7759 169.642 56.0139 168.858 56.4899C168.074 56.9659 167.472 57.6379 167.052 58.5059L159.576 54.7679C160.696 52.6679 162.334 51.0159 164.49 49.8119C166.646 48.5799 169.25 47.9639 172.302 47.9639C174.626 47.9639 176.684 48.3419 178.476 49.0979C180.268 49.8539 181.668 50.9319 182.676 52.3319C183.684 53.7319 184.188 55.3419 184.188 57.1619C184.188 58.7859 183.838 60.3119 183.138 61.7399C182.466 63.1399 181.136 64.7359 179.148 66.5279L174.948 70.3499H184.86ZM198.905 59.0099C203.021 59.0099 206.045 59.8779 207.977 61.6139C209.937 63.3219 210.917 65.5759 210.917 68.3759C210.917 70.2239 210.427 71.9319 209.447 73.4999C208.495 75.0399 207.011 76.2999 204.995 77.2799C202.979 78.2319 200.473 78.7079 197.477 78.7079C195.405 78.7079 193.333 78.4839 191.261 78.0359C189.217 77.5879 187.425 76.9299 185.885 76.0619L189.245 68.7539C190.477 69.4539 191.765 69.9859 193.109 70.3499C194.481 70.7139 195.811 70.8959 197.099 70.8959C198.247 70.8959 199.171 70.6999 199.871 70.3079C200.599 69.8879 200.963 69.3139 200.963 68.5859C200.963 67.8859 200.641 67.3679 199.997 67.0319C199.353 66.6679 198.191 66.4859 196.511 66.4859H187.985L189.455 48.6359H208.985V56.1119H197.603L197.393 59.0099H198.905ZM218.063 67.6199C219.687 67.6199 221.017 68.1099 222.053 69.0899C223.089 70.0699 223.607 71.3719 223.607 72.9959C223.607 73.7239 223.509 74.4519 223.313 75.1799C223.117 75.9079 222.669 77.0139 221.969 78.4979L219.029 84.7559H213.149L215.249 77.6579C214.381 77.2379 213.709 76.6359 213.233 75.8519C212.757 75.0399 212.519 74.0879 212.519 72.9959C212.519 71.3719 213.037 70.0699 214.073 69.0899C215.109 68.1099 216.439 67.6199 218.063 67.6199ZM238.352 78.7079C235.748 78.7079 233.438 78.1059 231.422 76.9019C229.434 75.6699 227.866 73.9059 226.718 71.6099C225.598 69.2859 225.038 66.5279 225.038 63.3359C225.038 60.1439 225.598 57.3999 226.718 55.1039C227.866 52.7799 229.434 51.0159 231.422 49.8119C233.438 48.5799 235.748 47.9639 238.352 47.9639C240.956 47.9639 243.252 48.5799 245.24 49.8119C247.256 51.0159 248.824 52.7799 249.944 55.1039C251.092 57.3999 251.666 60.1439 251.666 63.3359C251.666 66.5279 251.092 69.2859 249.944 71.6099C248.824 73.9059 247.256 75.6699 245.24 76.9019C243.252 78.1059 240.956 78.7079 238.352 78.7079ZM238.352 70.7699C240.592 70.7699 241.712 68.2919 241.712 63.3359C241.712 58.3799 240.592 55.9019 238.352 55.9019C236.112 55.9019 234.992 58.3799 234.992 63.3359C234.992 68.2919 236.112 70.7699 238.352 70.7699ZM267.432 78.7079C264.828 78.7079 262.518 78.1059 260.502 76.9019C258.514 75.6699 256.946 73.9059 255.798 71.6099C254.678 69.2859 254.118 66.5279 254.118 63.3359C254.118 60.1439 254.678 57.3999 255.798 55.1039C256.946 52.7799 258.514 51.0159 260.502 49.8119C262.518 48.5799 264.828 47.9639 267.432 47.9639C270.036 47.9639 272.332 48.5799 274.32 49.8119C276.336 51.0159 277.904 52.7799 279.024 55.1039C280.172 57.3999 280.746 60.1439 280.746 63.3359C280.746 66.5279 280.172 69.2859 279.024 71.6099C277.904 73.9059 276.336 75.6699 274.32 76.9019C272.332 78.1059 270.036 78.7079 267.432 78.7079ZM267.432 70.7699C269.672 70.7699 270.792 68.2919 270.792 63.3359C270.792 58.3799 269.672 55.9019 267.432 55.9019C265.192 55.9019 264.072 58.3799 264.072 63.3359C264.072 68.2919 265.192 70.7699 267.432 70.7699ZM296.512 78.7079C293.908 78.7079 291.598 78.1059 289.582 76.9019C287.594 75.6699 286.026 73.9059 284.878 71.6099C283.758 69.2859 283.198 66.5279 283.198 63.3359C283.198 60.1439 283.758 57.3999 284.878 55.1039C286.026 52.7799 287.594 51.0159 289.582 49.8119C291.598 48.5799 293.908 47.9639 296.512 47.9639C299.116 47.9639 301.412 48.5799 303.4 49.8119C305.416 51.0159 306.984 52.7799 308.104 55.1039C309.252 57.3999 309.826 60.1439 309.826 63.3359C309.826 66.5279 309.252 69.2859 308.104 71.6099C306.984 73.9059 305.416 75.6699 303.4 76.9019C301.412 78.1059 299.116 78.7079 296.512 78.7079ZM296.512 70.7699C298.752 70.7699 299.872 68.2919 299.872 63.3359C299.872 58.3799 298.752 55.9019 296.512 55.9019C294.272 55.9019 293.152 58.3799 293.152 63.3359C293.152 68.2919 294.272 70.7699 296.512 70.7699ZM334.79 66.9059H327.86V73.6259H320.3V66.9059H313.37V59.7659H320.3V53.0459H327.86V59.7659H334.79V66.9059Z" fill="#AEC3FF"/>
<g filter="url(#filter1_b)">
<path d="M54.7228 130.881C54.0443 135.012 48.5972 136.079 46.411 132.508C44.9708 130.156 41.7777 129.632 39.6611 131.4C36.4473 134.084 31.6264 131.332 32.3049 127.2L43.2521 60.5374C43.6996 57.8123 46.2717 55.966 48.9967 56.4138L61.547 58.4759C64.2718 58.9236 66.1178 61.4952 65.6703 64.22L54.7228 130.881Z" fill="url(#paint2_linear)"/>
<path d="M45.9845 132.769C48.4128 136.735 54.4626 135.551 55.2162 130.962L66.1637 64.301C66.6559 61.3038 64.6253 58.475 61.6281 57.9825L49.0778 55.9204C46.0802 55.4279 43.251 57.4587 42.7587 60.4563L31.8116 127.119C31.0579 131.708 36.4123 134.765 39.9816 131.784C41.8641 130.211 44.7038 130.677 45.9845 132.769Z" stroke="url(#paint3_linear)"/>
</g>
<g style="mix-blend-mode:multiply">
<path d="M36.4978 101.674C42.6463 104.315 49.2688 105.672 55.9601 105.664C56.9379 105.664 57.9107 105.637 58.8785 105.582L66.4806 59.3052L44.0625 55.6143L36.4978 101.674Z" fill="#B61A2B"/>
</g>
<g filter="url(#filter2_b)">
<path d="M63.4892 130.607C64.6143 134.641 70.1458 135.107 71.9306 131.319C73.1061 128.824 76.2226 127.955 78.5197 129.481C82.0076 131.798 86.4989 128.536 85.3738 124.503L67.2232 59.4304C66.4812 56.7704 63.7233 55.2156 61.0634 55.9577L48.8112 59.376C46.1514 60.118 44.5968 62.8756 45.3387 65.5354L63.4892 130.607Z" fill="url(#paint4_linear)"/>
<path d="M63.0076 130.742C64.2572 135.221 70.4007 135.739 72.383 131.532C73.4284 129.314 76.2001 128.54 78.2431 129.898C82.1168 132.471 87.105 128.848 85.8555 124.368L67.7048 59.2961C66.8887 56.3701 63.855 54.6598 60.929 55.4761L48.6768 58.8944C45.7511 59.7106 44.041 62.744 44.857 65.6698L63.0076 130.742Z" stroke="url(#paint5_linear)"/>
</g>
<g style="mix-blend-mode:multiply" opacity="0.48">
<path d="M56.5311 105.664C64.2119 105.583 71.7671 103.705 78.5909 100.178L65.8797 54.614L43.9954 60.7195L56.5311 105.664Z" fill="#B61A2B"/>
</g>
<g filter="url(#filter3_b)">
<path d="M99.7497 66.5274C105.458 42.343 90.4797 18.1104 66.2953 12.4024C42.1109 6.69436 17.8783 21.6724 12.1703 45.8568C6.46224 70.0412 21.4403 94.2738 45.6247 99.9818C69.809 105.69 94.0416 90.7118 99.7497 66.5274Z" fill="url(#paint6_linear)"/>
<path d="M100.236 66.6423C106.008 42.1891 90.8633 17.6872 66.4101 11.9158C41.957 6.1443 17.4551 21.2888 11.6836 45.7419C5.91217 70.1951 21.0567 94.697 45.5098 100.468C69.9629 106.24 94.4648 91.0954 100.236 66.6423Z" stroke="url(#paint7_linear)"/>
</g>
<g filter="url(#filter4_b)">
<path d="M56.6826 96.8594C79.1391 96.4595 97.0196 77.9309 96.6197 55.4744C96.2199 33.0179 77.6912 15.1375 55.2348 15.5373C32.7783 15.9371 14.8978 34.4658 15.2977 56.9223C15.6975 79.3787 34.2262 97.2592 56.6826 96.8594Z" fill="url(#paint8_linear)"/>
<path d="M56.6915 97.3593C79.4241 96.9545 97.5244 78.1981 97.1197 55.4655C96.7149 32.7329 77.9584 14.6326 55.2259 15.0374C32.4933 15.4421 14.393 34.1986 14.7977 56.9312C15.2025 79.6637 33.959 97.764 56.6915 97.3593Z" stroke="url(#paint9_linear)"/>
</g>
<g filter="url(#filter5_b)">
<path d="M89.1036 57.0548C88.7529 56.8503 88.3971 56.3038 88.3946 55.8978C88.3928 55.6008 88.3863 55.2069 88.3693 54.6654C88.3541 54.18 90.1634 54.5872 90.5765 54.8426C91.0088 55.1099 92.2368 52.6562 91.9536 52.2341C91.241 51.1722 90.0696 50.1755 88.1384 49.7468C87.9289 49.7003 87.7599 49.5376 87.7165 49.3275C87.705 49.2716 87.6933 49.2157 87.6814 49.1598C87.5676 48.6226 89.5682 48.3498 90.0961 48.501C90.6253 48.6527 91.1425 46.6225 90.8266 46.1717C90.0147 45.0128 88.6152 43.86 86.2024 43.6379C86.0618 43.625 85.9354 43.5365 85.8811 43.4061C85.7108 42.9972 86.8733 41.9468 87.3021 42.0576C87.8917 42.21 88.4408 42.2635 88.8816 42.2753C89.3163 42.2868 89.6928 41.6807 89.4878 41.2973C89.084 40.5425 88.3724 39.497 87.2753 38.8053C86.0257 38.0175 84.5686 37.9063 83.7214 37.9266C83.3681 37.9351 82.8102 37.6853 82.6096 37.3944C82.5718 37.3396 82.5339 37.285 82.4959 37.2305C82.1792 36.7769 83.9785 35.6702 84.5275 35.6027C85.0652 35.5366 84.7448 33.6357 84.3041 33.3207C83.1327 32.4834 81.3802 31.8253 78.9991 32.4923C78.7548 32.5607 78.4889 32.5012 78.3064 32.3251C77.8755 31.9095 77.4335 31.5058 76.9809 31.1144C76.6582 30.8353 77.9361 29.8595 78.3499 29.7554C78.787 29.6454 78.1044 27.1943 77.6672 27.0846C76.4239 26.7725 74.8571 26.8057 73.0941 27.8053C72.8842 27.9243 72.6243 27.9277 72.4177 27.8032C72.2747 27.717 72.1312 27.6319 71.9869 27.548C71.488 27.2575 72.5358 25.6949 73.0268 25.3912C73.5193 25.0866 72.5051 23.4577 71.936 23.3505C70.5476 23.0889 68.714 23.2332 66.823 24.8169C66.6732 24.9423 66.4667 24.9852 66.2823 24.9209C65.6915 24.7149 65.5262 22.4766 65.9714 22.037C66.0256 21.9836 66.0778 21.9303 66.128 21.8775C66.4954 21.4908 66.044 20.2867 65.5124 20.2425C63.9289 20.1111 61.5025 20.4395 59.7438 23.12C59.652 23.26 59.4885 23.3416 59.3221 23.3226C59.2803 23.3178 59.2385 23.3131 59.1966 23.3085C58.7168 23.2554 59.1378 21.0937 59.4072 20.6931C59.6706 20.3015 57.912 19.1987 57.4526 19.307C56.0157 19.6456 54.3443 20.557 53.3174 22.8486C53.2273 23.0497 53.0343 23.1921 52.8147 23.2093C52.2408 23.2544 51.8015 22.3837 52.0845 21.8824C52.1171 21.8247 52.1486 21.7669 52.1788 21.7094C52.4813 21.1344 51.1601 19.7101 50.5668 19.9748C49.3664 20.5104 48.0196 21.5651 47.3189 23.6806C47.221 23.9763 46.9886 24.2126 46.6886 24.2963C46.386 24.3808 46.0846 24.4697 45.7847 24.5631C45.166 24.7557 44.6349 22.9953 44.7217 22.3532C44.809 21.7078 43.0711 21.4768 42.5581 21.878C41.5136 22.6946 40.4608 24.0569 40.3083 26.3138C40.2867 26.6339 40.11 26.9279 39.8269 27.079C39.5713 27.2153 39.3176 27.3551 39.0659 27.4982C38.5049 27.8171 37.6356 26.2419 37.5779 25.5992C37.5185 24.938 35.6494 25.0949 35.2547 25.6287C34.4779 26.6793 33.8504 28.2301 34.2398 30.3853C34.286 30.6407 34.2015 30.9043 34.0049 31.0737C33.5015 31.5077 32.5427 31.0558 32.4199 30.4026C32.3925 30.2574 32.3614 30.1169 32.3278 29.982C32.1546 29.2874 30.8648 29.0499 30.4598 29.6402C29.6917 30.7596 28.9685 32.54 29.6873 34.9048C29.7731 35.1873 29.7252 35.4972 29.5428 35.7294C29.3229 36.0092 29.1076 36.293 28.8969 36.5803C28.6004 36.9845 27.638 36.1307 27.4398 35.6702C27.216 35.1505 25.2597 35.8189 25.1177 36.3667C24.8069 37.566 24.7933 39.1181 25.76 40.8495C25.9113 41.1204 25.9323 41.4494 25.7973 41.7289C25.6781 41.976 25.5619 42.2245 25.4488 42.4744C25.1668 43.0977 23.4329 42.3284 22.9735 41.8215C22.5237 41.3251 21.3467 42.4296 21.2852 43.0966C21.1608 44.4454 21.4358 46.2173 23.0959 47.9099C23.3081 48.1262 23.4056 48.4341 23.3386 48.7297C23.2718 49.025 23.209 49.3212 23.1503 49.6182C23.0284 50.2348 21.2558 49.8365 20.7515 49.4614C20.2355 49.0777 19.0942 50.5971 19.2269 51.2262C19.5006 52.5246 20.2632 54.0482 22.2005 55.1941C22.4082 55.3169 22.5438 55.5265 22.5442 55.7679C22.5451 56.4189 20.8532 56.4245 20.2647 56.1459C19.6688 55.8638 18.9683 57.285 19.1691 57.913C19.5886 59.2246 20.5532 60.785 22.7918 61.6864C22.9455 61.7483 23.062 61.8845 23.093 62.0473C23.1892 62.5544 22.2298 63.1024 21.7761 62.8562C21.7033 62.8167 21.6305 62.7791 21.5581 62.7433C21.0546 62.4946 19.5855 64.01 19.8527 64.504C20.5444 65.7828 21.8534 67.1632 24.348 67.5844C24.5378 67.6165 24.7023 67.7436 24.7723 67.923C24.8315 68.0747 24.8919 68.226 24.9533 68.3767C25.1474 68.8527 23.1784 69.4336 22.6671 69.3813C22.1572 69.3291 21.99 71.4848 22.3481 71.8515C23.3348 72.8616 24.8911 73.7663 27.2762 73.5939C27.49 73.5784 27.7007 73.6748 27.8192 73.8534C28.1872 74.408 26.9271 76.2235 26.2668 76.3064C25.1885 76.4418 24.4464 76.8211 24.3391 76.8156C24.372 76.8156 26.9503 80.9887 31.7649 79.2466C31.9436 79.1819 32.1474 79.2212 32.2825 79.3548C32.3046 79.3766 32.3267 79.3984 32.3488 79.4202C32.7248 79.7902 31.1048 81.219 30.605 81.3879C30.115 81.5535 30.8183 83.4776 31.291 83.6877C32.5259 84.2364 34.2201 84.5141 36.2418 83.6045C36.6981 83.3992 37.2333 83.411 37.654 83.6819C38.3423 84.1251 39.0486 84.5447 39.773 84.9407C39.7815 84.9453 39.7894 84.9508 39.7968 84.9571C39.9172 85.0596 39.7974 85.3272 39.6404 85.308C37.9585 85.1029 36.6618 85.6636 35.8025 86.2232C35.262 86.5752 35.3667 87.6356 35.969 87.8666C36.7209 88.155 37.7139 88.4014 38.7707 88.2952C39.22 88.2355 39.6591 88.1299 40.0817 87.9817C41.8394 87.3653 43.7854 86.8312 45.5615 87.3925C45.7235 87.4438 45.8859 87.4937 46.0487 87.5424C46.0631 87.5467 46.077 87.5527 46.09 87.5602C46.2782 87.6686 46.198 88.1142 45.9842 88.1522C44.4787 88.4196 43.4533 89.2149 42.8004 89.9129C42.3695 90.3736 42.7135 91.3653 43.3385 91.4509C44.1416 91.5608 45.1779 91.5761 46.1936 91.2286C46.503 91.1097 46.8013 90.9679 47.0861 90.805C48.8912 89.7729 50.877 88.6589 52.9501 88.8202C53.0728 88.8298 53.1955 88.8386 53.3182 88.8468C53.3255 88.8473 53.3327 88.8484 53.3398 88.85C53.4955 88.8848 53.5145 89.1821 53.3654 89.2388C52.7331 89.4795 52.2123 89.7996 51.7829 90.1543C51.3846 90.4833 52.9328 92.8377 53.3988 92.6146C54.5382 92.0689 55.6862 91.0728 56.4072 89.2723C56.4958 89.0511 56.7096 88.895 56.9477 88.8844C57.562 88.8572 57.5983 90.8205 57.3559 91.3857C57.1129 91.9523 58.9124 92.6993 59.4703 92.4367C60.6665 91.8736 61.962 90.7841 62.6257 88.6447C62.7277 88.316 62.9875 88.0541 63.3217 87.9723C64.0295 87.799 64.7311 87.6019 65.4252 87.3814C65.9752 87.2067 66.5139 89.2139 66.4209 89.7835C66.3294 90.3434 68.2333 90.5908 68.6804 90.2415C69.814 89.3559 70.9378 87.8549 70.9648 85.3477C70.9668 85.1638 71.0657 84.9905 71.2273 84.9028C71.74 84.6245 73.6497 86.0971 73.6952 86.6786C73.771 87.6491 74.0461 88.3259 74.0342 88.4258C74.0342 88.3932 78.3263 86.1899 77.0932 81.3467C77.0265 81.0846 77.1893 80.7286 77.3913 80.5487C77.9686 80.0344 79.6902 81.0308 79.8923 81.777C80.1969 82.9022 80.7385 83.6319 80.7518 83.7422C80.7518 83.6802 84.4098 80.5551 81.9722 76.0857C81.8667 75.8923 81.8773 75.6521 82.009 75.4754C82.0459 75.4259 82.0827 75.3762 82.1193 75.3264C82.451 74.876 83.9538 76.1615 84.197 76.6652C84.4418 77.1723 86.2966 76.2215 86.4261 75.6735C86.7452 74.3233 86.6852 72.5547 85.3262 70.6498C85.2032 70.4775 85.1773 70.25 85.2679 70.0587C85.5418 69.4807 87.9617 70.4351 88.4105 70.8909C88.8134 71.3 89.7725 70.1722 89.8546 69.604C90.0705 68.1101 89.8607 66.0248 87.8128 64.1558C87.6105 63.9712 87.5605 63.5039 87.6216 63.2369C87.8019 62.4483 89.8077 62.3419 90.4355 62.852C90.5591 62.9524 90.6815 63.044 90.8005 63.1274C91.323 63.4936 92.2621 63.0085 92.2569 62.3705C92.2503 61.5621 92.1169 60.5402 91.6305 59.5888C90.9791 58.3146 89.8425 57.4859 89.1036 57.0548ZM87.8723 56.6134C87.8686 56.8068 87.7523 56.9767 87.581 57.0664C84.818 58.5129 84.2531 60.7013 84.186 62.1523C84.16 62.7135 85.1009 63.2762 85.5745 62.9742C85.6524 62.9245 85.7293 62.8734 85.8052 62.8208C86.2954 62.481 87.1537 62.9155 87.0172 63.4962C86.9661 63.7137 86.7885 63.876 86.5709 63.9268C83.3328 64.6827 82.2487 66.9854 81.8705 68.3989C81.741 68.8829 82.3194 69.4517 82.8002 69.3109C83.0681 69.2325 83.3665 69.1298 83.677 68.9961C84.1487 68.7929 84.972 69.4272 84.7509 69.8907C84.6728 70.0543 84.5024 70.1528 84.3212 70.1531C81.3024 70.1592 79.7298 71.7722 78.9358 73.0727C78.679 73.4932 79.481 74.6902 79.9673 74.611C80.1631 74.5792 80.3681 74.5377 80.5784 74.4843C81.0074 74.3753 81.6487 75.0928 81.3837 75.4474C81.2981 75.562 81.1532 75.6172 81.0114 75.5982C77.854 75.1747 76.0799 76.7113 75.1788 77.8908C74.8532 78.3169 75.3134 79.3059 75.8493 79.3226C75.9548 79.3259 76.0604 79.3269 76.1658 79.3256C76.7155 79.3188 77.1311 80.1014 76.7168 80.4626C76.5674 80.5929 76.3539 80.6231 76.1688 80.5522C73.1834 79.4099 71.0945 80.5374 69.9706 81.4668C69.5677 81.7999 69.7561 82.7652 70.256 82.9185C70.3867 82.9585 70.5253 82.9973 70.6708 83.0331C71.2154 83.1672 71.499 84.1709 71.0068 84.4399C70.8267 84.5383 70.6039 84.5155 70.4379 84.3947C66.4438 81.4868 62.9375 84.4028 62.8718 84.4065C62.8813 84.4065 63.0446 84.5568 63.3322 84.7686C63.9706 85.2388 64.0136 87.2799 63.2437 87.4694C62.9753 87.5354 62.6965 87.4305 62.5168 87.2206C61.988 86.6029 60.8946 85.5258 59.4011 85.0969C58.0991 84.724 56.793 84.9287 55.9654 85.1482C55.572 85.2526 55.4 85.854 55.6749 86.1543C55.9494 86.454 56.3186 86.8092 56.7788 87.1399C57.1071 87.3757 56.9603 88.3769 56.5563 88.3901C56.4324 88.3941 56.3155 88.3272 56.2496 88.2222C54.4103 85.2905 51.76 85.0876 50.3097 85.2282C49.8245 85.2752 49.5309 85.9227 49.8111 86.3216C49.9269 86.4866 50.0495 86.6466 50.1783 86.8012C50.5191 87.2103 50.1806 87.9815 49.6577 87.8816C49.4785 87.8474 49.3345 87.715 49.2715 87.5437C48.2103 84.6567 46.132 83.7984 44.7222 83.5291C44.1973 83.4289 43.5118 84.2715 43.7273 84.7604C43.7446 84.7995 43.7621 84.8384 43.78 84.8771C44.0219 85.4008 43.4857 86.1113 42.9544 85.8867C42.7626 85.8056 42.6356 85.6214 42.6114 85.4146C42.2593 82.4083 40.4901 81.0879 39.1894 80.4863C38.6843 80.2526 37.7888 80.9375 37.8951 81.4837C37.9479 81.7545 38.016 82.0221 38.0992 82.285C38.2271 82.689 37.7499 83.1198 37.3987 82.8828C37.2656 82.793 37.2001 82.6303 37.2231 82.4714C37.632 79.6453 36.4233 77.8879 35.3174 76.889C34.9312 76.5402 33.5123 77.1922 33.5211 77.7125C33.5237 77.8656 33.5311 78.0242 33.5447 78.1867C33.5836 78.6517 32.8131 79.1453 32.4835 78.8151C32.3723 78.7038 32.3361 78.5365 32.3814 78.3858C33.2811 75.3879 32.0872 73.41 31.0804 72.3288C30.7014 71.9217 29.6323 72.2183 29.5272 72.7645C29.5045 72.8827 29.4847 73.0014 29.468 73.1205C29.3889 73.6825 28.5258 73.9967 28.2119 73.524C28.0928 73.3447 28.0946 73.108 28.2057 72.9236C30.7338 68.729 27.6005 65.5687 27.5896 65.4667C27.5896 65.4858 26.9191 66.3102 26.4977 67.5348C26.3467 67.9738 25.3958 68.1292 25.2303 67.6954C25.1709 67.5395 25.2169 67.3621 25.3361 67.2454C27.3258 65.2974 27.4894 63.2517 27.2411 61.7917C27.155 61.2856 25.4211 60.9075 25.1342 61.3333C24.9188 61.6531 24.7124 62.0182 24.5425 62.4252C24.4139 62.7333 23.7551 62.748 23.6889 62.4209C23.6464 62.2109 23.832 61.8822 24.0158 61.7723C24.7 61.3632 26.0343 60.3192 26.6193 58.7379C27.0002 57.7082 27.0011 56.6536 26.9022 55.844C26.8273 55.23 25.875 54.8819 25.4202 55.3011C24.6172 56.0414 23.661 57.2617 23.4647 59.0256C23.4521 59.1387 23.2468 59.1705 23.2002 59.0667C23.1957 59.0565 23.1928 59.0457 23.1918 59.0347C23.1773 58.8755 23.1639 58.7163 23.1517 58.557C23.028 56.9467 24.334 55.2005 25.483 54.0655C25.8255 53.7272 26.1501 53.3304 26.414 52.8712C27.1514 51.5881 27.1992 50.1415 27.1458 49.3034C27.1265 48.9998 26.6919 48.7628 26.4222 48.9036C26.142 49.0499 25.7944 49.2534 25.4298 49.5251C25.1381 49.7425 23.7907 49.1727 23.8711 48.8179C23.8985 48.6971 23.9994 48.6077 24.1219 48.5894C25.5223 48.3806 26.8242 47.7385 27.8434 46.7507C29.0959 45.422 26.8946 43.3528 25.6394 44.679C25.2183 45.124 24.8371 45.6732 24.5443 46.3514C24.5819 46.2295 24.6202 46.1078 24.6593 45.9863C25.3002 43.9936 28.9876 42.1622 30.7431 41.0221C31.6573 40.4285 32.2888 39.5852 32.6959 38.8772C33.0066 38.3369 32.454 37.4874 31.8342 37.5528C30.7717 37.6649 29.319 38.0577 28.1226 39.2839C28.0283 39.3806 27.8066 39.2632 27.8354 39.1313C27.8382 39.1181 27.8433 39.1055 27.8503 39.094C27.9126 38.9929 27.9754 38.8921 28.0388 38.7917C28.9064 37.4169 31.8929 36.6915 33.4996 36.444C33.8513 36.3899 34.2078 36.2988 34.5572 36.1594C35.6158 35.7371 36.4298 34.9851 36.9721 34.3518C37.3694 33.8879 37.0416 33.0489 36.4347 32.9811C35.4032 32.866 33.9131 32.9252 32.4922 33.8285C32.3478 33.9203 32.09 33.7088 32.1535 33.5499C32.1611 33.5308 32.1726 33.5133 32.1872 33.4987C32.3516 33.3342 32.5162 33.1698 32.6813 33.0062C33.7188 31.9789 35.3006 31.9376 36.7462 32.1431C37.4236 32.2395 38.1171 32.2275 38.8005 32.1027C40.5574 31.7123 39.9011 28.7455 38.1449 29.1393C37.5988 29.2617 37.0289 29.477 36.4531 29.8224C36.7447 29.6089 37.0398 29.4003 37.3382 29.1967C39.0605 28.0218 41.3254 28.5041 43.3639 28.9415C43.6752 29.0083 43.9922 29.0534 44.3127 29.076C46.1567 29.1252 46.2412 26.0773 44.3968 26.0421C43.8407 26.0315 43.239 26.1041 42.5997 26.2994C42.6678 26.2697 42.7361 26.2401 42.8044 26.2109C44.7301 25.3858 48.5185 26.874 50.5413 27.419C51.5434 27.689 52.5415 27.6195 53.3238 27.4673C53.9728 27.341 54.2627 26.2738 53.7654 25.8381C52.9206 25.0979 51.5864 24.2826 49.7828 24.3033C49.6983 24.3043 49.6648 24.1747 49.74 24.1364C49.7466 24.133 49.7539 24.1305 49.7612 24.1292C50.612 23.9773 51.4685 23.8595 52.3285 23.7761C52.9728 23.7136 53.5706 24.0714 53.9449 24.5996C55.2294 26.412 56.8605 26.9899 58.1487 27.1334C58.6679 27.1913 59.4934 25.6258 59.1585 25.2248C59.0977 25.152 59.0344 25.079 58.9684 25.0063C58.6464 24.6515 58.9521 23.794 59.4278 23.8514C59.5933 23.8713 59.7295 23.9882 59.7876 24.1444C60.8968 27.1283 63.1649 27.9816 64.6312 28.2274C65.1431 28.3133 65.75 27.5173 65.5311 27.0467C65.4576 26.8887 65.3741 26.7227 65.2797 26.5527C65.0217 26.0881 65.5669 25.2212 66.0703 25.3911C66.2588 25.4548 66.384 25.6306 66.3998 25.829C66.6187 28.5858 68.1053 30.0342 69.4049 30.7888C69.8086 31.0233 71.392 30.83 71.3184 30.3689C71.24 29.8774 71.8165 28.0186 72.2424 28.2762C72.2647 28.2897 72.287 28.3032 72.3092 28.3168C72.4555 28.4058 72.5331 28.576 72.5162 28.7463C72.226 31.6645 73.5682 33.3697 74.7459 34.3031C75.1431 34.6179 76.4593 34.774 76.4845 34.2679C76.512 33.7143 77.4267 32.1664 77.8283 32.5484C77.9057 32.622 77.9827 32.6959 78.0593 32.7703C78.2152 32.9215 78.2612 33.1533 78.1907 33.3587C77.384 35.7096 77.9501 37.4958 78.7078 38.6974C78.9593 39.0964 80.783 39.4481 80.884 38.9874C80.9849 38.5275 81.951 37.2932 82.218 37.681C82.3261 37.838 82.4328 37.9959 82.5381 38.1548C82.6509 38.3251 82.6474 38.5475 82.5419 38.7224C80.0178 42.9072 83.0549 45.8483 83.0768 46.0454C83.0768 46.0221 83.868 45.0799 84.3083 43.7193C84.4469 43.2911 85.2549 43.1522 85.4277 43.5677C85.4899 43.7172 85.4546 43.8907 85.347 44.0116C82.0134 47.7582 84.6442 51.5328 84.6405 51.6098C84.6405 51.5882 85.4577 50.8761 86.0743 49.7051C86.29 49.2955 87.2215 49.2944 87.3067 49.7495C87.3341 49.8953 87.2761 50.046 87.1641 50.1432C84.7503 52.2383 84.7458 54.5923 85.0343 56.0366C85.1367 56.5496 86.1359 56.8522 86.4974 56.474C86.5644 56.4039 86.63 56.3325 86.6942 56.2598C87.0517 55.8546 87.8828 56.0732 87.8723 56.6134Z" fill="url(#paint10_linear)"/>
</g>
<g filter="url(#filter6_b)">
<path d="M67.4868 65.7091C67.7829 69.4171 64.0705 72.1385 60.6234 70.7404L57.387 69.4278C56.1678 68.9333 54.8029 68.9393 53.588 69.4444L50.3682 70.7833C46.9329 72.2117 43.1965 69.5219 43.4611 65.8109L43.7094 62.3283C43.803 61.0159 43.3755 59.7196 42.5197 58.7203L40.2509 56.0712C37.8306 53.2452 39.2348 48.8601 42.8464 47.9655L46.2323 47.1268C47.51 46.8103 48.6114 46.0028 49.2974 44.8793L51.1139 41.9046C53.0533 38.7287 57.6584 38.7086 59.6255 41.8673L61.4695 44.8283C62.1651 45.9453 63.273 46.7431 64.5529 47.0486L67.9483 47.859C71.5673 48.7228 73.0088 53.0958 70.6127 55.9423L68.3677 58.6094C67.5204 59.6159 67.104 60.9158 67.2088 62.2273L67.4868 65.7091Z" fill="url(#paint11_linear)"/>
<path d="M57.1991 69.8911L60.4354 71.2038C64.2273 72.7417 68.3109 69.7481 67.9852 65.6693L67.7072 62.1875C67.6129 61.0072 67.9877 59.8373 68.7502 58.9314L70.9952 56.2643C73.6309 53.1331 72.0453 48.3229 68.0644 47.3727L64.669 46.5623C63.5171 46.2873 62.5199 45.5693 61.8939 44.564L60.0499 41.603C57.8861 38.1284 52.8205 38.1506 50.6872 41.644L48.8707 44.6187C48.2533 45.6298 47.262 46.3567 46.1121 46.6415L42.7262 47.4802C38.7534 48.4642 37.2088 53.2879 39.8712 56.3965L42.1399 59.0456C42.9101 59.9449 43.2949 61.1116 43.2107 62.2927L42.9624 65.7754C42.6713 69.8575 46.7814 72.8162 50.5602 71.245L53.78 69.9061C54.8734 69.4515 56.1018 69.4461 57.1991 69.8911Z" stroke="url(#paint12_linear)"/>
</g>
<path d="M121.598 39.0924C120.813 39.0924 120.102 38.9238 119.464 38.5864C118.833 38.2418 118.335 37.7688 117.968 37.1674C117.609 36.5588 117.429 35.8731 117.429 35.1104C117.429 34.3478 117.609 33.6658 117.968 33.0644C118.335 32.4558 118.833 31.9828 119.464 31.6454C120.102 31.3008 120.817 31.1284 121.609 31.1284C122.276 31.1284 122.878 31.2458 123.413 31.4804C123.956 31.7151 124.41 32.0524 124.777 32.4924L123.633 33.5484C123.112 32.9471 122.467 32.6464 121.697 32.6464C121.22 32.6464 120.795 32.7528 120.421 32.9654C120.047 33.1708 119.754 33.4604 119.541 33.8344C119.336 34.2084 119.233 34.6338 119.233 35.1104C119.233 35.5871 119.336 36.0124 119.541 36.3864C119.754 36.7604 120.047 37.0538 120.421 37.2664C120.795 37.4718 121.22 37.5744 121.697 37.5744C122.467 37.5744 123.112 37.2701 123.633 36.6614L124.777 37.7174C124.41 38.1648 123.956 38.5058 123.413 38.7404C122.87 38.9751 122.265 39.0924 121.598 39.0924ZM128.471 39.0484C127.848 39.0484 127.287 38.9201 126.788 38.6634C126.297 38.3994 125.912 38.0364 125.633 37.5744C125.355 37.1124 125.215 36.5881 125.215 36.0014C125.215 35.4148 125.355 34.8904 125.633 34.4284C125.912 33.9664 126.297 33.6071 126.788 33.3504C127.287 33.0864 127.848 32.9544 128.471 32.9544C129.095 32.9544 129.652 33.0864 130.143 33.3504C130.635 33.6071 131.02 33.9664 131.298 34.4284C131.577 34.8904 131.716 35.4148 131.716 36.0014C131.716 36.5881 131.577 37.1124 131.298 37.5744C131.02 38.0364 130.635 38.3994 130.143 38.6634C129.652 38.9201 129.095 39.0484 128.471 39.0484ZM128.471 37.6404C128.911 37.6404 129.271 37.4938 129.549 37.2004C129.835 36.8998 129.978 36.5001 129.978 36.0014C129.978 35.5028 129.835 35.1068 129.549 34.8134C129.271 34.5128 128.911 34.3624 128.471 34.3624C128.031 34.3624 127.668 34.5128 127.382 34.8134C127.096 35.1068 126.953 35.5028 126.953 36.0014C126.953 36.5001 127.096 36.8998 127.382 37.2004C127.668 37.4938 128.031 37.6404 128.471 37.6404ZM136.46 32.9544C137.194 32.9544 137.784 33.1744 138.231 33.6144C138.686 34.0544 138.913 34.7071 138.913 35.5724V38.9604H137.197V35.8364C137.197 35.3671 137.095 35.0188 136.889 34.7914C136.684 34.5568 136.387 34.4394 135.998 34.4394C135.566 34.4394 135.221 34.5751 134.964 34.8464C134.708 35.1104 134.579 35.5064 134.579 36.0344V38.9604H132.863V33.0424H134.502V33.7354C134.73 33.4861 135.012 33.2954 135.349 33.1634C135.687 33.0241 136.057 32.9544 136.46 32.9544ZM142.46 39.0484C141.968 39.0484 141.488 38.9898 141.019 38.8724C140.549 38.7478 140.175 38.5938 139.897 38.4104L140.469 37.1784C140.733 37.3471 141.052 37.4864 141.426 37.5964C141.8 37.6991 142.166 37.7504 142.526 37.7504C143.252 37.7504 143.615 37.5708 143.615 37.2114C143.615 37.0428 143.516 36.9218 143.318 36.8484C143.12 36.7751 142.815 36.7128 142.405 36.6614C141.921 36.5881 141.521 36.5038 141.206 36.4084C140.89 36.3131 140.615 36.1444 140.381 35.9024C140.153 35.6604 140.04 35.3158 140.04 34.8684C140.04 34.4944 140.146 34.1644 140.359 33.8784C140.579 33.5851 140.894 33.3578 141.305 33.1964C141.723 33.0351 142.214 32.9544 142.779 32.9544C143.197 32.9544 143.611 33.0021 144.022 33.0974C144.44 33.1854 144.784 33.3101 145.056 33.4714L144.484 34.6924C143.963 34.3991 143.395 34.2524 142.779 34.2524C142.412 34.2524 142.137 34.3038 141.954 34.4064C141.77 34.5091 141.679 34.6411 141.679 34.8024C141.679 34.9858 141.778 35.1141 141.976 35.1874C142.174 35.2608 142.489 35.3304 142.922 35.3964C143.406 35.4771 143.802 35.5651 144.11 35.6604C144.418 35.7484 144.685 35.9134 144.913 36.1554C145.14 36.3974 145.254 36.7348 145.254 37.1674C145.254 37.5341 145.144 37.8604 144.924 38.1464C144.704 38.4324 144.381 38.6561 143.956 38.8174C143.538 38.9714 143.039 39.0484 142.46 39.0484ZM149.129 39.0484C148.505 39.0484 147.944 38.9201 147.446 38.6634C146.954 38.3994 146.569 38.0364 146.291 37.5744C146.012 37.1124 145.873 36.5881 145.873 36.0014C145.873 35.4148 146.012 34.8904 146.291 34.4284C146.569 33.9664 146.954 33.6071 147.446 33.3504C147.944 33.0864 148.505 32.9544 149.129 32.9544C149.752 32.9544 150.309 33.0864 150.801 33.3504C151.292 33.6071 151.677 33.9664 151.956 34.4284C152.234 34.8904 152.374 35.4148 152.374 36.0014C152.374 36.5881 152.234 37.1124 151.956 37.5744C151.677 38.0364 151.292 38.3994 150.801 38.6634C150.309 38.9201 149.752 39.0484 149.129 39.0484ZM149.129 37.6404C149.569 37.6404 149.928 37.4938 150.207 37.2004C150.493 36.8998 150.636 36.5001 150.636 36.0014C150.636 35.5028 150.493 35.1068 150.207 34.8134C149.928 34.5128 149.569 34.3624 149.129 34.3624C148.689 34.3624 148.326 34.5128 148.04 34.8134C147.754 35.1068 147.611 35.5028 147.611 36.0014C147.611 36.5001 147.754 36.8998 148.04 37.2004C148.326 37.4938 148.689 37.6404 149.129 37.6404ZM153.521 30.7984H155.237V38.9604H153.521V30.7984ZM159.216 32.9544C160.133 32.9544 160.837 33.1744 161.328 33.6144C161.819 34.0471 162.065 34.7034 162.065 35.5834V38.9604H160.459V38.2234C160.136 38.7734 159.535 39.0484 158.655 39.0484C158.2 39.0484 157.804 38.9714 157.467 38.8174C157.137 38.6634 156.884 38.4508 156.708 38.1794C156.532 37.9081 156.444 37.6001 156.444 37.2554C156.444 36.7054 156.649 36.2728 157.06 35.9574C157.478 35.6421 158.12 35.4844 158.985 35.4844H160.349C160.349 35.1104 160.235 34.8244 160.008 34.6264C159.781 34.4211 159.44 34.3184 158.985 34.3184C158.67 34.3184 158.358 34.3698 158.05 34.4724C157.749 34.5678 157.493 34.6998 157.28 34.8684L156.664 33.6694C156.987 33.4421 157.372 33.2661 157.819 33.1414C158.274 33.0168 158.739 32.9544 159.216 32.9544ZM159.084 37.8934C159.377 37.8934 159.638 37.8274 159.865 37.6954C160.092 37.5561 160.254 37.3544 160.349 37.0904V36.4854H159.172C158.468 36.4854 158.116 36.7164 158.116 37.1784C158.116 37.3984 158.2 37.5744 158.369 37.7064C158.545 37.8311 158.783 37.8934 159.084 37.8934ZM167.435 38.6744C167.267 38.7991 167.058 38.8944 166.808 38.9604C166.566 39.0191 166.31 39.0484 166.038 39.0484C165.334 39.0484 164.788 38.8688 164.399 38.5094C164.018 38.1501 163.827 37.6221 163.827 36.9254V34.4944H162.914V33.1744H163.827V31.7334H165.543V33.1744H167.017V34.4944H165.543V36.9034C165.543 37.1528 165.606 37.3471 165.73 37.4864C165.862 37.6184 166.046 37.6844 166.28 37.6844C166.552 37.6844 166.783 37.6111 166.973 37.4644L167.435 38.6744ZM168.398 33.0424H170.114V38.9604H168.398V33.0424ZM169.256 32.2174C168.941 32.2174 168.684 32.1258 168.486 31.9424C168.288 31.7591 168.189 31.5318 168.189 31.2604C168.189 30.9891 168.288 30.7618 168.486 30.5784C168.684 30.3951 168.941 30.3034 169.256 30.3034C169.572 30.3034 169.828 30.3914 170.026 30.5674C170.224 30.7434 170.323 30.9634 170.323 31.2274C170.323 31.5134 170.224 31.7518 170.026 31.9424C169.828 32.1258 169.572 32.2174 169.256 32.2174ZM174.523 39.0484C173.9 39.0484 173.339 38.9201 172.84 38.6634C172.349 38.3994 171.964 38.0364 171.685 37.5744C171.406 37.1124 171.267 36.5881 171.267 36.0014C171.267 35.4148 171.406 34.8904 171.685 34.4284C171.964 33.9664 172.349 33.6071 172.84 33.3504C173.339 33.0864 173.9 32.9544 174.523 32.9544C175.146 32.9544 175.704 33.0864 176.195 33.3504C176.686 33.6071 177.071 33.9664 177.35 34.4284C177.629 34.8904 177.768 35.4148 177.768 36.0014C177.768 36.5881 177.629 37.1124 177.35 37.5744C177.071 38.0364 176.686 38.3994 176.195 38.6634C175.704 38.9201 175.146 39.0484 174.523 39.0484ZM174.523 37.6404C174.963 37.6404 175.322 37.4938 175.601 37.2004C175.887 36.8998 176.03 36.5001 176.03 36.0014C176.03 35.5028 175.887 35.1068 175.601 34.8134C175.322 34.5128 174.963 34.3624 174.523 34.3624C174.083 34.3624 173.72 34.5128 173.434 34.8134C173.148 35.1068 173.005 35.5028 173.005 36.0014C173.005 36.5001 173.148 36.8998 173.434 37.2004C173.72 37.4938 174.083 37.6404 174.523 37.6404ZM182.512 32.9544C183.245 32.9544 183.836 33.1744 184.283 33.6144C184.738 34.0544 184.965 34.7071 184.965 35.5724V38.9604H183.249V35.8364C183.249 35.3671 183.146 35.0188 182.941 34.7914C182.736 34.5568 182.439 34.4394 182.05 34.4394C181.617 34.4394 181.273 34.5751 181.016 34.8464C180.759 35.1104 180.631 35.5064 180.631 36.0344V38.9604H178.915V33.0424H180.554V33.7354C180.781 33.4861 181.064 33.2954 181.401 33.1634C181.738 33.0241 182.109 32.9544 182.512 32.9544ZM193.09 31.2604C193.772 31.2604 194.362 31.3741 194.861 31.6014C195.367 31.8288 195.755 32.1514 196.027 32.5694C196.298 32.9874 196.434 33.4824 196.434 34.0544C196.434 34.6191 196.298 35.1141 196.027 35.5394C195.755 35.9574 195.367 36.2801 194.861 36.5074C194.362 36.7274 193.772 36.8374 193.09 36.8374H191.539V38.9604H189.757V31.2604H193.09ZM192.991 35.3854C193.526 35.3854 193.933 35.2718 194.212 35.0444C194.49 34.8098 194.63 34.4798 194.63 34.0544C194.63 33.6218 194.49 33.2918 194.212 33.0644C193.933 32.8298 193.526 32.7124 192.991 32.7124H191.539V35.3854H192.991ZM199.224 33.8234C199.429 33.5374 199.704 33.3211 200.049 33.1744C200.401 33.0278 200.804 32.9544 201.259 32.9544V34.5384C201.068 34.5238 200.94 34.5164 200.874 34.5164C200.383 34.5164 199.998 34.6558 199.719 34.9344C199.44 35.2058 199.301 35.6164 199.301 36.1664V38.9604H197.585V33.0424H199.224V33.8234ZM202.279 33.0424H203.995V38.9604H202.279V33.0424ZM203.137 32.2174C202.822 32.2174 202.565 32.1258 202.367 31.9424C202.169 31.7591 202.07 31.5318 202.07 31.2604C202.07 30.9891 202.169 30.7618 202.367 30.5784C202.565 30.3951 202.822 30.3034 203.137 30.3034C203.453 30.3034 203.709 30.3914 203.907 30.5674C204.105 30.7434 204.204 30.9634 204.204 31.2274C204.204 31.5134 204.105 31.7518 203.907 31.9424C203.709 32.1258 203.453 32.2174 203.137 32.2174ZM210.461 37.6404V38.9604H205.181V37.9264L208.195 34.3624H205.258V33.0424H210.362V34.0764L207.348 37.6404H210.461ZM217.282 36.0234C217.282 36.0454 217.271 36.1994 217.249 36.4854H212.772C212.853 36.8521 213.044 37.1418 213.344 37.3544C213.645 37.5671 214.019 37.6734 214.466 37.6734C214.774 37.6734 215.046 37.6294 215.28 37.5414C215.522 37.4461 215.746 37.2994 215.951 37.1014L216.864 38.0914C216.307 38.7294 215.493 39.0484 214.422 39.0484C213.755 39.0484 213.165 38.9201 212.651 38.6634C212.138 38.3994 211.742 38.0364 211.463 37.5744C211.185 37.1124 211.045 36.5881 211.045 36.0014C211.045 35.4221 211.181 34.9014 211.452 34.4394C211.731 33.9701 212.109 33.6071 212.585 33.3504C213.069 33.0864 213.608 32.9544 214.202 32.9544C214.782 32.9544 215.306 33.0791 215.775 33.3284C216.245 33.5778 216.611 33.9371 216.875 34.4064C217.147 34.8684 217.282 35.4074 217.282 36.0234ZM214.213 34.2524C213.825 34.2524 213.498 34.3624 213.234 34.5824C212.97 34.8024 212.809 35.1031 212.75 35.4844H215.665C215.607 35.1104 215.445 34.8134 215.181 34.5934C214.917 34.3661 214.595 34.2524 214.213 34.2524ZM220.416 39.0484C219.924 39.0484 219.444 38.9898 218.975 38.8724C218.505 38.7478 218.131 38.5938 217.853 38.4104L218.425 37.1784C218.689 37.3471 219.008 37.4864 219.382 37.5964C219.756 37.6991 220.122 37.7504 220.482 37.7504C221.208 37.7504 221.571 37.5708 221.571 37.2114C221.571 37.0428 221.472 36.9218 221.274 36.8484C221.076 36.7751 220.771 36.7128 220.361 36.6614C219.877 36.5881 219.477 36.5038 219.162 36.4084C218.846 36.3131 218.571 36.1444 218.337 35.9024C218.109 35.6604 217.996 35.3158 217.996 34.8684C217.996 34.4944 218.102 34.1644 218.315 33.8784C218.535 33.5851 218.85 33.3578 219.261 33.1964C219.679 33.0351 220.17 32.9544 220.735 32.9544C221.153 32.9544 221.567 33.0021 221.978 33.0974C222.396 33.1854 222.74 33.3101 223.012 33.4714L222.44 34.6924C221.919 34.3991 221.351 34.2524 220.735 34.2524C220.368 34.2524 220.093 34.3038 219.91 34.4064C219.726 34.5091 219.635 34.6411 219.635 34.8024C219.635 34.9858 219.734 35.1141 219.932 35.1874C220.13 35.2608 220.445 35.3304 220.878 35.3964C221.362 35.4771 221.758 35.5651 222.066 35.6604C222.374 35.7484 222.641 35.9134 222.869 36.1554C223.096 36.3974 223.21 36.7348 223.21 37.1674C223.21 37.5341 223.1 37.8604 222.88 38.1464C222.66 38.4324 222.337 38.6561 221.912 38.8174C221.494 38.9714 220.995 39.0484 220.416 39.0484ZM239.143 31.2604L236.624 38.9604H234.71L233.016 33.7464L231.267 38.9604H229.364L226.834 31.2604H228.682L230.42 36.6724L232.235 31.2604H233.885L235.645 36.7164L237.438 31.2604H239.143ZM242.392 39.0484C241.769 39.0484 241.208 38.9201 240.709 38.6634C240.218 38.3994 239.833 38.0364 239.554 37.5744C239.276 37.1124 239.136 36.5881 239.136 36.0014C239.136 35.4148 239.276 34.8904 239.554 34.4284C239.833 33.9664 240.218 33.6071 240.709 33.3504C241.208 33.0864 241.769 32.9544 242.392 32.9544C243.016 32.9544 243.573 33.0864 244.064 33.3504C244.556 33.6071 244.941 33.9664 245.219 34.4284C245.498 34.8904 245.637 35.4148 245.637 36.0014C245.637 36.5881 245.498 37.1124 245.219 37.5744C244.941 38.0364 244.556 38.3994 244.064 38.6634C243.573 38.9201 243.016 39.0484 242.392 39.0484ZM242.392 37.6404C242.832 37.6404 243.192 37.4938 243.47 37.2004C243.756 36.8998 243.899 36.5001 243.899 36.0014C243.899 35.5028 243.756 35.1068 243.47 34.8134C243.192 34.5128 242.832 34.3624 242.392 34.3624C241.952 34.3624 241.589 34.5128 241.303 34.8134C241.017 35.1068 240.874 35.5028 240.874 36.0014C240.874 36.5001 241.017 36.8998 241.303 37.2004C241.589 37.4938 241.952 37.6404 242.392 37.6404ZM248.423 33.8234C248.629 33.5374 248.904 33.3211 249.248 33.1744C249.6 33.0278 250.004 32.9544 250.458 32.9544V34.5384C250.268 34.5238 250.139 34.5164 250.073 34.5164C249.582 34.5164 249.197 34.6558 248.918 34.9344C248.64 35.2058 248.5 35.6164 248.5 36.1664V38.9604H246.784V33.0424H248.423V33.8234ZM255.5 38.6744C255.331 38.7991 255.122 38.8944 254.873 38.9604C254.631 39.0191 254.374 39.0484 254.103 39.0484C253.399 39.0484 252.852 38.8688 252.464 38.5094C252.082 38.1501 251.892 37.6221 251.892 36.9254V34.4944H250.979V33.1744H251.892V31.7334H253.608V33.1744H255.082V34.4944H253.608V36.9034C253.608 37.1528 253.67 37.3471 253.795 37.4864C253.927 37.6184 254.11 37.6844 254.345 37.6844C254.616 37.6844 254.847 37.6111 255.038 37.4644L255.5 38.6744ZM260.06 32.9544C260.793 32.9544 261.384 33.1744 261.831 33.6144C262.286 34.0544 262.513 34.7071 262.513 35.5724V38.9604H260.797V35.8364C260.797 35.3671 260.694 35.0188 260.489 34.7914C260.284 34.5568 259.987 34.4394 259.598 34.4394C259.165 34.4394 258.821 34.5751 258.564 34.8464C258.307 35.1104 258.179 35.5064 258.179 36.0344V38.9604H256.463V30.7984H258.179V33.6584C258.406 33.4311 258.681 33.2588 259.004 33.1414C259.327 33.0168 259.679 32.9544 260.06 32.9544Z" fill="white"/>
<defs>
<filter id="filter0_b" x="5.05249" y="-29.1494" width="404" height="170.336" filterUnits="userSpaceOnUse" color-interpolation-filters="sRGB">
<feFlood flood-opacity="0" result="BackgroundImageFix"/>
<feGaussianBlur in="BackgroundImage" stdDeviation="23"/>
<feComposite in2="SourceAlpha" operator="in" result="effect1_backgroundBlur"/>
<feBlend mode="normal" in="SourceGraphic" in2="effect1_backgroundBlur" result="shape"/>
</filter>
<filter id="filter1_b" x="-14.7607" y="9.34668" width="127.498" height="172.324" filterUnits="userSpaceOnUse" color-interpolation-filters="sRGB">
<feFlood flood-opacity="0" result="BackgroundImageFix"/>
<feGaussianBlur in="BackgroundImage" stdDeviation="23"/>
<feComposite in2="SourceAlpha" operator="in" result="effect1_backgroundBlur"/>
<feBlend mode="normal" in="SourceGraphic" in2="effect1_backgroundBlur" result="shape"/>
</filter>
<filter id="filter2_b" x="-1.84668" y="8.77222" width="134.399" height="172.141" filterUnits="userSpaceOnUse" color-interpolation-filters="sRGB">
<feFlood flood-opacity="0" result="BackgroundImageFix"/>
<feGaussianBlur in="BackgroundImage" stdDeviation="23"/>
<feComposite in2="SourceAlpha" operator="in" result="effect1_backgroundBlur"/>
<feBlend mode="normal" in="SourceGraphic" in2="effect1_backgroundBlur" result="shape"/>
</filter>
<filter id="filter3_b" x="-45.3679" y="-45.136" width="202.656" height="202.656" filterUnits="userSpaceOnUse" color-interpolation-filters="sRGB">
<feFlood flood-opacity="0" result="BackgroundImageFix"/>
<feGaussianBlur in="BackgroundImage" stdDeviation="23"/>
<feComposite in2="SourceAlpha" operator="in" result="effect1_backgroundBlur"/>
<feBlend mode="normal" in="SourceGraphic" in2="effect1_backgroundBlur" result="shape"/>
</filter>
<filter id="filter4_b" x="-32.4438" y="-32.2043" width="176.805" height="176.805" filterUnits="userSpaceOnUse" color-interpolation-filters="sRGB">
<feFlood flood-opacity="0" result="BackgroundImageFix"/>
<feGaussianBlur in="BackgroundImage" stdDeviation="23"/>
<feComposite in2="SourceAlpha" operator="in" result="effect1_backgroundBlur"/>
<feBlend mode="normal" in="SourceGraphic" in2="effect1_backgroundBlur" result="shape"/>
</filter>
<filter id="filter5_b" x="17.134" y="17.2996" width="77.123" height="77.33" filterUnits="userSpaceOnUse" color-interpolation-filters="sRGB">
<feFlood flood-opacity="0" result="BackgroundImageFix"/>
<feGaussianBlur in="BackgroundImage" stdDeviation="1"/>
<feComposite in2="SourceAlpha" operator="in" result="effect1_backgroundBlur"/>
<feBlend mode="normal" in="SourceGraphic" in2="effect1_backgroundBlur" result="shape"/>
</filter>
<filter id="filter6_b" x="-7.95581" y="-7.4895" width="126.748" height="125.664" filterUnits="userSpaceOnUse" color-interpolation-filters="sRGB">
<feFlood flood-opacity="0" result="BackgroundImageFix"/>
<feGaussianBlur in="BackgroundImage" stdDeviation="23"/>
<feComposite in2="SourceAlpha" operator="in" result="effect1_backgroundBlur"/>
<feBlend mode="normal" in="SourceGraphic" in2="effect1_backgroundBlur" result="shape"/>
</filter>
<linearGradient id="paint0_linear" x1="-3.72157" y1="7.69435" x2="50.4386" y2="127.646" gradientUnits="userSpaceOnUse">
<stop stop-color="#474E8E"/>
<stop offset="1" stop-color="#3C4061" stop-opacity="0.02"/>
</linearGradient>
<linearGradient id="paint1_linear" x1="436.634" y1="112.224" x2="254.766" y2="-121" gradientUnits="userSpaceOnUse">
<stop stop-color="#260262"/>
<stop offset="1" stop-color="#E6E6E6" stop-opacity="0"/>
</linearGradient>
<linearGradient id="paint2_linear" x1="23.8332" y1="43.9927" x2="59.3124" y2="52.007" gradientUnits="userSpaceOnUse">
<stop stop-color="#474E8E"/>
<stop offset="1" stop-color="#3C4061" stop-opacity="0.02"/>
</linearGradient>
<linearGradient id="paint3_linear" x1="75.1763" y1="163.488" x2="20.0434" y2="156.277" gradientUnits="userSpaceOnUse">
<stop stop-color="#260262"/>
<stop offset="1" stop-color="#E6E6E6" stop-opacity="0"/>
</linearGradient>
<linearGradient id="paint4_linear" x1="35.9635" y1="42.9466" x2="78.7241" y2="54.8182" gradientUnits="userSpaceOnUse">
<stop stop-color="#474E8E"/>
<stop offset="1" stop-color="#3C4061" stop-opacity="0.02"/>
</linearGradient>
<linearGradient id="paint5_linear" x1="99.3776" y1="163.029" x2="31.8625" y2="152.176" gradientUnits="userSpaceOnUse">
<stop stop-color="#260262"/>
<stop offset="1" stop-color="#E6E6E6" stop-opacity="0"/>
</linearGradient>
<linearGradient id="paint6_linear" x1="-13.5361" y1="102.653" x2="40.8808" y2="41.9765" gradientUnits="userSpaceOnUse">
<stop stop-color="#474E8E"/>
<stop offset="1" stop-color="#3C4061" stop-opacity="0.02"/>
</linearGradient>
<linearGradient id="paint7_linear" x1="135.752" y1="6.55158" x2="67.5744" y2="120.897" gradientUnits="userSpaceOnUse">
<stop stop-color="#260262"/>
<stop offset="1" stop-color="#E6E6E6" stop-opacity="0"/>
</linearGradient>
<linearGradient id="paint8_linear" x1="-0.250072" y1="5.70213" x2="65.0431" y2="39.8174" gradientUnits="userSpaceOnUse">
<stop stop-color="#474E8E"/>
<stop offset="1" stop-color="#3C4061" stop-opacity="0.02"/>
</linearGradient>
<linearGradient id="paint9_linear" x1="117.251" y1="115.003" x2="1.87891" y2="80.8167" gradientUnits="userSpaceOnUse">
<stop stop-color="#260262"/>
<stop offset="1" stop-color="#E6E6E6" stop-opacity="0"/>
</linearGradient>
<linearGradient id="paint10_linear" x1="4.80835" y1="15.7647" x2="149.971" y2="78.2726" gradientUnits="userSpaceOnUse">
<stop stop-color="#474E8E"/>
<stop offset="1" stop-color="#3C4061" stop-opacity="0.02"/>
</linearGradient>
<linearGradient id="paint11_linear" x1="27.6276" y1="29.808" x2="59.3687" y2="47.9838" gradientUnits="userSpaceOnUse">
<stop stop-color="#474E8E"/>
<stop offset="1" stop-color="#6B719F" stop-opacity="0.02"/>
</linearGradient>
<linearGradient id="paint12_linear" x1="85.6618" y1="83.089" x2="28.5557" y2="64.1548" gradientUnits="userSpaceOnUse">
<stop stop-color="#260262"/>
<stop offset="1" stop-color="#E6E6E6" stop-opacity="0"/>
</linearGradient>
</defs>
</svg>
