<svg width="797" height="589" viewBox="0 0 797 589" fill="none" xmlns="http://www.w3.org/2000/svg">
<g clip-path="url(#clip0)">
<rect width="797" height="589" fill="white"/>
<path d="M188.265 74.698C178.431 79.8173 168.581 86.2628 163.575 96.1536C159.895 103.432 159.224 111.778 158.617 119.898L151.339 216.832C149.721 238.434 147.95 260.633 138.52 280.14C122.273 313.743 86.899 332.918 60.3402 359.137C16.8224 402.104 -1.85923 474.534 30.8216 526.228C45.239 548.825 67.5114 565.283 93.3445 572.431C108.5 576.556 124.335 577.284 140.024 577.987C271.443 583.686 402.951 585.972 534.548 584.845C550.172 584.708 566.226 584.441 580.645 578.505C600.564 570.312 614.879 552.278 624.737 533.127C634.596 513.976 640.912 493.184 650.236 473.774C669.323 434.146 700.378 401.846 727.438 367.208C742.359 348.122 756.326 327.895 764.704 305.17C778.024 269.052 775.695 226.57 754.878 194.18C745.885 180.181 733.641 168.058 727.519 152.587C718.97 130.953 723.742 106.724 725.78 83.5536C727.818 60.3835 725.586 33.9299 707.753 18.9926C697.911 10.7517 684.874 7.50057 672.169 5.64049C611.345 -3.25555 550.253 14.3505 489.938 26.2227C436.715 36.7362 382.757 42.7531 328.766 47.5489C280.841 51.819 232.001 51.9322 188.265 74.698Z" fill="#CFCDEA"/>
<path d="M167.667 526.633C167.667 526.633 144.125 446.706 172.083 387.879C183.817 363.188 187.715 335.473 182.289 308.68C179.697 295.963 175.945 283.51 171.08 271.478" stroke="#535461" stroke-width="2" stroke-miterlimit="10"/>
<path d="M188.467 234.341C188.467 244.135 170.732 272.538 170.732 272.538C170.732 272.538 152.996 244.135 152.996 234.341C152.996 229.638 154.865 225.126 158.191 221.8C161.517 218.474 166.028 216.606 170.732 216.606C175.435 216.606 179.946 218.474 183.272 221.8C186.598 225.126 188.467 229.638 188.467 234.341V234.341Z" fill="#6C63FF"/>
<path d="M217.783 288.567C212.462 296.792 182.134 310.993 182.134 310.993C182.134 310.993 182.684 277.511 188.006 269.287C189.272 267.331 190.91 265.645 192.828 264.323C194.746 263.001 196.905 262.07 199.183 261.582C201.461 261.095 203.812 261.061 206.103 261.482C208.394 261.904 210.579 262.772 212.534 264.038C214.49 265.304 216.176 266.943 217.498 268.86C218.82 270.778 219.752 272.938 220.239 275.215C220.726 277.493 220.76 279.844 220.339 282.135C219.918 284.426 219.049 286.612 217.783 288.567Z" fill="#6C63FF"/>
<path d="M216.506 381.312C207.763 385.72 174.452 382.679 174.452 382.679C174.452 382.679 191.775 354.074 200.533 349.642C204.728 347.57 209.571 347.239 214.008 348.721C218.445 350.204 222.117 353.379 224.224 357.557C226.331 361.734 226.702 366.574 225.256 371.023C223.81 375.473 220.665 379.171 216.506 381.312V381.312Z" fill="#6C63FF"/>
<path d="M199.741 451.243C191.864 457.066 158.496 459.702 158.496 459.702C158.496 459.702 170.788 428.55 178.657 422.727C180.527 421.31 182.66 420.277 184.932 419.69C187.204 419.103 189.57 418.972 191.893 419.306C194.215 419.64 196.449 420.431 198.463 421.634C200.478 422.837 202.234 424.428 203.63 426.315C205.025 428.201 206.032 430.346 206.593 432.625C207.153 434.903 207.256 437.271 206.895 439.589C206.534 441.908 205.717 444.132 204.49 446.132C203.263 448.133 201.652 449.87 199.749 451.243H199.741Z" fill="#6C63FF"/>
<path d="M144.868 312.918C151.896 319.743 184.625 326.812 184.625 326.812C184.625 326.812 176.611 294.301 169.583 287.475C166.203 284.227 161.675 282.449 156.989 282.529C152.302 282.61 147.838 284.542 144.572 287.904C141.306 291.267 139.503 295.785 139.559 300.472C139.614 305.159 141.523 309.634 144.868 312.918V312.918Z" fill="#6C63FF"/>
<path d="M126.324 394.955C135.067 399.363 168.378 396.322 168.378 396.322C168.378 396.322 150.999 367.693 142.256 363.285C140.175 362.214 137.901 361.565 135.567 361.376C133.234 361.188 130.886 361.463 128.659 362.187C126.432 362.91 124.371 364.068 122.593 365.592C120.816 367.116 119.358 368.977 118.304 371.068C117.249 373.158 116.619 375.437 116.45 377.772C116.281 380.108 116.576 382.453 117.318 384.674C118.06 386.895 119.234 388.947 120.773 390.711C122.312 392.476 124.185 393.918 126.284 394.955H126.324Z" fill="#6C63FF"/>
<path d="M119.215 477.171C127.092 482.994 160.461 485.63 160.461 485.63C160.461 485.63 148.168 454.478 140.299 448.655C136.514 445.924 131.805 444.794 127.193 445.512C122.58 446.23 118.437 448.738 115.662 452.49C112.886 456.243 111.702 460.939 112.365 465.559C113.029 470.179 115.487 474.351 119.207 477.171H119.215Z" fill="#6C63FF"/>
<path opacity="0.25" d="M188.467 234.341C188.467 244.135 170.732 272.538 170.732 272.538C170.732 272.538 152.996 244.135 152.996 234.341C152.996 229.638 154.865 225.126 158.191 221.8C161.517 218.474 166.028 216.606 170.732 216.606C175.435 216.606 179.946 218.474 183.272 221.8C186.598 225.126 188.467 229.638 188.467 234.341V234.341Z" fill="black"/>
<path opacity="0.25" d="M217.783 288.567C212.462 296.792 182.134 310.993 182.134 310.993C182.134 310.993 182.684 277.511 188.006 269.287C189.272 267.331 190.91 265.645 192.828 264.323C194.746 263.001 196.905 262.07 199.183 261.582C201.461 261.095 203.812 261.061 206.103 261.482C208.394 261.904 210.579 262.772 212.534 264.038C214.49 265.304 216.176 266.943 217.498 268.86C218.82 270.778 219.752 272.938 220.239 275.215C220.726 277.493 220.76 279.844 220.339 282.135C219.918 284.426 219.049 286.612 217.783 288.567Z" fill="black"/>
<path opacity="0.25" d="M216.506 381.312C207.763 385.72 174.452 382.679 174.452 382.679C174.452 382.679 191.775 354.074 200.533 349.642C204.728 347.57 209.571 347.239 214.008 348.721C218.445 350.204 222.117 353.379 224.224 357.557C226.331 361.734 226.702 366.574 225.256 371.023C223.81 375.473 220.665 379.171 216.506 381.312V381.312Z" fill="black"/>
<path opacity="0.25" d="M199.741 451.243C191.864 457.066 158.496 459.702 158.496 459.702C158.496 459.702 170.788 428.55 178.657 422.727C180.527 421.31 182.66 420.277 184.932 419.69C187.204 419.103 189.57 418.972 191.893 419.306C194.215 419.64 196.449 420.431 198.463 421.634C200.478 422.837 202.234 424.428 203.63 426.315C205.025 428.201 206.032 430.346 206.593 432.625C207.153 434.903 207.256 437.271 206.895 439.589C206.534 441.908 205.717 444.132 204.49 446.132C203.263 448.133 201.652 449.87 199.749 451.243H199.741Z" fill="black"/>
<path opacity="0.25" d="M144.868 312.918C151.896 319.743 184.625 326.812 184.625 326.812C184.625 326.812 176.611 294.301 169.583 287.475C166.203 284.227 161.675 282.449 156.989 282.529C152.302 282.61 147.838 284.542 144.572 287.904C141.306 291.267 139.503 295.785 139.559 300.472C139.614 305.159 141.523 309.634 144.868 312.918V312.918Z" fill="black"/>
<path opacity="0.25" d="M126.324 394.955C135.067 399.363 168.378 396.322 168.378 396.322C168.378 396.322 150.999 367.693 142.256 363.285C140.175 362.214 137.901 361.565 135.567 361.376C133.234 361.188 130.886 361.463 128.659 362.187C126.432 362.91 124.371 364.068 122.593 365.592C120.816 367.116 119.358 368.977 118.304 371.068C117.249 373.158 116.619 375.437 116.45 377.772C116.281 380.108 116.576 382.453 117.318 384.674C118.06 386.895 119.234 388.947 120.773 390.711C122.312 392.476 124.185 393.918 126.284 394.955H126.324Z" fill="black"/>
<path opacity="0.25" d="M119.215 477.171C127.092 482.994 160.461 485.63 160.461 485.63C160.461 485.63 148.168 454.478 140.299 448.655C136.514 445.924 131.805 444.794 127.193 445.512C122.58 446.23 118.437 448.738 115.662 452.49C112.886 456.243 111.702 460.939 112.365 465.559C113.029 470.179 115.487 474.351 119.207 477.171H119.215Z" fill="black"/>
<path d="M619.246 483.657C619.246 483.657 595.704 403.738 623.638 344.911C635.372 320.22 639.27 292.505 633.844 265.712C631.252 252.995 627.5 240.542 622.635 228.51" stroke="#535461" stroke-width="2" stroke-miterlimit="10"/>
<path d="M640.046 191.365C640.046 201.159 622.311 229.562 622.311 229.562C622.311 229.562 604.575 201.159 604.575 191.365C604.575 186.662 606.444 182.151 609.77 178.825C613.096 175.499 617.607 173.63 622.311 173.63C627.014 173.63 631.525 175.499 634.852 178.825C638.178 182.151 640.046 186.662 640.046 191.365V191.365Z" fill="#6C63FF"/>
<path d="M669.363 245.623C664.041 253.848 633.714 268.049 633.714 268.049C633.714 268.049 634.264 234.568 639.585 226.343C640.851 224.388 642.49 222.701 644.408 221.379C646.325 220.057 648.485 219.126 650.763 218.639C653.04 218.151 655.392 218.117 657.683 218.539C659.973 218.96 662.159 219.828 664.114 221.094C666.069 222.36 667.756 223.999 669.078 225.917C670.4 227.835 671.331 229.994 671.818 232.272C672.306 234.549 672.34 236.901 671.918 239.192C671.497 241.482 670.629 243.668 669.363 245.623V245.623Z" fill="#6C63FF"/>
<path d="M668.116 338.336C659.374 342.744 626.062 339.703 626.062 339.703C626.062 339.703 643.442 311.074 652.184 306.666C654.273 305.528 656.569 304.821 658.936 304.588C661.303 304.354 663.692 304.6 665.962 305.309C668.233 306.018 670.337 307.176 672.151 308.715C673.964 310.254 675.449 312.142 676.518 314.267C677.587 316.392 678.218 318.71 678.372 321.083C678.527 323.457 678.203 325.837 677.419 328.082C676.635 330.328 675.408 332.393 673.81 334.154C672.212 335.916 670.275 337.338 668.116 338.336Z" fill="#6C63FF"/>
<path d="M651.32 408.259C643.443 414.082 610.075 416.718 610.075 416.718C610.075 416.718 622.367 385.566 630.236 379.743C632.105 378.302 634.242 377.249 636.522 376.644C638.803 376.04 641.181 375.896 643.517 376.222C645.854 376.548 648.102 377.337 650.13 378.543C652.158 379.749 653.925 381.347 655.327 383.244C656.73 385.141 657.74 387.299 658.298 389.591C658.857 391.883 658.952 394.264 658.579 396.593C658.206 398.923 657.371 401.154 656.125 403.158C654.879 405.161 653.245 406.895 651.32 408.259V408.259Z" fill="#6C63FF"/>
<path d="M596.472 269.966C603.5 276.792 636.229 283.86 636.229 283.86C636.229 283.86 628.214 251.365 621.211 244.499C619.539 242.875 617.563 241.596 615.396 240.735C613.23 239.874 610.915 239.448 608.584 239.482C606.253 239.516 603.951 240.008 601.811 240.932C599.67 241.855 597.732 243.191 596.108 244.863C594.483 246.535 593.204 248.511 592.343 250.677C591.483 252.844 591.057 255.159 591.091 257.49C591.125 259.821 591.617 262.122 592.54 264.263C593.464 266.404 594.799 268.342 596.472 269.966V269.966Z" fill="#6C63FF"/>
<path d="M577.903 351.979C586.645 356.387 619.957 353.346 619.957 353.346C619.957 353.346 602.609 324.717 593.875 320.309C591.793 319.238 589.52 318.589 587.186 318.4C584.852 318.212 582.504 318.487 580.278 319.211C578.051 319.934 575.989 321.092 574.212 322.616C572.435 324.14 570.977 326.001 569.922 328.092C568.868 330.182 568.238 332.461 568.069 334.796C567.9 337.132 568.194 339.477 568.936 341.698C569.678 343.919 570.853 345.971 572.391 347.735C573.93 349.5 575.803 350.942 577.903 351.979V351.979Z" fill="#6C63FF"/>
<path d="M570.794 434.195C578.671 440.018 612.04 442.654 612.04 442.654C612.04 442.654 599.747 411.502 591.878 405.679C588.093 402.948 583.384 401.819 578.772 402.536C574.16 403.254 570.016 405.762 567.241 409.514C564.465 413.267 563.281 417.963 563.944 422.583C564.608 427.203 567.067 431.375 570.786 434.195H570.794Z" fill="#6C63FF"/>
<path opacity="0.25" d="M640.046 191.365C640.046 201.159 622.311 229.562 622.311 229.562C622.311 229.562 604.575 201.159 604.575 191.365C604.575 186.662 606.444 182.151 609.77 178.825C613.096 175.499 617.607 173.63 622.311 173.63C627.014 173.63 631.525 175.499 634.852 178.825C638.178 182.151 640.046 186.662 640.046 191.365V191.365Z" fill="black"/>
<path opacity="0.25" d="M669.363 245.623C664.041 253.848 633.714 268.049 633.714 268.049C633.714 268.049 634.264 234.568 639.585 226.343C640.851 224.388 642.49 222.701 644.408 221.379C646.325 220.057 648.485 219.126 650.763 218.639C653.04 218.151 655.392 218.117 657.683 218.539C659.973 218.96 662.159 219.828 664.114 221.094C666.069 222.36 667.756 223.999 669.078 225.917C670.4 227.835 671.331 229.994 671.818 232.272C672.306 234.549 672.34 236.901 671.918 239.192C671.497 241.482 670.629 243.668 669.363 245.623V245.623Z" fill="black"/>
<path opacity="0.25" d="M668.116 338.336C659.374 342.744 626.062 339.703 626.062 339.703C626.062 339.703 643.442 311.074 652.184 306.666C654.273 305.528 656.569 304.821 658.936 304.588C661.303 304.354 663.692 304.6 665.962 305.309C668.233 306.018 670.337 307.176 672.151 308.715C673.964 310.254 675.449 312.142 676.518 314.267C677.587 316.392 678.218 318.71 678.372 321.083C678.527 323.457 678.203 325.837 677.419 328.082C676.635 330.328 675.408 332.393 673.81 334.154C672.212 335.916 670.275 337.338 668.116 338.336Z" fill="black"/>
<path opacity="0.25" d="M651.32 408.259C643.443 414.082 610.075 416.718 610.075 416.718C610.075 416.718 622.367 385.566 630.236 379.743C632.105 378.302 634.242 377.249 636.522 376.644C638.803 376.04 641.181 375.896 643.517 376.222C645.854 376.548 648.102 377.337 650.13 378.543C652.158 379.749 653.925 381.347 655.327 383.244C656.73 385.141 657.74 387.299 658.298 389.591C658.857 391.883 658.952 394.264 658.579 396.593C658.206 398.923 657.371 401.154 656.125 403.158C654.879 405.161 653.245 406.895 651.32 408.259V408.259Z" fill="black"/>
<path opacity="0.25" d="M596.472 269.966C603.5 276.792 636.229 283.86 636.229 283.86C636.229 283.86 628.214 251.365 621.211 244.499C619.539 242.875 617.563 241.596 615.396 240.735C613.23 239.874 610.915 239.448 608.584 239.482C606.253 239.516 603.951 240.008 601.811 240.932C599.67 241.855 597.732 243.191 596.108 244.863C594.483 246.535 593.204 248.511 592.343 250.677C591.483 252.844 591.057 255.159 591.091 257.49C591.125 259.821 591.617 262.122 592.54 264.263C593.464 266.404 594.799 268.342 596.472 269.966V269.966Z" fill="black"/>
<path opacity="0.25" d="M577.903 351.979C586.645 356.387 619.957 353.346 619.957 353.346C619.957 353.346 602.609 324.717 593.875 320.309C591.793 319.238 589.52 318.589 587.186 318.4C584.852 318.212 582.504 318.487 580.278 319.211C578.051 319.934 575.989 321.092 574.212 322.616C572.435 324.14 570.977 326.001 569.922 328.092C568.868 330.182 568.238 332.461 568.069 334.796C567.9 337.132 568.194 339.477 568.936 341.698C569.678 343.919 570.853 345.971 572.391 347.735C573.93 349.5 575.803 350.942 577.903 351.979V351.979Z" fill="black"/>
<path opacity="0.25" d="M570.794 434.195C578.671 440.018 612.04 442.654 612.04 442.654C612.04 442.654 599.747 411.502 591.878 405.679C588.093 402.948 583.384 401.819 578.772 402.536C574.16 403.254 570.016 405.762 567.241 409.514C564.465 413.267 563.281 417.963 563.944 422.583C564.608 427.203 567.067 431.375 570.786 434.195H570.794Z" fill="black"/>
<path d="M605.263 521.222C605.263 521.125 605.263 521.02 605.319 520.915C605.376 520.81 605.319 520.858 605.319 520.834C605.336 520.632 605.336 520.43 605.319 520.228C605.319 520.228 604.236 518.149 602.974 515.294C601.251 511.372 599.205 505.978 599.205 502.444C599.205 502.444 580.305 436.306 567.527 429.084C567.527 429.084 557.014 410.362 557.127 399.824C557.142 396.456 556.871 393.093 556.318 389.771C554.45 378.15 551.337 355.902 554.183 351.834C557.798 346.666 563.823 324.183 549.436 307.208L551.959 306.82C551.959 306.82 551.822 306.65 551.595 306.318L551.959 306.262C551.959 306.262 546.395 299.582 546.395 284.822C546.476 276.323 548.393 265.219 554.183 251.236C554.949 249.381 555.65 247.545 556.286 245.728C558.981 244.389 561.439 242.619 563.565 240.488L563.823 240.221L564.123 239.938C569.436 234.6 572.655 227.516 574.895 220.326C576.951 213.718 578.267 206.902 578.817 200.003C579.416 192.506 579.1 184.976 578.817 177.463C578.453 168.697 578.008 159.671 574.499 151.673C573.116 148.543 571.264 145.583 570.414 142.267C569.943 139.991 569.616 137.687 569.436 135.369C568.279 126.287 563.977 117.48 556.925 111.649C549.873 105.818 540.014 103.222 531.191 105.664C526.145 107.063 521.64 109.959 517.443 113.129C515.644 114.484 513.947 115.968 512.364 117.569C507.293 122.542 503.468 129.061 507.139 135.911C507.409 136.407 507.697 136.892 508.005 137.366C506.066 140.46 504.828 143.941 504.378 147.564C503.928 151.187 504.277 154.864 505.4 158.338C506.523 161.812 508.393 164.998 510.878 167.672C513.364 170.346 516.405 172.443 519.788 173.816L520.443 174.964H520.516C522.432 178.507 524.519 182.93 525.069 186.287C522.668 187.997 520.494 190.005 518.599 192.263C512.056 200.067 508.474 205.365 506.517 208.818C504.666 212.018 502.519 215.037 500.103 217.835C497.135 221.345 493.634 228.195 493.634 240.941C493.634 241.873 493.634 242.841 493.634 243.844C477.968 260.9 416.877 248.397 416.877 248.397C409.518 245.534 400.953 248.987 396.942 251.017C396.614 251.179 396.327 251.412 396.102 251.699C395.877 251.987 395.719 252.321 395.642 252.678C395.564 253.035 395.568 253.405 395.653 253.76C395.738 254.115 395.902 254.447 396.133 254.729C402.603 262.526 418.519 257.851 418.519 257.851C418.519 257.851 475.761 267.855 480.209 271.187C483.233 273.46 488.579 271.608 491.685 270.192L491.046 270.912L491.854 270.516L487.455 310.087H487.52L487.455 310.645C487.455 310.645 488.474 310.556 490.099 310.443L491.458 313.961H491.345L492.752 317.293L493.909 320.034C490.455 332.521 476.537 383.924 478.001 395.659C478.001 395.659 469.105 416.775 472.445 428.453C472.445 428.453 460.217 516.265 452.437 520.713L453.529 521.206C445.223 525.953 427.132 534.882 414.645 530.717C414.645 530.717 406.865 532.941 419.093 540.721C419.093 540.721 469.113 554.057 475.785 549.617L474.677 530.393L475.243 530.596C475.324 529.512 476.052 521.562 479.125 517.939C479.125 517.939 499.133 463.471 498.025 435.683L516.699 390.556C518.72 395.732 520.864 400.123 523.031 402.897L530.811 422.905L543.597 439.581C543.597 439.581 583.613 502.937 580.799 521.837L581.737 522.072C577.992 528.735 568.676 542.395 555.227 542.395C555.227 542.395 543.557 554.623 565.231 552.957C565.231 552.957 592.46 551.291 612.468 540.171L605.263 521.222Z" fill="url(#paint0_linear)"/>
<path d="M463.443 516.087C463.443 516.087 437.718 533.24 421.64 527.878C421.64 527.878 414.135 530.021 425.926 537.526C425.926 537.526 474.167 550.393 480.597 546.099L478.979 518.23L463.443 516.087Z" fill="#FEFEFE"/>
<path d="M584.575 516.087C584.575 516.087 574.393 539.136 557.24 539.136C557.24 539.136 545.983 550.927 566.888 549.318C566.888 549.318 593.148 547.7 612.444 536.993L603.217 512.941L584.575 516.087Z" fill="#FEFEFE"/>
<path d="M492.922 311.608L496.966 322.064L523.209 320.188L520.524 302.501L492.922 311.608Z" fill="#FDB797"/>
<path d="M498.818 322.064C498.818 322.064 481.131 384.806 482.74 397.64C482.74 397.64 474.168 418.004 477.378 429.262C477.378 429.262 465.587 513.944 458.082 518.222C458.082 518.222 479.918 528.105 480.589 527.87C488.094 525.193 480.055 527.87 480.055 527.87C480.055 527.87 480.589 519.298 483.808 515.545C483.808 515.545 503.104 463.018 502.028 436.225L527.754 374.05L498.818 322.064Z" fill="#6572FF"/>
<path opacity="0.1" d="M498.818 322.064C498.818 322.064 481.131 384.806 482.74 397.64C482.74 397.64 474.168 418.004 477.378 429.262C477.378 429.262 465.587 513.944 458.082 518.222C458.082 518.222 479.918 528.105 480.589 527.87C488.094 525.193 480.055 527.87 480.055 527.87C480.055 527.87 480.589 519.298 483.808 515.545C483.808 515.545 503.104 463.018 502.028 436.225L527.754 374.05L498.818 322.064Z" fill="black"/>
<path d="M495.607 318.846L507.398 346.714C507.398 346.714 516.513 392.27 526.161 404.595L533.666 423.892L545.999 439.977C545.999 439.977 584.592 501.077 581.907 519.298C581.907 519.298 606.023 525.767 605.489 517.68C605.489 517.68 599.594 506.423 599.594 500.527C599.594 500.527 581.373 436.75 569.04 429.779C569.04 429.779 558.914 411.72 559.011 401.563C559.017 398.311 558.746 395.064 558.203 391.858C556.399 380.649 553.399 359.201 556.148 355.279C559.901 349.917 566.33 325.267 548.11 308.647L495.607 318.846Z" fill="#6572FF"/>
<path opacity="0.1" d="M605.473 517.696C605.473 517.696 599.577 506.439 599.577 500.543C599.577 500.543 581.356 436.767 569.023 429.795C569.023 429.795 558.898 411.736 558.995 401.579C559.001 398.327 558.73 395.08 558.186 391.874C556.383 380.665 553.382 359.217 556.132 355.295C559.885 349.933 566.314 325.283 548.093 308.664L544.988 309.27C562.408 325.873 556.092 349.998 552.388 355.295C548.684 360.592 555.623 398.708 555.623 398.708C552.946 407.822 565.271 429.795 565.271 429.795C577.596 436.767 595.825 500.543 595.825 500.543C595.825 506.439 601.72 517.696 601.72 517.696C601.898 520.349 599.383 521.425 595.938 521.675C601.13 521.974 605.715 521.247 605.473 517.696Z" fill="black"/>
<path d="M520.257 178.96C520.257 178.96 530.439 194.503 527.762 199.323L554.021 192.854C554.021 192.854 547.05 185.349 548.659 167.128L520.257 178.96Z" fill="#FDB797"/>
<path opacity="0.1" d="M557.774 190.217C557.774 190.217 535.8 185.365 521.866 202.008C515.558 209.53 512.105 214.641 510.212 217.973C508.429 221.058 506.36 223.968 504.033 226.667C500.548 230.783 496.278 239.655 498.283 257.746L491.813 315.627C491.813 315.627 510.576 314.009 515.396 315.627C520.216 317.244 553.989 311.874 553.989 311.874C553.989 311.874 540.588 295.797 556.132 258.28C571.676 220.763 557.774 190.217 557.774 190.217Z" fill="black"/>
<path d="M557.774 189.683C557.774 189.683 535.8 184.831 521.866 201.475C515.558 208.996 512.105 214.107 510.212 217.439C508.429 220.524 506.36 223.435 504.033 226.133C500.548 230.249 496.278 239.121 498.283 257.212L491.813 315.093C491.813 315.093 510.576 313.476 515.396 315.093C520.216 316.711 553.989 311.341 553.989 311.341C553.989 311.341 540.588 295.263 556.132 257.746C571.676 220.229 557.774 189.683 557.774 189.683Z" fill="#3A1070"/>
<path opacity="0.1" d="M531.247 239.234C531.247 239.234 510.342 269.27 500.71 274.632L495.348 277.309C495.348 277.309 529.104 239.234 531.247 239.234Z" fill="black"/>
<path d="M511.684 223.981C511.684 223.981 525.433 218.571 531.328 236.509C531.568 237.237 531.609 238.016 531.447 238.765C531.285 239.515 530.926 240.207 530.406 240.771L498.283 275.433C498.283 275.433 489.169 280.795 484.883 277.576C480.597 274.357 425.393 264.709 425.393 264.709C425.393 264.709 410.067 269.214 403.808 261.701C403.581 261.431 403.419 261.114 403.334 260.772C403.248 260.431 403.241 260.075 403.314 259.73C403.386 259.386 403.536 259.063 403.752 258.785C403.968 258.507 404.244 258.282 404.56 258.126C407.552 256.614 412.542 257.487 418.429 256.759C422.949 256.22 427.523 256.315 432.016 257.042C450.399 259.921 493.706 264.677 500.427 247.022C508.999 224.523 511.684 223.981 511.684 223.981Z" fill="#FDB797"/>
<path opacity="0.1" d="M511.417 224.248C511.417 224.248 528.028 221.572 531.781 238.183V237.107C531.781 237.107 526.961 218.895 511.417 224.248Z" fill="black"/>
<path opacity="0.1" d="M549.233 168.244L520.79 180.035C520.79 180.035 522.076 181.992 523.604 184.734C526.378 185.85 530.212 185.13 533.382 185.13C539.852 185.13 544.583 183.424 548.926 179.234C548.529 176.016 548.804 172.684 549.233 168.244Z" fill="black"/>
<path d="M532.048 185.389C545.368 185.389 556.165 174.592 556.165 161.273C556.165 147.953 545.368 137.156 532.048 137.156C518.729 137.156 507.932 147.953 507.932 161.273C507.932 174.592 518.729 185.389 532.048 185.389Z" fill="#FDB797"/>
<path opacity="0.1" d="M532.088 158.013C532.614 159.873 531.069 161.596 529.953 163.173C526.047 168.697 526.767 176.218 528.554 182.736C529.428 185.931 530.738 189.327 533.593 191.001C535.873 192.336 538.68 192.279 541.235 192.951C545.837 194.156 549.557 197.803 551.749 202C553.94 206.198 554.725 211.042 554.984 215.797C555.765 229.552 552.459 243.23 545.481 255.11C552.638 256.331 560.038 253.072 565.174 247.92C570.309 242.768 573.398 235.943 575.558 229.012C577.542 222.64 578.811 216.068 579.343 209.416C579.917 202.186 579.617 194.924 579.343 187.678C578.995 179.226 578.59 170.549 575.178 162.809C573.843 159.785 572.064 156.938 571.239 153.735C570.784 151.541 570.468 149.321 570.293 147.087C569.177 138.329 565.028 129.837 558.227 124.208C551.425 118.58 541.923 116.121 533.415 118.442C528.562 119.793 524.211 122.583 520.184 125.64C513.666 130.597 506.185 138.58 510.786 147.071C514.79 154.503 523.637 159.34 532.088 158.013Z" fill="black"/>
<path d="M532.622 157.48C533.148 159.34 531.603 161.062 530.487 162.639C526.581 168.163 527.301 175.684 529.088 182.203C529.961 185.397 531.272 188.794 534.126 190.468C536.407 191.802 539.213 191.746 541.769 192.417C546.371 193.622 550.091 197.269 552.282 201.467C554.474 205.664 555.259 210.508 555.517 215.263C556.299 229.028 552.987 242.716 545.999 254.6C553.156 255.821 560.556 252.562 565.691 247.41C570.827 242.259 573.916 235.433 576.075 228.502C578.059 222.131 579.329 215.559 579.86 208.907C580.434 201.677 580.135 194.414 579.86 187.168C579.512 178.717 579.108 170.039 575.695 162.3C574.361 159.275 572.582 156.428 571.757 153.226C571.301 151.032 570.985 148.812 570.81 146.578C569.694 137.819 565.546 129.328 558.744 123.699C551.943 118.07 542.44 115.612 533.932 117.933C529.08 119.283 524.729 122.073 520.701 125.13C514.183 130.088 506.702 138.07 511.304 146.562C515.332 153.97 524.163 158.806 532.622 157.48Z" fill="#72351C"/>
<path opacity="0.1" d="M535 277.309C535 277.309 545.182 277.309 548.934 272.457Z" fill="black"/>
<path opacity="0.1" d="M535 281.062C535 281.062 545.182 281.062 548.934 276.209Z" fill="black"/>
<path opacity="0.1" d="M544.649 219.428C544.649 219.428 543.031 232.295 537.144 238.191Z" fill="black"/>
<g opacity="0.1">
<path opacity="0.1" d="M312.276 540.583V540.454L312.082 540.518L312.276 540.583Z" fill="url(#paint1_linear)"/>
</g>
<g opacity="0.1">
<path opacity="0.1" d="M311.71 540.583C311.834 540.586 311.958 540.564 312.073 540.519C310.828 540.082 304.528 538.012 311.71 540.583Z" fill="url(#paint2_linear)"/>
</g>
<path d="M392.138 256.671C388.046 254.673 379.311 251.26 371.806 254.083C371.806 254.083 299.829 268.349 290.755 245.3C290.33 244.221 289.917 243.184 289.518 242.186C289.7 240.676 289.778 239.154 289.753 237.633C289.784 235.762 289.651 233.892 289.356 232.045C288.882 229.341 287.843 226.767 286.307 224.491C284.522 221.498 283.061 218.324 281.948 215.021C280.202 210.261 277.466 205.926 273.921 202.301C270.376 198.677 266.102 195.845 261.382 193.994C261.52 190.549 263.954 185.462 266.162 181.507H266.235L266.906 180.375C271.552 178.605 275.557 175.475 278.396 171.393C281.236 167.311 282.778 162.468 282.822 157.496C282.821 152.705 281.388 148.024 278.705 144.055C286.316 142.834 283.711 136.364 279.005 130.816C278.092 129.741 277.117 128.72 276.085 127.759C271.489 123.233 265.704 120.103 259.401 118.733C258.649 118.572 257.889 118.45 257.128 118.345C252.601 116.786 247.778 116.277 243.025 116.859C238.272 117.44 233.714 119.096 229.696 121.701C228.716 118.919 226.89 116.513 224.474 114.821C222.058 113.129 219.173 112.234 216.223 112.264C208.394 112.264 202.054 118.402 202.054 126.012C202.054 133.622 208.394 139.76 216.223 139.76H217.032C216.508 141.924 216.236 144.141 216.223 146.368C216.223 160.213 226.033 171.843 239.296 175.094L239.53 175.312C239.53 175.539 239.49 175.773 239.458 176L239.514 176.048C239.009 180.121 237.724 184.058 235.729 187.645L235.228 187.524C224.771 194.803 220.986 205.842 221.075 217.342C221.019 227.111 223.72 237.334 227.545 245.648C228.95 248.972 229.644 252.553 229.583 256.161C229.381 268.615 223.647 283.561 219.749 292.311C218.204 295.781 195.81 349.933 195.81 349.933L196.32 349.804L195.81 351.033C200.711 349.658 205.968 350.289 210.432 351.494C213.506 352.301 216.709 352.488 219.856 352.044C223.002 351.599 226.028 350.533 228.758 348.906C229.358 351.507 230.388 353.989 231.807 356.25C234.71 360.293 231.54 382.226 229.632 393.702C229.073 396.982 228.802 400.305 228.823 403.633C228.928 414.041 218.22 432.529 218.22 432.529C205.184 439.662 185.912 504.959 185.912 504.959C185.912 508.453 183.825 513.774 182.07 517.648C180.792 520.47 179.644 522.5 179.644 522.5C179.627 522.699 179.627 522.9 179.644 523.099C179.644 523.099 179.644 523.155 179.644 523.18C179.658 523.283 179.676 523.385 179.701 523.487L172.26 542.258C192.665 553.232 220.436 554.882 220.436 554.882C242.539 556.499 230.643 544.457 230.643 544.457C216.894 544.457 207.432 530.968 203.607 524.393L204.569 524.158C201.738 505.501 242.579 442.945 242.579 442.945L255.616 426.48L263.55 406.642C265.758 403.908 267.949 399.573 270.02 394.462L289.057 438.991C287.925 466.431 308.329 520.203 308.329 520.203C311.491 523.778 312.203 531.631 312.284 532.698L312.858 532.504L311.726 551.485C318.527 555.877 369.542 542.702 369.542 542.702C382.013 535.019 374.079 532.828 374.079 532.828C361.35 536.936 342.894 528.121 334.451 523.438L335.559 522.953C327.625 518.562 315.155 431.866 315.155 431.866C318.56 420.341 309.494 399.517 309.494 399.517C310.529 391.51 304.011 364.62 298.754 344.782C305.502 344.724 312.23 344.037 318.851 342.728C318.43 342.461 318.042 342.178 317.613 341.919C318.422 341.765 318.851 341.668 318.851 341.668C301.334 330.467 291.354 292.635 287.043 271.203C288.122 272.119 289.283 272.931 290.513 273.63L296.174 276.371L295.527 275.668C298.689 277.067 304.14 278.903 307.229 276.646C311.766 273.355 370.14 263.48 370.14 263.48C370.14 263.48 386.315 268.098 392.971 260.399C393.219 260.12 393.397 259.786 393.491 259.425C393.584 259.064 393.591 258.685 393.509 258.321C393.428 257.957 393.261 257.617 393.023 257.33C392.784 257.043 392.481 256.817 392.138 256.671V256.671Z" fill="url(#paint3_linear)"/>
<path d="M248.791 180.836C264.776 180.836 277.735 167.877 277.735 151.891C277.735 135.906 264.776 122.947 248.791 122.947C232.805 122.947 219.846 135.906 219.846 151.891C219.846 167.877 232.805 180.836 248.791 180.836Z" fill="#815D03"/>
<path d="M270.497 180.569C270.497 180.569 260.315 196.113 262.992 200.933L236.732 194.463C236.732 194.463 243.704 186.958 242.094 168.737L270.497 180.569Z" fill="#FDB797"/>
<path opacity="0.1" d="M241.552 169.853L269.955 181.644C269.955 181.644 268.669 183.602 267.14 186.343C264.367 187.459 260.533 186.739 257.363 186.739C250.893 186.739 246.162 185.033 241.819 180.844C242.224 177.625 241.916 174.293 241.552 169.853Z" fill="black"/>
<path d="M258.705 186.998C272.024 186.998 282.822 176.201 282.822 162.882C282.822 149.563 272.024 138.766 258.705 138.766C245.386 138.766 234.589 149.563 234.589 162.882C234.589 176.201 245.386 186.998 258.705 186.998Z" fill="#FDB797"/>
<path d="M219.845 145.462C227.246 145.462 233.246 139.462 233.246 132.061C233.246 124.66 227.246 118.661 219.845 118.661C212.445 118.661 206.445 124.66 206.445 132.061C206.445 139.462 212.445 145.462 219.845 145.462Z" fill="#815D03"/>
<path opacity="0.1" d="M275.834 149.95C269.8 149.845 262.942 148.632 258.422 152.619C255.187 155.482 254.313 160.108 253.213 164.297C251.596 170.589 247.892 177.504 241.454 178.442C237.524 179.016 233.569 177.059 230.779 174.228C227.989 171.398 226.186 167.759 224.479 164.192C222.773 160.626 221.107 156.913 221.244 152.959C221.414 148.26 224.156 144.063 226.954 140.302C228.642 137.941 230.522 135.723 232.575 133.671C235.744 130.617 239.517 128.26 243.652 126.752C247.787 125.243 252.192 124.617 256.583 124.914C260.975 125.21 265.255 126.422 269.15 128.472C273.045 130.522 276.468 133.364 279.198 136.817C284.22 142.906 286.719 150.136 275.834 149.95Z" fill="black"/>
<path d="M275.3 149.417C269.267 149.312 262.409 148.098 257.888 152.085C254.653 154.948 253.78 159.574 252.68 163.764C251.062 170.055 247.358 176.97 240.921 177.908C236.99 178.482 233.036 176.525 230.246 173.695C227.455 170.864 225.652 167.225 223.946 163.658C222.239 160.092 220.573 156.38 220.711 152.425C220.88 147.726 223.622 143.529 226.42 139.768C228.108 137.407 229.988 135.189 232.041 133.137C235.21 130.083 238.984 127.726 243.119 126.218C247.253 124.71 251.658 124.084 256.05 124.38C260.441 124.676 264.722 125.888 268.616 127.938C272.511 129.988 275.934 132.831 278.664 136.283C283.678 142.373 286.185 149.603 275.3 149.417Z" fill="#815D03"/>
<path d="M327.31 517.696C327.31 517.696 353.036 534.849 369.113 529.488C369.113 529.488 376.618 531.631 364.827 539.136C364.827 539.136 316.586 552.003 310.157 547.708L311.774 519.839L327.31 517.696Z" fill="#FEFEFE"/>
<path d="M206.178 517.696C206.178 517.696 216.36 540.745 233.513 540.745C233.513 540.745 244.771 552.536 223.865 550.927C223.865 550.927 197.605 549.31 178.309 538.602L187.537 514.55L206.178 517.696Z" fill="#FEFEFE"/>
<path d="M291.936 323.674C291.936 323.674 309.623 386.383 308.013 399.241C308.013 399.241 316.586 419.605 313.375 430.863C313.375 430.863 325.167 515.545 332.672 519.823C332.672 519.823 310.836 529.706 310.165 529.471C302.66 526.794 310.698 529.471 310.698 529.471C310.698 529.471 310.165 520.899 306.946 517.146C306.946 517.146 287.65 464.619 288.725 437.826L263 375.651L291.936 323.674Z" fill="#1B2683"/>
<path opacity="0.1" d="M291.936 323.674C291.936 323.674 309.623 386.383 308.013 399.241C308.013 399.241 316.586 419.605 313.375 430.863C313.375 430.863 325.167 515.545 332.672 519.823C332.672 519.823 310.836 529.706 310.165 529.471C302.66 526.794 310.698 529.471 310.698 529.471C310.698 529.471 310.165 520.899 306.946 517.146C306.946 517.146 287.65 464.619 288.725 437.826L263 375.651L291.936 323.674Z" fill="black"/>
<path d="M295.155 320.455L283.364 348.324C283.364 348.324 274.249 393.88 264.601 406.205L257.096 425.501L244.771 441.579C244.771 441.579 206.178 502.678 208.863 520.899C208.863 520.899 184.747 527.369 185.281 519.281C185.281 519.281 191.176 508.024 191.176 502.128C191.176 502.128 209.397 438.352 221.73 431.38C221.73 431.38 231.855 413.322 231.758 403.164C231.753 399.912 232.024 396.665 232.567 393.459C234.371 382.25 237.371 360.803 234.621 356.88C230.869 351.518 224.439 326.868 242.66 310.249L295.155 320.455Z" fill="#1B2683"/>
<path opacity="0.1" d="M185.305 519.298C185.305 519.298 191.2 508.04 191.2 502.144C191.2 502.144 209.421 438.368 221.754 431.397C221.754 431.397 231.879 413.338 231.782 403.18C231.777 399.928 232.047 396.682 232.591 393.475C234.395 382.266 237.395 360.819 234.645 356.896C230.893 351.535 224.463 326.884 242.684 310.265L245.79 310.872C228.313 327.483 234.637 351.648 238.341 356.905C242.045 362.161 235.106 400.317 235.106 400.317C237.783 409.432 225.458 431.405 225.458 431.405C213.133 438.376 194.904 502.153 194.904 502.153C194.904 508.048 189.009 519.306 189.009 519.306C188.831 521.958 191.346 523.034 194.791 523.285C189.623 523.584 185.038 522.856 185.305 519.298Z" fill="black"/>
<path opacity="0.1" d="M237.824 193.137L257.743 198.038C263.303 199.412 268.433 202.151 272.669 206.005C276.905 209.86 280.113 214.71 282.005 220.116C283.051 223.335 284.431 226.435 286.121 229.368C287.577 231.605 288.557 234.119 289 236.751C289.809 242 289.744 250.5 284.245 260.14C284.245 260.14 293.311 328.211 316.853 343.755C316.853 343.755 293.877 349.044 273.74 342.501C260.242 338.118 245.434 339.962 233.869 348.243L233.368 348.607C230.69 350.607 227.594 351.975 224.312 352.607C221.03 353.239 217.648 353.118 214.419 352.254C210.198 351.082 205.224 350.467 200.59 351.81C200.59 351.81 221.77 298.927 223.234 295.53C228.168 284.054 236.255 261.668 230.594 248.939C222.725 231.22 219.846 204.96 237.824 193.137Z" fill="black"/>
<path d="M237.824 192.093L257.743 196.994C263.303 198.369 268.433 201.107 272.669 204.962C276.905 208.817 280.113 213.667 282.005 219.073C283.051 222.291 284.431 225.392 286.121 228.325C287.577 230.562 288.557 233.075 289 235.708C289.809 240.957 289.744 249.457 284.245 259.097C284.245 259.097 293.311 327.168 316.853 342.711C316.853 342.711 293.877 348 273.74 341.458C260.242 337.075 245.434 338.918 233.869 347.2L233.368 347.564C230.688 349.56 227.591 350.923 224.309 351.551C221.027 352.178 217.646 352.054 214.419 351.187C210.198 350.014 205.224 349.4 200.59 350.742C200.59 350.742 221.77 297.859 223.234 294.463C228.168 282.979 236.255 260.593 230.594 247.831C222.725 230.144 219.846 204.96 237.824 192.093Z" fill="#6C63FF"/>
<path opacity="0.1" d="M259.514 240.852C259.514 240.852 280.419 270.864 290.068 276.225L295.429 278.902C295.429 278.902 261.657 240.852 259.514 240.852Z" fill="black"/>
<path d="M279.069 225.591C279.069 225.591 265.321 220.181 259.425 238.118C259.185 238.846 259.144 239.625 259.306 240.375C259.468 241.124 259.828 241.816 260.347 242.38L292.47 277.05C292.47 277.05 301.584 282.412 305.871 279.194C310.157 275.975 365.361 266.327 365.361 266.327C365.361 266.327 380.581 270.799 386.881 263.391C387.115 263.12 387.284 262.801 387.377 262.456C387.47 262.111 387.484 261.749 387.418 261.398C387.352 261.046 387.208 260.715 386.996 260.427C386.784 260.139 386.51 259.903 386.194 259.736C382.87 258.061 376.788 258.118 370.246 257.56C367.983 257.365 365.704 257.468 363.468 257.867C349.477 260.35 297.719 268.065 290.327 248.64C281.754 226.125 279.069 225.591 279.069 225.591Z" fill="#FDB797"/>
<path opacity="0.1" d="M279.344 225.858C279.344 225.858 262.732 223.181 258.98 239.792V238.717C258.98 238.717 263.8 220.496 279.344 225.858Z" fill="black"/>
<path opacity="0.5" d="M452.995 200.666C452.995 212.432 449.506 223.934 442.969 233.717C436.432 243.5 427.141 251.125 416.271 255.628C405.4 260.13 393.439 261.308 381.899 259.013C370.359 256.718 359.759 251.052 351.439 242.732C343.119 234.412 337.453 223.812 335.158 212.272C332.862 200.732 334.04 188.77 338.543 177.9C343.046 167.03 350.671 157.738 360.454 151.202C370.237 144.665 381.739 141.176 393.505 141.176C409.283 141.176 424.414 147.443 435.571 158.6C446.727 169.757 452.995 184.888 452.995 200.666V200.666ZM419.028 192.19C420.209 184.273 414.176 180.019 405.943 177.18L408.604 166.448L402.045 164.831L399.441 175.272C397.726 174.843 395.963 174.463 394.208 174.042L396.829 163.529L390.302 161.912L387.625 172.627C386.202 172.304 384.811 171.98 383.46 171.649L374.459 169.4L372.72 176.372C372.72 176.372 377.573 177.48 377.46 177.552C380.104 178.216 380.581 179.979 380.5 181.345L377.452 193.565C377.683 193.623 377.91 193.696 378.131 193.784L377.444 193.614L373.173 210.726C373.08 211.025 372.928 211.303 372.726 211.543C372.525 211.783 372.278 211.981 372 212.125C371.722 212.269 371.418 212.357 371.106 212.384C370.794 212.41 370.479 212.375 370.181 212.279C370.246 212.376 365.434 211.099 365.434 211.099L362.199 218.571L370.691 220.69C372.308 221.086 373.82 221.499 375.341 221.887L372.64 232.732L379.158 234.35L381.835 223.618C383.566 224.087 385.299 224.537 387.035 224.968L384.366 235.652L390.893 237.269L393.594 226.44C404.722 228.543 413.1 227.694 416.618 217.633C419.457 209.546 416.481 204.855 410.618 201.806C414.88 200.82 418.098 198.021 418.956 192.223L419.028 192.19ZM404.115 213.104C402.102 221.191 388.45 216.824 384.027 215.733L387.609 201.361C392.017 202.469 406.21 204.653 404.099 213.104H404.115ZM406.137 192.077C404.293 199.453 392.939 195.7 389.251 194.786L392.486 181.758C396.166 182.672 408.038 184.386 406.089 192.077H406.137Z" fill="#39374D"/>
<path d="M386.63 514.203C386.63 514.203 373.885 470.936 389.057 439.088C395.486 425.774 397.424 410.734 394.58 396.225C393.175 389.346 391.141 382.611 388.507 376.104" stroke="#535461" stroke-width="2" stroke-miterlimit="10"/>
<path d="M397.896 355.958C397.896 361.264 388.296 376.638 388.296 376.638C388.296 376.638 378.696 361.272 378.696 355.958C378.696 354.697 378.945 353.448 379.427 352.283C379.91 351.118 380.617 350.059 381.509 349.167C382.401 348.276 383.46 347.568 384.625 347.086C385.79 346.603 387.039 346.355 388.3 346.355C389.561 346.355 390.81 346.603 391.975 347.086C393.14 347.568 394.199 348.276 395.091 349.167C395.983 350.059 396.69 351.118 397.173 352.283C397.655 353.448 397.904 354.697 397.904 355.958H397.896Z" fill="#6C63FF"/>
<path d="M413.763 385.331C410.884 389.779 394.467 397.462 394.467 397.462C394.467 397.462 394.766 379.339 397.645 374.883C398.331 373.824 399.218 372.911 400.256 372.196C401.295 371.48 402.464 370.977 403.697 370.713C404.93 370.449 406.203 370.431 407.443 370.66C408.683 370.888 409.866 371.358 410.924 372.044C411.983 372.729 412.896 373.617 413.611 374.655C414.327 375.693 414.83 376.863 415.094 378.096C415.358 379.329 415.376 380.602 415.147 381.842C414.919 383.082 414.449 384.265 413.763 385.323V385.331Z" fill="#6C63FF"/>
<path d="M413.067 435.529C408.336 437.955 390.277 436.265 390.277 436.265C390.277 436.265 399.683 420.77 404.422 418.376C405.548 417.808 406.774 417.468 408.032 417.374C409.289 417.281 410.552 417.436 411.75 417.83C412.947 418.225 414.055 418.852 415.01 419.675C415.966 420.497 416.75 421.5 417.317 422.626C417.885 423.752 418.225 424.978 418.319 426.236C418.413 427.493 418.258 428.756 417.863 429.954C417.468 431.151 416.842 432.259 416.019 433.214C415.196 434.17 414.193 434.954 413.067 435.521V435.529Z" fill="#6C63FF"/>
<path d="M403.993 473.394C399.731 476.548 381.656 477.971 381.656 477.971C381.656 477.971 388.312 461.109 392.574 457.955C393.588 457.206 394.739 456.663 395.963 456.358C397.186 456.053 398.458 455.992 399.705 456.179C400.952 456.366 402.15 456.796 403.231 457.446C404.311 458.095 405.253 458.951 406.003 459.965C406.753 460.979 407.296 462.13 407.6 463.354C407.905 464.577 407.966 465.849 407.779 467.096C407.593 468.343 407.162 469.541 406.513 470.621C405.863 471.702 405.007 472.644 403.993 473.394V473.394Z" fill="#6C63FF"/>
<path d="M374.304 398.506C378.105 402.201 395.833 406.027 395.833 406.027C395.833 406.027 391.49 388.421 387.689 384.733C386.797 383.802 385.728 383.061 384.543 382.552C383.359 382.044 382.084 381.779 380.796 381.774C379.507 381.769 378.23 382.023 377.042 382.522C375.853 383.021 374.778 383.754 373.878 384.677C372.979 385.601 372.276 386.696 371.809 387.897C371.342 389.099 371.122 390.382 371.162 391.67C371.202 392.958 371.5 394.225 372.04 395.395C372.58 396.565 373.35 397.615 374.304 398.481V398.506Z" fill="#6C63FF"/>
<path d="M364.253 442.913C368.984 445.339 387.043 443.649 387.043 443.649C387.043 443.649 377.629 428.154 372.931 425.768C371.805 425.2 370.578 424.86 369.321 424.766C368.064 424.673 366.8 424.828 365.603 425.222C364.406 425.617 363.298 426.243 362.342 427.066C361.387 427.889 360.603 428.892 360.036 430.018C359.468 431.144 359.127 432.37 359.034 433.627C358.94 434.885 359.095 436.148 359.49 437.346C359.884 438.543 360.511 439.651 361.334 440.606C362.157 441.562 363.16 442.345 364.285 442.913H364.253Z" fill="#6C63FF"/>
<path d="M360.404 487.426C364.666 490.58 382.741 492.003 382.741 492.003C382.741 492.003 376.085 475.141 371.823 471.987C369.776 470.473 367.211 469.834 364.692 470.21C362.174 470.587 359.908 471.949 358.394 473.997C356.88 476.044 356.241 478.609 356.618 481.127C356.994 483.646 358.356 485.911 360.404 487.426V487.426Z" fill="#6C63FF"/>
<path opacity="0.5" d="M397.896 355.958C397.896 361.264 388.296 376.638 388.296 376.638C388.296 376.638 378.696 361.272 378.696 355.958C378.696 354.697 378.945 353.448 379.427 352.283C379.91 351.118 380.617 350.059 381.509 349.167C382.401 348.276 383.46 347.568 384.625 347.086C385.79 346.603 387.039 346.355 388.3 346.355C389.561 346.355 390.81 346.603 391.975 347.086C393.14 347.568 394.199 348.276 395.091 349.167C395.983 350.059 396.69 351.118 397.173 352.283C397.655 353.448 397.904 354.697 397.904 355.958H397.896Z" fill="white"/>
<path opacity="0.5" d="M413.763 385.331C410.884 389.779 394.467 397.462 394.467 397.462C394.467 397.462 394.766 379.339 397.645 374.883C398.331 373.824 399.218 372.911 400.256 372.196C401.295 371.48 402.464 370.977 403.697 370.713C404.93 370.449 406.203 370.431 407.443 370.66C408.683 370.888 409.866 371.358 410.924 372.044C411.983 372.729 412.896 373.617 413.611 374.655C414.327 375.693 414.83 376.863 415.094 378.096C415.358 379.329 415.376 380.602 415.147 381.842C414.919 383.082 414.449 384.265 413.763 385.323V385.331Z" fill="white"/>
<path opacity="0.5" d="M413.067 435.529C408.336 437.955 390.277 436.265 390.277 436.265C390.277 436.265 399.683 420.77 404.422 418.376C405.548 417.808 406.774 417.468 408.032 417.374C409.289 417.281 410.552 417.436 411.75 417.83C412.947 418.225 414.055 418.852 415.01 419.675C415.966 420.497 416.75 421.5 417.317 422.626C417.885 423.752 418.225 424.978 418.319 426.236C418.413 427.493 418.258 428.756 417.863 429.954C417.468 431.151 416.842 432.259 416.019 433.214C415.196 434.17 414.193 434.954 413.067 435.521V435.529Z" fill="white"/>
<path opacity="0.5" d="M403.993 473.394C399.731 476.548 381.656 477.971 381.656 477.971C381.656 477.971 388.312 461.109 392.574 457.955C393.588 457.206 394.739 456.663 395.963 456.358C397.186 456.053 398.458 455.992 399.705 456.179C400.952 456.366 402.15 456.796 403.231 457.446C404.311 458.095 405.253 458.951 406.003 459.965C406.753 460.979 407.296 462.13 407.6 463.354C407.905 464.577 407.966 465.849 407.779 467.096C407.593 468.343 407.162 469.541 406.513 470.621C405.863 471.702 405.007 472.644 403.993 473.394V473.394Z" fill="white"/>
<path opacity="0.5" d="M374.304 398.506C378.105 402.201 395.833 406.027 395.833 406.027C395.833 406.027 391.49 388.421 387.689 384.733C386.797 383.802 385.728 383.061 384.543 382.552C383.359 382.044 382.084 381.779 380.796 381.774C379.507 381.769 378.23 382.023 377.042 382.522C375.853 383.021 374.778 383.754 373.878 384.677C372.979 385.601 372.276 386.696 371.809 387.897C371.342 389.099 371.122 390.382 371.162 391.67C371.202 392.958 371.5 394.225 372.04 395.395C372.58 396.565 373.35 397.615 374.304 398.481V398.506Z" fill="white"/>
<path opacity="0.5" d="M364.253 442.913C368.984 445.339 387.043 443.649 387.043 443.649C387.043 443.649 377.629 428.154 372.931 425.768C371.805 425.2 370.578 424.86 369.321 424.766C368.064 424.673 366.8 424.828 365.603 425.222C364.406 425.617 363.298 426.243 362.342 427.066C361.387 427.889 360.603 428.892 360.036 430.018C359.468 431.144 359.127 432.37 359.034 433.627C358.94 434.885 359.095 436.148 359.49 437.346C359.884 438.543 360.511 439.651 361.334 440.606C362.157 441.562 363.16 442.345 364.285 442.913H364.253Z" fill="white"/>
<path opacity="0.5" d="M360.404 487.426C364.666 490.58 382.741 492.003 382.741 492.003C382.741 492.003 376.085 475.141 371.823 471.987C369.776 470.473 367.211 469.834 364.692 470.21C362.174 470.587 359.908 471.949 358.394 473.997C356.88 476.044 356.241 478.609 356.618 481.127C356.994 483.646 358.356 485.911 360.404 487.426V487.426Z" fill="white"/>
</g>
<defs>
<linearGradient id="paint0_linear" x1="504.107" y1="553.175" x2="504.107" y2="104.734" gradientUnits="userSpaceOnUse">
<stop stop-color="#808080" stop-opacity="0.25"/>
<stop offset="0.54" stop-color="#808080" stop-opacity="0.12"/>
<stop offset="1" stop-color="#808080" stop-opacity="0.1"/>
</linearGradient>
<linearGradient id="paint1_linear" x1="411.726" y1="634.835" x2="411.726" y2="634.814" gradientUnits="userSpaceOnUse">
<stop stop-color="#808080" stop-opacity="0.25"/>
<stop offset="0.54" stop-color="#808080" stop-opacity="0.12"/>
<stop offset="1" stop-color="#808080" stop-opacity="0.1"/>
</linearGradient>
<linearGradient id="paint2_linear" x1="2227.33" y1="1465.77" x2="2227.33" y2="1463.8" gradientUnits="userSpaceOnUse">
<stop stop-color="#808080" stop-opacity="0.25"/>
<stop offset="0.54" stop-color="#808080" stop-opacity="0.12"/>
<stop offset="1" stop-color="#808080" stop-opacity="0.1"/>
</linearGradient>
<linearGradient id="paint3_linear" x1="106105" y1="331914" x2="106105" y2="89533.8" gradientUnits="userSpaceOnUse">
<stop stop-color="#808080" stop-opacity="0.25"/>
<stop offset="0.54" stop-color="#808080" stop-opacity="0.12"/>
<stop offset="1" stop-color="#808080" stop-opacity="0.1"/>
</linearGradient>
<clipPath id="clip0">
<rect width="797" height="589" fill="white"/>
</clipPath>
</defs>
</svg>
