<svg xmlns="http://www.w3.org/2000/svg" viewBox="0 0 764 589" width="765" height="590">
	<defs>
		<clipPath clipPathUnits="userSpaceOnUse" id="cp1">
			<path d="M-11 0L786 0L786 589L-11 589L-11 0Z" />
		</clipPath>
		<linearGradient id="grd1" gradientUnits="userSpaceOnUse"  x1="493.107" y1="553.175" x2="493.107" y2="104.734">
			<stop offset="0" stop-color="#808080" stop-opacity="0.25" />
			<stop offset="0.54" stop-color="#808080" stop-opacity="0.12" />
			<stop offset="1" stop-color="#808080" stop-opacity="0.1" />
		</linearGradient>
		<linearGradient id="grd2" gradientUnits="userSpaceOnUse"  x1="400.726" y1="634.835" x2="400.726" y2="634.814">
			<stop offset="0" stop-color="#808080" stop-opacity="0.25" />
			<stop offset="0.54" stop-color="#808080" stop-opacity="0.12" />
			<stop offset="1" stop-color="#808080" stop-opacity="0.1" />
		</linearGradient>
		<linearGradient id="grd3" gradientUnits="userSpaceOnUse"  x1="2216.33" y1="1465.77" x2="2216.33" y2="1463.8">
			<stop offset="0" stop-color="#808080" stop-opacity="0.25" />
			<stop offset="0.54" stop-color="#808080" stop-opacity="0.12" />
			<stop offset="1" stop-color="#808080" stop-opacity="0.1" />
		</linearGradient>
		<linearGradient id="grd4" gradientUnits="userSpaceOnUse"  x1="106094" y1="331914" x2="106094" y2="89533.8">
			<stop offset="0" stop-color="#808080" stop-opacity="0.25" />
			<stop offset="0.54" stop-color="#808080" stop-opacity="0.12" />
			<stop offset="1" stop-color="#808080" stop-opacity="0.1" />
		</linearGradient>
	</defs>
	<style>
		tspan { white-space:pre }
		.shp0 { fill: #cfcdea } 
		.shp1 { fill: none;stroke: #535461;stroke-width: 2 } 
		.shp2 { fill: #6c63ff } 
		.shp3 { opacity: 0.251;fill: #000000 } 
		.shp4 { fill: url(#grd1) } 
		.shp5 { fill: #fefefe } 
		.shp6 { fill: #fdb797 } 
		.shp7 { fill: #6572ff } 
		.shp8 { opacity: 0.102;fill: #000000 } 
		.shp9 { fill: #3a1070 } 
		.shp10 { fill: #72351c } 
		.shp11 { opacity: 0.102;fill: url(#grd2) } 
		.shp12 { opacity: 0.102;fill: url(#grd3) } 
		.shp13 { fill: url(#grd4) } 
		.shp14 { fill: #815d03 } 
		.shp15 { fill: #1b2683 } 
		.shp16 { opacity: 0.502;fill: #39374d } 
		.shp17 { opacity: 0.502;fill: #ffffff } 
	</style>
	<g id="Clip-Path" clip-path="url(#cp1)">
		<g id="Layer">
			<path id="Layer" class="shp0" d="M177.26 74.7C167.43 79.82 157.58 86.26 152.57 96.15C148.9 103.43 148.22 111.78 147.62 119.9L140.34 216.83C138.72 238.43 136.95 260.63 127.52 280.14C111.27 313.74 75.9 332.92 49.34 359.14C5.82 402.1 -12.86 474.53 19.82 526.23C34.24 548.83 56.51 565.28 82.34 572.43C97.5 576.56 113.33 577.28 129.02 577.99C260.44 583.69 391.95 585.97 523.55 584.85C539.17 584.71 555.23 584.44 569.64 578.5C589.56 570.31 603.88 552.28 613.74 533.13C623.6 513.98 629.91 493.18 639.24 473.77C658.32 434.15 689.38 401.85 716.44 367.21C731.36 348.12 745.33 327.89 753.7 305.17C767.02 269.05 764.7 226.57 743.88 194.18C734.88 180.18 722.64 168.06 716.52 152.59C707.97 130.95 712.74 106.72 714.78 83.55C716.82 60.38 714.59 33.93 696.75 18.99C686.91 10.75 673.87 7.5 661.17 5.64C600.35 -3.26 539.25 14.35 478.94 26.22C425.71 36.74 371.76 42.75 317.77 47.55C269.84 51.82 221 51.93 177.26 74.7Z" />
			<path id="Layer" class="shp1" d="M156.67 526.63C156.67 526.63 133.13 446.71 161.08 387.88C172.82 363.19 176.72 335.47 171.29 308.68C168.7 295.96 164.94 283.51 160.08 271.48" />
			<path id="Layer" class="shp2" d="M177.47 234.34C177.47 244.13 159.73 272.54 159.73 272.54C159.73 272.54 142 244.13 142 234.34C142 229.64 143.87 225.13 147.19 221.8C150.52 218.47 155.03 216.61 159.73 216.61C164.44 216.61 168.95 218.47 172.27 221.8C175.6 225.13 177.47 229.64 177.47 234.34L177.47 234.34Z" />
			<path id="Layer" class="shp2" d="M206.78 288.57C201.46 296.79 171.13 310.99 171.13 310.99C171.13 310.99 171.68 277.51 177.01 269.29C178.27 267.33 179.91 265.64 181.83 264.32C183.75 263 185.91 262.07 188.18 261.58C190.46 261.1 192.81 261.06 195.1 261.48C197.39 261.9 199.58 262.77 201.53 264.04C203.49 265.3 205.18 266.94 206.5 268.86C207.82 270.78 208.75 272.94 209.24 275.21C209.73 277.49 209.76 279.84 209.34 282.13C208.92 284.43 208.05 286.61 206.78 288.57Z" />
			<path id="Layer" class="shp2" d="M205.51 381.31C196.76 385.72 163.45 382.68 163.45 382.68C163.45 382.68 180.78 354.07 189.53 349.64C193.73 347.57 198.57 347.24 203.01 348.72C207.44 350.2 211.12 353.38 213.22 357.56C215.33 361.73 215.7 366.57 214.26 371.02C212.81 375.47 209.66 379.17 205.51 381.31L205.51 381.31Z" />
			<path id="Layer" class="shp2" d="M188.74 451.24C180.86 457.07 147.5 459.7 147.5 459.7C147.5 459.7 159.79 428.55 167.66 422.73C169.53 421.31 171.66 420.28 173.93 419.69C176.2 419.1 178.57 418.97 180.89 419.31C183.22 419.64 185.45 420.43 187.46 421.63C189.48 422.84 191.23 424.43 192.63 426.31C194.03 428.2 195.03 430.35 195.59 432.63C196.15 434.9 196.26 437.27 195.9 439.59C195.53 441.91 194.72 444.13 193.49 446.13C192.26 448.13 190.65 449.87 188.75 451.24L188.74 451.24Z" />
			<path id="Layer" class="shp2" d="M133.87 312.92C140.9 319.74 173.63 326.81 173.63 326.81C173.63 326.81 165.61 294.3 158.58 287.48C155.2 284.23 150.68 282.45 145.99 282.53C141.3 282.61 136.84 284.54 133.57 287.9C130.31 291.27 128.5 295.79 128.56 300.47C128.61 305.16 130.52 309.63 133.87 312.92L133.87 312.92Z" />
			<path id="Layer" class="shp2" d="M115.32 394.95C124.07 399.36 157.38 396.32 157.38 396.32C157.38 396.32 140 367.69 131.26 363.29C129.18 362.21 126.9 361.56 124.57 361.38C122.23 361.19 119.89 361.46 117.66 362.19C115.43 362.91 113.37 364.07 111.59 365.59C109.82 367.12 108.36 368.98 107.3 371.07C106.25 373.16 105.62 375.44 105.45 377.77C105.28 380.11 105.58 382.45 106.32 384.67C107.06 386.89 108.23 388.95 109.77 390.71C111.31 392.48 113.19 393.92 115.28 394.95L115.32 394.95Z" />
			<path id="Layer" class="shp2" d="M108.22 477.17C116.09 482.99 149.46 485.63 149.46 485.63C149.46 485.63 137.17 454.48 129.3 448.65C125.51 445.92 120.81 444.79 116.19 445.51C111.58 446.23 107.44 448.74 104.66 452.49C101.89 456.24 100.7 460.94 101.36 465.56C102.03 470.18 104.49 474.35 108.21 477.17L108.22 477.17Z" />
			<path id="Layer" class="shp3" d="M177.47 234.34C177.47 244.13 159.73 272.54 159.73 272.54C159.73 272.54 142 244.13 142 234.34C142 229.64 143.87 225.13 147.19 221.8C150.52 218.47 155.03 216.61 159.73 216.61C164.44 216.61 168.95 218.47 172.27 221.8C175.6 225.13 177.47 229.64 177.47 234.34L177.47 234.34Z" />
			<path id="Layer" class="shp3" d="M206.78 288.57C201.46 296.79 171.13 310.99 171.13 310.99C171.13 310.99 171.68 277.51 177.01 269.29C178.27 267.33 179.91 265.64 181.83 264.32C183.75 263 185.91 262.07 188.18 261.58C190.46 261.1 192.81 261.06 195.1 261.48C197.39 261.9 199.58 262.77 201.53 264.04C203.49 265.3 205.18 266.94 206.5 268.86C207.82 270.78 208.75 272.94 209.24 275.21C209.73 277.49 209.76 279.84 209.34 282.13C208.92 284.43 208.05 286.61 206.78 288.57Z" />
			<path id="Layer" class="shp3" d="M205.51 381.31C196.76 385.72 163.45 382.68 163.45 382.68C163.45 382.68 180.78 354.07 189.53 349.64C193.73 347.57 198.57 347.24 203.01 348.72C207.44 350.2 211.12 353.38 213.22 357.56C215.33 361.73 215.7 366.57 214.26 371.02C212.81 375.47 209.66 379.17 205.51 381.31L205.51 381.31Z" />
			<path id="Layer" class="shp3" d="M188.74 451.24C180.86 457.07 147.5 459.7 147.5 459.7C147.5 459.7 159.79 428.55 167.66 422.73C169.53 421.31 171.66 420.28 173.93 419.69C176.2 419.1 178.57 418.97 180.89 419.31C183.22 419.64 185.45 420.43 187.46 421.63C189.48 422.84 191.23 424.43 192.63 426.31C194.03 428.2 195.03 430.35 195.59 432.63C196.15 434.9 196.26 437.27 195.9 439.59C195.53 441.91 194.72 444.13 193.49 446.13C192.26 448.13 190.65 449.87 188.75 451.24L188.74 451.24Z" />
			<path id="Layer" class="shp3" d="M133.87 312.92C140.9 319.74 173.63 326.81 173.63 326.81C173.63 326.81 165.61 294.3 158.58 287.48C155.2 284.23 150.68 282.45 145.99 282.53C141.3 282.61 136.84 284.54 133.57 287.9C130.31 291.27 128.5 295.79 128.56 300.47C128.61 305.16 130.52 309.63 133.87 312.92L133.87 312.92Z" />
			<path id="Layer" class="shp3" d="M115.32 394.95C124.07 399.36 157.38 396.32 157.38 396.32C157.38 396.32 140 367.69 131.26 363.29C129.18 362.21 126.9 361.56 124.57 361.38C122.23 361.19 119.89 361.46 117.66 362.19C115.43 362.91 113.37 364.07 111.59 365.59C109.82 367.12 108.36 368.98 107.3 371.07C106.25 373.16 105.62 375.44 105.45 377.77C105.28 380.11 105.58 382.45 106.32 384.67C107.06 386.89 108.23 388.95 109.77 390.71C111.31 392.48 113.19 393.92 115.28 394.95L115.32 394.95Z" />
			<path id="Layer" class="shp3" d="M108.22 477.17C116.09 482.99 149.46 485.63 149.46 485.63C149.46 485.63 137.17 454.48 129.3 448.65C125.51 445.92 120.81 444.79 116.19 445.51C111.58 446.23 107.44 448.74 104.66 452.49C101.89 456.24 100.7 460.94 101.36 465.56C102.03 470.18 104.49 474.35 108.21 477.17L108.22 477.17Z" />
			<path id="Layer" class="shp1" d="M608.25 483.66C608.25 483.66 584.7 403.74 612.64 344.91C624.37 320.22 628.27 292.5 622.84 265.71C620.25 253 616.5 240.54 611.63 228.51" />
			<path id="Layer" class="shp2" d="M629.05 191.37C629.05 201.16 611.31 229.56 611.31 229.56C611.31 229.56 593.58 201.16 593.58 191.37C593.58 186.66 595.44 182.15 598.77 178.82C602.1 175.5 606.61 173.63 611.31 173.63C616.01 173.63 620.52 175.5 623.85 178.82C627.18 182.15 629.05 186.66 629.05 191.37L629.05 191.37Z" />
			<path id="Layer" class="shp2" d="M658.36 245.62C653.04 253.85 622.71 268.05 622.71 268.05C622.71 268.05 623.26 234.57 628.59 226.34C629.85 224.39 631.49 222.7 633.41 221.38C635.33 220.06 637.49 219.13 639.76 218.64C642.04 218.15 644.39 218.12 646.68 218.54C648.97 218.96 651.16 219.83 653.11 221.09C655.07 222.36 656.76 224 658.08 225.92C659.4 227.84 660.33 229.99 660.82 232.27C661.31 234.55 661.34 236.9 660.92 239.19C660.5 241.48 659.63 243.67 658.36 245.62L658.36 245.62Z" />
			<path id="Layer" class="shp2" d="M657.12 338.34C648.37 342.74 615.06 339.7 615.06 339.7C615.06 339.7 632.44 311.07 641.18 306.67C643.27 305.53 645.57 304.82 647.94 304.59C650.3 304.35 652.69 304.6 654.96 305.31C657.23 306.02 659.34 307.18 661.15 308.71C662.96 310.25 664.45 312.14 665.52 314.27C666.59 316.39 667.22 318.71 667.37 321.08C667.53 323.46 667.2 325.84 666.42 328.08C665.63 330.33 664.41 332.39 662.81 334.15C661.21 335.92 659.27 337.34 657.12 338.34Z" />
			<path id="Layer" class="shp2" d="M640.32 408.26C632.44 414.08 599.08 416.72 599.08 416.72C599.08 416.72 611.37 385.57 619.24 379.74C621.11 378.3 623.24 377.25 625.52 376.64C627.8 376.04 630.18 375.9 632.52 376.22C634.85 376.55 637.1 377.34 639.13 378.54C641.16 379.75 642.92 381.35 644.33 383.24C645.73 385.14 646.74 387.3 647.3 389.59C647.86 391.88 647.95 394.26 647.58 396.59C647.21 398.92 646.37 401.15 645.13 403.16C643.88 405.16 642.25 406.89 640.32 408.26L640.32 408.26Z" />
			<path id="Layer" class="shp2" d="M585.47 269.97C592.5 276.79 625.23 283.86 625.23 283.86C625.23 283.86 617.21 251.37 610.21 244.5C608.54 242.88 606.56 241.6 604.4 240.74C602.23 239.87 599.91 239.45 597.58 239.48C595.25 239.52 592.95 240.01 590.81 240.93C588.67 241.85 586.73 243.19 585.11 244.86C583.48 246.53 582.2 248.51 581.34 250.68C580.48 252.84 580.06 255.16 580.09 257.49C580.13 259.82 580.62 262.12 581.54 264.26C582.46 266.4 583.8 268.34 585.47 269.97L585.47 269.97Z" />
			<path id="Layer" class="shp2" d="M566.9 351.98C575.64 356.39 608.96 353.35 608.96 353.35C608.96 353.35 591.61 324.72 582.88 320.31C580.79 319.24 578.52 318.59 576.19 318.4C573.85 318.21 571.5 318.49 569.28 319.21C567.05 319.93 564.99 321.09 563.21 322.62C561.43 324.14 559.98 326 558.92 328.09C557.87 330.18 557.24 332.46 557.07 334.8C556.9 337.13 557.19 339.48 557.94 341.7C558.68 343.92 559.85 345.97 561.39 347.74C562.93 349.5 564.8 350.94 566.9 351.98L566.9 351.98Z" />
			<path id="Layer" class="shp2" d="M559.79 434.19C567.67 440.02 601.04 442.65 601.04 442.65C601.04 442.65 588.75 411.5 580.88 405.68C577.09 402.95 572.38 401.82 567.77 402.54C563.16 403.25 559.02 405.76 556.24 409.51C553.47 413.27 552.28 417.96 552.94 422.58C553.61 427.2 556.07 431.38 559.79 434.19L559.79 434.19Z" />
			<path id="Layer" class="shp3" d="M629.05 191.37C629.05 201.16 611.31 229.56 611.31 229.56C611.31 229.56 593.58 201.16 593.58 191.37C593.58 186.66 595.44 182.15 598.77 178.82C602.1 175.5 606.61 173.63 611.31 173.63C616.01 173.63 620.52 175.5 623.85 178.82C627.18 182.15 629.05 186.66 629.05 191.37L629.05 191.37Z" />
			<path id="Layer" class="shp3" d="M658.36 245.62C653.04 253.85 622.71 268.05 622.71 268.05C622.71 268.05 623.26 234.57 628.59 226.34C629.85 224.39 631.49 222.7 633.41 221.38C635.33 220.06 637.49 219.13 639.76 218.64C642.04 218.15 644.39 218.12 646.68 218.54C648.97 218.96 651.16 219.83 653.11 221.09C655.07 222.36 656.76 224 658.08 225.92C659.4 227.84 660.33 229.99 660.82 232.27C661.31 234.55 661.34 236.9 660.92 239.19C660.5 241.48 659.63 243.67 658.36 245.62L658.36 245.62Z" />
			<path id="Layer" class="shp3" d="M657.12 338.34C648.37 342.74 615.06 339.7 615.06 339.7C615.06 339.7 632.44 311.07 641.18 306.67C643.27 305.53 645.57 304.82 647.94 304.59C650.3 304.35 652.69 304.6 654.96 305.31C657.23 306.02 659.34 307.18 661.15 308.71C662.96 310.25 664.45 312.14 665.52 314.27C666.59 316.39 667.22 318.71 667.37 321.08C667.53 323.46 667.2 325.84 666.42 328.08C665.63 330.33 664.41 332.39 662.81 334.15C661.21 335.92 659.27 337.34 657.12 338.34Z" />
			<path id="Layer" class="shp3" d="M640.32 408.26C632.44 414.08 599.08 416.72 599.08 416.72C599.08 416.72 611.37 385.57 619.24 379.74C621.11 378.3 623.24 377.25 625.52 376.64C627.8 376.04 630.18 375.9 632.52 376.22C634.85 376.55 637.1 377.34 639.13 378.54C641.16 379.75 642.92 381.35 644.33 383.24C645.73 385.14 646.74 387.3 647.3 389.59C647.86 391.88 647.95 394.26 647.58 396.59C647.21 398.92 646.37 401.15 645.13 403.16C643.88 405.16 642.25 406.89 640.32 408.26L640.32 408.26Z" />
			<path id="Layer" class="shp3" d="M585.47 269.97C592.5 276.79 625.23 283.86 625.23 283.86C625.23 283.86 617.21 251.37 610.21 244.5C608.54 242.88 606.56 241.6 604.4 240.74C602.23 239.87 599.91 239.45 597.58 239.48C595.25 239.52 592.95 240.01 590.81 240.93C588.67 241.85 586.73 243.19 585.11 244.86C583.48 246.53 582.2 248.51 581.34 250.68C580.48 252.84 580.06 255.16 580.09 257.49C580.13 259.82 580.62 262.12 581.54 264.26C582.46 266.4 583.8 268.34 585.47 269.97L585.47 269.97Z" />
			<path id="Layer" class="shp3" d="M566.9 351.98C575.64 356.39 608.96 353.35 608.96 353.35C608.96 353.35 591.61 324.72 582.88 320.31C580.79 319.24 578.52 318.59 576.19 318.4C573.85 318.21 571.5 318.49 569.28 319.21C567.05 319.93 564.99 321.09 563.21 322.62C561.43 324.14 559.98 326 558.92 328.09C557.87 330.18 557.24 332.46 557.07 334.8C556.9 337.13 557.19 339.48 557.94 341.7C558.68 343.92 559.85 345.97 561.39 347.74C562.93 349.5 564.8 350.94 566.9 351.98L566.9 351.98Z" />
			<path id="Layer" class="shp3" d="M559.79 434.19C567.67 440.02 601.04 442.65 601.04 442.65C601.04 442.65 588.75 411.5 580.88 405.68C577.09 402.95 572.38 401.82 567.77 402.54C563.16 403.25 559.02 405.76 556.24 409.51C553.47 413.27 552.28 417.96 552.94 422.58C553.61 427.2 556.07 431.38 559.79 434.19L559.79 434.19Z" />
			<path id="Layer" class="shp4" d="M594.26 521.22C594.26 521.13 594.26 521.02 594.32 520.91C594.38 520.81 594.32 520.86 594.32 520.83C594.34 520.63 594.34 520.43 594.32 520.23C594.32 520.23 593.24 518.15 591.97 515.29C590.25 511.37 588.21 505.98 588.21 502.44C588.21 502.44 569.3 436.31 556.53 429.08C556.53 429.08 546.01 410.36 546.13 399.82C546.14 396.46 545.87 393.09 545.32 389.77C543.45 378.15 540.34 355.9 543.18 351.83C546.8 346.67 552.82 324.18 538.44 307.21L540.96 306.82C540.96 306.82 540.82 306.65 540.6 306.32L540.96 306.26C540.96 306.26 535.39 299.58 535.39 284.82C535.48 276.32 537.39 265.22 543.18 251.24C543.95 249.38 544.65 247.54 545.29 245.73C547.98 244.39 550.44 242.62 552.57 240.49L552.82 240.22L553.12 239.94C558.44 234.6 561.65 227.52 563.89 220.33C565.95 213.72 567.27 206.9 567.82 200C568.42 192.51 568.1 184.98 567.82 177.46C567.45 168.7 567.01 159.67 563.5 151.67C562.12 148.54 560.26 145.58 559.41 142.27C558.94 139.99 558.62 137.69 558.44 135.37C557.28 126.29 552.98 117.48 545.92 111.65C538.87 105.82 529.01 103.22 520.19 105.66C515.14 107.06 510.64 109.96 506.44 113.13C504.64 114.48 502.95 115.97 501.36 117.57C496.29 122.54 492.47 129.06 496.14 135.91C496.41 136.41 496.7 136.89 497 137.37C495.07 140.46 493.83 143.94 493.38 147.56C492.93 151.19 493.28 154.86 494.4 158.34C495.52 161.81 497.39 165 499.88 167.67C502.36 170.35 505.4 172.44 508.79 173.82L509.44 174.96L509.52 174.96C511.43 178.51 513.52 182.93 514.07 186.29C511.67 188 509.49 190 507.6 192.26C501.06 200.07 497.47 205.37 495.52 208.82C493.67 212.02 491.52 215.04 489.1 217.84C486.13 221.34 482.63 228.19 482.63 240.94C482.63 241.87 482.63 242.84 482.63 243.84C466.97 260.9 405.88 248.4 405.88 248.4C398.52 245.53 389.95 248.99 385.94 251.02C385.61 251.18 385.33 251.41 385.1 251.7C384.88 251.99 384.72 252.32 384.64 252.68C384.56 253.03 384.57 253.41 384.65 253.76C384.74 254.12 384.9 254.45 385.13 254.73C391.6 262.53 407.52 257.85 407.52 257.85C407.52 257.85 464.76 267.86 469.21 271.19C472.23 273.46 477.58 271.61 480.69 270.19L480.05 270.91L480.85 270.52L476.45 310.09L476.52 310.09L476.45 310.64C476.45 310.64 477.47 310.56 479.1 310.44L480.46 313.96L480.35 313.96L481.75 317.29L482.91 320.03C479.45 332.52 465.54 383.92 467 395.66C467 395.66 458.11 416.77 461.44 428.45C461.44 428.45 449.22 516.26 441.44 520.71L442.53 521.21C434.22 525.95 416.13 534.88 403.64 530.72C403.64 530.72 395.87 532.94 408.09 540.72C408.09 540.72 458.11 554.06 464.79 549.62L463.68 530.39L464.24 530.6C464.32 529.51 465.05 521.56 468.13 517.94C468.13 517.94 488.13 463.47 487.02 435.68L505.7 390.56C507.72 395.73 509.86 400.12 512.03 402.9L519.81 422.9L532.6 439.58C532.6 439.58 572.61 502.94 569.8 521.84L570.74 522.07C566.99 528.74 557.68 542.39 544.23 542.39C544.23 542.39 532.56 554.62 554.23 552.96C554.23 552.96 581.46 551.29 601.47 540.17L594.26 521.22Z" />
			<path id="Layer" class="shp5" d="M452.44 516.09C452.44 516.09 426.72 533.24 410.64 527.88C410.64 527.88 403.13 530.02 414.93 537.53C414.93 537.53 463.17 550.39 469.6 546.1L467.98 518.23L452.44 516.09Z" />
			<path id="Layer" class="shp5" d="M573.58 516.09C573.58 516.09 563.39 539.14 546.24 539.14C546.24 539.14 534.98 550.93 555.89 549.32C555.89 549.32 582.15 547.7 601.44 536.99L592.22 512.94L573.58 516.09Z" />
			<path id="Layer" class="shp6" d="M481.92 311.61L485.97 322.06L512.21 320.19L509.52 302.5L481.92 311.61Z" />
			<path id="Layer" class="shp7" d="M487.82 322.06C487.82 322.06 470.13 384.81 471.74 397.64C471.74 397.64 463.17 418 466.38 429.26C466.38 429.26 454.59 513.94 447.08 518.22C447.08 518.22 468.92 528.11 469.59 527.87C477.09 525.19 469.06 527.87 469.06 527.87C469.06 527.87 469.59 519.3 472.81 515.54C472.81 515.54 492.1 463.02 491.03 436.23L516.75 374.05L487.82 322.06Z" />
			<path id="Layer" class="shp8" d="M487.82 322.06C487.82 322.06 470.13 384.81 471.74 397.64C471.74 397.64 463.17 418 466.38 429.26C466.38 429.26 454.59 513.94 447.08 518.22C447.08 518.22 468.92 528.11 469.59 527.87C477.09 525.19 469.06 527.87 469.06 527.87C469.06 527.87 469.59 519.3 472.81 515.54C472.81 515.54 492.1 463.02 491.03 436.23L516.75 374.05L487.82 322.06Z" />
			<path id="Layer" class="shp7" d="M484.61 318.85L496.4 346.71C496.4 346.71 505.51 392.27 515.16 404.6L522.67 423.89L535 439.98C535 439.98 573.59 501.08 570.91 519.3C570.91 519.3 595.02 525.77 594.49 517.68C594.49 517.68 588.59 506.42 588.59 500.53C588.59 500.53 570.37 436.75 558.04 429.78C558.04 429.78 547.91 411.72 548.01 401.56C548.02 398.31 547.75 395.06 547.2 391.86C545.4 380.65 542.4 359.2 545.15 355.28C548.9 349.92 555.33 325.27 537.11 308.65L484.61 318.85Z" />
			<path id="Layer" class="shp8" d="M594.47 517.7C594.47 517.7 588.58 506.44 588.58 500.54C588.58 500.54 570.36 436.77 558.02 429.8C558.02 429.8 547.9 411.74 548 401.58C548 398.33 547.73 395.08 547.19 391.87C545.38 380.67 542.38 359.22 545.13 355.3C548.88 349.93 555.31 325.28 537.09 308.66L533.99 309.27C551.41 325.87 545.09 350 541.39 355.3C537.68 360.59 544.62 398.71 544.62 398.71C541.95 407.82 554.27 429.8 554.27 429.8C566.6 436.77 584.83 500.54 584.83 500.54C584.83 506.44 590.72 517.7 590.72 517.7C590.9 520.35 588.38 521.42 584.94 521.67C590.13 521.97 594.72 521.25 594.47 517.7Z" />
			<path id="Layer" class="shp6" d="M509.26 178.96C509.26 178.96 519.44 194.5 516.76 199.32L543.02 192.85C543.02 192.85 536.05 185.35 537.66 167.13L509.26 178.96Z" />
			<path id="Layer" class="shp8" d="M546.77 190.22C546.77 190.22 524.8 185.37 510.87 202.01C504.56 209.53 501.11 214.64 499.21 217.97C497.43 221.06 495.36 223.97 493.03 226.67C489.55 230.78 485.28 239.66 487.28 257.75L480.81 315.63C480.81 315.63 499.58 314.01 504.4 315.63C509.22 317.24 542.99 311.87 542.99 311.87C542.99 311.87 529.59 295.8 545.13 258.28C560.68 220.76 546.77 190.22 546.77 190.22Z" />
			<path id="Layer" class="shp9" d="M546.77 189.68C546.77 189.68 524.8 184.83 510.87 201.47C504.56 209 501.11 214.11 499.21 217.44C497.43 220.52 495.36 223.44 493.03 226.13C489.55 230.25 485.28 239.12 487.28 257.21L480.81 315.09C480.81 315.09 499.58 313.48 504.4 315.09C509.22 316.71 542.99 311.34 542.99 311.34C542.99 311.34 529.59 295.26 545.13 257.75C560.68 220.23 546.77 189.68 546.77 189.68Z" />
			<path id="Layer" class="shp8" d="M520.25 239.23C520.25 239.23 499.34 269.27 489.71 274.63L484.35 277.31C484.35 277.31 518.1 239.23 520.25 239.23Z" />
			<path id="Layer" class="shp6" d="M500.68 223.98C500.68 223.98 514.43 218.57 520.33 236.51C520.57 237.24 520.61 238.02 520.45 238.76C520.28 239.51 519.93 240.21 519.41 240.77L487.28 275.43C487.28 275.43 478.17 280.8 473.88 277.58C469.6 274.36 414.39 264.71 414.39 264.71C414.39 264.71 399.07 269.21 392.81 261.7C392.58 261.43 392.42 261.11 392.33 260.77C392.25 260.43 392.24 260.07 392.31 259.73C392.39 259.39 392.54 259.06 392.75 258.79C392.97 258.51 393.24 258.28 393.56 258.13C396.55 256.61 401.54 257.49 407.43 256.76C411.95 256.22 416.52 256.31 421.02 257.04C439.4 259.92 482.71 264.68 489.43 247.02C498 224.52 500.68 223.98 500.68 223.98Z" />
			<path id="Layer" class="shp8" d="M500.42 224.25C500.42 224.25 517.03 221.57 520.78 238.18L520.78 237.11C520.78 237.11 515.96 218.9 500.42 224.25Z" />
			<path id="Layer" class="shp8" d="M538.23 168.24L509.79 180.03C509.79 180.03 511.08 181.99 512.6 184.73C515.38 185.85 519.21 185.13 522.38 185.13C528.85 185.13 533.58 183.42 537.93 179.23C537.53 176.02 537.8 172.68 538.23 168.24Z" />
			<path id="Layer" class="shp6" d="M521.05 185.39C534.37 185.39 545.16 174.59 545.16 161.27C545.16 147.95 534.37 137.16 521.05 137.16C507.73 137.16 496.93 147.95 496.93 161.27C496.93 174.59 507.73 185.39 521.05 185.39Z" />
			<path id="Layer" class="shp8" d="M521.09 158.01C521.61 159.87 520.07 161.6 518.95 163.17C515.05 168.7 515.77 176.22 517.55 182.74C518.43 185.93 519.74 189.33 522.59 191C524.87 192.34 527.68 192.28 530.24 192.95C534.84 194.16 538.56 197.8 540.75 202C542.94 206.2 543.73 211.04 543.98 215.8C544.76 229.55 541.46 243.23 534.48 255.11C541.64 256.33 549.04 253.07 554.17 247.92C559.31 242.77 562.4 235.94 564.56 229.01C566.54 222.64 567.81 216.07 568.34 209.42C568.92 202.19 568.62 194.92 568.34 187.68C568 179.23 567.59 170.55 564.18 162.81C562.84 159.78 561.06 156.94 560.24 153.74C559.78 151.54 559.47 149.32 559.29 147.09C558.18 138.33 554.03 129.84 547.23 124.21C540.42 118.58 530.92 116.12 522.41 118.44C517.56 119.79 513.21 122.58 509.18 125.64C502.67 130.6 495.19 138.58 499.79 147.07C503.79 154.5 512.64 159.34 521.09 158.01Z" />
			<path id="Layer" class="shp10" d="M521.62 157.48C522.15 159.34 520.6 161.06 519.49 162.64C515.58 168.16 516.3 175.68 518.09 182.2C518.96 185.4 520.27 188.79 523.13 190.47C525.41 191.8 528.21 191.75 530.77 192.42C535.37 193.62 539.09 197.27 541.28 201.47C543.47 205.66 544.26 210.51 544.52 215.26C545.3 229.03 541.99 242.72 535 254.6C542.16 255.82 549.56 252.56 554.69 247.41C559.83 242.26 562.92 235.43 565.08 228.5C567.06 222.13 568.33 215.56 568.86 208.91C569.43 201.68 569.13 194.41 568.86 187.17C568.51 178.72 568.11 170.04 564.7 162.3C563.36 159.28 561.58 156.43 560.76 153.23C560.3 151.03 559.99 148.81 559.81 146.58C558.69 137.82 554.55 129.33 547.74 123.7C540.94 118.07 531.44 115.61 522.93 117.93C518.08 119.28 513.73 122.07 509.7 125.13C503.18 130.09 495.7 138.07 500.3 146.56C504.33 153.97 513.16 158.81 521.62 157.48Z" />
			<path id="Layer" class="shp8" d="M524 277.31C524 277.31 534.18 277.31 537.93 272.46L524 277.31Z" />
			<path id="Layer" class="shp8" d="M524 281.06C524 281.06 534.18 281.06 537.93 276.21L524 281.06Z" />
			<path id="Layer" class="shp8" d="M533.65 219.43C533.65 219.43 532.03 232.29 526.14 238.19L533.65 219.43Z" />
			<g id="Layer" style="opacity: 0.102">
				<path id="Layer" class="shp11" d="M301.28 540.58L301.28 540.45L301.08 540.52L301.28 540.58Z" />
			</g>
			<g id="Layer" style="opacity: 0.102">
				<path id="Layer" class="shp12" d="M300.71 540.58C300.83 540.59 300.96 540.56 301.07 540.52C299.83 540.08 293.53 538.01 300.71 540.58Z" />
			</g>
			<path id="Layer" class="shp13" d="M381.14 256.67C377.05 254.67 368.31 251.26 360.81 254.08C360.81 254.08 288.83 268.35 279.75 245.3C279.33 244.22 278.92 243.18 278.52 242.19C278.7 240.68 278.78 239.15 278.75 237.63C278.78 235.76 278.65 233.89 278.36 232.04C277.88 229.34 276.84 226.77 275.31 224.49C273.52 221.5 272.06 218.32 270.95 215.02C269.2 210.26 266.47 205.93 262.92 202.3C259.38 198.68 255.1 195.84 250.38 193.99C250.52 190.55 252.95 185.46 255.16 181.51L255.24 181.51L255.91 180.38C260.55 178.6 264.56 175.47 267.4 171.39C270.24 167.31 271.78 162.47 271.82 157.5C271.82 152.71 270.39 148.02 267.7 144.06C275.32 142.83 272.71 136.36 268 130.82C267.09 129.74 266.12 128.72 265.08 127.76C260.49 123.23 254.7 120.1 248.4 118.73C247.65 118.57 246.89 118.45 246.13 118.34C241.6 116.79 236.78 116.28 232.03 116.86C227.27 117.44 222.71 119.1 218.7 121.7C217.72 118.92 215.89 116.51 213.47 114.82C211.06 113.13 208.17 112.23 205.22 112.26C197.39 112.26 191.05 118.4 191.05 126.01C191.05 133.62 197.39 139.76 205.22 139.76L206.03 139.76C205.51 141.92 205.24 144.14 205.22 146.37C205.22 160.21 215.03 171.84 228.3 175.09L228.53 175.31C228.53 175.54 228.49 175.77 228.46 176L228.51 176.05C228.01 180.12 226.72 184.06 224.73 187.65L224.23 187.52C213.77 194.8 209.99 205.84 210.07 217.34C210.02 227.11 212.72 237.33 216.54 245.65C217.95 248.97 218.64 252.55 218.58 256.16C218.38 268.62 212.65 283.56 208.75 292.31C207.2 295.78 184.81 349.93 184.81 349.93L185.32 349.8L184.81 351.03C189.71 349.66 194.97 350.29 199.43 351.49C202.51 352.3 205.71 352.49 208.86 352.04C212 351.6 215.03 350.53 217.76 348.91C218.36 351.51 219.39 353.99 220.81 356.25C223.71 360.29 220.54 382.23 218.63 393.7C218.07 396.98 217.8 400.31 217.82 403.63C217.93 414.04 207.22 432.53 207.22 432.53C194.18 439.66 174.91 504.96 174.91 504.96C174.91 508.45 172.82 513.77 171.07 517.65C169.79 520.47 168.64 522.5 168.64 522.5C168.63 522.7 168.63 522.9 168.64 523.1C168.64 523.1 168.64 523.15 168.64 523.18C168.66 523.28 168.68 523.38 168.7 523.49L161.26 542.26C181.66 553.23 209.44 554.88 209.44 554.88C231.54 556.5 219.64 544.46 219.64 544.46C205.89 544.46 196.43 530.97 192.61 524.39L193.57 524.16C190.74 505.5 231.58 442.94 231.58 442.94L244.62 426.48L252.55 406.64C254.76 403.91 256.95 399.57 259.02 394.46L278.06 438.99C276.93 466.43 297.33 520.2 297.33 520.2C300.49 523.78 301.2 531.63 301.28 532.7L301.86 532.5L300.73 551.49C307.53 555.88 358.54 542.7 358.54 542.7C371.01 535.02 363.08 532.83 363.08 532.83C350.35 536.94 331.89 528.12 323.45 523.44L324.56 522.95C316.63 518.56 304.15 431.87 304.15 431.87C307.56 420.34 298.49 399.52 298.49 399.52C299.53 391.51 293.01 364.62 287.75 344.78C294.5 344.72 301.23 344.04 307.85 342.73C307.43 342.46 307.04 342.18 306.61 341.92C307.42 341.76 307.85 341.67 307.85 341.67C290.33 330.47 280.35 292.63 276.04 271.2C277.12 272.12 278.28 272.93 279.51 273.63L285.17 276.37L284.53 275.67C287.69 277.07 293.14 278.9 296.23 276.65C300.77 273.36 359.14 263.48 359.14 263.48C359.14 263.48 375.31 268.1 381.97 260.4C382.22 260.12 382.4 259.79 382.49 259.43C382.58 259.06 382.59 258.69 382.51 258.32C382.43 257.96 382.26 257.62 382.02 257.33C381.78 257.04 381.48 256.82 381.14 256.67L381.14 256.67Z" />
			<path id="Layer" class="shp14" d="M237.79 180.84C253.78 180.84 266.74 167.88 266.74 151.89C266.74 135.91 253.78 122.95 237.79 122.95C221.81 122.95 208.85 135.91 208.85 151.89C208.85 167.88 221.81 180.84 237.79 180.84Z" />
			<path id="Layer" class="shp6" d="M259.5 180.57C259.5 180.57 249.31 196.11 251.99 200.93L225.73 194.46C225.73 194.46 232.7 186.96 231.09 168.74L259.5 180.57Z" />
			<path id="Layer" class="shp8" d="M230.55 169.85L258.95 181.64C258.95 181.64 257.67 183.6 256.14 186.34C253.37 187.46 249.53 186.74 246.36 186.74C239.89 186.74 235.16 185.03 230.82 180.84C231.22 177.63 230.92 174.29 230.55 169.85Z" />
			<path id="Layer" class="shp6" d="M247.7 187C261.02 187 271.82 176.2 271.82 162.88C271.82 149.56 261.02 138.77 247.7 138.77C234.39 138.77 223.59 149.56 223.59 162.88C223.59 176.2 234.39 187 247.7 187Z" />
			<path id="Layer" class="shp14" d="M208.84 145.46C216.25 145.46 222.25 139.46 222.25 132.06C222.25 124.66 216.25 118.66 208.84 118.66C201.44 118.66 195.44 124.66 195.44 132.06C195.44 139.46 201.44 145.46 208.84 145.46Z" />
			<path id="Layer" class="shp8" d="M264.83 149.95C258.8 149.84 251.94 148.63 247.42 152.62C244.19 155.48 243.31 160.11 242.21 164.3C240.6 170.59 236.89 177.5 230.45 178.44C226.52 179.02 222.57 177.06 219.78 174.23C216.99 171.4 215.19 167.76 213.48 164.19C211.77 160.63 210.11 156.91 210.24 152.96C210.41 148.26 213.16 144.06 215.95 140.3C217.64 137.94 219.52 135.72 221.57 133.67C224.74 130.62 228.52 128.26 232.65 126.75C236.79 125.24 241.19 124.62 245.58 124.91C249.98 125.21 254.25 126.42 258.15 128.47C262.05 130.52 265.47 133.36 268.2 136.82C273.22 142.91 275.72 150.14 264.83 149.95Z" />
			<path id="Layer" class="shp14" d="M264.3 149.42C258.27 149.31 251.41 148.1 246.89 152.09C243.65 154.95 242.78 159.57 241.68 163.76C240.06 170.06 236.36 176.97 229.92 177.91C225.99 178.48 222.04 176.53 219.25 173.69C216.46 170.86 214.65 167.22 212.95 163.66C211.24 160.09 209.57 156.38 209.71 152.43C209.88 147.73 212.62 143.53 215.42 139.77C217.11 137.41 218.99 135.19 221.04 133.14C224.21 130.08 227.98 127.73 232.12 126.22C236.25 124.71 240.66 124.08 245.05 124.38C249.44 124.68 253.72 125.89 257.62 127.94C261.51 129.99 264.93 132.83 267.66 136.28C272.68 142.37 275.19 149.6 264.3 149.42Z" />
			<path id="Layer" class="shp5" d="M316.31 517.7C316.31 517.7 342.04 534.85 358.11 529.49C358.11 529.49 365.62 531.63 353.83 539.14C353.83 539.14 305.59 552 299.16 547.71L300.77 519.84L316.31 517.7Z" />
			<path id="Layer" class="shp5" d="M195.18 517.7C195.18 517.7 205.36 540.75 222.51 540.75C222.51 540.75 233.77 552.54 212.87 550.93C212.87 550.93 186.6 549.31 167.31 538.6L176.54 514.55L195.18 517.7Z" />
			<path id="Layer" class="shp15" d="M280.94 323.67C280.94 323.67 298.62 386.38 297.01 399.24C297.01 399.24 305.59 419.61 302.38 430.86C302.38 430.86 314.17 515.54 321.67 519.82C321.67 519.82 299.84 529.71 299.17 529.47C291.66 526.79 299.7 529.47 299.7 529.47C299.7 529.47 299.17 520.9 295.95 517.15C295.95 517.15 276.65 464.62 277.73 437.83L252 375.65L280.94 323.67Z" />
			<path id="Layer" class="shp8" d="M280.94 323.67C280.94 323.67 298.62 386.38 297.01 399.24C297.01 399.24 305.59 419.61 302.38 430.86C302.38 430.86 314.17 515.54 321.67 519.82C321.67 519.82 299.84 529.71 299.17 529.47C291.66 526.79 299.7 529.47 299.7 529.47C299.7 529.47 299.17 520.9 295.95 517.15C295.95 517.15 276.65 464.62 277.73 437.83L252 375.65L280.94 323.67Z" />
			<path id="Layer" class="shp15" d="M284.15 320.45L272.36 348.32C272.36 348.32 263.25 393.88 253.6 406.2L246.1 425.5L233.77 441.58C233.77 441.58 195.18 502.68 197.86 520.9C197.86 520.9 173.75 527.37 174.28 519.28C174.28 519.28 180.18 508.02 180.18 502.13C180.18 502.13 198.4 438.35 210.73 431.38C210.73 431.38 220.85 413.32 220.76 403.16C220.75 399.91 221.02 396.67 221.57 393.46C223.37 382.25 226.37 360.8 223.62 356.88C219.87 351.52 213.44 326.87 231.66 310.25L284.15 320.45Z" />
			<path id="Layer" class="shp8" d="M174.31 519.3C174.31 519.3 180.2 508.04 180.2 502.14C180.2 502.14 198.42 438.37 210.75 431.4C210.75 431.4 220.88 413.34 220.78 403.18C220.78 399.93 221.05 396.68 221.59 393.48C223.4 382.27 226.4 360.82 223.65 356.9C219.89 351.54 213.46 326.88 231.68 310.26L234.79 310.87C217.31 327.48 223.64 351.65 227.34 356.9C231.04 362.16 224.11 400.32 224.11 400.32C226.78 409.43 214.46 431.4 214.46 431.4C202.13 438.38 183.9 502.15 183.9 502.15C183.9 508.05 178.01 519.31 178.01 519.31C177.83 521.96 180.35 523.03 183.79 523.28C178.62 523.58 174.04 522.86 174.31 519.3Z" />
			<path id="Layer" class="shp8" d="M226.82 193.14L246.74 198.04C252.3 199.41 257.43 202.15 261.67 206C265.9 209.86 269.11 214.71 271 220.12C272.05 223.34 273.43 226.44 275.12 229.37C276.58 231.6 277.56 234.12 278 236.75C278.81 242 278.74 250.5 273.25 260.14C273.25 260.14 282.31 328.21 305.85 343.75C305.85 343.75 282.88 349.04 262.74 342.5C249.24 338.12 234.43 339.96 222.87 348.24L222.37 348.61C219.69 350.61 216.59 351.98 213.31 352.61C210.03 353.24 206.65 353.12 203.42 352.25C199.2 351.08 194.22 350.47 189.59 351.81C189.59 351.81 210.77 298.93 212.23 295.53C217.17 284.05 225.25 261.67 219.59 248.94C211.72 231.22 208.85 204.96 226.82 193.14Z" />
			<path id="Layer" class="shp2" d="M226.82 192.09L246.74 196.99C252.3 198.37 257.43 201.11 261.67 204.96C265.9 208.82 269.11 213.67 271 219.07C272.05 222.29 273.43 225.39 275.12 228.32C276.58 230.56 277.56 233.07 278 235.71C278.81 240.96 278.74 249.46 273.25 259.1C273.25 259.1 282.31 327.17 305.85 342.71C305.85 342.71 282.88 348 262.74 341.46C249.24 337.07 234.43 338.92 222.87 347.2L222.37 347.56C219.69 349.56 216.59 350.92 213.31 351.55C210.03 352.18 206.65 352.05 203.42 351.19C199.2 350.01 194.22 349.4 189.59 350.74C189.59 350.74 210.77 297.86 212.23 294.46C217.17 282.98 225.25 260.59 219.59 247.83C211.72 230.14 208.85 204.96 226.82 192.09Z" />
			<path id="Layer" class="shp8" d="M248.51 240.85C248.51 240.85 269.42 270.86 279.07 276.23L284.43 278.9C284.43 278.9 250.66 240.85 248.51 240.85Z" />
			<path id="Layer" class="shp6" d="M268.07 225.59C268.07 225.59 254.32 220.18 248.43 238.12C248.19 238.85 248.14 239.63 248.31 240.38C248.47 241.12 248.83 241.82 249.35 242.38L281.47 277.05C281.47 277.05 290.58 282.41 294.87 279.19C299.16 275.98 354.36 266.33 354.36 266.33C354.36 266.33 369.58 270.8 375.88 263.39C376.12 263.12 376.28 262.8 376.38 262.46C376.47 262.11 376.48 261.75 376.42 261.4C376.35 261.05 376.21 260.71 376 260.43C375.78 260.14 375.51 259.9 375.19 259.74C371.87 258.06 365.79 258.12 359.25 257.56C356.98 257.37 354.7 257.47 352.47 257.87C338.48 260.35 286.72 268.06 279.33 248.64C270.75 226.13 268.07 225.59 268.07 225.59Z" />
			<path id="Layer" class="shp8" d="M268.34 225.86C268.34 225.86 251.73 223.18 247.98 239.79L247.98 238.72C247.98 238.72 252.8 220.5 268.34 225.86Z" />
			<path id="Layer" fill-rule="evenodd" class="shp16" d="M431.97 233.72C425.43 243.5 416.14 251.13 405.27 255.63C394.4 260.13 382.44 261.31 370.9 259.01C359.36 256.72 348.76 251.05 340.44 242.73C332.12 234.41 326.45 223.81 324.16 212.27C321.86 200.73 323.04 188.77 327.54 177.9C332.05 167.03 339.67 157.74 349.45 151.2C359.24 144.66 370.74 141.18 382.5 141.18C398.28 141.18 413.41 147.44 424.57 158.6C435.73 169.76 442 184.89 442 200.67C442 212.43 438.51 223.93 431.97 233.72ZM408.03 192.19C409.21 184.27 403.18 180.02 394.94 177.18L397.6 166.45L391.05 164.83L388.44 175.27C386.73 174.84 384.96 174.46 383.21 174.04L385.83 163.53L379.3 161.91L376.63 172.63C375.2 172.3 373.81 171.98 372.46 171.65L363.46 169.4L361.72 176.37C361.72 176.37 366.57 177.48 366.46 177.55C369.1 178.22 369.58 179.98 369.5 181.34L366.45 193.56C366.68 193.62 366.91 193.7 367.13 193.78L366.44 193.61L362.17 210.73C362.08 211.03 361.93 211.3 361.73 211.54C361.52 211.78 361.28 211.98 361 212.13C360.72 212.27 360.42 212.36 360.11 212.38C359.79 212.41 359.48 212.38 359.18 212.28C359.25 212.38 354.43 211.1 354.43 211.1L351.2 218.57L359.69 220.69C361.31 221.09 362.82 221.5 364.34 221.89L361.64 232.73L368.16 234.35L370.83 223.62C372.57 224.09 374.3 224.54 376.04 224.97L373.37 235.65L379.89 237.27L382.59 226.44C393.72 228.54 402.1 227.69 405.62 217.63C408.46 209.55 405.48 204.85 399.62 201.81C403.88 200.82 407.1 198.02 407.96 192.22L408.03 192.19ZM393.12 213.1C391.1 221.19 377.45 216.82 373.03 215.73L376.61 201.36C381.02 202.47 395.21 204.65 393.1 213.1L393.12 213.1ZM395.14 192.08C393.29 199.45 381.94 195.7 378.25 194.79L381.49 181.76C385.17 182.67 397.04 184.39 395.09 192.08L395.14 192.08Z" />
			<path id="Layer" class="shp1" d="M375.63 514.2C375.63 514.2 362.88 470.94 378.06 439.09C384.49 425.77 386.42 410.73 383.58 396.23C382.18 389.35 380.14 382.61 377.51 376.1" />
			<path id="Layer" class="shp2" d="M386.9 355.96C386.9 361.26 377.3 376.64 377.3 376.64C377.3 376.64 367.7 361.27 367.7 355.96C367.7 354.7 367.94 353.45 368.43 352.28C368.91 351.12 369.62 350.06 370.51 349.17C371.4 348.28 372.46 347.57 373.63 347.09C374.79 346.6 376.04 346.36 377.3 346.36C378.56 346.36 379.81 346.6 380.98 347.09C382.14 347.57 383.2 348.28 384.09 349.17C384.98 350.06 385.69 351.12 386.17 352.28C386.65 353.45 386.9 354.7 386.9 355.96L386.9 355.96Z" />
			<path id="Layer" class="shp2" d="M402.76 385.33C399.88 389.78 383.47 397.46 383.47 397.46C383.47 397.46 383.77 379.34 386.64 374.88C387.33 373.82 388.22 372.91 389.26 372.2C390.3 371.48 391.46 370.98 392.7 370.71C393.93 370.45 395.2 370.43 396.44 370.66C397.68 370.89 398.87 371.36 399.92 372.04C400.98 372.73 401.9 373.62 402.61 374.65C403.33 375.69 403.83 376.86 404.09 378.1C404.36 379.33 404.38 380.6 404.15 381.84C403.92 383.08 403.45 384.26 402.76 385.32L402.76 385.33Z" />
			<path id="Layer" class="shp2" d="M402.07 435.53C397.34 437.95 379.28 436.26 379.28 436.26C379.28 436.26 388.68 420.77 393.42 418.38C394.55 417.81 395.77 417.47 397.03 417.37C398.29 417.28 399.55 417.44 400.75 417.83C401.95 418.23 403.06 418.85 404.01 419.68C404.97 420.5 405.75 421.5 406.32 422.63C406.88 423.75 407.23 424.98 407.32 426.24C407.41 427.49 407.26 428.76 406.86 429.95C406.47 431.15 405.84 432.26 405.02 433.21C404.2 434.17 403.19 434.95 402.07 435.52L402.07 435.53Z" />
			<path id="Layer" class="shp2" d="M392.99 473.39C388.73 476.55 370.66 477.97 370.66 477.97C370.66 477.97 377.31 461.11 381.57 457.95C382.59 457.21 383.74 456.66 384.96 456.36C386.19 456.05 387.46 455.99 388.7 456.18C389.95 456.37 391.15 456.8 392.23 457.45C393.31 458.1 394.25 458.95 395 459.96C395.75 460.98 396.3 462.13 396.6 463.35C396.9 464.58 396.97 465.85 396.78 467.1C396.59 468.34 396.16 469.54 395.51 470.62C394.86 471.7 394.01 472.64 392.99 473.39L392.99 473.39Z" />
			<path id="Layer" class="shp2" d="M363.3 398.51C367.11 402.2 384.83 406.03 384.83 406.03C384.83 406.03 380.49 388.42 376.69 384.73C375.8 383.8 374.73 383.06 373.54 382.55C372.36 382.04 371.08 381.78 369.8 381.77C368.51 381.77 367.23 382.02 366.04 382.52C364.85 383.02 363.78 383.75 362.88 384.68C361.98 385.6 361.28 386.7 360.81 387.9C360.34 389.1 360.12 390.38 360.16 391.67C360.2 392.96 360.5 394.23 361.04 395.39C361.58 396.56 362.35 397.62 363.3 398.48L363.3 398.51Z" />
			<path id="Layer" class="shp2" d="M353.25 442.91C357.98 445.34 376.04 443.65 376.04 443.65C376.04 443.65 366.63 428.15 361.93 425.77C360.81 425.2 359.58 424.86 358.32 424.77C357.06 424.67 355.8 424.83 354.6 425.22C353.41 425.62 352.3 426.24 351.34 427.07C350.39 427.89 349.6 428.89 349.04 430.02C348.47 431.14 348.13 432.37 348.03 433.63C347.94 434.88 348.1 436.15 348.49 437.35C348.88 438.54 349.51 439.65 350.33 440.61C351.16 441.56 352.16 442.35 353.29 442.91L353.25 442.91Z" />
			<path id="Layer" class="shp2" d="M349.4 487.43C353.67 490.58 371.74 492 371.74 492C371.74 492 365.08 475.14 360.82 471.99C358.78 470.47 356.21 469.83 353.69 470.21C351.17 470.59 348.91 471.95 347.39 474C345.88 476.04 345.24 478.61 345.62 481.13C345.99 483.65 347.36 485.91 349.4 487.43L349.4 487.43Z" />
			<path id="Layer" class="shp17" d="M386.9 355.96C386.9 361.26 377.3 376.64 377.3 376.64C377.3 376.64 367.7 361.27 367.7 355.96C367.7 354.7 367.94 353.45 368.43 352.28C368.91 351.12 369.62 350.06 370.51 349.17C371.4 348.28 372.46 347.57 373.63 347.09C374.79 346.6 376.04 346.36 377.3 346.36C378.56 346.36 379.81 346.6 380.98 347.09C382.14 347.57 383.2 348.28 384.09 349.17C384.98 350.06 385.69 351.12 386.17 352.28C386.65 353.45 386.9 354.7 386.9 355.96L386.9 355.96Z" />
			<path id="Layer" class="shp17" d="M402.76 385.33C399.88 389.78 383.47 397.46 383.47 397.46C383.47 397.46 383.77 379.34 386.64 374.88C387.33 373.82 388.22 372.91 389.26 372.2C390.3 371.48 391.46 370.98 392.7 370.71C393.93 370.45 395.2 370.43 396.44 370.66C397.68 370.89 398.87 371.36 399.92 372.04C400.98 372.73 401.9 373.62 402.61 374.65C403.33 375.69 403.83 376.86 404.09 378.1C404.36 379.33 404.38 380.6 404.15 381.84C403.92 383.08 403.45 384.26 402.76 385.32L402.76 385.33Z" />
			<path id="Layer" class="shp17" d="M402.07 435.53C397.34 437.95 379.28 436.26 379.28 436.26C379.28 436.26 388.68 420.77 393.42 418.38C394.55 417.81 395.77 417.47 397.03 417.37C398.29 417.28 399.55 417.44 400.75 417.83C401.95 418.23 403.06 418.85 404.01 419.68C404.97 420.5 405.75 421.5 406.32 422.63C406.88 423.75 407.23 424.98 407.32 426.24C407.41 427.49 407.26 428.76 406.86 429.95C406.47 431.15 405.84 432.26 405.02 433.21C404.2 434.17 403.19 434.95 402.07 435.52L402.07 435.53Z" />
			<path id="Layer" class="shp17" d="M392.99 473.39C388.73 476.55 370.66 477.97 370.66 477.97C370.66 477.97 377.31 461.11 381.57 457.95C382.59 457.21 383.74 456.66 384.96 456.36C386.19 456.05 387.46 455.99 388.7 456.18C389.95 456.37 391.15 456.8 392.23 457.45C393.31 458.1 394.25 458.95 395 459.96C395.75 460.98 396.3 462.13 396.6 463.35C396.9 464.58 396.97 465.85 396.78 467.1C396.59 468.34 396.16 469.54 395.51 470.62C394.86 471.7 394.01 472.64 392.99 473.39L392.99 473.39Z" />
			<path id="Layer" class="shp17" d="M363.3 398.51C367.11 402.2 384.83 406.03 384.83 406.03C384.83 406.03 380.49 388.42 376.69 384.73C375.8 383.8 374.73 383.06 373.54 382.55C372.36 382.04 371.08 381.78 369.8 381.77C368.51 381.77 367.23 382.02 366.04 382.52C364.85 383.02 363.78 383.75 362.88 384.68C361.98 385.6 361.28 386.7 360.81 387.9C360.34 389.1 360.12 390.38 360.16 391.67C360.2 392.96 360.5 394.23 361.04 395.39C361.58 396.56 362.35 397.62 363.3 398.48L363.3 398.51Z" />
			<path id="Layer" class="shp17" d="M353.25 442.91C357.98 445.34 376.04 443.65 376.04 443.65C376.04 443.65 366.63 428.15 361.93 425.77C360.81 425.2 359.58 424.86 358.32 424.77C357.06 424.67 355.8 424.83 354.6 425.22C353.41 425.62 352.3 426.24 351.34 427.07C350.39 427.89 349.6 428.89 349.04 430.02C348.47 431.14 348.13 432.37 348.03 433.63C347.94 434.88 348.1 436.15 348.49 437.35C348.88 438.54 349.51 439.65 350.33 440.61C351.16 441.56 352.16 442.35 353.29 442.91L353.25 442.91Z" />
			<path id="Layer" class="shp17" d="M349.4 487.43C353.67 490.58 371.74 492 371.74 492C371.74 492 365.08 475.14 360.82 471.99C358.78 470.47 356.21 469.83 353.69 470.21C351.17 470.59 348.91 471.95 347.39 474C345.88 476.04 345.24 478.61 345.62 481.13C345.99 483.65 347.36 485.91 349.4 487.43L349.4 487.43Z" />
		</g>
	</g>
</svg>