<svg width="797" height="589" viewBox="0 0 797 589" fill="none" xmlns="http://www.w3.org/2000/svg">
<g clip-path="url(#clip0)">
<path d="M31.1375 560.436L282.546 559.061L349.562 559.041H371.763L438.906 559.02L745.654 558.932C745.654 558.932 815.815 464.101 740.87 374.031C663.166 280.639 625.394 356.702 601.496 225.242C541.373 -105.624 -53.0502 86.9464 102.862 368.508C159.002 469.888 -7.65478 416.004 31.1375 560.436Z" fill="#EBF3FA"/>
<path d="M275.237 491.383L273.806 490.597C273.071 490.194 272.526 489.516 272.29 488.711C272.054 487.907 272.147 487.041 272.548 486.305L279.133 474.285C279.536 473.55 280.214 473.005 281.019 472.77C281.824 472.534 282.689 472.628 283.425 473.031L285.477 474.153C285.613 474.236 285.712 474.367 285.754 474.52C285.795 474.673 285.777 474.836 285.701 474.976C285.626 475.116 285.5 475.221 285.349 475.271C285.198 475.32 285.034 475.309 284.891 475.241L282.839 474.115C282.39 473.871 281.863 473.814 281.373 473.957C280.883 474.101 280.469 474.433 280.224 474.881L273.642 486.9C273.397 487.348 273.34 487.874 273.483 488.364C273.626 488.854 273.957 489.267 274.404 489.513L275.838 490.298C276.286 490.543 276.812 490.6 277.302 490.456C277.792 490.313 278.205 489.981 278.45 489.533L282.821 481.553C282.855 481.475 282.906 481.404 282.969 481.347C283.031 481.289 283.106 481.244 283.186 481.217C283.267 481.189 283.353 481.178 283.438 481.185C283.523 481.192 283.606 481.217 283.681 481.258C283.757 481.298 283.823 481.354 283.875 481.422C283.928 481.489 283.966 481.567 283.987 481.649C284.008 481.732 284.012 481.819 283.998 481.903C283.984 481.987 283.952 482.068 283.906 482.139L279.538 490.119C279.338 490.485 279.069 490.808 278.745 491.069C278.421 491.331 278.049 491.526 277.649 491.643C277.25 491.761 276.831 491.798 276.417 491.753C276.003 491.709 275.602 491.583 275.237 491.383V491.383Z" fill="#AFCDFB"/>
<path d="M269.134 504.007L266.566 502.603C264.18 501.295 263.38 498.155 264.778 495.599L274.675 477.525C274.71 477.447 274.76 477.377 274.823 477.319C274.886 477.261 274.96 477.217 275.041 477.189C275.122 477.161 275.207 477.151 275.293 477.158C275.378 477.165 275.461 477.189 275.536 477.23C275.611 477.271 275.677 477.326 275.73 477.394C275.782 477.461 275.82 477.539 275.841 477.622C275.862 477.704 275.866 477.791 275.852 477.875C275.838 477.959 275.807 478.04 275.76 478.112L265.854 496.194C264.784 498.15 265.364 500.539 267.15 501.515L269.721 502.922C271.506 503.902 273.825 503.104 274.901 501.163L286.176 480.574C287.246 478.619 286.666 476.229 284.881 475.253C284.745 475.171 284.646 475.04 284.604 474.887C284.562 474.734 284.581 474.57 284.656 474.431C284.732 474.291 284.858 474.185 285.009 474.136C285.16 474.087 285.324 474.097 285.467 474.166C287.853 475.473 288.654 478.613 287.255 481.169L275.983 501.756C274.596 504.297 271.518 505.315 269.134 504.007Z" fill="#AFCDFB"/>
<path opacity="0.6" d="M516.584 131.813H201.282C193.531 131.813 187.248 138.096 187.248 145.847V410.484C187.248 418.234 193.531 424.518 201.282 424.518H516.584C524.335 424.518 530.618 418.234 530.618 410.484V145.847C530.618 138.096 524.335 131.813 516.584 131.813Z" fill="white"/>
<path d="M197.726 131.813H520.14C522.919 131.813 525.584 132.917 527.549 134.882C529.514 136.847 530.618 139.512 530.618 142.291V164.278H187.248V142.291C187.248 139.512 188.352 136.847 190.317 134.882C192.282 132.917 194.947 131.813 197.726 131.813V131.813Z" fill="#699DEE"/>
<path d="M201.135 147.855C201.135 147.086 201.363 146.335 201.79 145.696C202.217 145.057 202.823 144.56 203.533 144.266C204.243 143.972 205.025 143.895 205.778 144.045C206.532 144.195 207.224 144.565 207.767 145.109C208.31 145.653 208.68 146.345 208.829 147.099C208.979 147.852 208.902 148.633 208.607 149.343C208.313 150.053 207.814 150.659 207.175 151.086C206.536 151.512 205.785 151.74 205.016 151.739C204.506 151.739 204.001 151.639 203.53 151.443C203.059 151.248 202.631 150.962 202.271 150.601C201.91 150.241 201.624 149.812 201.429 149.341C201.234 148.87 201.134 148.365 201.135 147.855Z" fill="#DDE7FE"/>
<path d="M217.434 147.855C217.434 147.086 217.661 146.335 218.088 145.697C218.515 145.058 219.122 144.56 219.832 144.266C220.541 143.972 221.322 143.895 222.076 144.045C222.829 144.195 223.522 144.565 224.065 145.108C224.608 145.651 224.978 146.343 225.128 147.097C225.278 147.85 225.201 148.631 224.907 149.341C224.613 150.051 224.115 150.658 223.476 151.085C222.837 151.511 222.086 151.739 221.318 151.739C220.288 151.739 219.3 151.33 218.571 150.601C217.843 149.873 217.434 148.885 217.434 147.855V147.855Z" fill="#DDE7FE"/>
<path d="M233.729 147.855C233.729 147.086 233.956 146.335 234.383 145.697C234.81 145.058 235.417 144.56 236.126 144.266C236.836 143.972 237.617 143.895 238.371 144.045C239.124 144.195 239.816 144.565 240.36 145.108C240.903 145.651 241.273 146.343 241.423 147.097C241.573 147.85 241.496 148.631 241.202 149.341C240.908 150.051 240.41 150.658 239.771 151.085C239.132 151.511 238.381 151.739 237.613 151.739C236.583 151.739 235.595 151.33 234.866 150.601C234.138 149.873 233.729 148.885 233.729 147.855V147.855Z" fill="#DDE7FE"/>
<path opacity="0.5" d="M311.794 190.062H214.459V287.397H311.794V190.062Z" fill="#CDE0FB"/>
<path opacity="0.5" d="M415.681 197.318H338.267C337.291 197.318 336.356 196.93 335.666 196.24C334.976 195.55 334.588 194.615 334.588 193.639V193.639C334.588 193.156 334.683 192.677 334.868 192.231C335.053 191.785 335.324 191.38 335.666 191.038C336.007 190.697 336.413 190.426 336.859 190.241C337.306 190.057 337.784 189.962 338.267 189.962H415.687C416.17 189.962 416.648 190.057 417.095 190.241C417.541 190.426 417.947 190.697 418.288 191.038C418.63 191.38 418.901 191.785 419.086 192.231C419.271 192.677 419.366 193.156 419.366 193.639V193.639C419.366 194.122 419.271 194.601 419.086 195.048C418.9 195.495 418.629 195.901 418.287 196.242C417.944 196.584 417.538 196.855 417.091 197.04C416.644 197.224 416.165 197.319 415.681 197.318V197.318Z" fill="#7C9AF2"/>
<path opacity="0.5" d="M508.265 192.384H430.842C429.869 192.383 428.936 191.997 428.247 191.309C427.558 190.622 427.169 189.69 427.166 188.716V188.716C427.167 187.742 427.554 186.807 428.244 186.118C428.933 185.428 429.868 185.041 430.842 185.04H508.265C509.24 185.04 510.176 185.427 510.866 186.117C511.556 186.806 511.944 187.741 511.944 188.716V188.716C511.941 189.69 511.552 190.623 510.863 191.31C510.173 191.998 509.239 192.384 508.265 192.384V192.384Z" fill="#7C9AF2"/>
<g opacity="0.3">
<path opacity="0.3" d="M431.006 225.636H336.964C336.651 225.636 336.341 225.574 336.051 225.454C335.762 225.334 335.5 225.159 335.278 224.937C335.057 224.716 334.881 224.453 334.761 224.164C334.642 223.875 334.58 223.565 334.58 223.252V223.252C334.58 222.939 334.642 222.629 334.761 222.34C334.881 222.051 335.057 221.788 335.278 221.567C335.5 221.345 335.762 221.17 336.051 221.05C336.341 220.93 336.651 220.869 336.964 220.869H431.006C431.638 220.869 432.244 221.12 432.691 221.567C433.138 222.014 433.389 222.62 433.389 223.252V223.252C433.389 223.884 433.138 224.49 432.691 224.937C432.244 225.384 431.638 225.636 431.006 225.636V225.636Z" fill="#BDD1F9"/>
<path opacity="0.3" d="M466.756 225.636H441.93C441.298 225.636 440.692 225.384 440.245 224.937C439.798 224.49 439.547 223.884 439.547 223.252V223.252C439.547 222.62 439.798 222.014 440.245 221.567C440.692 221.12 441.298 220.869 441.93 220.869H466.756C467.388 220.869 467.994 221.12 468.441 221.567C468.888 222.014 469.139 222.62 469.139 223.252V223.252C469.139 223.884 468.888 224.49 468.441 224.937C467.994 225.384 467.388 225.636 466.756 225.636V225.636Z" fill="#BDD1F9"/>
<path opacity="0.3" d="M372.445 240.423H336.971C336.658 240.423 336.348 240.362 336.059 240.242C335.77 240.122 335.507 239.946 335.286 239.725C335.065 239.504 334.889 239.241 334.769 238.952C334.65 238.663 334.588 238.353 334.588 238.04C334.588 237.727 334.65 237.417 334.769 237.128C334.889 236.838 335.065 236.576 335.286 236.354C335.507 236.133 335.77 235.957 336.059 235.838C336.348 235.718 336.658 235.656 336.971 235.656H372.445C373.077 235.656 373.684 235.907 374.131 236.354C374.579 236.801 374.83 237.407 374.831 238.04V238.04C374.83 238.672 374.579 239.278 374.131 239.725C373.684 240.172 373.077 240.423 372.445 240.423V240.423Z" fill="#BDD1F9"/>
<path opacity="0.3" d="M429.919 240.423H381.298C380.665 240.423 380.059 240.172 379.612 239.725C379.165 239.278 378.914 238.672 378.914 238.04V238.04C378.914 237.408 379.165 236.801 379.612 236.354C380.059 235.907 380.665 235.656 381.298 235.656H429.919C430.552 235.656 431.158 235.907 431.605 236.354C432.052 236.801 432.303 237.408 432.303 238.04V238.04C432.303 238.672 432.052 239.278 431.605 239.725C431.158 240.172 430.552 240.423 429.919 240.423Z" fill="#BDD1F9"/>
<path opacity="0.3" d="M466.756 240.423H441.93C441.298 240.423 440.692 240.172 440.245 239.725C439.798 239.278 439.547 238.672 439.547 238.04V238.04C439.547 237.408 439.798 236.801 440.245 236.354C440.692 235.907 441.298 235.656 441.93 235.656H466.756C467.388 235.656 467.994 235.907 468.441 236.354C468.888 236.801 469.139 237.408 469.139 238.04V238.04C469.139 238.672 468.888 239.278 468.441 239.725C467.994 240.172 467.388 240.423 466.756 240.423Z" fill="#BDD1F9"/>
<path opacity="0.3" d="M385.111 253.214H336.964C336.651 253.214 336.341 253.153 336.051 253.033C335.762 252.913 335.5 252.737 335.278 252.516C335.057 252.295 334.881 252.032 334.761 251.743C334.642 251.454 334.58 251.144 334.58 250.831C334.58 250.518 334.642 250.208 334.761 249.919C334.881 249.629 335.057 249.367 335.278 249.145C335.5 248.924 335.762 248.748 336.051 248.629C336.341 248.509 336.651 248.447 336.964 248.447H385.111C385.743 248.447 386.349 248.698 386.796 249.145C387.243 249.592 387.494 250.199 387.494 250.831V250.831C387.494 251.463 387.243 252.069 386.796 252.516C386.349 252.963 385.743 253.214 385.111 253.214Z" fill="#BDD1F9"/>
<path opacity="0.3" d="M477.05 253.214H398.305C397.673 253.214 397.067 252.963 396.62 252.516C396.173 252.069 395.922 251.463 395.922 250.831V250.831C395.922 250.199 396.173 249.592 396.62 249.145C397.067 248.698 397.673 248.447 398.305 248.447H477.05C477.682 248.447 478.289 248.698 478.736 249.145C479.183 249.592 479.434 250.199 479.434 250.831V250.831C479.434 251.463 479.183 252.069 478.736 252.516C478.289 252.963 477.682 253.214 477.05 253.214Z" fill="#BDD1F9"/>
</g>
<g opacity="0.3">
<path opacity="0.3" d="M431.008 272.611H336.965C336.652 272.611 336.343 272.549 336.053 272.429C335.764 272.309 335.501 272.134 335.28 271.913C335.059 271.691 334.883 271.428 334.763 271.139C334.644 270.85 334.582 270.54 334.582 270.227C334.582 269.914 334.644 269.604 334.763 269.315C334.883 269.026 335.059 268.763 335.28 268.542C335.501 268.321 335.764 268.145 336.053 268.025C336.343 267.905 336.652 267.844 336.965 267.844H431.008C431.64 267.844 432.246 268.095 432.693 268.542C433.14 268.989 433.391 269.595 433.391 270.227V270.227C433.391 270.859 433.14 271.466 432.693 271.913C432.246 272.36 431.64 272.611 431.008 272.611Z" fill="#BDD1F9"/>
<path opacity="0.3" d="M466.758 272.61H441.932C441.3 272.61 440.694 272.359 440.247 271.912C439.8 271.465 439.549 270.859 439.549 270.227V270.227C439.549 269.595 439.8 268.988 440.247 268.541C440.694 268.094 441.3 267.843 441.932 267.843H466.758C467.39 267.843 467.996 268.094 468.443 268.541C468.89 268.988 469.141 269.595 469.141 270.227V270.227C469.141 270.859 468.89 271.465 468.443 271.912C467.996 272.359 467.39 272.61 466.758 272.61Z" fill="#BDD1F9"/>
<path opacity="0.3" d="M372.447 287.398H336.973C336.66 287.398 336.35 287.336 336.061 287.216C335.772 287.097 335.509 286.921 335.288 286.7C335.067 286.478 334.891 286.216 334.771 285.926C334.652 285.637 334.59 285.327 334.59 285.014C334.59 284.701 334.652 284.391 334.771 284.102C334.891 283.813 335.067 283.55 335.288 283.329C335.509 283.108 335.772 282.932 336.061 282.812C336.35 282.693 336.66 282.631 336.973 282.631H372.447C373.079 282.631 373.686 282.882 374.133 283.329C374.58 283.776 374.832 284.382 374.833 285.014V285.014C374.832 285.647 374.58 286.253 374.133 286.7C373.686 287.147 373.079 287.398 372.447 287.398V287.398Z" fill="#BDD1F9"/>
<path opacity="0.3" d="M429.919 287.398H381.298C380.665 287.398 380.059 287.147 379.612 286.7C379.165 286.253 378.914 285.646 378.914 285.014V285.014C378.914 284.382 379.165 283.776 379.612 283.329C380.059 282.882 380.665 282.631 381.298 282.631H429.919C430.552 282.631 431.158 282.882 431.605 283.329C432.052 283.776 432.303 284.382 432.303 285.014V285.014C432.303 285.646 432.052 286.253 431.605 286.7C431.158 287.147 430.552 287.398 429.919 287.398Z" fill="#BDD1F9"/>
</g>
<path d="M258.1 204.571H268.152L295.311 266.723H283.848L277.581 251.836H248.402L242.051 266.738H230.943L258.1 204.571ZM273.62 242.223L262.951 217.535L252.368 242.223H273.62Z" fill="#BDD1F9"/>
<path d="M268.83 307.004H214.459V317.499H268.83V307.004Z" fill="#F99746"/>
<path d="M268.83 317.5H214.459V327.995H268.83V317.5Z" fill="#ED7D2B"/>
<path d="M268.83 327.998H214.459V338.493H268.83V327.998Z" fill="#474FEA"/>
<path d="M308.896 312.946H278.993C278.693 312.95 278.395 312.893 278.117 312.78C277.839 312.667 277.586 312.5 277.373 312.289C277.16 312.078 276.991 311.826 276.876 311.549C276.761 311.272 276.702 310.974 276.703 310.674V310.674C276.703 310.073 276.942 309.497 277.367 309.072C277.792 308.647 278.368 308.408 278.969 308.408H308.872C309.474 308.408 310.05 308.647 310.475 309.072C310.9 309.497 311.139 310.073 311.139 310.674C311.14 311.272 310.905 311.847 310.485 312.272C310.065 312.698 309.494 312.94 308.896 312.946V312.946Z" fill="#BDD1F9"/>
<path d="M298.814 320.935H278.975C278.374 320.935 277.798 320.696 277.373 320.271C276.948 319.846 276.709 319.27 276.709 318.669V318.669C276.709 318.068 276.948 317.492 277.373 317.067C277.798 316.642 278.374 316.403 278.975 316.403H298.814C299.415 316.403 299.991 316.642 300.416 317.067C300.841 317.492 301.08 318.068 301.08 318.669V318.669C301.08 319.27 300.841 319.846 300.416 320.271C299.991 320.696 299.415 320.935 298.814 320.935V320.935Z" fill="#BDD1F9"/>
<path d="M268.83 361.275H214.459V382.724H268.83V361.275Z" fill="#F99746"/>
<path d="M268.83 377.426H214.459V392.764H268.83V377.426Z" fill="#B5453C"/>
<path d="M214.459 361.275L233.966 377.661L214.459 392.767V361.275Z" fill="#474FEA"/>
<path d="M308.896 367.217H278.993C278.392 367.217 277.815 366.979 277.39 366.554C276.965 366.129 276.727 365.552 276.727 364.951V364.951C276.727 364.654 276.785 364.359 276.899 364.084C277.013 363.809 277.18 363.559 277.39 363.349C277.601 363.138 277.851 362.971 278.126 362.858C278.4 362.744 278.695 362.685 278.993 362.685H308.896C309.194 362.685 309.488 362.744 309.763 362.858C310.038 362.971 310.288 363.138 310.498 363.349C310.709 363.559 310.876 363.809 310.99 364.084C311.103 364.359 311.162 364.654 311.162 364.951V364.951C311.162 365.552 310.923 366.129 310.498 366.554C310.073 366.979 309.497 367.217 308.896 367.217V367.217Z" fill="#BDD1F9"/>
<path d="M298.814 375.21H278.975C278.374 375.21 277.798 374.971 277.373 374.546C276.948 374.121 276.709 373.544 276.709 372.943V372.943C276.709 372.342 276.948 371.765 277.373 371.34C277.797 370.914 278.374 370.675 278.975 370.674H298.814C299.415 370.675 299.992 370.914 300.416 371.34C300.841 371.765 301.08 372.342 301.08 372.943V372.943C301.08 373.544 300.841 374.121 300.416 374.546C299.991 374.971 299.415 375.21 298.814 375.21V375.21Z" fill="#BDD1F9"/>
<path d="M534.087 158.318C534.087 158.318 535.503 175.196 531.657 174.941C527.81 174.686 520.223 167.257 504.899 168.465C489.576 169.672 470.833 173.023 459.503 152.974C448.172 132.924 474.006 127.151 474.006 127.151L534.105 158.318H534.087Z" fill="#233862"/>
<path d="M501.516 157.084L578.713 163.431L580.32 159.998L506.307 105.366L431.546 96.6299L430.109 99.7052L501.516 157.084Z" fill="#2B478B"/>
<path d="M554.053 215.222C553.89 214.652 553.562 214.144 553.111 213.761C552.659 213.378 552.104 213.138 551.515 213.071C550.927 213.003 550.332 213.112 549.806 213.383C549.279 213.654 548.845 214.075 548.557 214.593C548.27 215.11 548.143 215.702 548.192 216.292C548.241 216.882 548.464 217.444 548.832 217.908C549.201 218.371 549.699 218.715 550.263 218.895C550.827 219.076 551.432 219.085 552.001 218.922C552.763 218.703 553.408 218.19 553.793 217.496C554.177 216.803 554.271 215.985 554.053 215.222V215.222Z" fill="#F99746"/>
<path d="M551.479 216.052C554.578 215.811 555.29 243.985 555.29 243.985C555.29 243.985 553.273 244.935 552.28 244.712C551.286 244.489 550.782 240.684 550.782 240.684L550.685 244.674C550.685 244.674 547.29 244.791 546.111 243.964C546.111 243.964 546.572 216.436 551.47 216.052H551.479Z" fill="#F99746"/>
<path d="M552.492 216.688L551.932 155.134L551.533 154.835L511.208 125.008L509.76 126.967L549.683 156.497L550.583 216.579L552.492 216.688Z" fill="#F99746"/>
<path d="M434.922 442.65H605.079C611.684 442.65 618.017 445.273 622.687 449.943C627.357 454.613 629.981 460.947 629.981 467.552V481.624C629.981 488.378 627.298 494.856 622.522 499.632C617.746 504.408 611.268 507.091 604.513 507.091H434.922V442.65Z" fill="#FCECDB"/>
<path d="M775.466 469.161V478.853C775.483 483.811 774.253 488.695 771.889 493.054C767.319 501.444 758.82 507.082 749.087 507.082H429.698C427.584 507.082 425.887 505.25 425.887 502.977V501.512C425.887 499.254 427.599 497.407 429.698 497.407H624.399C625.45 496.033 626.366 494.561 627.132 493.01C629.02 489.18 629.996 484.966 629.984 480.697V468.384C629.987 466.175 629.722 463.974 629.196 461.828C628.354 458.373 626.822 455.123 624.693 452.274H429.698C427.584 452.274 425.887 450.442 425.887 448.17V446.722C425.887 444.461 427.599 442.617 429.698 442.617H750.696C762.01 442.617 771.549 450.735 774.51 461.826C775.149 464.218 775.471 466.684 775.466 469.161V469.161Z" fill="#699DEE"/>
<path d="M774.502 461.855H629.193C628.355 458.39 626.825 455.131 624.693 452.274H429.698C427.584 452.274 425.887 450.442 425.887 448.17V446.722C425.887 444.461 427.599 442.617 429.698 442.617H750.696C762.01 442.647 771.549 450.764 774.502 461.855Z" fill="#548EE2"/>
<path d="M434.922 474.866L458.572 475.951L434.922 476.602V474.866Z" fill="#F4D2B8"/>
<path d="M434.922 484.978L491.184 486.059L434.922 486.713V484.978Z" fill="#F4D2B8"/>
<path d="M576.625 557.07H410.141C403.765 557.07 397.65 554.537 393.142 550.029C388.634 545.52 386.101 539.406 386.101 533.03V529.547C386.101 523.56 388.479 517.818 392.713 513.585C396.946 509.352 402.688 506.973 408.675 506.973H576.625V557.105V557.07Z" fill="#F99746"/>
<path d="M758.344 557.07H568.603C565.519 557.07 562.465 556.463 559.616 555.283C556.767 554.103 554.178 552.373 551.998 550.192C549.817 548.012 548.087 545.423 546.907 542.574C545.727 539.725 545.12 536.671 545.12 533.588V529.914C545.12 523.824 547.539 517.983 551.846 513.676C556.152 509.37 561.993 506.95 568.084 506.95H758.35V557.082L758.344 557.07Z" fill="#FCECDB"/>
<path d="M532.583 557.07H764.746C766.672 557.07 768.234 555.508 768.234 553.582V553.063C768.234 551.136 766.672 549.574 764.746 549.574H532.583C530.656 549.574 529.095 551.136 529.095 553.063V553.582C529.095 555.508 530.656 557.07 532.583 557.07Z" fill="#F99746"/>
<path d="M532.583 514.446H764.746C766.672 514.446 768.234 512.884 768.234 510.958V510.439C768.234 508.512 766.672 506.95 764.746 506.95H532.583C530.656 506.95 529.095 508.512 529.095 510.439V510.958C529.095 512.884 530.656 514.446 532.583 514.446Z" fill="#F99746"/>
<path d="M758.344 532.008L732.492 532.852L758.344 533.359V532.008Z" fill="#F4D2B8"/>
<path d="M758.344 520.475L696.844 521.316L758.344 521.823V520.475Z" fill="#F4D2B8"/>
<path d="M697.477 521.148C699.182 522.661 700.405 524.64 700.995 526.842C701.158 527.49 701.25 528.155 701.267 528.824C701.414 533.514 701.267 544.168 701.267 544.168L709.051 538.847L716.811 544.168V529.744C716.811 527.015 716.145 524.362 714.908 522.623C714.322 521.782 713.583 521.157 712.759 521.157L697.477 521.148Z" fill="#699DEE"/>
<path d="M697.477 521.148C699.182 522.661 700.405 524.64 700.995 526.842L716.588 527.053C716.588 527.053 715.975 521.984 712.759 521.148H697.477Z" fill="#568CDB"/>
<path d="M392.127 369.147H556.594C563.577 369.147 570.274 371.921 575.212 376.859C580.149 381.796 582.923 388.493 582.923 395.476V415.86C582.923 423.001 580.087 429.85 575.037 434.899C569.988 439.948 563.14 442.785 555.999 442.785H392.127V369.147Z" fill="#FCECDB"/>
<path d="M583.006 397.719V413.577C582.965 420.346 579.828 426.218 575.216 429.358C572.96 430.921 570.283 431.765 567.538 431.779H387.108C384.994 431.779 383.279 433.832 383.279 436.353V438.203C383.279 440.73 384.994 442.776 387.108 442.776H698.804C707.749 442.776 715.65 437.467 720.425 429.34C723.596 423.841 725.244 417.596 725.201 411.249V398.745C725.217 394.335 724.381 389.963 722.741 385.869C718.731 375.969 710.244 369.141 700.417 369.141H387.108C384.994 369.141 383.279 371.193 383.279 373.709V375.579C383.279 378.106 384.994 380.152 387.108 380.152H568.089C572.414 380.152 576.33 382.351 579.066 385.869C581.642 389.281 583.026 393.444 583.006 397.719V397.719Z" fill="#AFCDFB"/>
<path d="M383.279 436.344V438.202C383.279 440.729 384.994 442.776 387.108 442.776H698.804C707.749 442.776 715.65 437.466 720.425 429.34H575.216C572.96 430.903 570.283 431.747 567.538 431.761H387.108C384.994 431.77 383.279 433.805 383.279 436.344Z" fill="#A4C4F4"/>
<path d="M392.127 405.966L415.258 407.203L392.127 407.951V405.966Z" fill="#F4D2B8"/>
<path d="M392.127 389.021L447.158 390.258L392.127 391.002V389.021Z" fill="#F4D2B8"/>
<path d="M446.588 390.012C446.588 390.012 442.959 392.357 441.754 396.186C441.533 396.881 441.406 397.603 441.379 398.332C441.179 403.43 441.379 414.972 441.379 414.972L430.658 409.202L419.963 414.972V399.332C419.963 396.373 420.88 393.495 422.584 391.612C423.411 390.698 424.413 390.012 425.545 390.012H446.588Z" fill="#F99746"/>
<path d="M446.59 390.012C446.59 390.012 442.961 392.357 441.756 396.186L420.27 396.414C420.27 396.414 421.114 390.918 425.547 390.012H446.59Z" fill="#ED7D2B"/>
<path d="M172.698 436.27C172.698 436.27 206.283 450.905 212.381 450.635C218.479 450.366 256.046 439.202 256.046 439.202L255.09 445.651C255.09 445.651 226.098 462.327 215.961 463.274C205.993 464.203 171.859 454.317 168.564 452.227C165.269 450.137 163.123 438.384 172.698 436.27Z" fill="#ED985F"/>
<path d="M167.644 382.439C167.644 382.439 155.255 380.094 149.084 384.591C137.911 392.761 137.31 420.906 133.121 425.092C128.932 429.278 118.832 427.496 117.932 449.187C117.032 470.879 121.954 472.697 116.094 482.38C110.233 492.063 118.571 501.755 118.571 501.755C118.571 501.755 115.167 496.411 116.633 492.553C116.633 492.553 118.055 501.055 123.464 503.063C128.873 505.071 129.673 506.522 130.538 509.451C130.538 509.451 176.692 485.801 176.741 469.026C176.791 452.251 185.83 435.637 181.388 428.37C181.388 428.37 183.364 431.477 183.604 434.937C183.604 434.937 186.266 429.838 181.655 425.092C177.043 420.346 187.064 410.521 185.58 399.144C184.548 391.334 179.078 382.794 167.644 382.439Z" fill="#233862"/>
<path d="M176.779 452.254C173.829 454.306 170.13 455.986 165.486 457.059C148.08 461.078 141.411 446.37 138.904 436.27C140.724 435.264 142.732 434.648 144.803 434.459C146.061 434.312 147.383 434.212 148.479 434.165C150.435 432.67 153.346 426.543 153.991 417.03L154.809 417.25L168.523 420.996C168.523 420.996 167.896 425.356 167.588 429.478C167.347 432.703 167.312 435.784 167.922 436.54C168.992 436.772 169.634 436.924 169.634 436.924C172.501 441.794 174.893 446.927 176.779 452.254Z" fill="#FFB27D"/>
<path d="M168.524 420.999C168.524 420.999 167.894 425.356 167.589 429.481C159.817 428.701 156.211 421.304 154.807 417.244L168.524 420.999Z" fill="#ED985F"/>
<path d="M170.848 425.092C170.848 425.092 152.402 424.075 153.211 412.597C154.021 401.12 152.188 393.248 164 393.421C175.812 393.594 177.779 398.112 178.45 402.026C179.122 405.94 175.668 425.06 170.848 425.092Z" fill="#FFB27D"/>
<path d="M178.358 395.602C175.757 391.946 173.55 392.55 172.272 393.5C162.597 387.244 155.52 394.966 155.52 394.966C153.697 403.113 147.42 407.402 147.42 407.402C147.42 407.402 150.645 409.718 158.513 408.281C160.923 407.841 163.154 406.311 165.095 404.403C162.813 407.589 160.106 410.45 157.05 412.904C166.605 409.293 171.24 396.698 171.709 395.364C172.761 396.455 174.819 398.809 175.341 401.008C176.051 403.995 179.108 408.668 180.876 408.589C180.876 408.592 182.257 401.087 178.358 395.602Z" fill="#233862"/>
<path d="M133.652 489.756C131.987 481.254 126.554 447.218 131.987 436.271C133.936 432.336 141.591 431.982 149.99 432.327C152.602 434.016 162.561 440.39 166.651 439.595L166.879 439.539C168.805 439.059 169.533 437.707 167.926 436.54C171.047 436.337 174.181 436.534 177.252 437.127C180.183 437.675 188.037 441.747 188.037 441.747C188.037 441.747 184.074 448.906 178.231 451.378C179.225 460.266 177.747 464.186 168.527 484.717C160.735 502.069 169.579 517.692 169.579 517.692C169.579 517.692 123.71 554.573 123.455 535.795C123.262 521.644 135.78 500.647 133.652 489.756Z" fill="#F9DDBF"/>
<path d="M171.851 557.777C173.084 557.638 174.271 557.232 175.331 556.588C176.391 555.943 177.297 555.075 177.987 554.045L178.696 552.974C183.915 545.059 185.946 520.867 197.691 495.08C200.552 488.803 210.819 487.674 213.619 480.577C213.619 480.577 220.511 457.575 200.426 456.894C180.341 456.214 146.647 520.899 146.114 527.68C145.601 534.253 132.842 562.18 171.851 557.777Z" fill="#DD6D22"/>
<path d="M251.666 557.249H223.085C223.085 557.249 222.015 552.69 223.891 549.588C225.554 546.844 224.917 545.279 223.686 543.01C225.203 543.666 226.848 543.976 228.5 543.916C229.925 543.833 231.432 543.189 232.751 542.42C233.979 543.822 239.247 549.794 240.895 550.975C242.763 552.318 251.091 551.84 251.666 557.249Z" fill="#233862"/>
<path d="M214.272 463.544C215.993 476.443 222.715 517.173 234.571 537.041C238.382 543.447 224.94 547.038 224.867 547.009C223.064 546.537 220.059 543.661 218.673 542.412C209.048 533.737 189.508 509.175 189.508 489.483C189.508 479.879 189.341 461.541 196.321 456.88C200.622 454.033 213.589 458.431 214.272 463.544Z" fill="#ED7D2B"/>
<path d="M154.809 557.249C154.809 557.249 155.868 555.783 157.715 552.975C159.913 549.647 162.344 543.095 165.296 534.696C168.395 525.88 172.074 515.033 176.671 503.746C178.087 500.263 179.603 496.736 181.197 493.215C184.056 486.939 191.927 487.806 194.727 480.709C194.727 480.709 205.651 456.106 185.569 455.429C165.487 454.752 127.328 521.242 125.135 527.68C122.737 534.731 111.025 564.004 154.809 557.249Z" fill="#F99746"/>
<path d="M230.675 557.249H202.103C202.103 557.249 201.033 552.69 202.909 549.588C204.571 546.844 203.935 545.279 202.704 543.01C204.221 543.666 205.865 543.976 207.517 543.916C208.942 543.833 210.449 543.189 211.768 542.42C213 543.822 218.265 549.794 219.913 550.975C221.78 552.318 230.109 551.84 230.675 557.249Z" fill="#2B478B"/>
<path d="M165.299 534.696C168.398 525.88 172.077 515.033 176.674 503.746C175.472 495.197 172.883 487.715 168.53 484.69C168.524 484.702 157.97 517.422 165.299 534.696Z" fill="#ED7D2B"/>
<path d="M197.588 462.629C199.309 475.529 201.733 517.158 213.589 537.041C217.4 543.447 203.959 547.038 203.888 547.009C202.082 546.537 199.077 543.661 197.691 542.412C188.066 533.746 168.523 509.184 168.523 489.507C168.523 479.903 179.793 462.336 186.776 457.675C191.077 454.79 196.905 457.505 197.588 462.629Z" fill="#F99746"/>
<path d="M174.3 418.49C174.3 418.49 172.541 417.801 167.648 418.197C167.648 418.197 167.909 420.111 171.527 420.299C173.579 420.41 174.3 418.49 174.3 418.49Z" fill="white"/>
<path d="M259.632 425.675L253.707 414.983L240.887 450.756L248.45 458.874L259.632 425.675Z" fill="#163560"/>
<path d="M228.692 431.938L216.777 465.978L248.451 458.874L259.633 425.676L228.692 431.938Z" fill="#1C468A"/>
<path d="M217.406 464.262L216.852 463.292L228.127 431.076L228.69 431.938L217.406 464.262Z" fill="#EFDECE"/>
<path d="M228.127 431.075L258.156 425.232L259.631 425.675L228.69 431.937L228.127 431.075Z" fill="#FCECDB"/>
<path d="M259.631 425.675L253.222 415.505L249.139 426.986L258.157 425.233L259.631 425.675Z" fill="#EFDECE"/>
<path d="M237.839 436.866C236.807 436.669 234.614 435.837 232.359 435.221C233.028 434.702 233.772 434.066 233.978 433.409C234.379 432.149 234.643 431.744 233.315 432.143C231.987 432.541 227.329 434.679 227.329 434.679C224.69 435.45 222.245 439.191 222.245 439.191C222.245 439.191 189.498 450.7 185.558 450.9C179.463 451.193 138.894 436.265 138.894 436.265C129.323 438.378 131.469 450.14 134.764 452.228C138.059 454.315 167.25 464.937 184.55 465.127C193.312 465.227 225.186 444.743 225.186 444.743C225.186 444.743 228.912 443.04 231.837 443.57C234.763 444.101 241.55 443.57 243.016 441.175C244.482 438.78 239.568 437.2 237.839 436.866Z" fill="#FFB27D"/>
<path d="M159.807 443.638C159.807 443.638 156.178 455.124 143.718 457.739C143.718 457.739 123.141 451.398 133.384 437.378C133.384 437.378 143.516 429.853 159.807 443.638Z" fill="#F9DDBF"/>
<path d="M259.113 437.73C259.124 437.416 259.087 437.101 259.004 436.798C259.004 436.798 256.073 432.154 255.108 431.964C252.176 431.377 252.176 435.241 252.801 437.727C253.242 439.337 254.075 440.812 255.225 442.022V442.022L255.108 445.654C260.036 442.94 259.113 437.73 259.113 437.73Z" fill="#FFB27D"/>
<path d="M107.175 377.103C108.347 348.153 84.0788 335.292 59.2651 335.292C34.4514 335.292 7.45352 341.718 5.11404 380.217C3.61009 404.98 16.8114 420.219 54.8265 420.219C67.6497 420.219 77.6145 418.199 85.2456 414.593L104.249 431.477L94.9114 408.138C103.185 400.445 106.667 389.598 107.175 377.103Z" fill="#EBF3FA"/>
<path d="M20.4143 367.423V374.187H24.8382V367.423H26.6295V383.199H24.8265V375.826H20.4143V383.199H18.6113V367.423H20.4143Z" fill="#91B5F8"/>
<path d="M30.4778 377.698C30.4778 381.184 31.8586 381.911 33.1456 381.911C33.7949 381.924 34.4376 381.779 35.0189 381.489L35.3121 382.8C34.5283 383.164 33.6728 383.348 32.8085 383.339C30.0937 383.339 28.6895 381.114 28.6895 377.652C28.6895 373.999 30.2579 371.706 32.527 371.706C34.7961 371.706 35.7519 374.139 35.7519 376.666C35.7519 377.112 35.7284 377.417 35.705 377.698H30.4778ZM34.0339 376.364C34.0574 374.116 33.216 373.11 32.3511 373.11C31.155 373.11 30.5716 374.819 30.5012 376.364H34.0339Z" fill="#91B5F8"/>
<path d="M37.7109 367.003H39.511V383.198H37.7109V367.003Z" fill="#91B5F8"/>
<path d="M42.168 367.003H43.9709V383.198H42.168V367.003Z" fill="#91B5F8"/>
<path d="M54.6008 377.534C54.6008 381.911 52.5896 383.398 50.8335 383.398C48.7814 383.398 47.1602 381.548 47.1602 377.569C47.1602 373.45 49.0071 371.706 50.9508 371.706C52.9854 371.706 54.6008 373.603 54.6008 377.534ZM48.9602 377.534C48.9602 379.405 49.2886 381.958 50.9274 381.958C52.4724 381.958 52.7978 379.32 52.7978 377.534C52.7978 375.802 52.4724 373.137 50.8805 373.137C49.2886 373.137 48.9602 375.802 48.9602 377.534Z" fill="#91B5F8"/>
<path d="M584.167 290.217C585.234 263.75 563.059 251.991 540.367 251.991C517.676 251.991 493 257.854 490.86 293.061C489.485 315.702 501.555 329.636 536.301 329.636C548.028 329.636 557.134 327.786 564.111 324.488L581.484 339.926L572.956 318.59C580.517 311.554 583.703 301.639 584.167 290.217Z" fill="#91B5F8"/>
<path d="M514.098 285.626C514.823 285.45 515.567 285.363 516.314 285.368C517.522 285.368 518.551 285.626 519.263 286.298C519.561 286.595 519.792 286.951 519.944 287.344C520.095 287.736 520.163 288.156 520.143 288.576C520.156 289.221 519.964 289.854 519.596 290.383C519.227 290.913 518.7 291.313 518.091 291.525V291.584C519.636 292 520.565 293.246 520.565 294.99C520.595 295.958 520.255 296.902 519.615 297.629C518.865 298.482 517.616 298.836 516.097 298.836C515.435 298.852 514.772 298.806 514.118 298.699L514.098 285.626ZM515.602 291.088H516.293C516.601 291.092 516.906 291.033 517.191 290.916C517.475 290.799 517.734 290.626 517.95 290.407C518.166 290.189 518.336 289.928 518.449 289.642C518.562 289.356 518.617 289.05 518.609 288.743C518.609 287.514 518.023 286.565 516.414 286.565C516.14 286.557 515.866 286.59 515.602 286.664V291.088ZM515.602 297.561C515.855 297.616 516.113 297.643 516.373 297.64C517.938 297.64 518.967 296.711 518.967 295.002C518.967 293.161 517.701 292.29 516.276 292.27H515.602V297.561Z" fill="white"/>
<path d="M528.24 293.978C528.24 297.681 526.539 298.927 525.053 298.927C523.332 298.927 521.945 297.365 521.945 293.999C521.945 290.516 523.508 289.05 525.153 289.05C526.865 289.05 528.24 290.654 528.24 293.978ZM523.47 293.978C523.47 295.564 523.745 297.719 525.132 297.719C526.44 297.719 526.715 295.482 526.715 293.978C526.715 292.474 526.44 290.258 525.094 290.258C523.748 290.258 523.461 292.516 523.461 293.978H523.47Z" fill="white"/>
<path d="M529.935 291.663C529.935 290.534 529.876 289.96 529.855 289.188H531.172L531.251 290.361H531.289C531.498 289.96 531.814 289.626 532.202 289.395C532.591 289.164 533.036 289.046 533.488 289.054C534.813 289.054 535.804 290.024 535.804 292.34V298.772H534.279V292.616C534.279 291.469 534.059 290.341 532.951 290.341C532.318 290.341 531.705 290.874 531.526 291.886C531.466 292.175 531.439 292.47 531.447 292.765V298.781H529.923L529.935 291.663Z" fill="white"/>
<path d="M536.33 301.522C536.837 301.438 537.294 301.17 537.614 300.769C537.951 300.255 538.071 299.543 538.071 297.72V289.188H539.596V298.156C539.596 300.176 539.303 301.106 538.626 301.818C538.055 302.359 537.312 302.682 536.527 302.73L536.33 301.522ZM539.734 286.714C539.746 286.84 539.732 286.967 539.692 287.087C539.653 287.207 539.588 287.318 539.503 287.411C539.419 287.505 539.315 287.58 539.199 287.631C539.084 287.683 538.959 287.709 538.832 287.709C538.706 287.709 538.581 287.683 538.465 287.631C538.349 287.58 538.246 287.505 538.161 287.411C538.076 287.318 538.012 287.207 537.972 287.087C537.932 286.967 537.918 286.84 537.931 286.714C537.921 286.588 537.937 286.462 537.979 286.342C538.02 286.223 538.086 286.113 538.171 286.02C538.257 285.927 538.36 285.853 538.476 285.802C538.591 285.751 538.716 285.724 538.842 285.723C539.379 285.723 539.734 286.119 539.734 286.714V286.714Z" fill="white"/>
<path d="M547.554 293.978C547.554 297.681 545.851 298.927 544.367 298.927C542.646 298.927 541.26 297.365 541.26 293.999C541.26 290.516 542.822 289.05 544.467 289.05C546.188 289.05 547.554 290.654 547.554 293.978ZM542.784 293.978C542.784 295.564 543.06 297.719 544.447 297.719C545.754 297.719 546.03 295.482 546.03 293.978C546.03 292.474 545.754 290.258 544.408 290.258C543.063 290.258 542.784 292.516 542.784 293.978V293.978Z" fill="white"/>
<path d="M554.997 296.157C554.997 297.207 555.059 298.057 555.076 298.769H553.745L553.625 297.761H553.587C553.371 298.113 553.07 298.405 552.711 298.61C552.353 298.815 551.948 298.926 551.535 298.933C549.873 298.933 549.189 297.629 549.189 295.251V289.188H550.714V295.028C550.714 296.532 550.951 297.64 551.998 297.64C552.878 297.64 553.285 296.811 553.364 296.374C553.425 296.085 553.451 295.79 553.443 295.494V289.188H554.968L554.997 296.157Z" fill="white"/>
<path d="M557.118 291.663C557.118 290.851 557.06 289.904 557.039 289.188H558.405L558.484 290.713H558.523C558.842 289.801 559.651 289.051 560.542 289.051C560.648 289.046 560.755 289.053 560.859 289.071V290.613H560.542C559.572 290.613 558.86 291.493 558.701 292.595C558.66 292.886 558.641 293.18 558.643 293.474V298.778H557.118V291.663Z" fill="white"/>
<path d="M577.106 429.865C582.488 439.387 589.316 443.098 589.316 443.098L617.83 443.298C617.83 443.298 572.998 422.6 577.106 429.865Z" fill="#233862"/>
<path d="M598.487 503.403C599.226 504.259 599.314 505.212 598.938 506.226C598.246 508.099 595.983 510.181 593.368 512.259C593.034 512.526 592.735 512.77 592.474 512.995C592.407 513.054 592.336 513.113 592.275 513.171L592.119 513.309C589.668 515.534 590.58 516.056 586.177 520.577C581.155 525.73 577.722 525.798 576.748 525.32C575.925 524.91 577.628 522.171 579.504 519.093C579.595 518.944 579.686 518.8 579.78 518.645L580.527 517.407C582.732 513.702 582.187 511.952 581.7 506.408C581.31 501.905 574.875 481.216 574.875 481.216L584.441 479.636C584.441 479.636 587.203 496.094 590.354 498.648C592.04 500.011 593.937 500.04 595.558 501.052C595.672 501.122 595.787 501.195 595.895 501.269C596.851 501.861 597.723 502.578 598.487 503.403V503.403Z" fill="#FFB27D"/>
<path d="M598.486 503.403C599.224 504.259 599.312 505.212 598.937 506.226C598.093 508.097 595.885 510.169 593.349 512.242C593.018 512.512 592.725 512.761 592.47 512.995C592.402 513.054 592.332 513.113 592.27 513.171L592.115 513.309C589.664 515.534 590.576 516.056 586.173 520.577C581.151 525.731 577.718 525.798 576.744 525.32C575.92 524.91 577.624 522.172 579.5 519.093C582.997 517.756 586.079 515.518 588.433 512.606C591.461 508.794 593.499 503.89 595.563 501.052C595.677 501.122 595.791 501.195 595.9 501.269C596.853 501.861 597.723 502.579 598.486 503.403V503.403Z" fill="#233862"/>
<path d="M521.496 496.892C520.886 499.824 516.685 499.316 511.997 498.135C507.309 496.953 508.415 498.326 501.736 497.549C495.058 496.772 493.05 494.253 492.85 493.26C492.675 492.38 495.981 492.087 499.526 491.706C499.972 491.659 500.405 491.606 500.869 491.553C504.87 491.081 507.82 488.519 511.467 486.426C514.923 484.441 520.115 476.297 520.115 476.297L529.276 477.088C529.276 477.088 524.416 484.362 522.534 487.525C521.425 489.387 521.466 491.858 521.59 493.767C521.697 494.808 521.665 495.859 521.496 496.892V496.892Z" fill="#FFB27D"/>
<path d="M511.99 498.135C507.299 496.962 508.407 498.325 501.729 497.548C495.05 496.772 493.042 494.253 492.843 493.259C492.667 492.38 495.974 492.087 499.518 491.706L499.55 491.773C502.401 493.631 505.702 494.682 509.102 494.816C513.637 494.957 518.448 493.693 521.582 493.767C521.69 494.811 521.658 495.865 521.488 496.901C520.878 499.838 516.677 499.316 511.99 498.135Z" fill="#233862"/>
<path d="M557.033 438.525L565.441 461.644L576.415 491.84C578.411 492.002 580.421 491.833 582.363 491.339C585.045 490.585 588.133 488.58 588.133 488.58C588.133 488.58 585.254 456.232 579.59 437.633C578.124 432.858 576.5 428.994 574.679 426.812C565.767 416.124 557.033 438.525 557.033 438.525Z" fill="#233862"/>
<path d="M566.004 401.964C571.632 400.205 587.628 402.63 603.69 405.893L607.097 400.361L641.861 397.895C641.861 397.895 653.145 423.401 646.754 439.554C645.816 441.929 643.529 442.917 640.398 442.946C640.398 442.946 619.662 443.307 612.948 443.26C595.669 443.137 576.467 431.126 573.975 430.607C569.894 429.762 568.205 437.918 564.06 446.467C559.914 455.016 525.4 484.177 525.4 484.177C525.4 484.177 520.123 484.192 517.956 483.362C515.611 482.465 514.77 481.31 514.77 481.31C514.77 481.31 553.315 405.954 566.004 401.964Z" fill="#2B478B"/>
<path d="M607.639 352.518C619.952 359.417 644.962 373.715 645.091 373.627C645.091 373.627 654.294 377.168 659.55 373.729C668.316 367.998 673.103 352.442 657.246 338.913C649.33 332.17 643.696 330.496 642.913 319.804C642.488 314.005 634.704 294.817 621.512 296.494C620.412 296.651 619.301 296.715 618.19 296.688C615.846 296.598 613.525 297.179 611.5 298.362C604.024 302.759 589.111 349.748 607.639 352.518Z" fill="#233862"/>
<path d="M618.048 346.792C617.992 346.825 624.119 348.965 628.238 347.177C632.114 345.497 635.087 339.161 635.028 339.155C633.269 339.065 631.355 337.514 629.939 327.429L629.188 327.693L616.582 332.131C616.582 332.131 617.462 336.177 618.027 340.023C618.493 343.245 618.737 346.341 618.048 346.792Z" fill="#FFB27D"/>
<path d="M616.574 332.122C616.574 332.122 617.114 334.957 617.858 339.006C625.097 337.757 628.146 331.583 629.189 327.684L616.574 332.122Z" fill="#ED975D"/>
<path d="M614.672 336.119C614.672 336.119 631.904 333.929 630.377 323.219C628.849 312.51 630.043 305.014 618.975 305.958C607.908 306.902 606.369 311.293 606 314.993C605.63 318.693 610.151 336.412 614.672 336.119Z" fill="#FFB27D"/>
<path d="M606.666 309.133C606.666 309.133 617.619 318.708 625.109 319.526C632.6 320.343 635.455 317.957 635.455 317.957C632.484 315.262 630.098 311.985 628.445 308.329C628.069 307.47 627.47 306.726 626.711 306.174C625.951 305.623 625.058 305.284 624.124 305.193C618.774 304.682 608.627 304.398 606.666 309.133Z" fill="#233862"/>
<path d="M613.552 308.329C613.552 308.329 609.84 311.868 608.659 314.504C607.521 317.048 607.143 323.149 608.017 325.579C608.017 325.579 602.353 314.369 605.642 308.966C609.154 303.234 613.552 308.329 613.552 308.329Z" fill="#233862"/>
<path d="M603.372 372.049C603.648 406.901 603.319 399.607 607.11 402.952C608.022 403.753 610.602 404.245 613.999 404.494C624.679 405.28 643.474 403.653 644.196 401.683C646.708 394.867 644.984 392.732 647.127 382.284C647.35 381.173 647.623 379.971 647.945 378.66C649.704 371.489 651.396 369.056 645.395 357.47C639.951 346.975 634.281 338.449 633.765 338.751C619.147 347.288 618.027 340.018 618.027 340.018C618.027 340.018 603.237 355.049 603.372 372.049Z" fill="#F9DDBF"/>
<path d="M565.441 461.656L576.415 491.852C578.411 492.015 580.421 491.845 582.363 491.351C585.045 490.598 588.132 488.592 588.132 488.592C588.132 488.592 585.254 456.244 579.59 437.646L565.441 461.656Z" fill="#2B478B"/>
<path d="M618.02 340.015C618.02 340.015 603.027 342.448 601.224 348.883L588.803 393.151C588.803 393.151 596.408 394.573 599.943 391.082C603.479 387.59 612.412 358.54 612.412 358.54L618.02 340.015Z" fill="#F9DDBF"/>
<path d="M614 404.488C624.68 405.274 643.475 403.647 644.196 401.677C646.709 394.861 644.985 392.726 647.128 382.278L642.077 367.728C642.077 367.728 642.815 383.896 638.019 388.115C633.223 392.334 618.447 396.183 616.105 399.716C614.97 401.419 614.223 403.125 614 404.488Z" fill="#F2CCAA"/>
<path d="M626.29 397.783C626.29 397.783 615.765 395.362 614.056 396.285C612.347 397.209 608.169 400.586 607.639 401.767C607.108 402.949 611.432 400.888 612.837 400.53C613.745 400.293 616.129 401.14 617.307 401.542C622.271 403.236 625.326 402.404 625.326 402.404L626.29 397.783Z" fill="#FFB27D"/>
<path d="M633.78 338.743C633.78 338.743 647.929 339.716 652.78 346.585C659.611 356.259 673.009 397.353 665.123 402.765C656.249 408.862 624.918 404.093 624.918 404.093C624.918 404.093 623.909 399.208 625.378 396.857C626.847 394.506 650.47 390.862 651.567 389.78C652.663 388.698 638.104 368.446 638.125 365.178C638.145 361.909 633.78 338.743 633.78 338.743Z" fill="#F9DDBF"/>
<path d="M613.525 399.211C613.525 399.211 611.297 402.043 610.57 402.38C610.204 402.575 609.79 402.66 609.377 402.626L610.884 399.956L613.525 399.211Z" fill="#FFB27D"/>
<path d="M614.055 396.279L607.605 399.352C607.605 399.352 607.875 399.803 608.667 399.771C609.458 399.739 611.458 399.026 611.458 399.026L614.055 396.279Z" fill="#FFB27D"/>
<path d="M611.945 406.983L561.142 406.626L546.129 368.517L596.853 368.874L611.945 406.983Z" fill="#F99746"/>
<path d="M560.559 405.139L627.641 405.614L627.633 407.095L561.142 406.626L560.559 405.139Z" fill="#ED7D2B"/>
<path d="M574.101 387.716C573.728 386.376 574.508 385.3 575.86 385.309C577.211 385.317 578.58 386.411 578.953 387.748C579.325 389.085 578.548 390.164 577.211 390.155C575.874 390.146 574.476 389.052 574.101 387.716Z" fill="white"/>
<path d="M303.199 526.891L303.193 557.577L457.546 557.604L457.552 526.918L303.199 526.891Z" fill="#C65447"/>
<path d="M303.206 557.589L280.515 547.882L267.322 542.239L280.828 536.466L303.212 526.903C303.212 526.903 306.196 534.373 306.243 541.4C306.314 552.427 303.206 557.589 303.206 557.589Z" fill="#FCECDB"/>
<path d="M475.506 537.114V546.815C475.506 548.234 475.227 549.639 474.684 550.95C474.141 552.261 473.345 553.452 472.341 554.455C471.338 555.459 470.146 556.254 468.835 556.797C467.524 557.34 466.119 557.619 464.7 557.618H457.559V526.936H465.322C468.022 526.936 470.611 528.008 472.521 529.916C474.431 531.825 475.505 534.414 475.506 537.114V537.114Z" fill="#FCECDB"/>
<path d="M280.83 536.466C281.389 539.568 281.879 544.317 280.519 547.882L267.326 542.239L280.83 536.466Z" fill="#2B478B"/>
<path d="M336.391 367.139C336.391 367.139 339.155 379.135 347.214 379.135C354.121 379.135 363.6 363.518 363.6 363.518L336.391 367.139Z" fill="#F99746"/>
<path d="M428.917 544.329L423.74 547.891C423.74 547.891 398.821 521.348 392.826 495.903C391.753 491.362 391.319 486.88 391.779 482.632C391.779 482.632 391.415 481.48 390.779 479.442C390.75 479.351 390.724 479.26 390.694 479.169C390.416 478.29 390.081 477.223 389.709 476.033C388.504 472.189 386.845 466.927 384.954 460.937C380.603 447.159 370.647 416.065 366.396 403.136L396.968 392.075C396.968 392.075 400.439 399.991 405.429 421.515C406.197 424.324 406.968 427.431 407.686 430.814C408.501 434.649 409.263 438.841 409.897 443.368C411.084 451.908 411.696 460.518 411.729 469.14C411.747 472.99 411.653 476.982 411.436 481.104C411.269 484.124 411.729 488.14 412.559 492.731C416.399 513.667 428.917 544.329 428.917 544.329Z" fill="#2B478B"/>
<path d="M445.202 557.117H420.488C420.488 557.117 419.565 553.177 421.186 550.492C422.623 548.12 422.066 546.768 421.007 544.804C422.319 545.372 423.742 545.64 425.17 545.587C426.402 545.516 427.703 544.959 428.847 544.294C429.911 545.508 434.467 550.67 435.883 551.694C437.504 552.854 444.707 552.441 445.202 557.117Z" fill="#233862"/>
<path d="M409.897 443.365L390.694 479.167C390.416 478.288 390.082 477.22 389.709 476.03C388.504 472.187 386.845 466.924 384.954 460.935C380.603 447.156 370.647 416.063 366.396 403.134L396.968 392.073C396.968 392.073 400.439 399.988 405.429 421.513C406.197 424.321 406.968 427.429 407.686 430.812C408.501 434.647 409.263 438.839 409.897 443.365Z" fill="#233862"/>
<path d="M365.899 549.381C365.899 549.381 364.187 553.579 365.799 557.117H379.244C379.244 557.117 379.537 553.925 374.644 550.225C370.947 547.422 365.899 549.381 365.899 549.381Z" fill="#233862"/>
<path d="M380.526 276.098C380.526 275.43 380.878 268.215 391.843 267.573C391.843 267.573 386.463 268.347 385.587 270.742C385.587 270.742 389.193 267.722 392.206 268.593C395.22 269.464 397.105 274.662 397.164 276.385C397.222 278.109 395.698 283.715 393.807 284.228C393.052 284.4 392.271 284.42 391.509 284.286C392.07 285.121 392.583 285.987 393.045 286.881C397.639 295.764 393.675 306.23 389.946 305.35C387.554 304.785 386.1 308.933 386.1 308.933L363.092 289.147C363.092 289.147 371.151 271.39 380.526 276.098Z" fill="#2C3A64"/>
<path d="M366.064 336.218C368.615 337.977 371.813 339.443 375.83 340.376C390.881 343.852 396.645 331.132 398.814 322.398C397.242 321.528 395.506 320.995 393.716 320.833C392.628 320.704 391.485 320.619 390.538 320.572C388.847 319.276 386.328 313.979 385.771 305.752L385.062 305.943L373.2 309.191C373.2 309.191 373.745 312.961 374.009 316.52C374.217 319.311 374.25 321.976 373.716 322.627C372.793 322.829 372.25 322.961 372.25 322.961C369.77 327.173 367.698 331.612 366.064 336.218Z" fill="#FFB27D"/>
<path d="M373.201 309.191C373.201 309.191 373.746 312.958 374.01 316.52C380.733 315.848 383.849 309.449 385.066 305.939L373.201 309.191Z" fill="#ED985F"/>
<path d="M373.063 314.853C373.063 314.853 388.536 310.874 385.913 301.276C383.289 291.678 383.517 284.703 373.526 286.834C363.535 288.966 362.626 293.152 362.723 296.571C362.82 299.989 368.97 315.638 373.063 314.853Z" fill="#FFB27D"/>
<path d="M361.721 291.109C363.307 287.57 365.283 287.708 366.529 288.3C373.676 281.358 380.982 286.711 380.982 286.711C383.914 293.313 389.95 295.893 389.95 295.893C389.95 295.893 387.605 298.4 380.689 298.511C378.572 298.546 376.42 297.632 374.453 296.333C376.926 298.655 379.704 300.628 382.712 302.196C373.999 300.745 367.942 290.845 367.32 289.792C366.611 290.895 365.268 293.237 365.189 295.193C365.092 297.846 366.13 302.97 364.603 303.202C364.614 303.196 359.335 296.418 361.721 291.109Z" fill="#2C3A64"/>
<path d="M368.613 322.164C368.613 322.164 394.599 315.855 405.898 325.175L400.251 403.928L349.428 391.65C349.428 391.65 350.858 386.667 360.603 373.415C370.348 360.164 366.118 340.727 368.613 322.164Z" fill="#FFB27D"/>
<path d="M383.761 395.162C383.761 395.162 383.731 395.429 383.678 395.939C383.655 396.156 383.626 396.42 383.593 396.731C383.376 398.783 382.96 402.688 382.421 407.78C381.028 421.137 378.838 442.588 377.346 459.522C376.173 472.761 375.44 483.239 375.839 484.922C377.044 489.985 375.839 550.506 375.839 550.506C371.521 552.579 364.971 550.506 364.971 550.506C364.971 550.506 353.464 495.977 355.077 488.387C356.689 480.797 353.998 474.335 353.998 474.335C345.065 432.732 346.044 409.671 347.818 398.634C348.16 396.351 348.67 394.097 349.345 391.891C349.514 391.326 349.719 390.773 349.958 390.234C369.668 384.934 383.761 395.162 383.761 395.162Z" fill="#2B478B"/>
<path d="M409.4 347.637C408.149 357.113 403.13 368.705 401.335 374.946C401.335 374.946 404.332 396.614 401.473 402.562C401.148 403.24 400.746 403.715 400.254 403.929C389.656 408.546 348.383 404.064 346.642 390.751C346.009 385.913 362.362 368.898 363.315 366.831C363.71 365.978 364.132 363.211 362.215 357.473C359.497 365.852 344.496 363.442 344.496 363.442C346.255 360.431 350.653 339.59 355.543 330.182C359.222 323.111 369.055 322.088 369.055 322.088C369.055 322.088 373.159 328.576 383.042 327.658C392.924 326.74 394.745 320.681 394.745 320.681C394.745 320.681 403.522 321.853 406.225 324.029C406.695 324.404 411.048 335.225 409.4 347.637Z" fill="#F99746"/>
<path d="M401.336 374.945C401.336 374.945 404.332 396.613 401.474 402.562C393.751 398.686 387.665 388.197 389.072 376.523C390.11 367.892 391.652 365.922 396.273 360.985C399.665 357.355 407.513 357.15 406.897 358.877C405.065 364.031 402.283 371.653 401.336 374.945Z" fill="#ED7D2B"/>
<path d="M369.109 349.326L386.804 377.713H356.693L339.836 349.939L369.109 349.326Z" fill="#1C468A"/>
<path d="M385.883 376.289L386.187 375.298L369.442 348.432L369.107 349.326L385.883 376.289Z" fill="#EFDECE"/>
<path d="M369.443 348.432L341.079 349.238L339.836 349.939L369.109 349.326L369.443 348.432Z" fill="#FCECDB"/>
<path d="M339.837 349.938L323.924 341.325L342.473 370.454L356.694 377.713L339.837 349.938Z" fill="#163560"/>
<path d="M424.039 369.832C422.336 370.612 417.959 375.763 416.399 376.282C409.363 378.627 379.498 372.38 379.498 372.38L380.422 367.147C380.422 367.147 409.738 367.924 412.963 367.062C413.57 366.898 416.739 361.943 417.947 361.231L424.039 369.832Z" fill="#FFB27D"/>
<path d="M380.425 367.15C380.425 367.15 376.886 364.271 374.497 364.925C372.107 365.578 368.592 368.598 367.288 369.322C365.983 370.046 362.433 372.597 364.23 374.145C366.027 375.693 371.627 374.362 373.843 373.177C376.059 371.993 379.498 372.395 379.498 372.395L380.425 367.15Z" fill="#FFB27D"/>
<path d="M375.174 364.831C375.174 364.831 370.876 364.318 369.703 364.342C368.531 364.365 368.847 364.635 369.495 365.532C370.143 366.429 372.383 366.792 372.486 367.109C372.588 367.426 375.174 364.831 375.174 364.831Z" fill="#FFB27D"/>
<path d="M394.746 320.677C394.746 320.677 407.493 322.19 411.002 327.655C415.441 334.568 425.913 362.09 425.576 369.026C425.576 369.026 417.918 382.058 391.662 379.97C391.662 379.97 388.93 370.322 394.453 367.138C394.453 367.138 407.939 364.74 409.493 363.371L398.499 343.389L394.746 320.677Z" fill="#F99746"/>
<path d="M343.911 360.317C343.515 358.71 340.015 359.713 338.834 360.636C338.486 360.944 338.184 361.299 337.936 361.692C337.901 361.425 337.869 361.167 337.851 360.964C337.784 360.211 336.907 358.86 336.679 359.871C336.45 360.882 336.092 365.148 336.092 365.148C336.051 368.572 338.25 369.985 339.666 368.871C341.082 367.757 344.307 361.923 343.911 360.317Z" fill="#FFB27D"/>
<path d="M811.76 557.108H8.94309C8.37154 557.108 7.9082 557.572 7.9082 558.143V558.821C7.9082 559.392 8.37154 559.855 8.94309 559.855H811.76C812.331 559.855 812.795 559.392 812.795 558.821V558.143C812.795 557.572 812.331 557.108 811.76 557.108Z" fill="#2E3552"/>
</g>
<defs>
<clipPath id="clip0">
<rect width="797" height="589" fill="white"/>
</clipPath>
</defs>
</svg>
