<svg xmlns="http://www.w3.org/2000/svg" viewBox="0 0 785 590" width="785" height="590">
	<style>
		tspan { white-space:pre }
		.shp0 { fill: #f2f2f2 } 
		.shp1 { opacity: 0.302;fill: #6c63ff } 
		.shp2 { opacity: 0.431;fill-opacity: 0.839;fill: #6c63ff } 
		.shp3 { fill: #2f2e41 } 
		.shp4 { fill: #ffb8b8 } 
		.shp5 { fill: #6c63ff } 
		.shp6 { opacity: 0.102;fill: #000000 } 
		.shp7 { fill: #9f616a } 
	</style>
	<path id="Layer" fill-rule="evenodd" class="shp0" d="M775.67 408.67C774.22 419.81 754.52 462.9 748.21 462.58C626.27 456.44 525.18 466.13 391.27 464.41L58.48 215.26C65.2 215.29 72.26 215.34 79.54 215.41C122.72 215.79 157.19 216.65 157.19 216.65C157.19 216.65 121.14 200.51 93.41 176.77C77.59 163.23 49.55 177.7 28.27 192.64L0 171.48C36.49 116.51 75.46 59.9 127.4 29.64C155.92 13.02 186.05 6.02 213.45 5.49C239.41 4.99 264.73 10.67 279.03 28.67C286.34 37.85 290.22 49.2 292.22 61.83C283.45 56.52 274.09 50.25 265.49 43.3C238.73 21.68 180.64 77.2 180.64 77.2C180.64 77.2 213.97 77.37 254.47 78.18C269.06 78.48 282.57 78.81 293.88 79.12C295.17 107.48 291.09 140 295.11 168.37C301.7 214.81 335.63 251.15 382.08 244.16C405.05 240.7 428.19 227.46 449.96 213.4C460.87 206.35 471.62 199.03 482.18 191.45C492.67 183.93 502.97 176.16 513.07 168.15C523.1 160.2 532.92 152.03 542.53 143.65C552.06 135.32 561.38 126.8 570.46 118.09C587.45 101.78 604.35 84.31 624 76.04C638.85 69.8 654.25 69.35 668.43 71.86C721.94 81.34 759.88 132.56 774.97 193.87C790.63 257.49 785.64 332.3 775.67 408.67ZM656.4 210.8C695.62 211.19 727.03 212.01 727.03 212.01C727.03 212.01 691.69 196.66 662.64 174.07C633.86 151.69 584.49 210.62 584.49 210.62C584.49 210.62 616.92 210.42 656.4 210.8L656.4 210.8Z" />
	<path id="Layer" class="shp1" d="M173 437.74C173 414.35 158.52 395.39 140.66 395.39C129.43 395.39 119.54 402.88 113.74 414.25C113.25 414.09 112.74 413.94 112.23 413.81C111.72 413.68 111.21 413.58 110.69 413.49C110.18 413.41 109.65 413.34 109.13 413.3C108.61 413.26 108.09 413.24 107.56 413.24C106.22 413.26 104.88 413.41 103.56 413.69C102.25 413.97 100.97 414.37 99.73 414.89C98.49 415.41 97.31 416.05 96.19 416.8C95.07 417.55 94.03 418.4 93.08 419.35C87.85 405.17 76.77 395.39 63.93 395.39C51.94 395.39 41.47 403.95 35.89 416.65C35.08 416.1 34.23 415.62 33.34 415.2C32.46 414.77 31.54 414.42 30.61 414.13C29.67 413.84 28.72 413.62 27.75 413.47C26.78 413.32 25.8 413.24 24.82 413.24C11.11 413.24 0 427.79 0 445.74C-0.01 447.24 0.07 448.75 0.23 450.25C0.39 451.75 0.63 453.24 0.96 454.71C1.29 456.18 1.7 457.63 2.19 459.06C2.69 460.48 3.26 461.88 3.91 463.24L166.48 463.24C167.56 461.3 168.52 459.3 169.34 457.24C170.17 455.17 170.86 453.06 171.41 450.91C171.96 448.76 172.36 446.58 172.63 444.38C172.9 442.17 173.02 439.96 173 437.74Z" />
	<path id="Layer" class="shp1" d="M779 437.74C779 414.35 764.52 395.39 746.66 395.39C735.43 395.39 725.54 402.88 719.74 414.25C719.25 414.09 718.74 413.94 718.23 413.81C717.72 413.68 717.21 413.58 716.69 413.49C716.18 413.41 715.65 413.34 715.13 413.3C714.61 413.26 714.09 413.24 713.56 413.24C712.22 413.26 710.88 413.41 709.56 413.69C708.25 413.97 706.97 414.37 705.73 414.89C704.49 415.41 703.31 416.05 702.19 416.8C701.07 417.55 700.03 418.4 699.08 419.35C693.85 405.17 682.77 395.39 669.93 395.39C657.94 395.39 647.47 403.95 641.89 416.65C641.08 416.1 640.23 415.62 639.34 415.2C638.46 414.77 637.54 414.42 636.61 414.13C635.67 413.84 634.72 413.62 633.75 413.47C632.78 413.32 631.8 413.24 630.82 413.24C617.11 413.24 606 427.79 606 445.74C605.99 447.24 606.07 448.75 606.23 450.25C606.39 451.75 606.63 453.24 606.96 454.71C607.29 456.18 607.7 457.63 608.19 459.06C608.69 460.48 609.26 461.88 609.91 463.24L772.48 463.24C773.56 461.3 774.52 459.3 775.34 457.24C776.17 455.17 776.86 453.06 777.41 450.91C777.96 448.76 778.36 446.58 778.63 444.38C778.9 442.17 779.02 439.96 779 437.74Z" />
	<path id="Layer" class="shp2" d="M494 428.48C494 396.31 477.68 370.24 457.54 370.24C444.89 370.24 433.74 380.54 427.21 396.18C426.66 395.95 426.09 395.75 425.52 395.58C424.95 395.4 424.38 395.26 423.79 395.14C423.21 395.02 422.62 394.94 422.02 394.88C421.43 394.82 420.84 394.79 420.24 394.78C414.14 394.78 408.51 397.91 403.91 403.19C398.02 383.69 385.53 370.24 371.07 370.24C357.54 370.24 345.75 382.01 339.46 399.48C338.59 398.75 337.66 398.09 336.68 397.52C335.71 396.94 334.68 396.45 333.62 396.06C332.56 395.66 331.47 395.35 330.35 395.14C329.24 394.92 328.11 394.81 326.98 394.78C311.53 394.78 299 414.8 299 439.48C298.98 441.53 299.06 443.59 299.24 445.63C299.42 447.67 299.69 449.71 300.06 451.73C300.43 453.74 300.9 455.74 301.46 457.72C302.01 459.69 302.67 461.64 303.41 463.55L486.65 463.55C491.26 453.79 494 441.65 494 428.48Z" />
	<path id="Layer" class="shp3" d="M927 589.24L-71 589.24L-71 587.24L926 587.24L927 589.24L927 589.24Z" />
	<path id="Layer" class="shp3" d="M845 465.24L-153 465.24L-153 463.24L844 463.24L845 465.24L845 465.24Z" />
	<path id="Layer" class="shp4" d="M270.63 281.14C270.63 281.14 276.92 235.04 287.39 247.61C297.87 260.19 287.39 279.04 287.39 279.04L279.01 289.52L270.63 283.23L270.63 281.14Z" />
	<path id="Layer" class="shp5" d="M245.49 295.8C245.49 295.8 266.44 272.76 270.63 276.95C274.82 281.14 287.39 283.23 285.3 291.61C283.2 299.99 239.2 327.23 239.2 327.23L245.49 295.8Z" />
	<path id="Layer" class="shp6" d="M245.49 295.8C245.49 295.8 266.44 272.76 270.63 276.95C274.82 281.14 287.39 283.23 285.3 291.61C283.2 299.99 239.2 327.23 239.2 327.23L245.49 295.8Z" />
	<path id="Layer" class="shp4" d="M126.06 293.71L126.06 310.47C126.06 310.47 123.97 348.18 136.54 346.09C149.11 343.99 142.82 312.56 142.82 312.56L140.73 293.71L126.06 293.71Z" />
	<path id="Layer" class="shp4" d="M132.35 415.23C132.35 415.23 113.49 444.56 107.21 446.65C100.92 448.75 67.4 467.61 63.21 486.46L33.88 524.18L48.54 543.03C48.54 543.03 115.59 471.8 134.44 465.51C153.3 459.23 172.16 427.8 172.16 427.8L132.35 415.23Z" />
	<path id="Layer" class="shp4" d="M281.11 367.04C281.11 367.04 320.91 373.32 314.63 398.47C308.34 423.61 247.58 475.99 247.58 475.99L245.49 488.56L222.44 492.75L211.97 482.27L214.06 475.99C214.06 475.99 239.2 452.94 241.3 444.56C243.39 436.18 266.44 402.66 276.92 400.56L262.25 392.18L281.11 367.04Z" />
	<path id="Layer" class="shp3" d="M40.16 524.18C40.16 524.18 48.54 511.6 35.97 513.7C23.4 515.79 15.02 517.89 15.02 526.27C15.02 534.65 25.5 593.32 38.07 589.13C50.64 584.93 40.16 566.08 40.16 566.08C40.16 566.08 46.45 549.32 50.64 547.22C54.83 545.13 54.83 534.65 50.64 534.65C46.45 534.65 38.07 528.37 40.16 524.18Z" />
	<path id="Layer" class="shp3" d="M218.25 478.08C218.25 478.08 218.25 467.61 209.87 478.08C201.49 488.56 197.3 496.94 205.68 503.22C214.06 509.51 243.39 524.18 243.39 524.18C243.39 524.18 274.82 530.46 270.63 515.79C270.63 515.79 249.68 505.32 249.68 496.94C249.68 488.56 249.68 473.89 243.39 478.08C237.11 482.27 218.25 484.37 218.25 478.08Z" />
	<path id="Layer" class="shp3" d="M178.44 320.94C178.44 320.94 149.11 325.14 151.21 367.04C151.21 367.04 113.49 404.75 123.97 417.32C134.44 429.89 157.49 452.94 165.87 446.65C174.25 440.37 199.39 392.18 199.39 392.18C199.39 392.18 258.06 413.13 268.53 402.66C279.01 392.18 289.49 367.04 289.49 367.04L237.11 339.8L178.44 320.94Z" />
	<path id="Layer" class="shp4" d="M260.15 201.52C246.25 201.52 235.01 190.28 235.01 176.38C235.01 162.48 246.25 151.24 260.15 151.24C274.06 151.24 285.3 162.48 285.3 176.38C285.3 190.28 274.06 201.52 260.15 201.52Z" />
	<path id="Layer" class="shp4" d="M241.3 178.47C241.3 178.47 226.63 201.52 222.44 203.62C218.25 205.71 251.77 226.66 251.77 226.66C251.77 226.66 251.77 199.43 262.25 193.14L241.3 178.47Z" />
	<path id="Layer" class="shp5" d="M239.2 201.52C239.2 201.52 205.68 191.04 199.39 207.81C193.11 224.57 178.44 255.99 180.54 276.95C182.63 297.9 186.82 293.71 180.54 299.99C174.25 306.28 170.06 302.09 172.16 310.47C174.25 318.85 176.35 318.85 174.25 323.04C172.16 327.23 199.39 341.9 222.44 343.99L245.49 346.09C245.49 346.09 245.49 308.37 249.68 299.99C253.87 291.61 262.25 274.85 262.25 268.57L262.25 251.93C262.25 249.18 262.07 246.43 261.71 243.7C261.36 240.97 260.82 238.27 260.12 235.61C259.41 232.95 258.53 230.34 257.49 227.79C256.44 225.24 255.23 222.77 253.87 220.38L253.87 220.38C253.87 220.38 241.3 201.52 239.2 201.52Z" />
	<path id="Layer" class="shp5" d="M214.06 209.9C214.06 209.9 136.54 216.19 128.16 237.14C119.78 258.09 115.59 299.99 123.97 299.99C132.35 299.99 142.82 304.18 144.92 299.99C147.02 295.8 155.4 253.9 157.49 253.9C159.59 253.9 222.44 247.61 222.44 247.61C222.44 247.61 249.68 214.09 214.06 209.9Z" />
	<path id="Layer" class="shp3" d="M261.16 170.15C261.16 170.15 267.84 158.55 276.18 168.62C284.52 178.69 298.08 160.19 296 156.24C293.92 152.29 286.56 156.41 273.96 152.29C261.35 148.17 237.07 139.78 233.01 167.16C228.94 194.54 238.63 191.67 238.63 191.67C238.63 191.67 243.06 167.41 247.08 174.38L251.09 181.35L254.57 182.2L261.16 170.15Z" />
	<path id="Layer" class="shp3" d="M498.31 105.99C481.35 105.99 467.63 92.28 467.63 75.31C467.63 58.35 481.35 44.64 498.31 44.64C515.27 44.64 528.98 58.35 528.98 75.31C528.98 92.28 515.27 105.99 498.31 105.99Z" />
	<path id="Layer" class="shp7" d="M488.5 98.02C488.5 98.02 490.09 126.59 486.92 126.59C483.74 126.59 506.76 140.08 506.76 140.08L521.04 132.15L521.04 122.62C521.04 122.62 502 120.24 509.93 99.61C517.87 78.97 488.5 98.02 488.5 98.02Z" />
	<path id="Layer" class="shp7" d="M421.84 411.52L419.45 435.33L427.39 437.71L433.74 431.36L436.12 411.52L421.84 411.52L421.84 411.52Z" />
	<path id="Layer" class="shp7" d="M536.12 425.01L540.09 440.09L551.2 447.23L563.11 440.88L549.62 418.66L536.12 425.01L536.12 425.01Z" />
	<path id="Layer" class="shp7" d="M496.04 110.32C483.32 110.32 473.03 100.03 473.03 87.3C473.03 74.58 483.32 64.29 496.04 64.29C508.77 64.29 519.06 74.58 519.06 87.3C519.06 100.03 508.77 110.32 496.04 110.32Z" />
	<path id="Layer" class="shp7" d="M482.15 173.42L476.6 171.04C476.6 171.04 467.07 165.48 466.28 154.37C465.49 143.26 474.22 128.97 474.22 128.97L486.92 125L501.84 137.15L502 156.75L482.15 173.42Z" />
	<path id="Layer" class="shp7" d="M476.6 130.56L473.42 128.97C473.42 128.97 457.55 128.18 455.96 147.23C454.38 166.27 448.82 198.02 448.82 198.02C448.82 198.02 436.12 220.24 436.92 244.05L430.57 264.69C430.57 264.69 421.84 294.85 432.15 294.85C442.47 294.85 441.68 262.31 441.68 262.31C441.68 262.31 460.73 216.27 462.31 208.34C463.9 200.4 477.39 163.1 473.42 152.78C469.46 142.46 476.6 130.56 476.6 130.56Z" />
	<path id="Layer" class="shp7" d="M488.5 180.56L488.5 189.29C488.5 189.29 494.06 195.64 491.68 199.61C489.3 203.58 486.92 211.51 486.92 211.51L498.03 228.97L535.33 232.15L542.75 182.45L488.5 180.56Z" />
	<path id="Layer" class="shp7" d="M523.43 125L529.77 121.83C529.77 121.83 543.27 112.3 554.38 110.72L588.51 87.7L610.73 34.52C610.73 34.52 609.93 5.95 616.28 9.13C622.63 12.3 621.84 36.91 621.84 36.91C621.84 36.91 609.94 86.11 599.62 99.61C589.3 113.1 552 135.32 552 135.32C552 135.32 541.68 147.23 542.47 152.78C543.27 158.34 523.43 125 523.43 125Z" />
	<path id="Layer" class="shp3" d="M494.06 211.51C494.06 211.51 485.33 205.96 479.77 215.48C474.22 225.01 463.9 227.39 457.55 255.96C451.2 284.53 436.12 329.77 432.15 332.94C428.18 336.12 411.52 369.45 421.04 416.28L436.92 416.28L450.41 348.82C450.41 348.82 494.06 294.85 497.23 272.63L511.52 355.96C511.52 355.96 512.31 387.71 524.22 402.79L536.92 432.95L553.58 425.01L534.54 348.82C534.54 348.82 544.06 271.83 537.71 250.4L536.8 222.31C536.8 222.31 510.73 223.42 494.06 211.51Z" />
	<path id="Layer" class="shp3" d="M427.39 431.36L417.87 431.36C416.28 431.36 403.58 441.68 409.14 447.23C414.69 452.79 423.42 463.11 423.42 463.11C423.42 463.11 454.38 467.04 455.17 461.49C455.96 455.93 441.68 444.06 441.68 444.06L437.71 431.36C437.71 431.36 429.77 422.63 427.39 431.36Z" />
	<path id="Layer" class="shp3" d="M553.58 439.3C553.58 439.3 540.09 438.5 537.71 437.71C535.33 436.91 530.57 458.34 537.71 459.93C544.85 461.52 574.22 463.9 574.22 463.9C574.22 463.9 597.24 463.11 595.65 456.76C594.06 450.41 563.11 437.71 563.11 437.71C563.11 437.71 559.14 429.77 553.58 439.3Z" />
	<path id="Layer" class="shp5" d="M490.88 124.21L486.92 121.83L482.15 125.8C482.15 125.8 496.44 135.32 493.27 144.05C490.09 152.78 476.6 171.04 476.6 171.04C476.6 171.04 488.5 184.53 488.5 189.29C488.5 189.29 519.46 178.18 542.47 189.29C542.47 189.29 542.47 173.42 545.65 170.24C548.82 167.07 550.41 155.96 542.47 146.43C541.08 144.68 539.71 142.9 538.38 141.1C537.06 139.3 535.76 137.47 534.5 135.61C533.25 133.76 532.02 131.88 530.84 129.98C529.65 128.08 528.5 126.15 527.39 124.21L519.46 119.45L515.37 120.74C515.37 120.74 523.43 129.76 515.49 130.56C507.55 131.35 494.85 128.97 490.88 124.21Z" />
	<path id="Layer" class="shp3" d="M520.73 23.02C520.06 23.76 519.33 24.45 518.54 25.06C517.75 25.67 516.91 26.22 516.02 26.68C515.13 27.14 514.21 27.53 513.25 27.83C512.3 28.13 511.32 28.34 510.33 28.46C503.39 29.45 508.84 40.35 508.84 40.35C508.84 40.35 506.86 36.39 510.82 32.92C514.78 29.45 520.73 27.47 520.73 23.02Z" />
	<path id="Layer" class="shp3" d="M507.36 51.18C502.63 51.18 498.81 47.36 498.81 42.63C498.81 37.9 502.63 34.08 507.36 34.08C512.09 34.08 515.91 37.9 515.91 42.63C515.91 47.36 512.09 51.18 507.36 51.18Z" />
	<path id="Layer" class="shp5" d="M517.34 51.05C510.74 47.6 499.37 44.88 493.34 45.08L494.87 39.24C500.21 42.87 511.51 45.63 518.87 45.21L517.34 51.05Z" />
	<path id="Layer" class="shp3" d="M503.7 51.56C503.7 51.56 493.29 64.94 472.48 67.91C451.66 70.89 468.02 103.59 468.02 103.59C468.02 103.59 462.07 91.7 473.96 81.29C485.86 70.89 503.7 64.94 503.7 51.56Z" />
	<path id="Layer" class="shp3" d="M504.49 50.77C504.49 50.77 510.44 71.58 519.36 74.55C528.28 77.53 523.82 108.75 508.95 111.72C508.95 111.72 521.59 94.62 514.15 81.24C506.72 67.86 502.26 57.46 504.49 50.77Z" />
	<path id="Layer" class="shp3" d="M589.7 15.87L644.46 15.87L644.46 22.22L589.7 22.22L589.7 15.87Z" />
	<path id="Layer" class="shp3" d="M644.46 38.1C641.83 38.1 639.7 29.58 639.7 19.05C639.7 8.51 641.83 0 644.46 0C647.09 0 649.22 8.51 649.22 19.05C649.22 29.58 647.09 38.1 644.46 38.1Z" />
	<path id="Layer" class="shp3" d="M589.7 38.1C587.06 38.1 584.93 29.58 584.93 19.05C584.93 8.51 587.06 0 589.7 0C592.33 0 594.46 8.51 594.46 19.05C594.46 29.58 592.33 38.1 589.7 38.1Z" />
	<path id="Layer" class="shp3" d="M617.47 442.88L672.24 442.88L672.24 449.23L617.47 449.23L617.47 442.88Z" />
	<path id="Layer" class="shp3" d="M672.24 465.11C669.6 465.11 667.48 456.59 667.48 446.06C667.48 435.52 669.6 427.01 672.24 427.01C674.87 427.01 677 435.52 677 446.06C677 456.59 674.87 465.11 672.24 465.11Z" />
	<path id="Layer" class="shp3" d="M617.47 465.11C614.84 465.11 612.71 456.59 612.71 446.06C612.71 435.52 614.84 427.01 617.47 427.01C620.11 427.01 622.24 435.52 622.24 446.06C622.24 456.59 620.11 465.11 617.47 465.11Z" />
</svg>