<svg xmlns="http://www.w3.org/2000/svg" width="606" height="294" viewBox="0 0 606 294">
  <defs>
    <style>
      .cls-1 {
        fill-rule: evenodd;
      }
    </style>
  </defs>
  <path id="ig_d_20" fill="#ffffff" data-name="ig d 20" class="cls-1" d="M23.99,47.257c13.63,0,23.49-9.57,23.49-23.2S37.62,0.568,23.99.568,0.5,10.428.5,24.057,10.361,47.257,23.99,47.257ZM4.271,229.082H43.71V72.776H4.271V229.082ZM181.456,72.776l-0.87,23.489c-11.019-16.53-28.419-26.389-52.488-26.389-42.339,0-74.819,31.9-74.819,80.328,0,49.009,32.479,81.778,74.819,81.778,23.779,0,40.889-9.569,51.908-25.519v54.229H61.689v32.189H219.445V72.776H181.456ZM137.087,198.053c-25.809,0-42.919-18.849-42.919-47.559,0-28.129,17.11-46.979,42.919-46.979,25.52,0,42.919,18.85,42.919,47.269S162.607,198.053,137.087,198.053ZM390.543,2.888V95.4c-11.02-15.95-28.13-25.52-51.909-25.52-42.339,0-74.819,32.769-74.819,81.778,0,48.139,32.48,80.328,74.819,80.328,24.069,0,41.469-9.859,52.489-26.389l0.87,23.489h37.989V2.888H390.543ZM347.624,198.053c-25.81,0-42.919-18.849-42.919-46.979,0-28.419,17.109-47.559,42.919-47.559,25.519,0,42.919,19.14,42.919,47.269C390.543,179.2,373.143,198.053,347.624,198.053ZM490.444,82.469h51.227V70.3l-31.953.169,13.694-14.371c10.313-10.482,17.245-19.1,17.245-29.418,0-12.173-9.806-20.288-24.515-20.288-14.878,0-24.853,8.792-24.853,21.979l15.047,1.183c0-6.424,3.889-10.989,10.144-10.989,5.579,0,9.3,3.55,9.3,9.13,0,7.608-8.453,16.061-12.173,20.288L490.444,73v9.468Zm86.225,1.014c16.906,0,28.4-15.385,28.4-38.547s-11.5-38.547-28.4-38.547c-17.414,0-28.911,15.385-28.911,38.547S559.255,83.483,576.669,83.483Zm0-12.173c-8.116,0-13.695-10.651-13.695-26.375s5.579-26.374,13.695-26.374,13.525,10.651,13.525,26.374S584.784,71.31,576.669,71.31Z"/>
</svg>
