<svg height="361pt" viewBox="-4 0 361 361.81333" width="361pt" xmlns="http://www.w3.org/2000/svg"><path d="m353.964844 143.359375c0-36.851563-29.984375-66.835937-66.839844-66.835937-8.195312 0-16.019531 1.554687-23.28125 4.269531-18.796875-22.527344-44.214844-37.734375-72.289062-43.746094v-6.328125c0-16.9375-13.78125-30.71875-30.722657-30.71875-16.9375 0-30.71875 13.78125-30.71875 30.71875v8.125c-54.988281 15.039062-95.574219 65.304688-95.574219 124.996094v102.398437h-3.414062c-16.9375 0-30.71875 13.78125-30.71875 30.722657 0 16.9375 13.78125 30.71875 30.71875 30.71875h93.390625c4.621094 19.832031 22.15625 34.132812 43.144531 34.132812 20.988282 0 38.527344-14.300781 43.144532-34.132812h86.5625c16.941406 0 30.71875-13.78125 30.71875-30.71875 0-16.941407-13.777344-30.722657-30.71875-30.722657h-3.414063v-56.386719c33.660156-3.433593 60.011719-31.941406 60.011719-66.492187zm-13.652344 0c0 29.328125-23.859375 53.183594-53.1875 53.183594-29.324219 0-53.183594-23.855469-53.183594-53.183594s23.859375-53.183594 53.183594-53.183594c29.328125 0 53.1875 23.855469 53.1875 53.183594zm-196.546875-112.640625c0-9.410156 7.652344-17.066406 17.066406-17.066406 9.414063 0 17.066407 7.65625 17.066407 17.066406v4.148438c-4.507813-.472657-9.0625-.734376-13.652344-.734376-6.984375 0-13.789063.710938-20.480469 1.777344zm23.894531 317.441406c-13.378906 0-24.65625-8.4375-28.875-20.480468h57.75c-4.21875 12.042968-15.496094 20.480468-28.875 20.480468zm129.707032-68.265625c9.414062 0 17.066406 7.65625 17.066406 17.066407 0 9.410156-7.652344 17.066406-17.066406 17.066406h-266.242188c-9.414062 0-17.066406-7.65625-17.066406-17.066406 0-9.410157 7.652344-17.066407 17.066406-17.066407h10.242188c3.773437 0 6.824218-3.058593 6.824218-6.828125v-109.226562c0-63.992188 52.0625-116.054688 116.054688-116.054688 33.46875 0 64.816406 14.363282 86.882812 39.351563-18.519531 11.894531-30.84375 32.628906-30.84375 56.222656 0 34.550781 26.355469 63.058594 60.011719 66.492187v63.214844c0 3.769532 3.054687 6.828125 6.828125 6.828125zm0 0"/><path d="m268.859375 168.449219c1.746094 0 3.496094-.667969 4.828125-2l18.265625-18.261719c1.28125-1.28125 2-3.019531 2-4.828125v-26.09375c0-3.769531-3.054687-6.824219-6.828125-6.824219s-6.824219 3.054688-6.824219 6.824219v23.269531l-16.265625 16.261719c-2.667968 2.664063-2.667968 6.988281 0 9.652344 1.332032 1.335937 3.078125 2 4.824219 2zm0 0"/><path d="m184.726562 266.238281h-13.652343c-3.773438 0-6.828125 3.058594-6.828125 6.828125 0 3.769532 3.054687 6.828125 6.828125 6.828125h13.652343c3.773438 0 6.828126-3.058593 6.828126-6.828125 0-3.769531-3.054688-6.828125-6.828126-6.828125zm0 0"/><path d="m146.039062 266.238281h-70.539062c-3.773438 0-6.828125 3.058594-6.828125 6.828125 0 3.769532 3.054687 6.828125 6.828125 6.828125h70.539062c3.773438 0 6.828126-3.058593 6.828126-6.828125 0-3.769531-3.054688-6.828125-6.828126-6.828125zm0 0"/></svg>