<svg id="Outline" height="512" viewBox="0 0 512 512" width="512" xmlns="http://www.w3.org/2000/svg"><path d="m64 392v-296h352v184h16v-232a32.036 32.036 0 0 0 -32-32h-320a32.036 32.036 0 0 0 -32 32v344a32.036 32.036 0 0 0 32 32h192v-16h-192a16.019 16.019 0 0 1 -16-16zm16-360h320a16.019 16.019 0 0 1 16 16v32h-352v-32a16.019 16.019 0 0 1 16-16z"/><path d="m80 48h16v16h-16z"/><path d="m112 48h16v16h-16z"/><path d="m144 48h16v16h-16z"/><path d="m472 344h-25.965l-8.507-29.772a32.036 32.036 0 0 0 -35.759-22.817l-116.453 18.389a25.239 25.239 0 0 0 -19.552 34.2h-17.764a8.005 8.005 0 0 0 -4.438 1.344l-21.984 14.656h-13.578v16h13.578l21.984 14.656a8.005 8.005 0 0 0 4.438 1.344h36.686l19.448 19.447a43.214 43.214 0 0 0 27.178 36.894l12.688 5.075v42.584h16v-48a8 8 0 0 0 -5.028-7.428l-17.718-7.087a27.315 27.315 0 0 1 -17.254-25.485 8 8 0 0 0 -2.343-5.657l-27.029-27.03a8.97 8.97 0 0 1 6.343-15.313h3.023a9.008 9.008 0 0 1 4.011.947l59.256 29.628 23.082 23.082 11.314-11.314-10.343-10.343h44.686v104h16v-104h24a24 24 0 0 0 0-48zm-233.578 24 12-8h23.251a24.994 24.994 0 0 0 -.67 16h-22.581zm58.549-24h-7.716a9.255 9.255 0 0 1 -1.443-18.4l116.453-18.387a16.007 16.007 0 0 1 17.879 11.408l7.25 25.379h-42.08l10.343-10.343-11.314-11.314-21.656 21.657zm72.918 32-32-16h110.111v16zm102.111 0h-8v-16h8a8 8 0 0 1 0 16z"/><path d="m232 256v-128a8 8 0 0 0 -8-8h-128a8 8 0 0 0 -8 8v128a8 8 0 0 0 8 8h128a8 8 0 0 0 8-8zm-72-40a24.028 24.028 0 0 1 24 24v8h-48v-8a24.028 24.028 0 0 1 24-24zm-16-32a16 16 0 1 1 16 16 16.019 16.019 0 0 1 -16-16zm72 64h-16v-8a39.994 39.994 0 0 0 -17.632-33.146 32 32 0 1 0 -44.736 0 39.994 39.994 0 0 0 -17.632 33.146v8h-16v-112h112z"/><path d="m128 280h96v16h-96z"/><path d="m96 280h16v16h-16z"/><path d="m296 136h96v16h-96z"/><path d="m264 168h128v16h-128z"/><path d="m264 200h128v16h-128z"/><path d="m264 232h128v16h-128z"/><path d="m264 136h16v16h-16z"/><path d="m448 56h16v160h-16z"/><path d="m448 232h16v16h-16z"/><path d="m91.61 345.435-11.038 27.594 14.856 5.942 9.384-23.459 4.993 9.987a14 14 0 0 0 20.288 5.387l12.887-8.592 9.605 9.605a13.907 13.907 0 0 0 9.9 4.1h29.515v-15.999h-28.687l-10.177-10.179a14.037 14.037 0 0 0 -17.666-1.749l-12.37 8.244-5.972-11.944a14 14 0 0 0 -25.521 1.063z"/></svg>