<svg xmlns="http://www.w3.org/2000/svg" viewBox="0 0 512 512" width="512" height="512">
	<style>
		tspan { white-space:pre }
		.shp0 { fill: #ffffff } 
	</style>
	<g id="Layer">
		<g id="Layer">
			<path id="Layer" class="shp0" d="M506.13 241.84C506.13 241.84 506.12 241.83 506.12 241.82L401.61 137.82C393.78 130.03 381.12 130.06 373.33 137.89C365.54 145.72 365.56 158.38 373.39 166.18L443.56 236L20 236C8.95 236 0 244.95 0 256C0 267.05 8.95 276 20 276L443.56 276L373.39 345.82C365.57 353.62 365.54 366.28 373.33 374.11C381.12 381.94 393.78 381.97 401.61 374.18L506.12 270.18C506.12 270.17 506.13 270.16 506.13 270.16C513.97 262.34 513.94 249.63 506.13 241.84Z" />
		</g>
	</g>
	<g id="Layer">
	</g>
	<g id="Layer">
	</g>
	<g id="Layer">
	</g>
	<g id="Layer">
	</g>
	<g id="Layer">
	</g>
	<g id="Layer">
	</g>
	<g id="Layer">
	</g>
	<g id="Layer">
	</g>
	<g id="Layer">
	</g>
	<g id="Layer">
	</g>
	<g id="Layer">
	</g>
	<g id="Layer">
	</g>
	<g id="Layer">
	</g>
	<g id="Layer">
	</g>
	<g id="Layer">
	</g>
</svg>